M48
;DRILL file {KiCad (5.0.0)} date 07/14/19 20:38:42
;FORMAT={2:4/ absolute / inch / keep zeros}
FMAT,2
INCH,TZ
T1C0.0118
T2C0.0197
T3C0.0217
T4C0.0315
T5C0.0394
T6C0.0472
T7C0.0512
T8C0.0591
T9C0.1260
%
G90
G05
M72
T1
X020276Y-021122
X021339Y-019488
X022126Y-021142
X022283Y-019813
X022874Y-021063
X023317Y-020551
X023819Y-021063
X026004Y-028228
X026004Y-030039
X026752Y-028917
X026988Y-029085
X027244Y-028917
X028130Y-031417
X029469Y-034717
X029469Y-037244
X029724Y-031929
X029724Y-032382
X029961Y-032126
X030020Y-032657
X030234Y-034944
X030354Y-036841
X030886Y-030492
X030886Y-032854
X031083Y-035472
X031240Y-030138
X031319Y-033799
X031627Y-034791
X031634Y-033799
X031811Y-019291
X031821Y-034986
X032441Y-035482
X032971Y-036663
X032972Y-034862
X033206Y-036486
X033209Y-035030
X033445Y-034843
X033445Y-036063
X033484Y-043504
X033494Y-025492
X033809Y-025492
X033917Y-018996
X034193Y-033799
X034528Y-018543
X034547Y-030492
X034951Y-026289
X035000Y-022638
X035346Y-026204
X035610Y-036161
X035610Y-033051
X035837Y-034783
X035837Y-036341
X035925Y-032717
X036063Y-033287
X036063Y-036150
X036194Y-027532
X036356Y-032163
X036398Y-041831
X036434Y-027292
X037323Y-019783
X038455Y-028711
X038543Y-029114
X038976Y-030315
X039213Y-029469
X039469Y-019646
X040630Y-039646
X043563Y-033248
X043760Y-026752
X043976Y-033681
T2
X018957Y-021063
X020591Y-020906
X021220Y-024665
X021220Y-026240
X021240Y-022992
X021791Y-020571
X025650Y-020039
X026240Y-019370
X026358Y-030787
X026673Y-024823
X027264Y-025453
X028091Y-025374
X028189Y-022205
X028406Y-041831
X029114Y-031398
X031201Y-029193
X032047Y-027067
X033228Y-045354
X033996Y-034724
X035315Y-042677
X035492Y-030591
X036654Y-023209
X037657Y-022008
X038976Y-038346
X039469Y-018681
X039567Y-034449
X040689Y-037480
X041201Y-029469
X041773Y-033249
X041890Y-038563
X041909Y-039370
X042697Y-029469
X043799Y-027618
X043957Y-039626
X043976Y-032598
T4
X021850Y-042126
X023819Y-042126
T5
X041882Y-020866
X041882Y-021866
X042882Y-020866
X042882Y-021866
X043882Y-020866
X043882Y-021866
X044882Y-020866
X044882Y-021866
X015945Y-021654
X016945Y-021654
X017945Y-021654
X017598Y-029291
X017598Y-030984
X020295Y-029291
X020295Y-030984
X029496Y-024232
X030496Y-024232
X031496Y-024232
X032496Y-024232
X033496Y-024232
X034496Y-024232
X035496Y-024232
X036496Y-024232
X029496Y-040059
X030496Y-040059
X031496Y-040059
X032496Y-040059
X033496Y-040059
X034496Y-040059
X035496Y-040059
X036496Y-040059
T6
X033681Y-017087
X035059Y-017087
X023543Y-017087
X024921Y-017087
X026299Y-017087
X027677Y-017087
X034626Y-044685
X036004Y-044685
T7
X017898Y-037953
X018898Y-037953
X019898Y-037953
X022638Y-033213
X022638Y-034213
X022638Y-035213
T8
X015866Y-031299
X015866Y-037126
X021929Y-031299
X021929Y-037146
T9
X044094Y-044094
X017323Y-017323
X044094Y-017323
X017323Y-044094
T2
X045640Y-038760G85X045896Y-038760
G05
X045640Y-041516G85X045896Y-041516
G05
X045679Y-031732G85X045935Y-031732
G05
X045679Y-034488G85X045935Y-034488
G05
T3
X044705Y-039183G85X044705Y-039124
G05
X044705Y-041152G85X044705Y-041093
G05
X044744Y-032156G85X044744Y-032096
G05
X044744Y-034124G85X044744Y-034065
G05
T0
M30
