G04 #@! TF.GenerationSoftware,KiCad,Pcbnew,(5.0.0)*
G04 #@! TF.CreationDate,2019-07-14T20:37:54+10:00*
G04 #@! TF.ProjectId,reflow-oven-rev-001,7265666C6F772D6F76656E2D7265762D,A*
G04 #@! TF.SameCoordinates,Original*
G04 #@! TF.FileFunction,Soldermask,Bot*
G04 #@! TF.FilePolarity,Negative*
%FSLAX46Y46*%
G04 Gerber Fmt 4.6, Leading zero omitted, Abs format (unit mm)*
G04 Created by KiCad (PCBNEW (5.0.0)) date 07/14/19 20:37:54*
%MOMM*%
%LPD*%
G01*
G04 APERTURE LIST*
%ADD10O,1.852400X1.852400*%
%ADD11R,1.852400X1.852400*%
%ADD12C,6.552400*%
%ADD13O,1.202400X1.352400*%
%ADD14O,1.802400X1.152400*%
%ADD15O,1.852400X2.452400*%
%ADD16C,1.952400*%
%ADD17C,0.150000*%
%ADD18C,1.302400*%
%ADD19C,2.052400*%
%ADD20C,2.252400*%
%ADD21C,1.752400*%
G04 APERTURE END LIST*
D10*
G04 #@! TO.C,J111*
X74920000Y-101750000D03*
X77460000Y-101750000D03*
X80000000Y-101750000D03*
X82540000Y-101750000D03*
X85080000Y-101750000D03*
X87620000Y-101750000D03*
X90160000Y-101750000D03*
D11*
X92700000Y-101750000D03*
G04 #@! TD*
G04 #@! TO.C,J110*
X92700000Y-61550000D03*
D10*
X90160000Y-61550000D03*
X87620000Y-61550000D03*
X85080000Y-61550000D03*
X82540000Y-61550000D03*
X80000000Y-61550000D03*
X77460000Y-61550000D03*
X74920000Y-61550000D03*
G04 #@! TD*
D12*
G04 #@! TO.C,MH104*
X112000000Y-112000000D03*
G04 #@! TD*
G04 #@! TO.C,MH101*
X112000000Y-44000000D03*
G04 #@! TD*
G04 #@! TO.C,MH103*
X44000000Y-112000000D03*
G04 #@! TD*
G04 #@! TO.C,MH102*
X44000000Y-44000000D03*
G04 #@! TD*
D13*
G04 #@! TO.C,J112*
X113550000Y-104450000D03*
X113550000Y-99450000D03*
D14*
X116250000Y-105450000D03*
X116250000Y-98450000D03*
G04 #@! TD*
D11*
G04 #@! TO.C,J107*
X114000000Y-53000000D03*
D10*
X114000000Y-55540000D03*
X111460000Y-53000000D03*
X111460000Y-55540000D03*
X108920000Y-53000000D03*
X108920000Y-55540000D03*
X106380000Y-53000000D03*
X106380000Y-55540000D03*
G04 #@! TD*
D14*
G04 #@! TO.C,J109*
X116350000Y-80600000D03*
X116350000Y-87600000D03*
D13*
X113650000Y-81600000D03*
X113650000Y-86600000D03*
G04 #@! TD*
D15*
G04 #@! TO.C,J104*
X89050000Y-43400000D03*
X85550000Y-43400000D03*
G04 #@! TD*
G04 #@! TO.C,J106*
X87950000Y-113500000D03*
X91450000Y-113500000D03*
G04 #@! TD*
G04 #@! TO.C,J101*
X70300000Y-43400000D03*
X66800000Y-43400000D03*
X63300000Y-43400000D03*
X59800000Y-43400000D03*
G04 #@! TD*
D16*
G04 #@! TO.C,BZ101*
X60500000Y-107000000D03*
X55500000Y-107000000D03*
G04 #@! TD*
D17*
G04 #@! TO.C,C101*
G36*
X84670822Y-46025163D02*
X84698306Y-46029240D01*
X84725258Y-46035991D01*
X84751419Y-46045352D01*
X84776537Y-46057232D01*
X84800369Y-46071516D01*
X84822686Y-46088068D01*
X84843273Y-46106727D01*
X84861932Y-46127314D01*
X84878484Y-46149631D01*
X84892768Y-46173463D01*
X84904648Y-46198581D01*
X84914009Y-46224742D01*
X84920760Y-46251694D01*
X84924837Y-46279178D01*
X84926200Y-46306930D01*
X84926200Y-47293070D01*
X84924837Y-47320822D01*
X84920760Y-47348306D01*
X84914009Y-47375258D01*
X84904648Y-47401419D01*
X84892768Y-47426537D01*
X84878484Y-47450369D01*
X84861932Y-47472686D01*
X84843273Y-47493273D01*
X84822686Y-47511932D01*
X84800369Y-47528484D01*
X84776537Y-47542768D01*
X84751419Y-47554648D01*
X84725258Y-47564009D01*
X84698306Y-47570760D01*
X84670822Y-47574837D01*
X84643070Y-47576200D01*
X83906930Y-47576200D01*
X83879178Y-47574837D01*
X83851694Y-47570760D01*
X83824742Y-47564009D01*
X83798581Y-47554648D01*
X83773463Y-47542768D01*
X83749631Y-47528484D01*
X83727314Y-47511932D01*
X83706727Y-47493273D01*
X83688068Y-47472686D01*
X83671516Y-47450369D01*
X83657232Y-47426537D01*
X83645352Y-47401419D01*
X83635991Y-47375258D01*
X83629240Y-47348306D01*
X83625163Y-47320822D01*
X83623800Y-47293070D01*
X83623800Y-46306930D01*
X83625163Y-46279178D01*
X83629240Y-46251694D01*
X83635991Y-46224742D01*
X83645352Y-46198581D01*
X83657232Y-46173463D01*
X83671516Y-46149631D01*
X83688068Y-46127314D01*
X83706727Y-46106727D01*
X83727314Y-46088068D01*
X83749631Y-46071516D01*
X83773463Y-46057232D01*
X83798581Y-46045352D01*
X83824742Y-46035991D01*
X83851694Y-46029240D01*
X83879178Y-46025163D01*
X83906930Y-46023800D01*
X84643070Y-46023800D01*
X84670822Y-46025163D01*
X84670822Y-46025163D01*
G37*
D18*
X84275000Y-46800000D03*
D17*
G36*
X86720822Y-46025163D02*
X86748306Y-46029240D01*
X86775258Y-46035991D01*
X86801419Y-46045352D01*
X86826537Y-46057232D01*
X86850369Y-46071516D01*
X86872686Y-46088068D01*
X86893273Y-46106727D01*
X86911932Y-46127314D01*
X86928484Y-46149631D01*
X86942768Y-46173463D01*
X86954648Y-46198581D01*
X86964009Y-46224742D01*
X86970760Y-46251694D01*
X86974837Y-46279178D01*
X86976200Y-46306930D01*
X86976200Y-47293070D01*
X86974837Y-47320822D01*
X86970760Y-47348306D01*
X86964009Y-47375258D01*
X86954648Y-47401419D01*
X86942768Y-47426537D01*
X86928484Y-47450369D01*
X86911932Y-47472686D01*
X86893273Y-47493273D01*
X86872686Y-47511932D01*
X86850369Y-47528484D01*
X86826537Y-47542768D01*
X86801419Y-47554648D01*
X86775258Y-47564009D01*
X86748306Y-47570760D01*
X86720822Y-47574837D01*
X86693070Y-47576200D01*
X85956930Y-47576200D01*
X85929178Y-47574837D01*
X85901694Y-47570760D01*
X85874742Y-47564009D01*
X85848581Y-47554648D01*
X85823463Y-47542768D01*
X85799631Y-47528484D01*
X85777314Y-47511932D01*
X85756727Y-47493273D01*
X85738068Y-47472686D01*
X85721516Y-47450369D01*
X85707232Y-47426537D01*
X85695352Y-47401419D01*
X85685991Y-47375258D01*
X85679240Y-47348306D01*
X85675163Y-47320822D01*
X85673800Y-47293070D01*
X85673800Y-46306930D01*
X85675163Y-46279178D01*
X85679240Y-46251694D01*
X85685991Y-46224742D01*
X85695352Y-46198581D01*
X85707232Y-46173463D01*
X85721516Y-46149631D01*
X85738068Y-46127314D01*
X85756727Y-46106727D01*
X85777314Y-46088068D01*
X85799631Y-46071516D01*
X85823463Y-46057232D01*
X85848581Y-46045352D01*
X85874742Y-46035991D01*
X85901694Y-46029240D01*
X85929178Y-46025163D01*
X85956930Y-46023800D01*
X86693070Y-46023800D01*
X86720822Y-46025163D01*
X86720822Y-46025163D01*
G37*
D18*
X86325000Y-46800000D03*
G04 #@! TD*
D17*
G04 #@! TO.C,C107*
G36*
X82270822Y-77025163D02*
X82298306Y-77029240D01*
X82325258Y-77035991D01*
X82351419Y-77045352D01*
X82376537Y-77057232D01*
X82400369Y-77071516D01*
X82422686Y-77088068D01*
X82443273Y-77106727D01*
X82461932Y-77127314D01*
X82478484Y-77149631D01*
X82492768Y-77173463D01*
X82504648Y-77198581D01*
X82514009Y-77224742D01*
X82520760Y-77251694D01*
X82524837Y-77279178D01*
X82526200Y-77306930D01*
X82526200Y-78293070D01*
X82524837Y-78320822D01*
X82520760Y-78348306D01*
X82514009Y-78375258D01*
X82504648Y-78401419D01*
X82492768Y-78426537D01*
X82478484Y-78450369D01*
X82461932Y-78472686D01*
X82443273Y-78493273D01*
X82422686Y-78511932D01*
X82400369Y-78528484D01*
X82376537Y-78542768D01*
X82351419Y-78554648D01*
X82325258Y-78564009D01*
X82298306Y-78570760D01*
X82270822Y-78574837D01*
X82243070Y-78576200D01*
X81506930Y-78576200D01*
X81479178Y-78574837D01*
X81451694Y-78570760D01*
X81424742Y-78564009D01*
X81398581Y-78554648D01*
X81373463Y-78542768D01*
X81349631Y-78528484D01*
X81327314Y-78511932D01*
X81306727Y-78493273D01*
X81288068Y-78472686D01*
X81271516Y-78450369D01*
X81257232Y-78426537D01*
X81245352Y-78401419D01*
X81235991Y-78375258D01*
X81229240Y-78348306D01*
X81225163Y-78320822D01*
X81223800Y-78293070D01*
X81223800Y-77306930D01*
X81225163Y-77279178D01*
X81229240Y-77251694D01*
X81235991Y-77224742D01*
X81245352Y-77198581D01*
X81257232Y-77173463D01*
X81271516Y-77149631D01*
X81288068Y-77127314D01*
X81306727Y-77106727D01*
X81327314Y-77088068D01*
X81349631Y-77071516D01*
X81373463Y-77057232D01*
X81398581Y-77045352D01*
X81424742Y-77035991D01*
X81451694Y-77029240D01*
X81479178Y-77025163D01*
X81506930Y-77023800D01*
X82243070Y-77023800D01*
X82270822Y-77025163D01*
X82270822Y-77025163D01*
G37*
D18*
X81875000Y-77800000D03*
D17*
G36*
X80220822Y-77025163D02*
X80248306Y-77029240D01*
X80275258Y-77035991D01*
X80301419Y-77045352D01*
X80326537Y-77057232D01*
X80350369Y-77071516D01*
X80372686Y-77088068D01*
X80393273Y-77106727D01*
X80411932Y-77127314D01*
X80428484Y-77149631D01*
X80442768Y-77173463D01*
X80454648Y-77198581D01*
X80464009Y-77224742D01*
X80470760Y-77251694D01*
X80474837Y-77279178D01*
X80476200Y-77306930D01*
X80476200Y-78293070D01*
X80474837Y-78320822D01*
X80470760Y-78348306D01*
X80464009Y-78375258D01*
X80454648Y-78401419D01*
X80442768Y-78426537D01*
X80428484Y-78450369D01*
X80411932Y-78472686D01*
X80393273Y-78493273D01*
X80372686Y-78511932D01*
X80350369Y-78528484D01*
X80326537Y-78542768D01*
X80301419Y-78554648D01*
X80275258Y-78564009D01*
X80248306Y-78570760D01*
X80220822Y-78574837D01*
X80193070Y-78576200D01*
X79456930Y-78576200D01*
X79429178Y-78574837D01*
X79401694Y-78570760D01*
X79374742Y-78564009D01*
X79348581Y-78554648D01*
X79323463Y-78542768D01*
X79299631Y-78528484D01*
X79277314Y-78511932D01*
X79256727Y-78493273D01*
X79238068Y-78472686D01*
X79221516Y-78450369D01*
X79207232Y-78426537D01*
X79195352Y-78401419D01*
X79185991Y-78375258D01*
X79179240Y-78348306D01*
X79175163Y-78320822D01*
X79173800Y-78293070D01*
X79173800Y-77306930D01*
X79175163Y-77279178D01*
X79179240Y-77251694D01*
X79185991Y-77224742D01*
X79195352Y-77198581D01*
X79207232Y-77173463D01*
X79221516Y-77149631D01*
X79238068Y-77127314D01*
X79256727Y-77106727D01*
X79277314Y-77088068D01*
X79299631Y-77071516D01*
X79323463Y-77057232D01*
X79348581Y-77045352D01*
X79374742Y-77035991D01*
X79401694Y-77029240D01*
X79429178Y-77025163D01*
X79456930Y-77023800D01*
X80193070Y-77023800D01*
X80220822Y-77025163D01*
X80220822Y-77025163D01*
G37*
D18*
X79825000Y-77800000D03*
G04 #@! TD*
D17*
G04 #@! TO.C,C108*
G36*
X80220822Y-81325163D02*
X80248306Y-81329240D01*
X80275258Y-81335991D01*
X80301419Y-81345352D01*
X80326537Y-81357232D01*
X80350369Y-81371516D01*
X80372686Y-81388068D01*
X80393273Y-81406727D01*
X80411932Y-81427314D01*
X80428484Y-81449631D01*
X80442768Y-81473463D01*
X80454648Y-81498581D01*
X80464009Y-81524742D01*
X80470760Y-81551694D01*
X80474837Y-81579178D01*
X80476200Y-81606930D01*
X80476200Y-82593070D01*
X80474837Y-82620822D01*
X80470760Y-82648306D01*
X80464009Y-82675258D01*
X80454648Y-82701419D01*
X80442768Y-82726537D01*
X80428484Y-82750369D01*
X80411932Y-82772686D01*
X80393273Y-82793273D01*
X80372686Y-82811932D01*
X80350369Y-82828484D01*
X80326537Y-82842768D01*
X80301419Y-82854648D01*
X80275258Y-82864009D01*
X80248306Y-82870760D01*
X80220822Y-82874837D01*
X80193070Y-82876200D01*
X79456930Y-82876200D01*
X79429178Y-82874837D01*
X79401694Y-82870760D01*
X79374742Y-82864009D01*
X79348581Y-82854648D01*
X79323463Y-82842768D01*
X79299631Y-82828484D01*
X79277314Y-82811932D01*
X79256727Y-82793273D01*
X79238068Y-82772686D01*
X79221516Y-82750369D01*
X79207232Y-82726537D01*
X79195352Y-82701419D01*
X79185991Y-82675258D01*
X79179240Y-82648306D01*
X79175163Y-82620822D01*
X79173800Y-82593070D01*
X79173800Y-81606930D01*
X79175163Y-81579178D01*
X79179240Y-81551694D01*
X79185991Y-81524742D01*
X79195352Y-81498581D01*
X79207232Y-81473463D01*
X79221516Y-81449631D01*
X79238068Y-81427314D01*
X79256727Y-81406727D01*
X79277314Y-81388068D01*
X79299631Y-81371516D01*
X79323463Y-81357232D01*
X79348581Y-81345352D01*
X79374742Y-81335991D01*
X79401694Y-81329240D01*
X79429178Y-81325163D01*
X79456930Y-81323800D01*
X80193070Y-81323800D01*
X80220822Y-81325163D01*
X80220822Y-81325163D01*
G37*
D18*
X79825000Y-82100000D03*
D17*
G36*
X82270822Y-81325163D02*
X82298306Y-81329240D01*
X82325258Y-81335991D01*
X82351419Y-81345352D01*
X82376537Y-81357232D01*
X82400369Y-81371516D01*
X82422686Y-81388068D01*
X82443273Y-81406727D01*
X82461932Y-81427314D01*
X82478484Y-81449631D01*
X82492768Y-81473463D01*
X82504648Y-81498581D01*
X82514009Y-81524742D01*
X82520760Y-81551694D01*
X82524837Y-81579178D01*
X82526200Y-81606930D01*
X82526200Y-82593070D01*
X82524837Y-82620822D01*
X82520760Y-82648306D01*
X82514009Y-82675258D01*
X82504648Y-82701419D01*
X82492768Y-82726537D01*
X82478484Y-82750369D01*
X82461932Y-82772686D01*
X82443273Y-82793273D01*
X82422686Y-82811932D01*
X82400369Y-82828484D01*
X82376537Y-82842768D01*
X82351419Y-82854648D01*
X82325258Y-82864009D01*
X82298306Y-82870760D01*
X82270822Y-82874837D01*
X82243070Y-82876200D01*
X81506930Y-82876200D01*
X81479178Y-82874837D01*
X81451694Y-82870760D01*
X81424742Y-82864009D01*
X81398581Y-82854648D01*
X81373463Y-82842768D01*
X81349631Y-82828484D01*
X81327314Y-82811932D01*
X81306727Y-82793273D01*
X81288068Y-82772686D01*
X81271516Y-82750369D01*
X81257232Y-82726537D01*
X81245352Y-82701419D01*
X81235991Y-82675258D01*
X81229240Y-82648306D01*
X81225163Y-82620822D01*
X81223800Y-82593070D01*
X81223800Y-81606930D01*
X81225163Y-81579178D01*
X81229240Y-81551694D01*
X81235991Y-81524742D01*
X81245352Y-81498581D01*
X81257232Y-81473463D01*
X81271516Y-81449631D01*
X81288068Y-81427314D01*
X81306727Y-81406727D01*
X81327314Y-81388068D01*
X81349631Y-81371516D01*
X81373463Y-81357232D01*
X81398581Y-81345352D01*
X81424742Y-81335991D01*
X81451694Y-81329240D01*
X81479178Y-81325163D01*
X81506930Y-81323800D01*
X82243070Y-81323800D01*
X82270822Y-81325163D01*
X82270822Y-81325163D01*
G37*
D18*
X81875000Y-82100000D03*
G04 #@! TD*
D17*
G04 #@! TO.C,C109*
G36*
X82270822Y-83825163D02*
X82298306Y-83829240D01*
X82325258Y-83835991D01*
X82351419Y-83845352D01*
X82376537Y-83857232D01*
X82400369Y-83871516D01*
X82422686Y-83888068D01*
X82443273Y-83906727D01*
X82461932Y-83927314D01*
X82478484Y-83949631D01*
X82492768Y-83973463D01*
X82504648Y-83998581D01*
X82514009Y-84024742D01*
X82520760Y-84051694D01*
X82524837Y-84079178D01*
X82526200Y-84106930D01*
X82526200Y-85093070D01*
X82524837Y-85120822D01*
X82520760Y-85148306D01*
X82514009Y-85175258D01*
X82504648Y-85201419D01*
X82492768Y-85226537D01*
X82478484Y-85250369D01*
X82461932Y-85272686D01*
X82443273Y-85293273D01*
X82422686Y-85311932D01*
X82400369Y-85328484D01*
X82376537Y-85342768D01*
X82351419Y-85354648D01*
X82325258Y-85364009D01*
X82298306Y-85370760D01*
X82270822Y-85374837D01*
X82243070Y-85376200D01*
X81506930Y-85376200D01*
X81479178Y-85374837D01*
X81451694Y-85370760D01*
X81424742Y-85364009D01*
X81398581Y-85354648D01*
X81373463Y-85342768D01*
X81349631Y-85328484D01*
X81327314Y-85311932D01*
X81306727Y-85293273D01*
X81288068Y-85272686D01*
X81271516Y-85250369D01*
X81257232Y-85226537D01*
X81245352Y-85201419D01*
X81235991Y-85175258D01*
X81229240Y-85148306D01*
X81225163Y-85120822D01*
X81223800Y-85093070D01*
X81223800Y-84106930D01*
X81225163Y-84079178D01*
X81229240Y-84051694D01*
X81235991Y-84024742D01*
X81245352Y-83998581D01*
X81257232Y-83973463D01*
X81271516Y-83949631D01*
X81288068Y-83927314D01*
X81306727Y-83906727D01*
X81327314Y-83888068D01*
X81349631Y-83871516D01*
X81373463Y-83857232D01*
X81398581Y-83845352D01*
X81424742Y-83835991D01*
X81451694Y-83829240D01*
X81479178Y-83825163D01*
X81506930Y-83823800D01*
X82243070Y-83823800D01*
X82270822Y-83825163D01*
X82270822Y-83825163D01*
G37*
D18*
X81875000Y-84600000D03*
D17*
G36*
X80220822Y-83825163D02*
X80248306Y-83829240D01*
X80275258Y-83835991D01*
X80301419Y-83845352D01*
X80326537Y-83857232D01*
X80350369Y-83871516D01*
X80372686Y-83888068D01*
X80393273Y-83906727D01*
X80411932Y-83927314D01*
X80428484Y-83949631D01*
X80442768Y-83973463D01*
X80454648Y-83998581D01*
X80464009Y-84024742D01*
X80470760Y-84051694D01*
X80474837Y-84079178D01*
X80476200Y-84106930D01*
X80476200Y-85093070D01*
X80474837Y-85120822D01*
X80470760Y-85148306D01*
X80464009Y-85175258D01*
X80454648Y-85201419D01*
X80442768Y-85226537D01*
X80428484Y-85250369D01*
X80411932Y-85272686D01*
X80393273Y-85293273D01*
X80372686Y-85311932D01*
X80350369Y-85328484D01*
X80326537Y-85342768D01*
X80301419Y-85354648D01*
X80275258Y-85364009D01*
X80248306Y-85370760D01*
X80220822Y-85374837D01*
X80193070Y-85376200D01*
X79456930Y-85376200D01*
X79429178Y-85374837D01*
X79401694Y-85370760D01*
X79374742Y-85364009D01*
X79348581Y-85354648D01*
X79323463Y-85342768D01*
X79299631Y-85328484D01*
X79277314Y-85311932D01*
X79256727Y-85293273D01*
X79238068Y-85272686D01*
X79221516Y-85250369D01*
X79207232Y-85226537D01*
X79195352Y-85201419D01*
X79185991Y-85175258D01*
X79179240Y-85148306D01*
X79175163Y-85120822D01*
X79173800Y-85093070D01*
X79173800Y-84106930D01*
X79175163Y-84079178D01*
X79179240Y-84051694D01*
X79185991Y-84024742D01*
X79195352Y-83998581D01*
X79207232Y-83973463D01*
X79221516Y-83949631D01*
X79238068Y-83927314D01*
X79256727Y-83906727D01*
X79277314Y-83888068D01*
X79299631Y-83871516D01*
X79323463Y-83857232D01*
X79348581Y-83845352D01*
X79374742Y-83835991D01*
X79401694Y-83829240D01*
X79429178Y-83825163D01*
X79456930Y-83823800D01*
X80193070Y-83823800D01*
X80220822Y-83825163D01*
X80220822Y-83825163D01*
G37*
D18*
X79825000Y-84600000D03*
G04 #@! TD*
D17*
G04 #@! TO.C,C110*
G36*
X87020822Y-83825163D02*
X87048306Y-83829240D01*
X87075258Y-83835991D01*
X87101419Y-83845352D01*
X87126537Y-83857232D01*
X87150369Y-83871516D01*
X87172686Y-83888068D01*
X87193273Y-83906727D01*
X87211932Y-83927314D01*
X87228484Y-83949631D01*
X87242768Y-83973463D01*
X87254648Y-83998581D01*
X87264009Y-84024742D01*
X87270760Y-84051694D01*
X87274837Y-84079178D01*
X87276200Y-84106930D01*
X87276200Y-85093070D01*
X87274837Y-85120822D01*
X87270760Y-85148306D01*
X87264009Y-85175258D01*
X87254648Y-85201419D01*
X87242768Y-85226537D01*
X87228484Y-85250369D01*
X87211932Y-85272686D01*
X87193273Y-85293273D01*
X87172686Y-85311932D01*
X87150369Y-85328484D01*
X87126537Y-85342768D01*
X87101419Y-85354648D01*
X87075258Y-85364009D01*
X87048306Y-85370760D01*
X87020822Y-85374837D01*
X86993070Y-85376200D01*
X86256930Y-85376200D01*
X86229178Y-85374837D01*
X86201694Y-85370760D01*
X86174742Y-85364009D01*
X86148581Y-85354648D01*
X86123463Y-85342768D01*
X86099631Y-85328484D01*
X86077314Y-85311932D01*
X86056727Y-85293273D01*
X86038068Y-85272686D01*
X86021516Y-85250369D01*
X86007232Y-85226537D01*
X85995352Y-85201419D01*
X85985991Y-85175258D01*
X85979240Y-85148306D01*
X85975163Y-85120822D01*
X85973800Y-85093070D01*
X85973800Y-84106930D01*
X85975163Y-84079178D01*
X85979240Y-84051694D01*
X85985991Y-84024742D01*
X85995352Y-83998581D01*
X86007232Y-83973463D01*
X86021516Y-83949631D01*
X86038068Y-83927314D01*
X86056727Y-83906727D01*
X86077314Y-83888068D01*
X86099631Y-83871516D01*
X86123463Y-83857232D01*
X86148581Y-83845352D01*
X86174742Y-83835991D01*
X86201694Y-83829240D01*
X86229178Y-83825163D01*
X86256930Y-83823800D01*
X86993070Y-83823800D01*
X87020822Y-83825163D01*
X87020822Y-83825163D01*
G37*
D18*
X86625000Y-84600000D03*
D17*
G36*
X84970822Y-83825163D02*
X84998306Y-83829240D01*
X85025258Y-83835991D01*
X85051419Y-83845352D01*
X85076537Y-83857232D01*
X85100369Y-83871516D01*
X85122686Y-83888068D01*
X85143273Y-83906727D01*
X85161932Y-83927314D01*
X85178484Y-83949631D01*
X85192768Y-83973463D01*
X85204648Y-83998581D01*
X85214009Y-84024742D01*
X85220760Y-84051694D01*
X85224837Y-84079178D01*
X85226200Y-84106930D01*
X85226200Y-85093070D01*
X85224837Y-85120822D01*
X85220760Y-85148306D01*
X85214009Y-85175258D01*
X85204648Y-85201419D01*
X85192768Y-85226537D01*
X85178484Y-85250369D01*
X85161932Y-85272686D01*
X85143273Y-85293273D01*
X85122686Y-85311932D01*
X85100369Y-85328484D01*
X85076537Y-85342768D01*
X85051419Y-85354648D01*
X85025258Y-85364009D01*
X84998306Y-85370760D01*
X84970822Y-85374837D01*
X84943070Y-85376200D01*
X84206930Y-85376200D01*
X84179178Y-85374837D01*
X84151694Y-85370760D01*
X84124742Y-85364009D01*
X84098581Y-85354648D01*
X84073463Y-85342768D01*
X84049631Y-85328484D01*
X84027314Y-85311932D01*
X84006727Y-85293273D01*
X83988068Y-85272686D01*
X83971516Y-85250369D01*
X83957232Y-85226537D01*
X83945352Y-85201419D01*
X83935991Y-85175258D01*
X83929240Y-85148306D01*
X83925163Y-85120822D01*
X83923800Y-85093070D01*
X83923800Y-84106930D01*
X83925163Y-84079178D01*
X83929240Y-84051694D01*
X83935991Y-84024742D01*
X83945352Y-83998581D01*
X83957232Y-83973463D01*
X83971516Y-83949631D01*
X83988068Y-83927314D01*
X84006727Y-83906727D01*
X84027314Y-83888068D01*
X84049631Y-83871516D01*
X84073463Y-83857232D01*
X84098581Y-83845352D01*
X84124742Y-83835991D01*
X84151694Y-83829240D01*
X84179178Y-83825163D01*
X84206930Y-83823800D01*
X84943070Y-83823800D01*
X84970822Y-83825163D01*
X84970822Y-83825163D01*
G37*
D18*
X84575000Y-84600000D03*
G04 #@! TD*
D17*
G04 #@! TO.C,C111*
G36*
X87020822Y-77025163D02*
X87048306Y-77029240D01*
X87075258Y-77035991D01*
X87101419Y-77045352D01*
X87126537Y-77057232D01*
X87150369Y-77071516D01*
X87172686Y-77088068D01*
X87193273Y-77106727D01*
X87211932Y-77127314D01*
X87228484Y-77149631D01*
X87242768Y-77173463D01*
X87254648Y-77198581D01*
X87264009Y-77224742D01*
X87270760Y-77251694D01*
X87274837Y-77279178D01*
X87276200Y-77306930D01*
X87276200Y-78293070D01*
X87274837Y-78320822D01*
X87270760Y-78348306D01*
X87264009Y-78375258D01*
X87254648Y-78401419D01*
X87242768Y-78426537D01*
X87228484Y-78450369D01*
X87211932Y-78472686D01*
X87193273Y-78493273D01*
X87172686Y-78511932D01*
X87150369Y-78528484D01*
X87126537Y-78542768D01*
X87101419Y-78554648D01*
X87075258Y-78564009D01*
X87048306Y-78570760D01*
X87020822Y-78574837D01*
X86993070Y-78576200D01*
X86256930Y-78576200D01*
X86229178Y-78574837D01*
X86201694Y-78570760D01*
X86174742Y-78564009D01*
X86148581Y-78554648D01*
X86123463Y-78542768D01*
X86099631Y-78528484D01*
X86077314Y-78511932D01*
X86056727Y-78493273D01*
X86038068Y-78472686D01*
X86021516Y-78450369D01*
X86007232Y-78426537D01*
X85995352Y-78401419D01*
X85985991Y-78375258D01*
X85979240Y-78348306D01*
X85975163Y-78320822D01*
X85973800Y-78293070D01*
X85973800Y-77306930D01*
X85975163Y-77279178D01*
X85979240Y-77251694D01*
X85985991Y-77224742D01*
X85995352Y-77198581D01*
X86007232Y-77173463D01*
X86021516Y-77149631D01*
X86038068Y-77127314D01*
X86056727Y-77106727D01*
X86077314Y-77088068D01*
X86099631Y-77071516D01*
X86123463Y-77057232D01*
X86148581Y-77045352D01*
X86174742Y-77035991D01*
X86201694Y-77029240D01*
X86229178Y-77025163D01*
X86256930Y-77023800D01*
X86993070Y-77023800D01*
X87020822Y-77025163D01*
X87020822Y-77025163D01*
G37*
D18*
X86625000Y-77800000D03*
D17*
G36*
X84970822Y-77025163D02*
X84998306Y-77029240D01*
X85025258Y-77035991D01*
X85051419Y-77045352D01*
X85076537Y-77057232D01*
X85100369Y-77071516D01*
X85122686Y-77088068D01*
X85143273Y-77106727D01*
X85161932Y-77127314D01*
X85178484Y-77149631D01*
X85192768Y-77173463D01*
X85204648Y-77198581D01*
X85214009Y-77224742D01*
X85220760Y-77251694D01*
X85224837Y-77279178D01*
X85226200Y-77306930D01*
X85226200Y-78293070D01*
X85224837Y-78320822D01*
X85220760Y-78348306D01*
X85214009Y-78375258D01*
X85204648Y-78401419D01*
X85192768Y-78426537D01*
X85178484Y-78450369D01*
X85161932Y-78472686D01*
X85143273Y-78493273D01*
X85122686Y-78511932D01*
X85100369Y-78528484D01*
X85076537Y-78542768D01*
X85051419Y-78554648D01*
X85025258Y-78564009D01*
X84998306Y-78570760D01*
X84970822Y-78574837D01*
X84943070Y-78576200D01*
X84206930Y-78576200D01*
X84179178Y-78574837D01*
X84151694Y-78570760D01*
X84124742Y-78564009D01*
X84098581Y-78554648D01*
X84073463Y-78542768D01*
X84049631Y-78528484D01*
X84027314Y-78511932D01*
X84006727Y-78493273D01*
X83988068Y-78472686D01*
X83971516Y-78450369D01*
X83957232Y-78426537D01*
X83945352Y-78401419D01*
X83935991Y-78375258D01*
X83929240Y-78348306D01*
X83925163Y-78320822D01*
X83923800Y-78293070D01*
X83923800Y-77306930D01*
X83925163Y-77279178D01*
X83929240Y-77251694D01*
X83935991Y-77224742D01*
X83945352Y-77198581D01*
X83957232Y-77173463D01*
X83971516Y-77149631D01*
X83988068Y-77127314D01*
X84006727Y-77106727D01*
X84027314Y-77088068D01*
X84049631Y-77071516D01*
X84073463Y-77057232D01*
X84098581Y-77045352D01*
X84124742Y-77035991D01*
X84151694Y-77029240D01*
X84179178Y-77025163D01*
X84206930Y-77023800D01*
X84943070Y-77023800D01*
X84970822Y-77025163D01*
X84970822Y-77025163D01*
G37*
D18*
X84575000Y-77800000D03*
G04 #@! TD*
D17*
G04 #@! TO.C,C112*
G36*
X75470822Y-77025163D02*
X75498306Y-77029240D01*
X75525258Y-77035991D01*
X75551419Y-77045352D01*
X75576537Y-77057232D01*
X75600369Y-77071516D01*
X75622686Y-77088068D01*
X75643273Y-77106727D01*
X75661932Y-77127314D01*
X75678484Y-77149631D01*
X75692768Y-77173463D01*
X75704648Y-77198581D01*
X75714009Y-77224742D01*
X75720760Y-77251694D01*
X75724837Y-77279178D01*
X75726200Y-77306930D01*
X75726200Y-78293070D01*
X75724837Y-78320822D01*
X75720760Y-78348306D01*
X75714009Y-78375258D01*
X75704648Y-78401419D01*
X75692768Y-78426537D01*
X75678484Y-78450369D01*
X75661932Y-78472686D01*
X75643273Y-78493273D01*
X75622686Y-78511932D01*
X75600369Y-78528484D01*
X75576537Y-78542768D01*
X75551419Y-78554648D01*
X75525258Y-78564009D01*
X75498306Y-78570760D01*
X75470822Y-78574837D01*
X75443070Y-78576200D01*
X74706930Y-78576200D01*
X74679178Y-78574837D01*
X74651694Y-78570760D01*
X74624742Y-78564009D01*
X74598581Y-78554648D01*
X74573463Y-78542768D01*
X74549631Y-78528484D01*
X74527314Y-78511932D01*
X74506727Y-78493273D01*
X74488068Y-78472686D01*
X74471516Y-78450369D01*
X74457232Y-78426537D01*
X74445352Y-78401419D01*
X74435991Y-78375258D01*
X74429240Y-78348306D01*
X74425163Y-78320822D01*
X74423800Y-78293070D01*
X74423800Y-77306930D01*
X74425163Y-77279178D01*
X74429240Y-77251694D01*
X74435991Y-77224742D01*
X74445352Y-77198581D01*
X74457232Y-77173463D01*
X74471516Y-77149631D01*
X74488068Y-77127314D01*
X74506727Y-77106727D01*
X74527314Y-77088068D01*
X74549631Y-77071516D01*
X74573463Y-77057232D01*
X74598581Y-77045352D01*
X74624742Y-77035991D01*
X74651694Y-77029240D01*
X74679178Y-77025163D01*
X74706930Y-77023800D01*
X75443070Y-77023800D01*
X75470822Y-77025163D01*
X75470822Y-77025163D01*
G37*
D18*
X75075000Y-77800000D03*
D17*
G36*
X77520822Y-77025163D02*
X77548306Y-77029240D01*
X77575258Y-77035991D01*
X77601419Y-77045352D01*
X77626537Y-77057232D01*
X77650369Y-77071516D01*
X77672686Y-77088068D01*
X77693273Y-77106727D01*
X77711932Y-77127314D01*
X77728484Y-77149631D01*
X77742768Y-77173463D01*
X77754648Y-77198581D01*
X77764009Y-77224742D01*
X77770760Y-77251694D01*
X77774837Y-77279178D01*
X77776200Y-77306930D01*
X77776200Y-78293070D01*
X77774837Y-78320822D01*
X77770760Y-78348306D01*
X77764009Y-78375258D01*
X77754648Y-78401419D01*
X77742768Y-78426537D01*
X77728484Y-78450369D01*
X77711932Y-78472686D01*
X77693273Y-78493273D01*
X77672686Y-78511932D01*
X77650369Y-78528484D01*
X77626537Y-78542768D01*
X77601419Y-78554648D01*
X77575258Y-78564009D01*
X77548306Y-78570760D01*
X77520822Y-78574837D01*
X77493070Y-78576200D01*
X76756930Y-78576200D01*
X76729178Y-78574837D01*
X76701694Y-78570760D01*
X76674742Y-78564009D01*
X76648581Y-78554648D01*
X76623463Y-78542768D01*
X76599631Y-78528484D01*
X76577314Y-78511932D01*
X76556727Y-78493273D01*
X76538068Y-78472686D01*
X76521516Y-78450369D01*
X76507232Y-78426537D01*
X76495352Y-78401419D01*
X76485991Y-78375258D01*
X76479240Y-78348306D01*
X76475163Y-78320822D01*
X76473800Y-78293070D01*
X76473800Y-77306930D01*
X76475163Y-77279178D01*
X76479240Y-77251694D01*
X76485991Y-77224742D01*
X76495352Y-77198581D01*
X76507232Y-77173463D01*
X76521516Y-77149631D01*
X76538068Y-77127314D01*
X76556727Y-77106727D01*
X76577314Y-77088068D01*
X76599631Y-77071516D01*
X76623463Y-77057232D01*
X76648581Y-77045352D01*
X76674742Y-77035991D01*
X76701694Y-77029240D01*
X76729178Y-77025163D01*
X76756930Y-77023800D01*
X77493070Y-77023800D01*
X77520822Y-77025163D01*
X77520822Y-77025163D01*
G37*
D18*
X77125000Y-77800000D03*
G04 #@! TD*
D17*
G04 #@! TO.C,C117*
G36*
X102220822Y-97975163D02*
X102248306Y-97979240D01*
X102275258Y-97985991D01*
X102301419Y-97995352D01*
X102326537Y-98007232D01*
X102350369Y-98021516D01*
X102372686Y-98038068D01*
X102393273Y-98056727D01*
X102411932Y-98077314D01*
X102428484Y-98099631D01*
X102442768Y-98123463D01*
X102454648Y-98148581D01*
X102464009Y-98174742D01*
X102470760Y-98201694D01*
X102474837Y-98229178D01*
X102476200Y-98256930D01*
X102476200Y-98993070D01*
X102474837Y-99020822D01*
X102470760Y-99048306D01*
X102464009Y-99075258D01*
X102454648Y-99101419D01*
X102442768Y-99126537D01*
X102428484Y-99150369D01*
X102411932Y-99172686D01*
X102393273Y-99193273D01*
X102372686Y-99211932D01*
X102350369Y-99228484D01*
X102326537Y-99242768D01*
X102301419Y-99254648D01*
X102275258Y-99264009D01*
X102248306Y-99270760D01*
X102220822Y-99274837D01*
X102193070Y-99276200D01*
X101206930Y-99276200D01*
X101179178Y-99274837D01*
X101151694Y-99270760D01*
X101124742Y-99264009D01*
X101098581Y-99254648D01*
X101073463Y-99242768D01*
X101049631Y-99228484D01*
X101027314Y-99211932D01*
X101006727Y-99193273D01*
X100988068Y-99172686D01*
X100971516Y-99150369D01*
X100957232Y-99126537D01*
X100945352Y-99101419D01*
X100935991Y-99075258D01*
X100929240Y-99048306D01*
X100925163Y-99020822D01*
X100923800Y-98993070D01*
X100923800Y-98256930D01*
X100925163Y-98229178D01*
X100929240Y-98201694D01*
X100935991Y-98174742D01*
X100945352Y-98148581D01*
X100957232Y-98123463D01*
X100971516Y-98099631D01*
X100988068Y-98077314D01*
X101006727Y-98056727D01*
X101027314Y-98038068D01*
X101049631Y-98021516D01*
X101073463Y-98007232D01*
X101098581Y-97995352D01*
X101124742Y-97985991D01*
X101151694Y-97979240D01*
X101179178Y-97975163D01*
X101206930Y-97973800D01*
X102193070Y-97973800D01*
X102220822Y-97975163D01*
X102220822Y-97975163D01*
G37*
D18*
X101700000Y-98625000D03*
D17*
G36*
X102220822Y-100025163D02*
X102248306Y-100029240D01*
X102275258Y-100035991D01*
X102301419Y-100045352D01*
X102326537Y-100057232D01*
X102350369Y-100071516D01*
X102372686Y-100088068D01*
X102393273Y-100106727D01*
X102411932Y-100127314D01*
X102428484Y-100149631D01*
X102442768Y-100173463D01*
X102454648Y-100198581D01*
X102464009Y-100224742D01*
X102470760Y-100251694D01*
X102474837Y-100279178D01*
X102476200Y-100306930D01*
X102476200Y-101043070D01*
X102474837Y-101070822D01*
X102470760Y-101098306D01*
X102464009Y-101125258D01*
X102454648Y-101151419D01*
X102442768Y-101176537D01*
X102428484Y-101200369D01*
X102411932Y-101222686D01*
X102393273Y-101243273D01*
X102372686Y-101261932D01*
X102350369Y-101278484D01*
X102326537Y-101292768D01*
X102301419Y-101304648D01*
X102275258Y-101314009D01*
X102248306Y-101320760D01*
X102220822Y-101324837D01*
X102193070Y-101326200D01*
X101206930Y-101326200D01*
X101179178Y-101324837D01*
X101151694Y-101320760D01*
X101124742Y-101314009D01*
X101098581Y-101304648D01*
X101073463Y-101292768D01*
X101049631Y-101278484D01*
X101027314Y-101261932D01*
X101006727Y-101243273D01*
X100988068Y-101222686D01*
X100971516Y-101200369D01*
X100957232Y-101176537D01*
X100945352Y-101151419D01*
X100935991Y-101125258D01*
X100929240Y-101098306D01*
X100925163Y-101070822D01*
X100923800Y-101043070D01*
X100923800Y-100306930D01*
X100925163Y-100279178D01*
X100929240Y-100251694D01*
X100935991Y-100224742D01*
X100945352Y-100198581D01*
X100957232Y-100173463D01*
X100971516Y-100149631D01*
X100988068Y-100127314D01*
X101006727Y-100106727D01*
X101027314Y-100088068D01*
X101049631Y-100071516D01*
X101073463Y-100057232D01*
X101098581Y-100045352D01*
X101124742Y-100035991D01*
X101151694Y-100029240D01*
X101179178Y-100025163D01*
X101206930Y-100023800D01*
X102193070Y-100023800D01*
X102220822Y-100025163D01*
X102220822Y-100025163D01*
G37*
D18*
X101700000Y-100675000D03*
G04 #@! TD*
D19*
G04 #@! TO.C,H101*
X57500000Y-89440000D03*
D20*
X55700000Y-94350000D03*
D21*
X51550000Y-78700000D03*
X44700000Y-78700000D03*
X44700000Y-74400000D03*
X51550000Y-74400000D03*
D19*
X57500000Y-86900000D03*
X57500000Y-84360000D03*
X48000000Y-96400000D03*
X50540000Y-96400000D03*
X45460000Y-96400000D03*
D20*
X40300000Y-94300000D03*
X40300000Y-79500000D03*
X55700000Y-79500000D03*
G04 #@! TD*
D11*
G04 #@! TO.C,J105*
X40500000Y-55000000D03*
D10*
X43040000Y-55000000D03*
X45580000Y-55000000D03*
G04 #@! TD*
M02*
