G04 #@! TF.GenerationSoftware,KiCad,Pcbnew,(5.0.0)*
G04 #@! TF.CreationDate,2019-07-14T20:37:54+10:00*
G04 #@! TF.ProjectId,reflow-oven-rev-001,7265666C6F772D6F76656E2D7265762D,A*
G04 #@! TF.SameCoordinates,Original*
G04 #@! TF.FileFunction,Soldermask,Top*
G04 #@! TF.FilePolarity,Negative*
%FSLAX46Y46*%
G04 Gerber Fmt 4.6, Leading zero omitted, Abs format (unit mm)*
G04 Created by KiCad (PCBNEW (5.0.0)) date 07/14/19 20:37:54*
%MOMM*%
%LPD*%
G01*
G04 APERTURE LIST*
%ADD10O,1.852400X1.852400*%
%ADD11R,1.852400X1.852400*%
%ADD12C,6.552400*%
%ADD13R,2.152400X0.552400*%
%ADD14O,1.202400X1.352400*%
%ADD15O,1.802400X1.152400*%
%ADD16R,1.212400X0.802400*%
%ADD17O,1.852400X2.452400*%
%ADD18C,1.952400*%
%ADD19C,0.150000*%
%ADD20C,1.577400*%
%ADD21C,1.302400*%
%ADD22C,1.352400*%
%ADD23R,1.952400X3.652400*%
%ADD24R,0.952400X1.052400*%
%ADD25C,2.052400*%
%ADD26C,2.252400*%
%ADD27C,1.752400*%
%ADD28R,1.352400X0.952400*%
%ADD29R,2.152400X1.652400*%
%ADD30R,3.002400X6.752400*%
%ADD31R,0.552400X1.652400*%
%ADD32R,1.052400X0.952400*%
%ADD33R,2.452400X1.752400*%
%ADD34R,2.152400X0.752400*%
%ADD35R,0.802400X1.212400*%
%ADD36R,0.752400X1.702400*%
%ADD37R,1.152400X0.402400*%
%ADD38R,0.402400X1.152400*%
%ADD39R,1.902400X0.602400*%
%ADD40R,1.252400X2.652400*%
G04 APERTURE END LIST*
D10*
G04 #@! TO.C,J111*
X74920000Y-101750000D03*
X77460000Y-101750000D03*
X80000000Y-101750000D03*
X82540000Y-101750000D03*
X85080000Y-101750000D03*
X87620000Y-101750000D03*
X90160000Y-101750000D03*
D11*
X92700000Y-101750000D03*
G04 #@! TD*
G04 #@! TO.C,J110*
X92700000Y-61550000D03*
D10*
X90160000Y-61550000D03*
X87620000Y-61550000D03*
X85080000Y-61550000D03*
X82540000Y-61550000D03*
X80000000Y-61550000D03*
X77460000Y-61550000D03*
X74920000Y-61550000D03*
G04 #@! TD*
D12*
G04 #@! TO.C,MH104*
X112000000Y-112000000D03*
G04 #@! TD*
G04 #@! TO.C,MH101*
X112000000Y-44000000D03*
G04 #@! TD*
G04 #@! TO.C,MH103*
X44000000Y-112000000D03*
G04 #@! TD*
G04 #@! TO.C,MH102*
X44000000Y-44000000D03*
G04 #@! TD*
D13*
G04 #@! TO.C,J112*
X113250000Y-103250000D03*
X113250000Y-102600000D03*
X113250000Y-100650000D03*
X113250000Y-101300000D03*
D14*
X113550000Y-104450000D03*
X113550000Y-99450000D03*
D15*
X116250000Y-105450000D03*
X116250000Y-98450000D03*
D13*
X113250000Y-101950000D03*
G04 #@! TD*
D11*
G04 #@! TO.C,J107*
X114000000Y-53000000D03*
D10*
X114000000Y-55540000D03*
X111460000Y-53000000D03*
X111460000Y-55540000D03*
X108920000Y-53000000D03*
X108920000Y-55540000D03*
X106380000Y-53000000D03*
X106380000Y-55540000D03*
G04 #@! TD*
D13*
G04 #@! TO.C,J109*
X113350000Y-84100000D03*
D15*
X116350000Y-80600000D03*
X116350000Y-87600000D03*
D14*
X113650000Y-81600000D03*
X113650000Y-86600000D03*
D13*
X113350000Y-83450000D03*
X113350000Y-82800000D03*
X113350000Y-84750000D03*
X113350000Y-85400000D03*
G04 #@! TD*
D16*
G04 #@! TO.C,U105*
X107450000Y-83500000D03*
X107450000Y-84450000D03*
X107450000Y-85400000D03*
X109650000Y-85400000D03*
X109650000Y-83500000D03*
X109650000Y-84450000D03*
G04 #@! TD*
D17*
G04 #@! TO.C,J104*
X89050000Y-43400000D03*
X85550000Y-43400000D03*
G04 #@! TD*
G04 #@! TO.C,J106*
X87950000Y-113500000D03*
X91450000Y-113500000D03*
G04 #@! TD*
G04 #@! TO.C,J101*
X70300000Y-43400000D03*
X66800000Y-43400000D03*
X63300000Y-43400000D03*
X59800000Y-43400000D03*
G04 #@! TD*
D18*
G04 #@! TO.C,BZ101*
X60500000Y-107000000D03*
X55500000Y-107000000D03*
G04 #@! TD*
D19*
G04 #@! TO.C,C102*
G36*
X85951588Y-49237633D02*
X85978452Y-49241617D01*
X86004796Y-49248216D01*
X86030366Y-49257365D01*
X86054916Y-49268977D01*
X86078210Y-49282939D01*
X86100023Y-49299116D01*
X86120146Y-49317354D01*
X86138384Y-49337477D01*
X86154561Y-49359290D01*
X86168523Y-49382584D01*
X86180135Y-49407134D01*
X86189284Y-49432704D01*
X86195883Y-49459048D01*
X86199867Y-49485912D01*
X86201200Y-49513037D01*
X86201200Y-50536963D01*
X86199867Y-50564088D01*
X86195883Y-50590952D01*
X86189284Y-50617296D01*
X86180135Y-50642866D01*
X86168523Y-50667416D01*
X86154561Y-50690710D01*
X86138384Y-50712523D01*
X86120146Y-50732646D01*
X86100023Y-50750884D01*
X86078210Y-50767061D01*
X86054916Y-50781023D01*
X86030366Y-50792635D01*
X86004796Y-50801784D01*
X85978452Y-50808383D01*
X85951588Y-50812367D01*
X85924463Y-50813700D01*
X84575537Y-50813700D01*
X84548412Y-50812367D01*
X84521548Y-50808383D01*
X84495204Y-50801784D01*
X84469634Y-50792635D01*
X84445084Y-50781023D01*
X84421790Y-50767061D01*
X84399977Y-50750884D01*
X84379854Y-50732646D01*
X84361616Y-50712523D01*
X84345439Y-50690710D01*
X84331477Y-50667416D01*
X84319865Y-50642866D01*
X84310716Y-50617296D01*
X84304117Y-50590952D01*
X84300133Y-50564088D01*
X84298800Y-50536963D01*
X84298800Y-49513037D01*
X84300133Y-49485912D01*
X84304117Y-49459048D01*
X84310716Y-49432704D01*
X84319865Y-49407134D01*
X84331477Y-49382584D01*
X84345439Y-49359290D01*
X84361616Y-49337477D01*
X84379854Y-49317354D01*
X84399977Y-49299116D01*
X84421790Y-49282939D01*
X84445084Y-49268977D01*
X84469634Y-49257365D01*
X84495204Y-49248216D01*
X84521548Y-49241617D01*
X84548412Y-49237633D01*
X84575537Y-49236300D01*
X85924463Y-49236300D01*
X85951588Y-49237633D01*
X85951588Y-49237633D01*
G37*
D20*
X85250000Y-50025000D03*
D19*
G36*
X85951588Y-52212633D02*
X85978452Y-52216617D01*
X86004796Y-52223216D01*
X86030366Y-52232365D01*
X86054916Y-52243977D01*
X86078210Y-52257939D01*
X86100023Y-52274116D01*
X86120146Y-52292354D01*
X86138384Y-52312477D01*
X86154561Y-52334290D01*
X86168523Y-52357584D01*
X86180135Y-52382134D01*
X86189284Y-52407704D01*
X86195883Y-52434048D01*
X86199867Y-52460912D01*
X86201200Y-52488037D01*
X86201200Y-53511963D01*
X86199867Y-53539088D01*
X86195883Y-53565952D01*
X86189284Y-53592296D01*
X86180135Y-53617866D01*
X86168523Y-53642416D01*
X86154561Y-53665710D01*
X86138384Y-53687523D01*
X86120146Y-53707646D01*
X86100023Y-53725884D01*
X86078210Y-53742061D01*
X86054916Y-53756023D01*
X86030366Y-53767635D01*
X86004796Y-53776784D01*
X85978452Y-53783383D01*
X85951588Y-53787367D01*
X85924463Y-53788700D01*
X84575537Y-53788700D01*
X84548412Y-53787367D01*
X84521548Y-53783383D01*
X84495204Y-53776784D01*
X84469634Y-53767635D01*
X84445084Y-53756023D01*
X84421790Y-53742061D01*
X84399977Y-53725884D01*
X84379854Y-53707646D01*
X84361616Y-53687523D01*
X84345439Y-53665710D01*
X84331477Y-53642416D01*
X84319865Y-53617866D01*
X84310716Y-53592296D01*
X84304117Y-53565952D01*
X84300133Y-53539088D01*
X84298800Y-53511963D01*
X84298800Y-52488037D01*
X84300133Y-52460912D01*
X84304117Y-52434048D01*
X84310716Y-52407704D01*
X84319865Y-52382134D01*
X84331477Y-52357584D01*
X84345439Y-52334290D01*
X84361616Y-52312477D01*
X84379854Y-52292354D01*
X84399977Y-52274116D01*
X84421790Y-52257939D01*
X84445084Y-52243977D01*
X84469634Y-52232365D01*
X84495204Y-52223216D01*
X84521548Y-52216617D01*
X84548412Y-52212633D01*
X84575537Y-52211300D01*
X85924463Y-52211300D01*
X85951588Y-52212633D01*
X85951588Y-52212633D01*
G37*
D20*
X85250000Y-53000000D03*
G04 #@! TD*
D19*
G04 #@! TO.C,C103*
G36*
X69120822Y-50125163D02*
X69148306Y-50129240D01*
X69175258Y-50135991D01*
X69201419Y-50145352D01*
X69226537Y-50157232D01*
X69250369Y-50171516D01*
X69272686Y-50188068D01*
X69293273Y-50206727D01*
X69311932Y-50227314D01*
X69328484Y-50249631D01*
X69342768Y-50273463D01*
X69354648Y-50298581D01*
X69364009Y-50324742D01*
X69370760Y-50351694D01*
X69374837Y-50379178D01*
X69376200Y-50406930D01*
X69376200Y-51393070D01*
X69374837Y-51420822D01*
X69370760Y-51448306D01*
X69364009Y-51475258D01*
X69354648Y-51501419D01*
X69342768Y-51526537D01*
X69328484Y-51550369D01*
X69311932Y-51572686D01*
X69293273Y-51593273D01*
X69272686Y-51611932D01*
X69250369Y-51628484D01*
X69226537Y-51642768D01*
X69201419Y-51654648D01*
X69175258Y-51664009D01*
X69148306Y-51670760D01*
X69120822Y-51674837D01*
X69093070Y-51676200D01*
X68356930Y-51676200D01*
X68329178Y-51674837D01*
X68301694Y-51670760D01*
X68274742Y-51664009D01*
X68248581Y-51654648D01*
X68223463Y-51642768D01*
X68199631Y-51628484D01*
X68177314Y-51611932D01*
X68156727Y-51593273D01*
X68138068Y-51572686D01*
X68121516Y-51550369D01*
X68107232Y-51526537D01*
X68095352Y-51501419D01*
X68085991Y-51475258D01*
X68079240Y-51448306D01*
X68075163Y-51420822D01*
X68073800Y-51393070D01*
X68073800Y-50406930D01*
X68075163Y-50379178D01*
X68079240Y-50351694D01*
X68085991Y-50324742D01*
X68095352Y-50298581D01*
X68107232Y-50273463D01*
X68121516Y-50249631D01*
X68138068Y-50227314D01*
X68156727Y-50206727D01*
X68177314Y-50188068D01*
X68199631Y-50171516D01*
X68223463Y-50157232D01*
X68248581Y-50145352D01*
X68274742Y-50135991D01*
X68301694Y-50129240D01*
X68329178Y-50125163D01*
X68356930Y-50123800D01*
X69093070Y-50123800D01*
X69120822Y-50125163D01*
X69120822Y-50125163D01*
G37*
D21*
X68725000Y-50900000D03*
D19*
G36*
X67070822Y-50125163D02*
X67098306Y-50129240D01*
X67125258Y-50135991D01*
X67151419Y-50145352D01*
X67176537Y-50157232D01*
X67200369Y-50171516D01*
X67222686Y-50188068D01*
X67243273Y-50206727D01*
X67261932Y-50227314D01*
X67278484Y-50249631D01*
X67292768Y-50273463D01*
X67304648Y-50298581D01*
X67314009Y-50324742D01*
X67320760Y-50351694D01*
X67324837Y-50379178D01*
X67326200Y-50406930D01*
X67326200Y-51393070D01*
X67324837Y-51420822D01*
X67320760Y-51448306D01*
X67314009Y-51475258D01*
X67304648Y-51501419D01*
X67292768Y-51526537D01*
X67278484Y-51550369D01*
X67261932Y-51572686D01*
X67243273Y-51593273D01*
X67222686Y-51611932D01*
X67200369Y-51628484D01*
X67176537Y-51642768D01*
X67151419Y-51654648D01*
X67125258Y-51664009D01*
X67098306Y-51670760D01*
X67070822Y-51674837D01*
X67043070Y-51676200D01*
X66306930Y-51676200D01*
X66279178Y-51674837D01*
X66251694Y-51670760D01*
X66224742Y-51664009D01*
X66198581Y-51654648D01*
X66173463Y-51642768D01*
X66149631Y-51628484D01*
X66127314Y-51611932D01*
X66106727Y-51593273D01*
X66088068Y-51572686D01*
X66071516Y-51550369D01*
X66057232Y-51526537D01*
X66045352Y-51501419D01*
X66035991Y-51475258D01*
X66029240Y-51448306D01*
X66025163Y-51420822D01*
X66023800Y-51393070D01*
X66023800Y-50406930D01*
X66025163Y-50379178D01*
X66029240Y-50351694D01*
X66035991Y-50324742D01*
X66045352Y-50298581D01*
X66057232Y-50273463D01*
X66071516Y-50249631D01*
X66088068Y-50227314D01*
X66106727Y-50206727D01*
X66127314Y-50188068D01*
X66149631Y-50171516D01*
X66173463Y-50157232D01*
X66198581Y-50145352D01*
X66224742Y-50135991D01*
X66251694Y-50129240D01*
X66279178Y-50125163D01*
X66306930Y-50123800D01*
X67043070Y-50123800D01*
X67070822Y-50125163D01*
X67070822Y-50125163D01*
G37*
D21*
X66675000Y-50900000D03*
G04 #@! TD*
D19*
G04 #@! TO.C,C104*
G36*
X69670822Y-62125163D02*
X69698306Y-62129240D01*
X69725258Y-62135991D01*
X69751419Y-62145352D01*
X69776537Y-62157232D01*
X69800369Y-62171516D01*
X69822686Y-62188068D01*
X69843273Y-62206727D01*
X69861932Y-62227314D01*
X69878484Y-62249631D01*
X69892768Y-62273463D01*
X69904648Y-62298581D01*
X69914009Y-62324742D01*
X69920760Y-62351694D01*
X69924837Y-62379178D01*
X69926200Y-62406930D01*
X69926200Y-63393070D01*
X69924837Y-63420822D01*
X69920760Y-63448306D01*
X69914009Y-63475258D01*
X69904648Y-63501419D01*
X69892768Y-63526537D01*
X69878484Y-63550369D01*
X69861932Y-63572686D01*
X69843273Y-63593273D01*
X69822686Y-63611932D01*
X69800369Y-63628484D01*
X69776537Y-63642768D01*
X69751419Y-63654648D01*
X69725258Y-63664009D01*
X69698306Y-63670760D01*
X69670822Y-63674837D01*
X69643070Y-63676200D01*
X68906930Y-63676200D01*
X68879178Y-63674837D01*
X68851694Y-63670760D01*
X68824742Y-63664009D01*
X68798581Y-63654648D01*
X68773463Y-63642768D01*
X68749631Y-63628484D01*
X68727314Y-63611932D01*
X68706727Y-63593273D01*
X68688068Y-63572686D01*
X68671516Y-63550369D01*
X68657232Y-63526537D01*
X68645352Y-63501419D01*
X68635991Y-63475258D01*
X68629240Y-63448306D01*
X68625163Y-63420822D01*
X68623800Y-63393070D01*
X68623800Y-62406930D01*
X68625163Y-62379178D01*
X68629240Y-62351694D01*
X68635991Y-62324742D01*
X68645352Y-62298581D01*
X68657232Y-62273463D01*
X68671516Y-62249631D01*
X68688068Y-62227314D01*
X68706727Y-62206727D01*
X68727314Y-62188068D01*
X68749631Y-62171516D01*
X68773463Y-62157232D01*
X68798581Y-62145352D01*
X68824742Y-62135991D01*
X68851694Y-62129240D01*
X68879178Y-62125163D01*
X68906930Y-62123800D01*
X69643070Y-62123800D01*
X69670822Y-62125163D01*
X69670822Y-62125163D01*
G37*
D21*
X69275000Y-62900000D03*
D19*
G36*
X71720822Y-62125163D02*
X71748306Y-62129240D01*
X71775258Y-62135991D01*
X71801419Y-62145352D01*
X71826537Y-62157232D01*
X71850369Y-62171516D01*
X71872686Y-62188068D01*
X71893273Y-62206727D01*
X71911932Y-62227314D01*
X71928484Y-62249631D01*
X71942768Y-62273463D01*
X71954648Y-62298581D01*
X71964009Y-62324742D01*
X71970760Y-62351694D01*
X71974837Y-62379178D01*
X71976200Y-62406930D01*
X71976200Y-63393070D01*
X71974837Y-63420822D01*
X71970760Y-63448306D01*
X71964009Y-63475258D01*
X71954648Y-63501419D01*
X71942768Y-63526537D01*
X71928484Y-63550369D01*
X71911932Y-63572686D01*
X71893273Y-63593273D01*
X71872686Y-63611932D01*
X71850369Y-63628484D01*
X71826537Y-63642768D01*
X71801419Y-63654648D01*
X71775258Y-63664009D01*
X71748306Y-63670760D01*
X71720822Y-63674837D01*
X71693070Y-63676200D01*
X70956930Y-63676200D01*
X70929178Y-63674837D01*
X70901694Y-63670760D01*
X70874742Y-63664009D01*
X70848581Y-63654648D01*
X70823463Y-63642768D01*
X70799631Y-63628484D01*
X70777314Y-63611932D01*
X70756727Y-63593273D01*
X70738068Y-63572686D01*
X70721516Y-63550369D01*
X70707232Y-63526537D01*
X70695352Y-63501419D01*
X70685991Y-63475258D01*
X70679240Y-63448306D01*
X70675163Y-63420822D01*
X70673800Y-63393070D01*
X70673800Y-62406930D01*
X70675163Y-62379178D01*
X70679240Y-62351694D01*
X70685991Y-62324742D01*
X70695352Y-62298581D01*
X70707232Y-62273463D01*
X70721516Y-62249631D01*
X70738068Y-62227314D01*
X70756727Y-62206727D01*
X70777314Y-62188068D01*
X70799631Y-62171516D01*
X70823463Y-62157232D01*
X70848581Y-62145352D01*
X70874742Y-62135991D01*
X70901694Y-62129240D01*
X70929178Y-62125163D01*
X70956930Y-62123800D01*
X71693070Y-62123800D01*
X71720822Y-62125163D01*
X71720822Y-62125163D01*
G37*
D21*
X71325000Y-62900000D03*
G04 #@! TD*
D19*
G04 #@! TO.C,C105*
G36*
X97170822Y-51625163D02*
X97198306Y-51629240D01*
X97225258Y-51635991D01*
X97251419Y-51645352D01*
X97276537Y-51657232D01*
X97300369Y-51671516D01*
X97322686Y-51688068D01*
X97343273Y-51706727D01*
X97361932Y-51727314D01*
X97378484Y-51749631D01*
X97392768Y-51773463D01*
X97404648Y-51798581D01*
X97414009Y-51824742D01*
X97420760Y-51851694D01*
X97424837Y-51879178D01*
X97426200Y-51906930D01*
X97426200Y-52893070D01*
X97424837Y-52920822D01*
X97420760Y-52948306D01*
X97414009Y-52975258D01*
X97404648Y-53001419D01*
X97392768Y-53026537D01*
X97378484Y-53050369D01*
X97361932Y-53072686D01*
X97343273Y-53093273D01*
X97322686Y-53111932D01*
X97300369Y-53128484D01*
X97276537Y-53142768D01*
X97251419Y-53154648D01*
X97225258Y-53164009D01*
X97198306Y-53170760D01*
X97170822Y-53174837D01*
X97143070Y-53176200D01*
X96406930Y-53176200D01*
X96379178Y-53174837D01*
X96351694Y-53170760D01*
X96324742Y-53164009D01*
X96298581Y-53154648D01*
X96273463Y-53142768D01*
X96249631Y-53128484D01*
X96227314Y-53111932D01*
X96206727Y-53093273D01*
X96188068Y-53072686D01*
X96171516Y-53050369D01*
X96157232Y-53026537D01*
X96145352Y-53001419D01*
X96135991Y-52975258D01*
X96129240Y-52948306D01*
X96125163Y-52920822D01*
X96123800Y-52893070D01*
X96123800Y-51906930D01*
X96125163Y-51879178D01*
X96129240Y-51851694D01*
X96135991Y-51824742D01*
X96145352Y-51798581D01*
X96157232Y-51773463D01*
X96171516Y-51749631D01*
X96188068Y-51727314D01*
X96206727Y-51706727D01*
X96227314Y-51688068D01*
X96249631Y-51671516D01*
X96273463Y-51657232D01*
X96298581Y-51645352D01*
X96324742Y-51635991D01*
X96351694Y-51629240D01*
X96379178Y-51625163D01*
X96406930Y-51623800D01*
X97143070Y-51623800D01*
X97170822Y-51625163D01*
X97170822Y-51625163D01*
G37*
D21*
X96775000Y-52400000D03*
D19*
G36*
X99220822Y-51625163D02*
X99248306Y-51629240D01*
X99275258Y-51635991D01*
X99301419Y-51645352D01*
X99326537Y-51657232D01*
X99350369Y-51671516D01*
X99372686Y-51688068D01*
X99393273Y-51706727D01*
X99411932Y-51727314D01*
X99428484Y-51749631D01*
X99442768Y-51773463D01*
X99454648Y-51798581D01*
X99464009Y-51824742D01*
X99470760Y-51851694D01*
X99474837Y-51879178D01*
X99476200Y-51906930D01*
X99476200Y-52893070D01*
X99474837Y-52920822D01*
X99470760Y-52948306D01*
X99464009Y-52975258D01*
X99454648Y-53001419D01*
X99442768Y-53026537D01*
X99428484Y-53050369D01*
X99411932Y-53072686D01*
X99393273Y-53093273D01*
X99372686Y-53111932D01*
X99350369Y-53128484D01*
X99326537Y-53142768D01*
X99301419Y-53154648D01*
X99275258Y-53164009D01*
X99248306Y-53170760D01*
X99220822Y-53174837D01*
X99193070Y-53176200D01*
X98456930Y-53176200D01*
X98429178Y-53174837D01*
X98401694Y-53170760D01*
X98374742Y-53164009D01*
X98348581Y-53154648D01*
X98323463Y-53142768D01*
X98299631Y-53128484D01*
X98277314Y-53111932D01*
X98256727Y-53093273D01*
X98238068Y-53072686D01*
X98221516Y-53050369D01*
X98207232Y-53026537D01*
X98195352Y-53001419D01*
X98185991Y-52975258D01*
X98179240Y-52948306D01*
X98175163Y-52920822D01*
X98173800Y-52893070D01*
X98173800Y-51906930D01*
X98175163Y-51879178D01*
X98179240Y-51851694D01*
X98185991Y-51824742D01*
X98195352Y-51798581D01*
X98207232Y-51773463D01*
X98221516Y-51749631D01*
X98238068Y-51727314D01*
X98256727Y-51706727D01*
X98277314Y-51688068D01*
X98299631Y-51671516D01*
X98323463Y-51657232D01*
X98348581Y-51645352D01*
X98374742Y-51635991D01*
X98401694Y-51629240D01*
X98429178Y-51625163D01*
X98456930Y-51623800D01*
X99193070Y-51623800D01*
X99220822Y-51625163D01*
X99220822Y-51625163D01*
G37*
D21*
X98825000Y-52400000D03*
G04 #@! TD*
D19*
G04 #@! TO.C,C106*
G36*
X84920822Y-111075163D02*
X84948306Y-111079240D01*
X84975258Y-111085991D01*
X85001419Y-111095352D01*
X85026537Y-111107232D01*
X85050369Y-111121516D01*
X85072686Y-111138068D01*
X85093273Y-111156727D01*
X85111932Y-111177314D01*
X85128484Y-111199631D01*
X85142768Y-111223463D01*
X85154648Y-111248581D01*
X85164009Y-111274742D01*
X85170760Y-111301694D01*
X85174837Y-111329178D01*
X85176200Y-111356930D01*
X85176200Y-112093070D01*
X85174837Y-112120822D01*
X85170760Y-112148306D01*
X85164009Y-112175258D01*
X85154648Y-112201419D01*
X85142768Y-112226537D01*
X85128484Y-112250369D01*
X85111932Y-112272686D01*
X85093273Y-112293273D01*
X85072686Y-112311932D01*
X85050369Y-112328484D01*
X85026537Y-112342768D01*
X85001419Y-112354648D01*
X84975258Y-112364009D01*
X84948306Y-112370760D01*
X84920822Y-112374837D01*
X84893070Y-112376200D01*
X83906930Y-112376200D01*
X83879178Y-112374837D01*
X83851694Y-112370760D01*
X83824742Y-112364009D01*
X83798581Y-112354648D01*
X83773463Y-112342768D01*
X83749631Y-112328484D01*
X83727314Y-112311932D01*
X83706727Y-112293273D01*
X83688068Y-112272686D01*
X83671516Y-112250369D01*
X83657232Y-112226537D01*
X83645352Y-112201419D01*
X83635991Y-112175258D01*
X83629240Y-112148306D01*
X83625163Y-112120822D01*
X83623800Y-112093070D01*
X83623800Y-111356930D01*
X83625163Y-111329178D01*
X83629240Y-111301694D01*
X83635991Y-111274742D01*
X83645352Y-111248581D01*
X83657232Y-111223463D01*
X83671516Y-111199631D01*
X83688068Y-111177314D01*
X83706727Y-111156727D01*
X83727314Y-111138068D01*
X83749631Y-111121516D01*
X83773463Y-111107232D01*
X83798581Y-111095352D01*
X83824742Y-111085991D01*
X83851694Y-111079240D01*
X83879178Y-111075163D01*
X83906930Y-111073800D01*
X84893070Y-111073800D01*
X84920822Y-111075163D01*
X84920822Y-111075163D01*
G37*
D21*
X84400000Y-111725000D03*
D19*
G36*
X84920822Y-113125163D02*
X84948306Y-113129240D01*
X84975258Y-113135991D01*
X85001419Y-113145352D01*
X85026537Y-113157232D01*
X85050369Y-113171516D01*
X85072686Y-113188068D01*
X85093273Y-113206727D01*
X85111932Y-113227314D01*
X85128484Y-113249631D01*
X85142768Y-113273463D01*
X85154648Y-113298581D01*
X85164009Y-113324742D01*
X85170760Y-113351694D01*
X85174837Y-113379178D01*
X85176200Y-113406930D01*
X85176200Y-114143070D01*
X85174837Y-114170822D01*
X85170760Y-114198306D01*
X85164009Y-114225258D01*
X85154648Y-114251419D01*
X85142768Y-114276537D01*
X85128484Y-114300369D01*
X85111932Y-114322686D01*
X85093273Y-114343273D01*
X85072686Y-114361932D01*
X85050369Y-114378484D01*
X85026537Y-114392768D01*
X85001419Y-114404648D01*
X84975258Y-114414009D01*
X84948306Y-114420760D01*
X84920822Y-114424837D01*
X84893070Y-114426200D01*
X83906930Y-114426200D01*
X83879178Y-114424837D01*
X83851694Y-114420760D01*
X83824742Y-114414009D01*
X83798581Y-114404648D01*
X83773463Y-114392768D01*
X83749631Y-114378484D01*
X83727314Y-114361932D01*
X83706727Y-114343273D01*
X83688068Y-114322686D01*
X83671516Y-114300369D01*
X83657232Y-114276537D01*
X83645352Y-114251419D01*
X83635991Y-114225258D01*
X83629240Y-114198306D01*
X83625163Y-114170822D01*
X83623800Y-114143070D01*
X83623800Y-113406930D01*
X83625163Y-113379178D01*
X83629240Y-113351694D01*
X83635991Y-113324742D01*
X83645352Y-113298581D01*
X83657232Y-113273463D01*
X83671516Y-113249631D01*
X83688068Y-113227314D01*
X83706727Y-113206727D01*
X83727314Y-113188068D01*
X83749631Y-113171516D01*
X83773463Y-113157232D01*
X83798581Y-113145352D01*
X83824742Y-113135991D01*
X83851694Y-113129240D01*
X83879178Y-113125163D01*
X83906930Y-113123800D01*
X84893070Y-113123800D01*
X84920822Y-113125163D01*
X84920822Y-113125163D01*
G37*
D21*
X84400000Y-113775000D03*
G04 #@! TD*
D19*
G04 #@! TO.C,C113*
G36*
X85570822Y-105725163D02*
X85598306Y-105729240D01*
X85625258Y-105735991D01*
X85651419Y-105745352D01*
X85676537Y-105757232D01*
X85700369Y-105771516D01*
X85722686Y-105788068D01*
X85743273Y-105806727D01*
X85761932Y-105827314D01*
X85778484Y-105849631D01*
X85792768Y-105873463D01*
X85804648Y-105898581D01*
X85814009Y-105924742D01*
X85820760Y-105951694D01*
X85824837Y-105979178D01*
X85826200Y-106006930D01*
X85826200Y-106743070D01*
X85824837Y-106770822D01*
X85820760Y-106798306D01*
X85814009Y-106825258D01*
X85804648Y-106851419D01*
X85792768Y-106876537D01*
X85778484Y-106900369D01*
X85761932Y-106922686D01*
X85743273Y-106943273D01*
X85722686Y-106961932D01*
X85700369Y-106978484D01*
X85676537Y-106992768D01*
X85651419Y-107004648D01*
X85625258Y-107014009D01*
X85598306Y-107020760D01*
X85570822Y-107024837D01*
X85543070Y-107026200D01*
X84556930Y-107026200D01*
X84529178Y-107024837D01*
X84501694Y-107020760D01*
X84474742Y-107014009D01*
X84448581Y-107004648D01*
X84423463Y-106992768D01*
X84399631Y-106978484D01*
X84377314Y-106961932D01*
X84356727Y-106943273D01*
X84338068Y-106922686D01*
X84321516Y-106900369D01*
X84307232Y-106876537D01*
X84295352Y-106851419D01*
X84285991Y-106825258D01*
X84279240Y-106798306D01*
X84275163Y-106770822D01*
X84273800Y-106743070D01*
X84273800Y-106006930D01*
X84275163Y-105979178D01*
X84279240Y-105951694D01*
X84285991Y-105924742D01*
X84295352Y-105898581D01*
X84307232Y-105873463D01*
X84321516Y-105849631D01*
X84338068Y-105827314D01*
X84356727Y-105806727D01*
X84377314Y-105788068D01*
X84399631Y-105771516D01*
X84423463Y-105757232D01*
X84448581Y-105745352D01*
X84474742Y-105735991D01*
X84501694Y-105729240D01*
X84529178Y-105725163D01*
X84556930Y-105723800D01*
X85543070Y-105723800D01*
X85570822Y-105725163D01*
X85570822Y-105725163D01*
G37*
D21*
X85050000Y-106375000D03*
D19*
G36*
X85570822Y-107775163D02*
X85598306Y-107779240D01*
X85625258Y-107785991D01*
X85651419Y-107795352D01*
X85676537Y-107807232D01*
X85700369Y-107821516D01*
X85722686Y-107838068D01*
X85743273Y-107856727D01*
X85761932Y-107877314D01*
X85778484Y-107899631D01*
X85792768Y-107923463D01*
X85804648Y-107948581D01*
X85814009Y-107974742D01*
X85820760Y-108001694D01*
X85824837Y-108029178D01*
X85826200Y-108056930D01*
X85826200Y-108793070D01*
X85824837Y-108820822D01*
X85820760Y-108848306D01*
X85814009Y-108875258D01*
X85804648Y-108901419D01*
X85792768Y-108926537D01*
X85778484Y-108950369D01*
X85761932Y-108972686D01*
X85743273Y-108993273D01*
X85722686Y-109011932D01*
X85700369Y-109028484D01*
X85676537Y-109042768D01*
X85651419Y-109054648D01*
X85625258Y-109064009D01*
X85598306Y-109070760D01*
X85570822Y-109074837D01*
X85543070Y-109076200D01*
X84556930Y-109076200D01*
X84529178Y-109074837D01*
X84501694Y-109070760D01*
X84474742Y-109064009D01*
X84448581Y-109054648D01*
X84423463Y-109042768D01*
X84399631Y-109028484D01*
X84377314Y-109011932D01*
X84356727Y-108993273D01*
X84338068Y-108972686D01*
X84321516Y-108950369D01*
X84307232Y-108926537D01*
X84295352Y-108901419D01*
X84285991Y-108875258D01*
X84279240Y-108848306D01*
X84275163Y-108820822D01*
X84273800Y-108793070D01*
X84273800Y-108056930D01*
X84275163Y-108029178D01*
X84279240Y-108001694D01*
X84285991Y-107974742D01*
X84295352Y-107948581D01*
X84307232Y-107923463D01*
X84321516Y-107899631D01*
X84338068Y-107877314D01*
X84356727Y-107856727D01*
X84377314Y-107838068D01*
X84399631Y-107821516D01*
X84423463Y-107807232D01*
X84448581Y-107795352D01*
X84474742Y-107785991D01*
X84501694Y-107779240D01*
X84529178Y-107775163D01*
X84556930Y-107773800D01*
X85543070Y-107773800D01*
X85570822Y-107775163D01*
X85570822Y-107775163D01*
G37*
D21*
X85050000Y-108425000D03*
G04 #@! TD*
D19*
G04 #@! TO.C,C114*
G36*
X71020822Y-105575163D02*
X71048306Y-105579240D01*
X71075258Y-105585991D01*
X71101419Y-105595352D01*
X71126537Y-105607232D01*
X71150369Y-105621516D01*
X71172686Y-105638068D01*
X71193273Y-105656727D01*
X71211932Y-105677314D01*
X71228484Y-105699631D01*
X71242768Y-105723463D01*
X71254648Y-105748581D01*
X71264009Y-105774742D01*
X71270760Y-105801694D01*
X71274837Y-105829178D01*
X71276200Y-105856930D01*
X71276200Y-106843070D01*
X71274837Y-106870822D01*
X71270760Y-106898306D01*
X71264009Y-106925258D01*
X71254648Y-106951419D01*
X71242768Y-106976537D01*
X71228484Y-107000369D01*
X71211932Y-107022686D01*
X71193273Y-107043273D01*
X71172686Y-107061932D01*
X71150369Y-107078484D01*
X71126537Y-107092768D01*
X71101419Y-107104648D01*
X71075258Y-107114009D01*
X71048306Y-107120760D01*
X71020822Y-107124837D01*
X70993070Y-107126200D01*
X70256930Y-107126200D01*
X70229178Y-107124837D01*
X70201694Y-107120760D01*
X70174742Y-107114009D01*
X70148581Y-107104648D01*
X70123463Y-107092768D01*
X70099631Y-107078484D01*
X70077314Y-107061932D01*
X70056727Y-107043273D01*
X70038068Y-107022686D01*
X70021516Y-107000369D01*
X70007232Y-106976537D01*
X69995352Y-106951419D01*
X69985991Y-106925258D01*
X69979240Y-106898306D01*
X69975163Y-106870822D01*
X69973800Y-106843070D01*
X69973800Y-105856930D01*
X69975163Y-105829178D01*
X69979240Y-105801694D01*
X69985991Y-105774742D01*
X69995352Y-105748581D01*
X70007232Y-105723463D01*
X70021516Y-105699631D01*
X70038068Y-105677314D01*
X70056727Y-105656727D01*
X70077314Y-105638068D01*
X70099631Y-105621516D01*
X70123463Y-105607232D01*
X70148581Y-105595352D01*
X70174742Y-105585991D01*
X70201694Y-105579240D01*
X70229178Y-105575163D01*
X70256930Y-105573800D01*
X70993070Y-105573800D01*
X71020822Y-105575163D01*
X71020822Y-105575163D01*
G37*
D21*
X70625000Y-106350000D03*
D19*
G36*
X68970822Y-105575163D02*
X68998306Y-105579240D01*
X69025258Y-105585991D01*
X69051419Y-105595352D01*
X69076537Y-105607232D01*
X69100369Y-105621516D01*
X69122686Y-105638068D01*
X69143273Y-105656727D01*
X69161932Y-105677314D01*
X69178484Y-105699631D01*
X69192768Y-105723463D01*
X69204648Y-105748581D01*
X69214009Y-105774742D01*
X69220760Y-105801694D01*
X69224837Y-105829178D01*
X69226200Y-105856930D01*
X69226200Y-106843070D01*
X69224837Y-106870822D01*
X69220760Y-106898306D01*
X69214009Y-106925258D01*
X69204648Y-106951419D01*
X69192768Y-106976537D01*
X69178484Y-107000369D01*
X69161932Y-107022686D01*
X69143273Y-107043273D01*
X69122686Y-107061932D01*
X69100369Y-107078484D01*
X69076537Y-107092768D01*
X69051419Y-107104648D01*
X69025258Y-107114009D01*
X68998306Y-107120760D01*
X68970822Y-107124837D01*
X68943070Y-107126200D01*
X68206930Y-107126200D01*
X68179178Y-107124837D01*
X68151694Y-107120760D01*
X68124742Y-107114009D01*
X68098581Y-107104648D01*
X68073463Y-107092768D01*
X68049631Y-107078484D01*
X68027314Y-107061932D01*
X68006727Y-107043273D01*
X67988068Y-107022686D01*
X67971516Y-107000369D01*
X67957232Y-106976537D01*
X67945352Y-106951419D01*
X67935991Y-106925258D01*
X67929240Y-106898306D01*
X67925163Y-106870822D01*
X67923800Y-106843070D01*
X67923800Y-105856930D01*
X67925163Y-105829178D01*
X67929240Y-105801694D01*
X67935991Y-105774742D01*
X67945352Y-105748581D01*
X67957232Y-105723463D01*
X67971516Y-105699631D01*
X67988068Y-105677314D01*
X68006727Y-105656727D01*
X68027314Y-105638068D01*
X68049631Y-105621516D01*
X68073463Y-105607232D01*
X68098581Y-105595352D01*
X68124742Y-105585991D01*
X68151694Y-105579240D01*
X68179178Y-105575163D01*
X68206930Y-105573800D01*
X68943070Y-105573800D01*
X68970822Y-105575163D01*
X68970822Y-105575163D01*
G37*
D21*
X68575000Y-106350000D03*
G04 #@! TD*
D19*
G04 #@! TO.C,C115*
G36*
X73020822Y-77975163D02*
X73048306Y-77979240D01*
X73075258Y-77985991D01*
X73101419Y-77995352D01*
X73126537Y-78007232D01*
X73150369Y-78021516D01*
X73172686Y-78038068D01*
X73193273Y-78056727D01*
X73211932Y-78077314D01*
X73228484Y-78099631D01*
X73242768Y-78123463D01*
X73254648Y-78148581D01*
X73264009Y-78174742D01*
X73270760Y-78201694D01*
X73274837Y-78229178D01*
X73276200Y-78256930D01*
X73276200Y-78993070D01*
X73274837Y-79020822D01*
X73270760Y-79048306D01*
X73264009Y-79075258D01*
X73254648Y-79101419D01*
X73242768Y-79126537D01*
X73228484Y-79150369D01*
X73211932Y-79172686D01*
X73193273Y-79193273D01*
X73172686Y-79211932D01*
X73150369Y-79228484D01*
X73126537Y-79242768D01*
X73101419Y-79254648D01*
X73075258Y-79264009D01*
X73048306Y-79270760D01*
X73020822Y-79274837D01*
X72993070Y-79276200D01*
X72006930Y-79276200D01*
X71979178Y-79274837D01*
X71951694Y-79270760D01*
X71924742Y-79264009D01*
X71898581Y-79254648D01*
X71873463Y-79242768D01*
X71849631Y-79228484D01*
X71827314Y-79211932D01*
X71806727Y-79193273D01*
X71788068Y-79172686D01*
X71771516Y-79150369D01*
X71757232Y-79126537D01*
X71745352Y-79101419D01*
X71735991Y-79075258D01*
X71729240Y-79048306D01*
X71725163Y-79020822D01*
X71723800Y-78993070D01*
X71723800Y-78256930D01*
X71725163Y-78229178D01*
X71729240Y-78201694D01*
X71735991Y-78174742D01*
X71745352Y-78148581D01*
X71757232Y-78123463D01*
X71771516Y-78099631D01*
X71788068Y-78077314D01*
X71806727Y-78056727D01*
X71827314Y-78038068D01*
X71849631Y-78021516D01*
X71873463Y-78007232D01*
X71898581Y-77995352D01*
X71924742Y-77985991D01*
X71951694Y-77979240D01*
X71979178Y-77975163D01*
X72006930Y-77973800D01*
X72993070Y-77973800D01*
X73020822Y-77975163D01*
X73020822Y-77975163D01*
G37*
D21*
X72500000Y-78625000D03*
D19*
G36*
X73020822Y-75925163D02*
X73048306Y-75929240D01*
X73075258Y-75935991D01*
X73101419Y-75945352D01*
X73126537Y-75957232D01*
X73150369Y-75971516D01*
X73172686Y-75988068D01*
X73193273Y-76006727D01*
X73211932Y-76027314D01*
X73228484Y-76049631D01*
X73242768Y-76073463D01*
X73254648Y-76098581D01*
X73264009Y-76124742D01*
X73270760Y-76151694D01*
X73274837Y-76179178D01*
X73276200Y-76206930D01*
X73276200Y-76943070D01*
X73274837Y-76970822D01*
X73270760Y-76998306D01*
X73264009Y-77025258D01*
X73254648Y-77051419D01*
X73242768Y-77076537D01*
X73228484Y-77100369D01*
X73211932Y-77122686D01*
X73193273Y-77143273D01*
X73172686Y-77161932D01*
X73150369Y-77178484D01*
X73126537Y-77192768D01*
X73101419Y-77204648D01*
X73075258Y-77214009D01*
X73048306Y-77220760D01*
X73020822Y-77224837D01*
X72993070Y-77226200D01*
X72006930Y-77226200D01*
X71979178Y-77224837D01*
X71951694Y-77220760D01*
X71924742Y-77214009D01*
X71898581Y-77204648D01*
X71873463Y-77192768D01*
X71849631Y-77178484D01*
X71827314Y-77161932D01*
X71806727Y-77143273D01*
X71788068Y-77122686D01*
X71771516Y-77100369D01*
X71757232Y-77076537D01*
X71745352Y-77051419D01*
X71735991Y-77025258D01*
X71729240Y-76998306D01*
X71725163Y-76970822D01*
X71723800Y-76943070D01*
X71723800Y-76206930D01*
X71725163Y-76179178D01*
X71729240Y-76151694D01*
X71735991Y-76124742D01*
X71745352Y-76098581D01*
X71757232Y-76073463D01*
X71771516Y-76049631D01*
X71788068Y-76027314D01*
X71806727Y-76006727D01*
X71827314Y-75988068D01*
X71849631Y-75971516D01*
X71873463Y-75957232D01*
X71898581Y-75945352D01*
X71924742Y-75935991D01*
X71951694Y-75929240D01*
X71979178Y-75925163D01*
X72006930Y-75923800D01*
X72993070Y-75923800D01*
X73020822Y-75925163D01*
X73020822Y-75925163D01*
G37*
D21*
X72500000Y-76575000D03*
G04 #@! TD*
D19*
G04 #@! TO.C,C116*
G36*
X73020822Y-80325163D02*
X73048306Y-80329240D01*
X73075258Y-80335991D01*
X73101419Y-80345352D01*
X73126537Y-80357232D01*
X73150369Y-80371516D01*
X73172686Y-80388068D01*
X73193273Y-80406727D01*
X73211932Y-80427314D01*
X73228484Y-80449631D01*
X73242768Y-80473463D01*
X73254648Y-80498581D01*
X73264009Y-80524742D01*
X73270760Y-80551694D01*
X73274837Y-80579178D01*
X73276200Y-80606930D01*
X73276200Y-81343070D01*
X73274837Y-81370822D01*
X73270760Y-81398306D01*
X73264009Y-81425258D01*
X73254648Y-81451419D01*
X73242768Y-81476537D01*
X73228484Y-81500369D01*
X73211932Y-81522686D01*
X73193273Y-81543273D01*
X73172686Y-81561932D01*
X73150369Y-81578484D01*
X73126537Y-81592768D01*
X73101419Y-81604648D01*
X73075258Y-81614009D01*
X73048306Y-81620760D01*
X73020822Y-81624837D01*
X72993070Y-81626200D01*
X72006930Y-81626200D01*
X71979178Y-81624837D01*
X71951694Y-81620760D01*
X71924742Y-81614009D01*
X71898581Y-81604648D01*
X71873463Y-81592768D01*
X71849631Y-81578484D01*
X71827314Y-81561932D01*
X71806727Y-81543273D01*
X71788068Y-81522686D01*
X71771516Y-81500369D01*
X71757232Y-81476537D01*
X71745352Y-81451419D01*
X71735991Y-81425258D01*
X71729240Y-81398306D01*
X71725163Y-81370822D01*
X71723800Y-81343070D01*
X71723800Y-80606930D01*
X71725163Y-80579178D01*
X71729240Y-80551694D01*
X71735991Y-80524742D01*
X71745352Y-80498581D01*
X71757232Y-80473463D01*
X71771516Y-80449631D01*
X71788068Y-80427314D01*
X71806727Y-80406727D01*
X71827314Y-80388068D01*
X71849631Y-80371516D01*
X71873463Y-80357232D01*
X71898581Y-80345352D01*
X71924742Y-80335991D01*
X71951694Y-80329240D01*
X71979178Y-80325163D01*
X72006930Y-80323800D01*
X72993070Y-80323800D01*
X73020822Y-80325163D01*
X73020822Y-80325163D01*
G37*
D21*
X72500000Y-80975000D03*
D19*
G36*
X73020822Y-82375163D02*
X73048306Y-82379240D01*
X73075258Y-82385991D01*
X73101419Y-82395352D01*
X73126537Y-82407232D01*
X73150369Y-82421516D01*
X73172686Y-82438068D01*
X73193273Y-82456727D01*
X73211932Y-82477314D01*
X73228484Y-82499631D01*
X73242768Y-82523463D01*
X73254648Y-82548581D01*
X73264009Y-82574742D01*
X73270760Y-82601694D01*
X73274837Y-82629178D01*
X73276200Y-82656930D01*
X73276200Y-83393070D01*
X73274837Y-83420822D01*
X73270760Y-83448306D01*
X73264009Y-83475258D01*
X73254648Y-83501419D01*
X73242768Y-83526537D01*
X73228484Y-83550369D01*
X73211932Y-83572686D01*
X73193273Y-83593273D01*
X73172686Y-83611932D01*
X73150369Y-83628484D01*
X73126537Y-83642768D01*
X73101419Y-83654648D01*
X73075258Y-83664009D01*
X73048306Y-83670760D01*
X73020822Y-83674837D01*
X72993070Y-83676200D01*
X72006930Y-83676200D01*
X71979178Y-83674837D01*
X71951694Y-83670760D01*
X71924742Y-83664009D01*
X71898581Y-83654648D01*
X71873463Y-83642768D01*
X71849631Y-83628484D01*
X71827314Y-83611932D01*
X71806727Y-83593273D01*
X71788068Y-83572686D01*
X71771516Y-83550369D01*
X71757232Y-83526537D01*
X71745352Y-83501419D01*
X71735991Y-83475258D01*
X71729240Y-83448306D01*
X71725163Y-83420822D01*
X71723800Y-83393070D01*
X71723800Y-82656930D01*
X71725163Y-82629178D01*
X71729240Y-82601694D01*
X71735991Y-82574742D01*
X71745352Y-82548581D01*
X71757232Y-82523463D01*
X71771516Y-82499631D01*
X71788068Y-82477314D01*
X71806727Y-82456727D01*
X71827314Y-82438068D01*
X71849631Y-82421516D01*
X71873463Y-82407232D01*
X71898581Y-82395352D01*
X71924742Y-82385991D01*
X71951694Y-82379240D01*
X71979178Y-82375163D01*
X72006930Y-82373800D01*
X72993070Y-82373800D01*
X73020822Y-82375163D01*
X73020822Y-82375163D01*
G37*
D21*
X72500000Y-83025000D03*
G04 #@! TD*
D19*
G04 #@! TO.C,D101*
G36*
X64811495Y-56325213D02*
X64839983Y-56329439D01*
X64867920Y-56336437D01*
X64895036Y-56346139D01*
X64921071Y-56358453D01*
X64945773Y-56373259D01*
X64968905Y-56390415D01*
X64990245Y-56409755D01*
X65009585Y-56431095D01*
X65026741Y-56454227D01*
X65041547Y-56478929D01*
X65053861Y-56504964D01*
X65063563Y-56532080D01*
X65070561Y-56560017D01*
X65074787Y-56588505D01*
X65076200Y-56617270D01*
X65076200Y-57382730D01*
X65074787Y-57411495D01*
X65070561Y-57439983D01*
X65063563Y-57467920D01*
X65053861Y-57495036D01*
X65041547Y-57521071D01*
X65026741Y-57545773D01*
X65009585Y-57568905D01*
X64990245Y-57590245D01*
X64968905Y-57609585D01*
X64945773Y-57626741D01*
X64921071Y-57641547D01*
X64895036Y-57653861D01*
X64867920Y-57663563D01*
X64839983Y-57670561D01*
X64811495Y-57674787D01*
X64782730Y-57676200D01*
X63817270Y-57676200D01*
X63788505Y-57674787D01*
X63760017Y-57670561D01*
X63732080Y-57663563D01*
X63704964Y-57653861D01*
X63678929Y-57641547D01*
X63654227Y-57626741D01*
X63631095Y-57609585D01*
X63609755Y-57590245D01*
X63590415Y-57568905D01*
X63573259Y-57545773D01*
X63558453Y-57521071D01*
X63546139Y-57495036D01*
X63536437Y-57467920D01*
X63529439Y-57439983D01*
X63525213Y-57411495D01*
X63523800Y-57382730D01*
X63523800Y-56617270D01*
X63525213Y-56588505D01*
X63529439Y-56560017D01*
X63536437Y-56532080D01*
X63546139Y-56504964D01*
X63558453Y-56478929D01*
X63573259Y-56454227D01*
X63590415Y-56431095D01*
X63609755Y-56409755D01*
X63631095Y-56390415D01*
X63654227Y-56373259D01*
X63678929Y-56358453D01*
X63704964Y-56346139D01*
X63732080Y-56336437D01*
X63760017Y-56329439D01*
X63788505Y-56325213D01*
X63817270Y-56323800D01*
X64782730Y-56323800D01*
X64811495Y-56325213D01*
X64811495Y-56325213D01*
G37*
D22*
X64300000Y-57000000D03*
D19*
G36*
X64811495Y-54125213D02*
X64839983Y-54129439D01*
X64867920Y-54136437D01*
X64895036Y-54146139D01*
X64921071Y-54158453D01*
X64945773Y-54173259D01*
X64968905Y-54190415D01*
X64990245Y-54209755D01*
X65009585Y-54231095D01*
X65026741Y-54254227D01*
X65041547Y-54278929D01*
X65053861Y-54304964D01*
X65063563Y-54332080D01*
X65070561Y-54360017D01*
X65074787Y-54388505D01*
X65076200Y-54417270D01*
X65076200Y-55182730D01*
X65074787Y-55211495D01*
X65070561Y-55239983D01*
X65063563Y-55267920D01*
X65053861Y-55295036D01*
X65041547Y-55321071D01*
X65026741Y-55345773D01*
X65009585Y-55368905D01*
X64990245Y-55390245D01*
X64968905Y-55409585D01*
X64945773Y-55426741D01*
X64921071Y-55441547D01*
X64895036Y-55453861D01*
X64867920Y-55463563D01*
X64839983Y-55470561D01*
X64811495Y-55474787D01*
X64782730Y-55476200D01*
X63817270Y-55476200D01*
X63788505Y-55474787D01*
X63760017Y-55470561D01*
X63732080Y-55463563D01*
X63704964Y-55453861D01*
X63678929Y-55441547D01*
X63654227Y-55426741D01*
X63631095Y-55409585D01*
X63609755Y-55390245D01*
X63590415Y-55368905D01*
X63573259Y-55345773D01*
X63558453Y-55321071D01*
X63546139Y-55295036D01*
X63536437Y-55267920D01*
X63529439Y-55239983D01*
X63525213Y-55211495D01*
X63523800Y-55182730D01*
X63523800Y-54417270D01*
X63525213Y-54388505D01*
X63529439Y-54360017D01*
X63536437Y-54332080D01*
X63546139Y-54304964D01*
X63558453Y-54278929D01*
X63573259Y-54254227D01*
X63590415Y-54231095D01*
X63609755Y-54209755D01*
X63631095Y-54190415D01*
X63654227Y-54173259D01*
X63678929Y-54158453D01*
X63704964Y-54146139D01*
X63732080Y-54136437D01*
X63760017Y-54129439D01*
X63788505Y-54125213D01*
X63817270Y-54123800D01*
X64782730Y-54123800D01*
X64811495Y-54125213D01*
X64811495Y-54125213D01*
G37*
D22*
X64300000Y-54800000D03*
G04 #@! TD*
D19*
G04 #@! TO.C,D102*
G36*
X62311495Y-54125213D02*
X62339983Y-54129439D01*
X62367920Y-54136437D01*
X62395036Y-54146139D01*
X62421071Y-54158453D01*
X62445773Y-54173259D01*
X62468905Y-54190415D01*
X62490245Y-54209755D01*
X62509585Y-54231095D01*
X62526741Y-54254227D01*
X62541547Y-54278929D01*
X62553861Y-54304964D01*
X62563563Y-54332080D01*
X62570561Y-54360017D01*
X62574787Y-54388505D01*
X62576200Y-54417270D01*
X62576200Y-55182730D01*
X62574787Y-55211495D01*
X62570561Y-55239983D01*
X62563563Y-55267920D01*
X62553861Y-55295036D01*
X62541547Y-55321071D01*
X62526741Y-55345773D01*
X62509585Y-55368905D01*
X62490245Y-55390245D01*
X62468905Y-55409585D01*
X62445773Y-55426741D01*
X62421071Y-55441547D01*
X62395036Y-55453861D01*
X62367920Y-55463563D01*
X62339983Y-55470561D01*
X62311495Y-55474787D01*
X62282730Y-55476200D01*
X61317270Y-55476200D01*
X61288505Y-55474787D01*
X61260017Y-55470561D01*
X61232080Y-55463563D01*
X61204964Y-55453861D01*
X61178929Y-55441547D01*
X61154227Y-55426741D01*
X61131095Y-55409585D01*
X61109755Y-55390245D01*
X61090415Y-55368905D01*
X61073259Y-55345773D01*
X61058453Y-55321071D01*
X61046139Y-55295036D01*
X61036437Y-55267920D01*
X61029439Y-55239983D01*
X61025213Y-55211495D01*
X61023800Y-55182730D01*
X61023800Y-54417270D01*
X61025213Y-54388505D01*
X61029439Y-54360017D01*
X61036437Y-54332080D01*
X61046139Y-54304964D01*
X61058453Y-54278929D01*
X61073259Y-54254227D01*
X61090415Y-54231095D01*
X61109755Y-54209755D01*
X61131095Y-54190415D01*
X61154227Y-54173259D01*
X61178929Y-54158453D01*
X61204964Y-54146139D01*
X61232080Y-54136437D01*
X61260017Y-54129439D01*
X61288505Y-54125213D01*
X61317270Y-54123800D01*
X62282730Y-54123800D01*
X62311495Y-54125213D01*
X62311495Y-54125213D01*
G37*
D22*
X61800000Y-54800000D03*
D19*
G36*
X62311495Y-56325213D02*
X62339983Y-56329439D01*
X62367920Y-56336437D01*
X62395036Y-56346139D01*
X62421071Y-56358453D01*
X62445773Y-56373259D01*
X62468905Y-56390415D01*
X62490245Y-56409755D01*
X62509585Y-56431095D01*
X62526741Y-56454227D01*
X62541547Y-56478929D01*
X62553861Y-56504964D01*
X62563563Y-56532080D01*
X62570561Y-56560017D01*
X62574787Y-56588505D01*
X62576200Y-56617270D01*
X62576200Y-57382730D01*
X62574787Y-57411495D01*
X62570561Y-57439983D01*
X62563563Y-57467920D01*
X62553861Y-57495036D01*
X62541547Y-57521071D01*
X62526741Y-57545773D01*
X62509585Y-57568905D01*
X62490245Y-57590245D01*
X62468905Y-57609585D01*
X62445773Y-57626741D01*
X62421071Y-57641547D01*
X62395036Y-57653861D01*
X62367920Y-57663563D01*
X62339983Y-57670561D01*
X62311495Y-57674787D01*
X62282730Y-57676200D01*
X61317270Y-57676200D01*
X61288505Y-57674787D01*
X61260017Y-57670561D01*
X61232080Y-57663563D01*
X61204964Y-57653861D01*
X61178929Y-57641547D01*
X61154227Y-57626741D01*
X61131095Y-57609585D01*
X61109755Y-57590245D01*
X61090415Y-57568905D01*
X61073259Y-57545773D01*
X61058453Y-57521071D01*
X61046139Y-57495036D01*
X61036437Y-57467920D01*
X61029439Y-57439983D01*
X61025213Y-57411495D01*
X61023800Y-57382730D01*
X61023800Y-56617270D01*
X61025213Y-56588505D01*
X61029439Y-56560017D01*
X61036437Y-56532080D01*
X61046139Y-56504964D01*
X61058453Y-56478929D01*
X61073259Y-56454227D01*
X61090415Y-56431095D01*
X61109755Y-56409755D01*
X61131095Y-56390415D01*
X61154227Y-56373259D01*
X61178929Y-56358453D01*
X61204964Y-56346139D01*
X61232080Y-56336437D01*
X61260017Y-56329439D01*
X61288505Y-56325213D01*
X61317270Y-56323800D01*
X62282730Y-56323800D01*
X62311495Y-56325213D01*
X62311495Y-56325213D01*
G37*
D22*
X61800000Y-57000000D03*
G04 #@! TD*
D19*
G04 #@! TO.C,D103*
G36*
X59811495Y-56325213D02*
X59839983Y-56329439D01*
X59867920Y-56336437D01*
X59895036Y-56346139D01*
X59921071Y-56358453D01*
X59945773Y-56373259D01*
X59968905Y-56390415D01*
X59990245Y-56409755D01*
X60009585Y-56431095D01*
X60026741Y-56454227D01*
X60041547Y-56478929D01*
X60053861Y-56504964D01*
X60063563Y-56532080D01*
X60070561Y-56560017D01*
X60074787Y-56588505D01*
X60076200Y-56617270D01*
X60076200Y-57382730D01*
X60074787Y-57411495D01*
X60070561Y-57439983D01*
X60063563Y-57467920D01*
X60053861Y-57495036D01*
X60041547Y-57521071D01*
X60026741Y-57545773D01*
X60009585Y-57568905D01*
X59990245Y-57590245D01*
X59968905Y-57609585D01*
X59945773Y-57626741D01*
X59921071Y-57641547D01*
X59895036Y-57653861D01*
X59867920Y-57663563D01*
X59839983Y-57670561D01*
X59811495Y-57674787D01*
X59782730Y-57676200D01*
X58817270Y-57676200D01*
X58788505Y-57674787D01*
X58760017Y-57670561D01*
X58732080Y-57663563D01*
X58704964Y-57653861D01*
X58678929Y-57641547D01*
X58654227Y-57626741D01*
X58631095Y-57609585D01*
X58609755Y-57590245D01*
X58590415Y-57568905D01*
X58573259Y-57545773D01*
X58558453Y-57521071D01*
X58546139Y-57495036D01*
X58536437Y-57467920D01*
X58529439Y-57439983D01*
X58525213Y-57411495D01*
X58523800Y-57382730D01*
X58523800Y-56617270D01*
X58525213Y-56588505D01*
X58529439Y-56560017D01*
X58536437Y-56532080D01*
X58546139Y-56504964D01*
X58558453Y-56478929D01*
X58573259Y-56454227D01*
X58590415Y-56431095D01*
X58609755Y-56409755D01*
X58631095Y-56390415D01*
X58654227Y-56373259D01*
X58678929Y-56358453D01*
X58704964Y-56346139D01*
X58732080Y-56336437D01*
X58760017Y-56329439D01*
X58788505Y-56325213D01*
X58817270Y-56323800D01*
X59782730Y-56323800D01*
X59811495Y-56325213D01*
X59811495Y-56325213D01*
G37*
D22*
X59300000Y-57000000D03*
D19*
G36*
X59811495Y-54125213D02*
X59839983Y-54129439D01*
X59867920Y-54136437D01*
X59895036Y-54146139D01*
X59921071Y-54158453D01*
X59945773Y-54173259D01*
X59968905Y-54190415D01*
X59990245Y-54209755D01*
X60009585Y-54231095D01*
X60026741Y-54254227D01*
X60041547Y-54278929D01*
X60053861Y-54304964D01*
X60063563Y-54332080D01*
X60070561Y-54360017D01*
X60074787Y-54388505D01*
X60076200Y-54417270D01*
X60076200Y-55182730D01*
X60074787Y-55211495D01*
X60070561Y-55239983D01*
X60063563Y-55267920D01*
X60053861Y-55295036D01*
X60041547Y-55321071D01*
X60026741Y-55345773D01*
X60009585Y-55368905D01*
X59990245Y-55390245D01*
X59968905Y-55409585D01*
X59945773Y-55426741D01*
X59921071Y-55441547D01*
X59895036Y-55453861D01*
X59867920Y-55463563D01*
X59839983Y-55470561D01*
X59811495Y-55474787D01*
X59782730Y-55476200D01*
X58817270Y-55476200D01*
X58788505Y-55474787D01*
X58760017Y-55470561D01*
X58732080Y-55463563D01*
X58704964Y-55453861D01*
X58678929Y-55441547D01*
X58654227Y-55426741D01*
X58631095Y-55409585D01*
X58609755Y-55390245D01*
X58590415Y-55368905D01*
X58573259Y-55345773D01*
X58558453Y-55321071D01*
X58546139Y-55295036D01*
X58536437Y-55267920D01*
X58529439Y-55239983D01*
X58525213Y-55211495D01*
X58523800Y-55182730D01*
X58523800Y-54417270D01*
X58525213Y-54388505D01*
X58529439Y-54360017D01*
X58536437Y-54332080D01*
X58546139Y-54304964D01*
X58558453Y-54278929D01*
X58573259Y-54254227D01*
X58590415Y-54231095D01*
X58609755Y-54209755D01*
X58631095Y-54190415D01*
X58654227Y-54173259D01*
X58678929Y-54158453D01*
X58704964Y-54146139D01*
X58732080Y-54136437D01*
X58760017Y-54129439D01*
X58788505Y-54125213D01*
X58817270Y-54123800D01*
X59782730Y-54123800D01*
X59811495Y-54125213D01*
X59811495Y-54125213D01*
G37*
D22*
X59300000Y-54800000D03*
G04 #@! TD*
D23*
G04 #@! TO.C,D104*
X81700000Y-51500000D03*
X81700000Y-56500000D03*
G04 #@! TD*
D24*
G04 #@! TO.C,D105*
X89700000Y-106400000D03*
X87800000Y-106400000D03*
X88750000Y-108400000D03*
G04 #@! TD*
D19*
G04 #@! TO.C,D106*
G36*
X97111495Y-46625213D02*
X97139983Y-46629439D01*
X97167920Y-46636437D01*
X97195036Y-46646139D01*
X97221071Y-46658453D01*
X97245773Y-46673259D01*
X97268905Y-46690415D01*
X97290245Y-46709755D01*
X97309585Y-46731095D01*
X97326741Y-46754227D01*
X97341547Y-46778929D01*
X97353861Y-46804964D01*
X97363563Y-46832080D01*
X97370561Y-46860017D01*
X97374787Y-46888505D01*
X97376200Y-46917270D01*
X97376200Y-47882730D01*
X97374787Y-47911495D01*
X97370561Y-47939983D01*
X97363563Y-47967920D01*
X97353861Y-47995036D01*
X97341547Y-48021071D01*
X97326741Y-48045773D01*
X97309585Y-48068905D01*
X97290245Y-48090245D01*
X97268905Y-48109585D01*
X97245773Y-48126741D01*
X97221071Y-48141547D01*
X97195036Y-48153861D01*
X97167920Y-48163563D01*
X97139983Y-48170561D01*
X97111495Y-48174787D01*
X97082730Y-48176200D01*
X96317270Y-48176200D01*
X96288505Y-48174787D01*
X96260017Y-48170561D01*
X96232080Y-48163563D01*
X96204964Y-48153861D01*
X96178929Y-48141547D01*
X96154227Y-48126741D01*
X96131095Y-48109585D01*
X96109755Y-48090245D01*
X96090415Y-48068905D01*
X96073259Y-48045773D01*
X96058453Y-48021071D01*
X96046139Y-47995036D01*
X96036437Y-47967920D01*
X96029439Y-47939983D01*
X96025213Y-47911495D01*
X96023800Y-47882730D01*
X96023800Y-46917270D01*
X96025213Y-46888505D01*
X96029439Y-46860017D01*
X96036437Y-46832080D01*
X96046139Y-46804964D01*
X96058453Y-46778929D01*
X96073259Y-46754227D01*
X96090415Y-46731095D01*
X96109755Y-46709755D01*
X96131095Y-46690415D01*
X96154227Y-46673259D01*
X96178929Y-46658453D01*
X96204964Y-46646139D01*
X96232080Y-46636437D01*
X96260017Y-46629439D01*
X96288505Y-46625213D01*
X96317270Y-46623800D01*
X97082730Y-46623800D01*
X97111495Y-46625213D01*
X97111495Y-46625213D01*
G37*
D22*
X96700000Y-47400000D03*
D19*
G36*
X99311495Y-46625213D02*
X99339983Y-46629439D01*
X99367920Y-46636437D01*
X99395036Y-46646139D01*
X99421071Y-46658453D01*
X99445773Y-46673259D01*
X99468905Y-46690415D01*
X99490245Y-46709755D01*
X99509585Y-46731095D01*
X99526741Y-46754227D01*
X99541547Y-46778929D01*
X99553861Y-46804964D01*
X99563563Y-46832080D01*
X99570561Y-46860017D01*
X99574787Y-46888505D01*
X99576200Y-46917270D01*
X99576200Y-47882730D01*
X99574787Y-47911495D01*
X99570561Y-47939983D01*
X99563563Y-47967920D01*
X99553861Y-47995036D01*
X99541547Y-48021071D01*
X99526741Y-48045773D01*
X99509585Y-48068905D01*
X99490245Y-48090245D01*
X99468905Y-48109585D01*
X99445773Y-48126741D01*
X99421071Y-48141547D01*
X99395036Y-48153861D01*
X99367920Y-48163563D01*
X99339983Y-48170561D01*
X99311495Y-48174787D01*
X99282730Y-48176200D01*
X98517270Y-48176200D01*
X98488505Y-48174787D01*
X98460017Y-48170561D01*
X98432080Y-48163563D01*
X98404964Y-48153861D01*
X98378929Y-48141547D01*
X98354227Y-48126741D01*
X98331095Y-48109585D01*
X98309755Y-48090245D01*
X98290415Y-48068905D01*
X98273259Y-48045773D01*
X98258453Y-48021071D01*
X98246139Y-47995036D01*
X98236437Y-47967920D01*
X98229439Y-47939983D01*
X98225213Y-47911495D01*
X98223800Y-47882730D01*
X98223800Y-46917270D01*
X98225213Y-46888505D01*
X98229439Y-46860017D01*
X98236437Y-46832080D01*
X98246139Y-46804964D01*
X98258453Y-46778929D01*
X98273259Y-46754227D01*
X98290415Y-46731095D01*
X98309755Y-46709755D01*
X98331095Y-46690415D01*
X98354227Y-46673259D01*
X98378929Y-46658453D01*
X98404964Y-46646139D01*
X98432080Y-46636437D01*
X98460017Y-46629439D01*
X98488505Y-46625213D01*
X98517270Y-46623800D01*
X99282730Y-46623800D01*
X99311495Y-46625213D01*
X99311495Y-46625213D01*
G37*
D22*
X98900000Y-47400000D03*
G04 #@! TD*
D19*
G04 #@! TO.C,D107*
G36*
X99311495Y-41625213D02*
X99339983Y-41629439D01*
X99367920Y-41636437D01*
X99395036Y-41646139D01*
X99421071Y-41658453D01*
X99445773Y-41673259D01*
X99468905Y-41690415D01*
X99490245Y-41709755D01*
X99509585Y-41731095D01*
X99526741Y-41754227D01*
X99541547Y-41778929D01*
X99553861Y-41804964D01*
X99563563Y-41832080D01*
X99570561Y-41860017D01*
X99574787Y-41888505D01*
X99576200Y-41917270D01*
X99576200Y-42882730D01*
X99574787Y-42911495D01*
X99570561Y-42939983D01*
X99563563Y-42967920D01*
X99553861Y-42995036D01*
X99541547Y-43021071D01*
X99526741Y-43045773D01*
X99509585Y-43068905D01*
X99490245Y-43090245D01*
X99468905Y-43109585D01*
X99445773Y-43126741D01*
X99421071Y-43141547D01*
X99395036Y-43153861D01*
X99367920Y-43163563D01*
X99339983Y-43170561D01*
X99311495Y-43174787D01*
X99282730Y-43176200D01*
X98517270Y-43176200D01*
X98488505Y-43174787D01*
X98460017Y-43170561D01*
X98432080Y-43163563D01*
X98404964Y-43153861D01*
X98378929Y-43141547D01*
X98354227Y-43126741D01*
X98331095Y-43109585D01*
X98309755Y-43090245D01*
X98290415Y-43068905D01*
X98273259Y-43045773D01*
X98258453Y-43021071D01*
X98246139Y-42995036D01*
X98236437Y-42967920D01*
X98229439Y-42939983D01*
X98225213Y-42911495D01*
X98223800Y-42882730D01*
X98223800Y-41917270D01*
X98225213Y-41888505D01*
X98229439Y-41860017D01*
X98236437Y-41832080D01*
X98246139Y-41804964D01*
X98258453Y-41778929D01*
X98273259Y-41754227D01*
X98290415Y-41731095D01*
X98309755Y-41709755D01*
X98331095Y-41690415D01*
X98354227Y-41673259D01*
X98378929Y-41658453D01*
X98404964Y-41646139D01*
X98432080Y-41636437D01*
X98460017Y-41629439D01*
X98488505Y-41625213D01*
X98517270Y-41623800D01*
X99282730Y-41623800D01*
X99311495Y-41625213D01*
X99311495Y-41625213D01*
G37*
D22*
X98900000Y-42400000D03*
D19*
G36*
X97111495Y-41625213D02*
X97139983Y-41629439D01*
X97167920Y-41636437D01*
X97195036Y-41646139D01*
X97221071Y-41658453D01*
X97245773Y-41673259D01*
X97268905Y-41690415D01*
X97290245Y-41709755D01*
X97309585Y-41731095D01*
X97326741Y-41754227D01*
X97341547Y-41778929D01*
X97353861Y-41804964D01*
X97363563Y-41832080D01*
X97370561Y-41860017D01*
X97374787Y-41888505D01*
X97376200Y-41917270D01*
X97376200Y-42882730D01*
X97374787Y-42911495D01*
X97370561Y-42939983D01*
X97363563Y-42967920D01*
X97353861Y-42995036D01*
X97341547Y-43021071D01*
X97326741Y-43045773D01*
X97309585Y-43068905D01*
X97290245Y-43090245D01*
X97268905Y-43109585D01*
X97245773Y-43126741D01*
X97221071Y-43141547D01*
X97195036Y-43153861D01*
X97167920Y-43163563D01*
X97139983Y-43170561D01*
X97111495Y-43174787D01*
X97082730Y-43176200D01*
X96317270Y-43176200D01*
X96288505Y-43174787D01*
X96260017Y-43170561D01*
X96232080Y-43163563D01*
X96204964Y-43153861D01*
X96178929Y-43141547D01*
X96154227Y-43126741D01*
X96131095Y-43109585D01*
X96109755Y-43090245D01*
X96090415Y-43068905D01*
X96073259Y-43045773D01*
X96058453Y-43021071D01*
X96046139Y-42995036D01*
X96036437Y-42967920D01*
X96029439Y-42939983D01*
X96025213Y-42911495D01*
X96023800Y-42882730D01*
X96023800Y-41917270D01*
X96025213Y-41888505D01*
X96029439Y-41860017D01*
X96036437Y-41832080D01*
X96046139Y-41804964D01*
X96058453Y-41778929D01*
X96073259Y-41754227D01*
X96090415Y-41731095D01*
X96109755Y-41709755D01*
X96131095Y-41690415D01*
X96154227Y-41673259D01*
X96178929Y-41658453D01*
X96204964Y-41646139D01*
X96232080Y-41636437D01*
X96260017Y-41629439D01*
X96288505Y-41625213D01*
X96317270Y-41623800D01*
X97082730Y-41623800D01*
X97111495Y-41625213D01*
X97111495Y-41625213D01*
G37*
D22*
X96700000Y-42400000D03*
G04 #@! TD*
D19*
G04 #@! TO.C,D108*
G36*
X43761495Y-58825213D02*
X43789983Y-58829439D01*
X43817920Y-58836437D01*
X43845036Y-58846139D01*
X43871071Y-58858453D01*
X43895773Y-58873259D01*
X43918905Y-58890415D01*
X43940245Y-58909755D01*
X43959585Y-58931095D01*
X43976741Y-58954227D01*
X43991547Y-58978929D01*
X44003861Y-59004964D01*
X44013563Y-59032080D01*
X44020561Y-59060017D01*
X44024787Y-59088505D01*
X44026200Y-59117270D01*
X44026200Y-60082730D01*
X44024787Y-60111495D01*
X44020561Y-60139983D01*
X44013563Y-60167920D01*
X44003861Y-60195036D01*
X43991547Y-60221071D01*
X43976741Y-60245773D01*
X43959585Y-60268905D01*
X43940245Y-60290245D01*
X43918905Y-60309585D01*
X43895773Y-60326741D01*
X43871071Y-60341547D01*
X43845036Y-60353861D01*
X43817920Y-60363563D01*
X43789983Y-60370561D01*
X43761495Y-60374787D01*
X43732730Y-60376200D01*
X42967270Y-60376200D01*
X42938505Y-60374787D01*
X42910017Y-60370561D01*
X42882080Y-60363563D01*
X42854964Y-60353861D01*
X42828929Y-60341547D01*
X42804227Y-60326741D01*
X42781095Y-60309585D01*
X42759755Y-60290245D01*
X42740415Y-60268905D01*
X42723259Y-60245773D01*
X42708453Y-60221071D01*
X42696139Y-60195036D01*
X42686437Y-60167920D01*
X42679439Y-60139983D01*
X42675213Y-60111495D01*
X42673800Y-60082730D01*
X42673800Y-59117270D01*
X42675213Y-59088505D01*
X42679439Y-59060017D01*
X42686437Y-59032080D01*
X42696139Y-59004964D01*
X42708453Y-58978929D01*
X42723259Y-58954227D01*
X42740415Y-58931095D01*
X42759755Y-58909755D01*
X42781095Y-58890415D01*
X42804227Y-58873259D01*
X42828929Y-58858453D01*
X42854964Y-58846139D01*
X42882080Y-58836437D01*
X42910017Y-58829439D01*
X42938505Y-58825213D01*
X42967270Y-58823800D01*
X43732730Y-58823800D01*
X43761495Y-58825213D01*
X43761495Y-58825213D01*
G37*
D22*
X43350000Y-59600000D03*
D19*
G36*
X41561495Y-58825213D02*
X41589983Y-58829439D01*
X41617920Y-58836437D01*
X41645036Y-58846139D01*
X41671071Y-58858453D01*
X41695773Y-58873259D01*
X41718905Y-58890415D01*
X41740245Y-58909755D01*
X41759585Y-58931095D01*
X41776741Y-58954227D01*
X41791547Y-58978929D01*
X41803861Y-59004964D01*
X41813563Y-59032080D01*
X41820561Y-59060017D01*
X41824787Y-59088505D01*
X41826200Y-59117270D01*
X41826200Y-60082730D01*
X41824787Y-60111495D01*
X41820561Y-60139983D01*
X41813563Y-60167920D01*
X41803861Y-60195036D01*
X41791547Y-60221071D01*
X41776741Y-60245773D01*
X41759585Y-60268905D01*
X41740245Y-60290245D01*
X41718905Y-60309585D01*
X41695773Y-60326741D01*
X41671071Y-60341547D01*
X41645036Y-60353861D01*
X41617920Y-60363563D01*
X41589983Y-60370561D01*
X41561495Y-60374787D01*
X41532730Y-60376200D01*
X40767270Y-60376200D01*
X40738505Y-60374787D01*
X40710017Y-60370561D01*
X40682080Y-60363563D01*
X40654964Y-60353861D01*
X40628929Y-60341547D01*
X40604227Y-60326741D01*
X40581095Y-60309585D01*
X40559755Y-60290245D01*
X40540415Y-60268905D01*
X40523259Y-60245773D01*
X40508453Y-60221071D01*
X40496139Y-60195036D01*
X40486437Y-60167920D01*
X40479439Y-60139983D01*
X40475213Y-60111495D01*
X40473800Y-60082730D01*
X40473800Y-59117270D01*
X40475213Y-59088505D01*
X40479439Y-59060017D01*
X40486437Y-59032080D01*
X40496139Y-59004964D01*
X40508453Y-58978929D01*
X40523259Y-58954227D01*
X40540415Y-58931095D01*
X40559755Y-58909755D01*
X40581095Y-58890415D01*
X40604227Y-58873259D01*
X40628929Y-58858453D01*
X40654964Y-58846139D01*
X40682080Y-58836437D01*
X40710017Y-58829439D01*
X40738505Y-58825213D01*
X40767270Y-58823800D01*
X41532730Y-58823800D01*
X41561495Y-58825213D01*
X41561495Y-58825213D01*
G37*
D22*
X41150000Y-59600000D03*
G04 #@! TD*
D19*
G04 #@! TO.C,D109*
G36*
X41561495Y-63825213D02*
X41589983Y-63829439D01*
X41617920Y-63836437D01*
X41645036Y-63846139D01*
X41671071Y-63858453D01*
X41695773Y-63873259D01*
X41718905Y-63890415D01*
X41740245Y-63909755D01*
X41759585Y-63931095D01*
X41776741Y-63954227D01*
X41791547Y-63978929D01*
X41803861Y-64004964D01*
X41813563Y-64032080D01*
X41820561Y-64060017D01*
X41824787Y-64088505D01*
X41826200Y-64117270D01*
X41826200Y-65082730D01*
X41824787Y-65111495D01*
X41820561Y-65139983D01*
X41813563Y-65167920D01*
X41803861Y-65195036D01*
X41791547Y-65221071D01*
X41776741Y-65245773D01*
X41759585Y-65268905D01*
X41740245Y-65290245D01*
X41718905Y-65309585D01*
X41695773Y-65326741D01*
X41671071Y-65341547D01*
X41645036Y-65353861D01*
X41617920Y-65363563D01*
X41589983Y-65370561D01*
X41561495Y-65374787D01*
X41532730Y-65376200D01*
X40767270Y-65376200D01*
X40738505Y-65374787D01*
X40710017Y-65370561D01*
X40682080Y-65363563D01*
X40654964Y-65353861D01*
X40628929Y-65341547D01*
X40604227Y-65326741D01*
X40581095Y-65309585D01*
X40559755Y-65290245D01*
X40540415Y-65268905D01*
X40523259Y-65245773D01*
X40508453Y-65221071D01*
X40496139Y-65195036D01*
X40486437Y-65167920D01*
X40479439Y-65139983D01*
X40475213Y-65111495D01*
X40473800Y-65082730D01*
X40473800Y-64117270D01*
X40475213Y-64088505D01*
X40479439Y-64060017D01*
X40486437Y-64032080D01*
X40496139Y-64004964D01*
X40508453Y-63978929D01*
X40523259Y-63954227D01*
X40540415Y-63931095D01*
X40559755Y-63909755D01*
X40581095Y-63890415D01*
X40604227Y-63873259D01*
X40628929Y-63858453D01*
X40654964Y-63846139D01*
X40682080Y-63836437D01*
X40710017Y-63829439D01*
X40738505Y-63825213D01*
X40767270Y-63823800D01*
X41532730Y-63823800D01*
X41561495Y-63825213D01*
X41561495Y-63825213D01*
G37*
D22*
X41150000Y-64600000D03*
D19*
G36*
X43761495Y-63825213D02*
X43789983Y-63829439D01*
X43817920Y-63836437D01*
X43845036Y-63846139D01*
X43871071Y-63858453D01*
X43895773Y-63873259D01*
X43918905Y-63890415D01*
X43940245Y-63909755D01*
X43959585Y-63931095D01*
X43976741Y-63954227D01*
X43991547Y-63978929D01*
X44003861Y-64004964D01*
X44013563Y-64032080D01*
X44020561Y-64060017D01*
X44024787Y-64088505D01*
X44026200Y-64117270D01*
X44026200Y-65082730D01*
X44024787Y-65111495D01*
X44020561Y-65139983D01*
X44013563Y-65167920D01*
X44003861Y-65195036D01*
X43991547Y-65221071D01*
X43976741Y-65245773D01*
X43959585Y-65268905D01*
X43940245Y-65290245D01*
X43918905Y-65309585D01*
X43895773Y-65326741D01*
X43871071Y-65341547D01*
X43845036Y-65353861D01*
X43817920Y-65363563D01*
X43789983Y-65370561D01*
X43761495Y-65374787D01*
X43732730Y-65376200D01*
X42967270Y-65376200D01*
X42938505Y-65374787D01*
X42910017Y-65370561D01*
X42882080Y-65363563D01*
X42854964Y-65353861D01*
X42828929Y-65341547D01*
X42804227Y-65326741D01*
X42781095Y-65309585D01*
X42759755Y-65290245D01*
X42740415Y-65268905D01*
X42723259Y-65245773D01*
X42708453Y-65221071D01*
X42696139Y-65195036D01*
X42686437Y-65167920D01*
X42679439Y-65139983D01*
X42675213Y-65111495D01*
X42673800Y-65082730D01*
X42673800Y-64117270D01*
X42675213Y-64088505D01*
X42679439Y-64060017D01*
X42686437Y-64032080D01*
X42696139Y-64004964D01*
X42708453Y-63978929D01*
X42723259Y-63954227D01*
X42740415Y-63931095D01*
X42759755Y-63909755D01*
X42781095Y-63890415D01*
X42804227Y-63873259D01*
X42828929Y-63858453D01*
X42854964Y-63846139D01*
X42882080Y-63836437D01*
X42910017Y-63829439D01*
X42938505Y-63825213D01*
X42967270Y-63823800D01*
X43732730Y-63823800D01*
X43761495Y-63825213D01*
X43761495Y-63825213D01*
G37*
D22*
X43350000Y-64600000D03*
G04 #@! TD*
D19*
G04 #@! TO.C,D110*
G36*
X43761495Y-68625213D02*
X43789983Y-68629439D01*
X43817920Y-68636437D01*
X43845036Y-68646139D01*
X43871071Y-68658453D01*
X43895773Y-68673259D01*
X43918905Y-68690415D01*
X43940245Y-68709755D01*
X43959585Y-68731095D01*
X43976741Y-68754227D01*
X43991547Y-68778929D01*
X44003861Y-68804964D01*
X44013563Y-68832080D01*
X44020561Y-68860017D01*
X44024787Y-68888505D01*
X44026200Y-68917270D01*
X44026200Y-69882730D01*
X44024787Y-69911495D01*
X44020561Y-69939983D01*
X44013563Y-69967920D01*
X44003861Y-69995036D01*
X43991547Y-70021071D01*
X43976741Y-70045773D01*
X43959585Y-70068905D01*
X43940245Y-70090245D01*
X43918905Y-70109585D01*
X43895773Y-70126741D01*
X43871071Y-70141547D01*
X43845036Y-70153861D01*
X43817920Y-70163563D01*
X43789983Y-70170561D01*
X43761495Y-70174787D01*
X43732730Y-70176200D01*
X42967270Y-70176200D01*
X42938505Y-70174787D01*
X42910017Y-70170561D01*
X42882080Y-70163563D01*
X42854964Y-70153861D01*
X42828929Y-70141547D01*
X42804227Y-70126741D01*
X42781095Y-70109585D01*
X42759755Y-70090245D01*
X42740415Y-70068905D01*
X42723259Y-70045773D01*
X42708453Y-70021071D01*
X42696139Y-69995036D01*
X42686437Y-69967920D01*
X42679439Y-69939983D01*
X42675213Y-69911495D01*
X42673800Y-69882730D01*
X42673800Y-68917270D01*
X42675213Y-68888505D01*
X42679439Y-68860017D01*
X42686437Y-68832080D01*
X42696139Y-68804964D01*
X42708453Y-68778929D01*
X42723259Y-68754227D01*
X42740415Y-68731095D01*
X42759755Y-68709755D01*
X42781095Y-68690415D01*
X42804227Y-68673259D01*
X42828929Y-68658453D01*
X42854964Y-68646139D01*
X42882080Y-68636437D01*
X42910017Y-68629439D01*
X42938505Y-68625213D01*
X42967270Y-68623800D01*
X43732730Y-68623800D01*
X43761495Y-68625213D01*
X43761495Y-68625213D01*
G37*
D22*
X43350000Y-69400000D03*
D19*
G36*
X41561495Y-68625213D02*
X41589983Y-68629439D01*
X41617920Y-68636437D01*
X41645036Y-68646139D01*
X41671071Y-68658453D01*
X41695773Y-68673259D01*
X41718905Y-68690415D01*
X41740245Y-68709755D01*
X41759585Y-68731095D01*
X41776741Y-68754227D01*
X41791547Y-68778929D01*
X41803861Y-68804964D01*
X41813563Y-68832080D01*
X41820561Y-68860017D01*
X41824787Y-68888505D01*
X41826200Y-68917270D01*
X41826200Y-69882730D01*
X41824787Y-69911495D01*
X41820561Y-69939983D01*
X41813563Y-69967920D01*
X41803861Y-69995036D01*
X41791547Y-70021071D01*
X41776741Y-70045773D01*
X41759585Y-70068905D01*
X41740245Y-70090245D01*
X41718905Y-70109585D01*
X41695773Y-70126741D01*
X41671071Y-70141547D01*
X41645036Y-70153861D01*
X41617920Y-70163563D01*
X41589983Y-70170561D01*
X41561495Y-70174787D01*
X41532730Y-70176200D01*
X40767270Y-70176200D01*
X40738505Y-70174787D01*
X40710017Y-70170561D01*
X40682080Y-70163563D01*
X40654964Y-70153861D01*
X40628929Y-70141547D01*
X40604227Y-70126741D01*
X40581095Y-70109585D01*
X40559755Y-70090245D01*
X40540415Y-70068905D01*
X40523259Y-70045773D01*
X40508453Y-70021071D01*
X40496139Y-69995036D01*
X40486437Y-69967920D01*
X40479439Y-69939983D01*
X40475213Y-69911495D01*
X40473800Y-69882730D01*
X40473800Y-68917270D01*
X40475213Y-68888505D01*
X40479439Y-68860017D01*
X40486437Y-68832080D01*
X40496139Y-68804964D01*
X40508453Y-68778929D01*
X40523259Y-68754227D01*
X40540415Y-68731095D01*
X40559755Y-68709755D01*
X40581095Y-68690415D01*
X40604227Y-68673259D01*
X40628929Y-68658453D01*
X40654964Y-68646139D01*
X40682080Y-68636437D01*
X40710017Y-68629439D01*
X40738505Y-68625213D01*
X40767270Y-68623800D01*
X41532730Y-68623800D01*
X41561495Y-68625213D01*
X41561495Y-68625213D01*
G37*
D22*
X41150000Y-69400000D03*
G04 #@! TD*
D19*
G04 #@! TO.C,D111*
G36*
X110711495Y-92525213D02*
X110739983Y-92529439D01*
X110767920Y-92536437D01*
X110795036Y-92546139D01*
X110821071Y-92558453D01*
X110845773Y-92573259D01*
X110868905Y-92590415D01*
X110890245Y-92609755D01*
X110909585Y-92631095D01*
X110926741Y-92654227D01*
X110941547Y-92678929D01*
X110953861Y-92704964D01*
X110963563Y-92732080D01*
X110970561Y-92760017D01*
X110974787Y-92788505D01*
X110976200Y-92817270D01*
X110976200Y-93782730D01*
X110974787Y-93811495D01*
X110970561Y-93839983D01*
X110963563Y-93867920D01*
X110953861Y-93895036D01*
X110941547Y-93921071D01*
X110926741Y-93945773D01*
X110909585Y-93968905D01*
X110890245Y-93990245D01*
X110868905Y-94009585D01*
X110845773Y-94026741D01*
X110821071Y-94041547D01*
X110795036Y-94053861D01*
X110767920Y-94063563D01*
X110739983Y-94070561D01*
X110711495Y-94074787D01*
X110682730Y-94076200D01*
X109917270Y-94076200D01*
X109888505Y-94074787D01*
X109860017Y-94070561D01*
X109832080Y-94063563D01*
X109804964Y-94053861D01*
X109778929Y-94041547D01*
X109754227Y-94026741D01*
X109731095Y-94009585D01*
X109709755Y-93990245D01*
X109690415Y-93968905D01*
X109673259Y-93945773D01*
X109658453Y-93921071D01*
X109646139Y-93895036D01*
X109636437Y-93867920D01*
X109629439Y-93839983D01*
X109625213Y-93811495D01*
X109623800Y-93782730D01*
X109623800Y-92817270D01*
X109625213Y-92788505D01*
X109629439Y-92760017D01*
X109636437Y-92732080D01*
X109646139Y-92704964D01*
X109658453Y-92678929D01*
X109673259Y-92654227D01*
X109690415Y-92631095D01*
X109709755Y-92609755D01*
X109731095Y-92590415D01*
X109754227Y-92573259D01*
X109778929Y-92558453D01*
X109804964Y-92546139D01*
X109832080Y-92536437D01*
X109860017Y-92529439D01*
X109888505Y-92525213D01*
X109917270Y-92523800D01*
X110682730Y-92523800D01*
X110711495Y-92525213D01*
X110711495Y-92525213D01*
G37*
D22*
X110300000Y-93300000D03*
D19*
G36*
X108511495Y-92525213D02*
X108539983Y-92529439D01*
X108567920Y-92536437D01*
X108595036Y-92546139D01*
X108621071Y-92558453D01*
X108645773Y-92573259D01*
X108668905Y-92590415D01*
X108690245Y-92609755D01*
X108709585Y-92631095D01*
X108726741Y-92654227D01*
X108741547Y-92678929D01*
X108753861Y-92704964D01*
X108763563Y-92732080D01*
X108770561Y-92760017D01*
X108774787Y-92788505D01*
X108776200Y-92817270D01*
X108776200Y-93782730D01*
X108774787Y-93811495D01*
X108770561Y-93839983D01*
X108763563Y-93867920D01*
X108753861Y-93895036D01*
X108741547Y-93921071D01*
X108726741Y-93945773D01*
X108709585Y-93968905D01*
X108690245Y-93990245D01*
X108668905Y-94009585D01*
X108645773Y-94026741D01*
X108621071Y-94041547D01*
X108595036Y-94053861D01*
X108567920Y-94063563D01*
X108539983Y-94070561D01*
X108511495Y-94074787D01*
X108482730Y-94076200D01*
X107717270Y-94076200D01*
X107688505Y-94074787D01*
X107660017Y-94070561D01*
X107632080Y-94063563D01*
X107604964Y-94053861D01*
X107578929Y-94041547D01*
X107554227Y-94026741D01*
X107531095Y-94009585D01*
X107509755Y-93990245D01*
X107490415Y-93968905D01*
X107473259Y-93945773D01*
X107458453Y-93921071D01*
X107446139Y-93895036D01*
X107436437Y-93867920D01*
X107429439Y-93839983D01*
X107425213Y-93811495D01*
X107423800Y-93782730D01*
X107423800Y-92817270D01*
X107425213Y-92788505D01*
X107429439Y-92760017D01*
X107436437Y-92732080D01*
X107446139Y-92704964D01*
X107458453Y-92678929D01*
X107473259Y-92654227D01*
X107490415Y-92631095D01*
X107509755Y-92609755D01*
X107531095Y-92590415D01*
X107554227Y-92573259D01*
X107578929Y-92558453D01*
X107604964Y-92546139D01*
X107632080Y-92536437D01*
X107660017Y-92529439D01*
X107688505Y-92525213D01*
X107717270Y-92523800D01*
X108482730Y-92523800D01*
X108511495Y-92525213D01*
X108511495Y-92525213D01*
G37*
D22*
X108100000Y-93300000D03*
G04 #@! TD*
D19*
G04 #@! TO.C,D112*
G36*
X108511495Y-95025213D02*
X108539983Y-95029439D01*
X108567920Y-95036437D01*
X108595036Y-95046139D01*
X108621071Y-95058453D01*
X108645773Y-95073259D01*
X108668905Y-95090415D01*
X108690245Y-95109755D01*
X108709585Y-95131095D01*
X108726741Y-95154227D01*
X108741547Y-95178929D01*
X108753861Y-95204964D01*
X108763563Y-95232080D01*
X108770561Y-95260017D01*
X108774787Y-95288505D01*
X108776200Y-95317270D01*
X108776200Y-96282730D01*
X108774787Y-96311495D01*
X108770561Y-96339983D01*
X108763563Y-96367920D01*
X108753861Y-96395036D01*
X108741547Y-96421071D01*
X108726741Y-96445773D01*
X108709585Y-96468905D01*
X108690245Y-96490245D01*
X108668905Y-96509585D01*
X108645773Y-96526741D01*
X108621071Y-96541547D01*
X108595036Y-96553861D01*
X108567920Y-96563563D01*
X108539983Y-96570561D01*
X108511495Y-96574787D01*
X108482730Y-96576200D01*
X107717270Y-96576200D01*
X107688505Y-96574787D01*
X107660017Y-96570561D01*
X107632080Y-96563563D01*
X107604964Y-96553861D01*
X107578929Y-96541547D01*
X107554227Y-96526741D01*
X107531095Y-96509585D01*
X107509755Y-96490245D01*
X107490415Y-96468905D01*
X107473259Y-96445773D01*
X107458453Y-96421071D01*
X107446139Y-96395036D01*
X107436437Y-96367920D01*
X107429439Y-96339983D01*
X107425213Y-96311495D01*
X107423800Y-96282730D01*
X107423800Y-95317270D01*
X107425213Y-95288505D01*
X107429439Y-95260017D01*
X107436437Y-95232080D01*
X107446139Y-95204964D01*
X107458453Y-95178929D01*
X107473259Y-95154227D01*
X107490415Y-95131095D01*
X107509755Y-95109755D01*
X107531095Y-95090415D01*
X107554227Y-95073259D01*
X107578929Y-95058453D01*
X107604964Y-95046139D01*
X107632080Y-95036437D01*
X107660017Y-95029439D01*
X107688505Y-95025213D01*
X107717270Y-95023800D01*
X108482730Y-95023800D01*
X108511495Y-95025213D01*
X108511495Y-95025213D01*
G37*
D22*
X108100000Y-95800000D03*
D19*
G36*
X110711495Y-95025213D02*
X110739983Y-95029439D01*
X110767920Y-95036437D01*
X110795036Y-95046139D01*
X110821071Y-95058453D01*
X110845773Y-95073259D01*
X110868905Y-95090415D01*
X110890245Y-95109755D01*
X110909585Y-95131095D01*
X110926741Y-95154227D01*
X110941547Y-95178929D01*
X110953861Y-95204964D01*
X110963563Y-95232080D01*
X110970561Y-95260017D01*
X110974787Y-95288505D01*
X110976200Y-95317270D01*
X110976200Y-96282730D01*
X110974787Y-96311495D01*
X110970561Y-96339983D01*
X110963563Y-96367920D01*
X110953861Y-96395036D01*
X110941547Y-96421071D01*
X110926741Y-96445773D01*
X110909585Y-96468905D01*
X110890245Y-96490245D01*
X110868905Y-96509585D01*
X110845773Y-96526741D01*
X110821071Y-96541547D01*
X110795036Y-96553861D01*
X110767920Y-96563563D01*
X110739983Y-96570561D01*
X110711495Y-96574787D01*
X110682730Y-96576200D01*
X109917270Y-96576200D01*
X109888505Y-96574787D01*
X109860017Y-96570561D01*
X109832080Y-96563563D01*
X109804964Y-96553861D01*
X109778929Y-96541547D01*
X109754227Y-96526741D01*
X109731095Y-96509585D01*
X109709755Y-96490245D01*
X109690415Y-96468905D01*
X109673259Y-96445773D01*
X109658453Y-96421071D01*
X109646139Y-96395036D01*
X109636437Y-96367920D01*
X109629439Y-96339983D01*
X109625213Y-96311495D01*
X109623800Y-96282730D01*
X109623800Y-95317270D01*
X109625213Y-95288505D01*
X109629439Y-95260017D01*
X109636437Y-95232080D01*
X109646139Y-95204964D01*
X109658453Y-95178929D01*
X109673259Y-95154227D01*
X109690415Y-95131095D01*
X109709755Y-95109755D01*
X109731095Y-95090415D01*
X109754227Y-95073259D01*
X109778929Y-95058453D01*
X109804964Y-95046139D01*
X109832080Y-95036437D01*
X109860017Y-95029439D01*
X109888505Y-95025213D01*
X109917270Y-95023800D01*
X110682730Y-95023800D01*
X110711495Y-95025213D01*
X110711495Y-95025213D01*
G37*
D22*
X110300000Y-95800000D03*
G04 #@! TD*
D25*
G04 #@! TO.C,H101*
X57500000Y-89440000D03*
D26*
X55700000Y-94350000D03*
D27*
X51550000Y-78700000D03*
X44700000Y-78700000D03*
X44700000Y-74400000D03*
X51550000Y-74400000D03*
D25*
X57500000Y-86900000D03*
X57500000Y-84360000D03*
X48000000Y-96400000D03*
X50540000Y-96400000D03*
X45460000Y-96400000D03*
D26*
X40300000Y-94300000D03*
X40300000Y-79500000D03*
X55700000Y-79500000D03*
G04 #@! TD*
D11*
G04 #@! TO.C,J105*
X40500000Y-55000000D03*
D10*
X43040000Y-55000000D03*
X45580000Y-55000000D03*
G04 #@! TD*
D28*
G04 #@! TO.C,J108*
X112600000Y-64675000D03*
X112600000Y-65775000D03*
X112600000Y-66875000D03*
X112600000Y-67975000D03*
X112600000Y-69075000D03*
X112600000Y-70175000D03*
X112600000Y-71275000D03*
X112600000Y-72375000D03*
D29*
X114800000Y-60955000D03*
X106600000Y-60955000D03*
X106600000Y-74845000D03*
X114800000Y-74845000D03*
G04 #@! TD*
D30*
G04 #@! TO.C,L101*
X77375000Y-52150000D03*
X71725000Y-52150000D03*
G04 #@! TD*
D31*
G04 #@! TO.C,Q101*
X54650000Y-53630000D03*
X54000000Y-53630000D03*
X53350000Y-53630000D03*
X53350000Y-50970000D03*
X54000000Y-50970000D03*
X54650000Y-50970000D03*
G04 #@! TD*
G04 #@! TO.C,Q102*
X49150000Y-53630000D03*
X49800000Y-53630000D03*
X50450000Y-53630000D03*
X50450000Y-50970000D03*
X49800000Y-50970000D03*
X49150000Y-50970000D03*
G04 #@! TD*
D32*
G04 #@! TO.C,Q103*
X64600000Y-96200000D03*
X66600000Y-95250000D03*
X66600000Y-97150000D03*
G04 #@! TD*
D24*
G04 #@! TO.C,Q104*
X75350000Y-70050000D03*
X76300000Y-72050000D03*
X74400000Y-72050000D03*
G04 #@! TD*
D32*
G04 #@! TO.C,Q105*
X53900000Y-61350000D03*
X53900000Y-59450000D03*
X51900000Y-60400000D03*
G04 #@! TD*
G04 #@! TO.C,Q106*
X51900000Y-64600000D03*
X53900000Y-63650000D03*
X53900000Y-65550000D03*
G04 #@! TD*
G04 #@! TO.C,Q107*
X53900000Y-69550000D03*
X53900000Y-67650000D03*
X51900000Y-68600000D03*
G04 #@! TD*
D19*
G04 #@! TO.C,R101*
G36*
X63520822Y-50275163D02*
X63548306Y-50279240D01*
X63575258Y-50285991D01*
X63601419Y-50295352D01*
X63626537Y-50307232D01*
X63650369Y-50321516D01*
X63672686Y-50338068D01*
X63693273Y-50356727D01*
X63711932Y-50377314D01*
X63728484Y-50399631D01*
X63742768Y-50423463D01*
X63754648Y-50448581D01*
X63764009Y-50474742D01*
X63770760Y-50501694D01*
X63774837Y-50529178D01*
X63776200Y-50556930D01*
X63776200Y-51293070D01*
X63774837Y-51320822D01*
X63770760Y-51348306D01*
X63764009Y-51375258D01*
X63754648Y-51401419D01*
X63742768Y-51426537D01*
X63728484Y-51450369D01*
X63711932Y-51472686D01*
X63693273Y-51493273D01*
X63672686Y-51511932D01*
X63650369Y-51528484D01*
X63626537Y-51542768D01*
X63601419Y-51554648D01*
X63575258Y-51564009D01*
X63548306Y-51570760D01*
X63520822Y-51574837D01*
X63493070Y-51576200D01*
X62506930Y-51576200D01*
X62479178Y-51574837D01*
X62451694Y-51570760D01*
X62424742Y-51564009D01*
X62398581Y-51554648D01*
X62373463Y-51542768D01*
X62349631Y-51528484D01*
X62327314Y-51511932D01*
X62306727Y-51493273D01*
X62288068Y-51472686D01*
X62271516Y-51450369D01*
X62257232Y-51426537D01*
X62245352Y-51401419D01*
X62235991Y-51375258D01*
X62229240Y-51348306D01*
X62225163Y-51320822D01*
X62223800Y-51293070D01*
X62223800Y-50556930D01*
X62225163Y-50529178D01*
X62229240Y-50501694D01*
X62235991Y-50474742D01*
X62245352Y-50448581D01*
X62257232Y-50423463D01*
X62271516Y-50399631D01*
X62288068Y-50377314D01*
X62306727Y-50356727D01*
X62327314Y-50338068D01*
X62349631Y-50321516D01*
X62373463Y-50307232D01*
X62398581Y-50295352D01*
X62424742Y-50285991D01*
X62451694Y-50279240D01*
X62479178Y-50275163D01*
X62506930Y-50273800D01*
X63493070Y-50273800D01*
X63520822Y-50275163D01*
X63520822Y-50275163D01*
G37*
D21*
X63000000Y-50925000D03*
D19*
G36*
X63520822Y-48225163D02*
X63548306Y-48229240D01*
X63575258Y-48235991D01*
X63601419Y-48245352D01*
X63626537Y-48257232D01*
X63650369Y-48271516D01*
X63672686Y-48288068D01*
X63693273Y-48306727D01*
X63711932Y-48327314D01*
X63728484Y-48349631D01*
X63742768Y-48373463D01*
X63754648Y-48398581D01*
X63764009Y-48424742D01*
X63770760Y-48451694D01*
X63774837Y-48479178D01*
X63776200Y-48506930D01*
X63776200Y-49243070D01*
X63774837Y-49270822D01*
X63770760Y-49298306D01*
X63764009Y-49325258D01*
X63754648Y-49351419D01*
X63742768Y-49376537D01*
X63728484Y-49400369D01*
X63711932Y-49422686D01*
X63693273Y-49443273D01*
X63672686Y-49461932D01*
X63650369Y-49478484D01*
X63626537Y-49492768D01*
X63601419Y-49504648D01*
X63575258Y-49514009D01*
X63548306Y-49520760D01*
X63520822Y-49524837D01*
X63493070Y-49526200D01*
X62506930Y-49526200D01*
X62479178Y-49524837D01*
X62451694Y-49520760D01*
X62424742Y-49514009D01*
X62398581Y-49504648D01*
X62373463Y-49492768D01*
X62349631Y-49478484D01*
X62327314Y-49461932D01*
X62306727Y-49443273D01*
X62288068Y-49422686D01*
X62271516Y-49400369D01*
X62257232Y-49376537D01*
X62245352Y-49351419D01*
X62235991Y-49325258D01*
X62229240Y-49298306D01*
X62225163Y-49270822D01*
X62223800Y-49243070D01*
X62223800Y-48506930D01*
X62225163Y-48479178D01*
X62229240Y-48451694D01*
X62235991Y-48424742D01*
X62245352Y-48398581D01*
X62257232Y-48373463D01*
X62271516Y-48349631D01*
X62288068Y-48327314D01*
X62306727Y-48306727D01*
X62327314Y-48288068D01*
X62349631Y-48271516D01*
X62373463Y-48257232D01*
X62398581Y-48245352D01*
X62424742Y-48235991D01*
X62451694Y-48229240D01*
X62479178Y-48225163D01*
X62506930Y-48223800D01*
X63493070Y-48223800D01*
X63520822Y-48225163D01*
X63520822Y-48225163D01*
G37*
D21*
X63000000Y-48875000D03*
G04 #@! TD*
D19*
G04 #@! TO.C,R102*
G36*
X66620822Y-59125163D02*
X66648306Y-59129240D01*
X66675258Y-59135991D01*
X66701419Y-59145352D01*
X66726537Y-59157232D01*
X66750369Y-59171516D01*
X66772686Y-59188068D01*
X66793273Y-59206727D01*
X66811932Y-59227314D01*
X66828484Y-59249631D01*
X66842768Y-59273463D01*
X66854648Y-59298581D01*
X66864009Y-59324742D01*
X66870760Y-59351694D01*
X66874837Y-59379178D01*
X66876200Y-59406930D01*
X66876200Y-60143070D01*
X66874837Y-60170822D01*
X66870760Y-60198306D01*
X66864009Y-60225258D01*
X66854648Y-60251419D01*
X66842768Y-60276537D01*
X66828484Y-60300369D01*
X66811932Y-60322686D01*
X66793273Y-60343273D01*
X66772686Y-60361932D01*
X66750369Y-60378484D01*
X66726537Y-60392768D01*
X66701419Y-60404648D01*
X66675258Y-60414009D01*
X66648306Y-60420760D01*
X66620822Y-60424837D01*
X66593070Y-60426200D01*
X65606930Y-60426200D01*
X65579178Y-60424837D01*
X65551694Y-60420760D01*
X65524742Y-60414009D01*
X65498581Y-60404648D01*
X65473463Y-60392768D01*
X65449631Y-60378484D01*
X65427314Y-60361932D01*
X65406727Y-60343273D01*
X65388068Y-60322686D01*
X65371516Y-60300369D01*
X65357232Y-60276537D01*
X65345352Y-60251419D01*
X65335991Y-60225258D01*
X65329240Y-60198306D01*
X65325163Y-60170822D01*
X65323800Y-60143070D01*
X65323800Y-59406930D01*
X65325163Y-59379178D01*
X65329240Y-59351694D01*
X65335991Y-59324742D01*
X65345352Y-59298581D01*
X65357232Y-59273463D01*
X65371516Y-59249631D01*
X65388068Y-59227314D01*
X65406727Y-59206727D01*
X65427314Y-59188068D01*
X65449631Y-59171516D01*
X65473463Y-59157232D01*
X65498581Y-59145352D01*
X65524742Y-59135991D01*
X65551694Y-59129240D01*
X65579178Y-59125163D01*
X65606930Y-59123800D01*
X66593070Y-59123800D01*
X66620822Y-59125163D01*
X66620822Y-59125163D01*
G37*
D21*
X66100000Y-59775000D03*
D19*
G36*
X66620822Y-61175163D02*
X66648306Y-61179240D01*
X66675258Y-61185991D01*
X66701419Y-61195352D01*
X66726537Y-61207232D01*
X66750369Y-61221516D01*
X66772686Y-61238068D01*
X66793273Y-61256727D01*
X66811932Y-61277314D01*
X66828484Y-61299631D01*
X66842768Y-61323463D01*
X66854648Y-61348581D01*
X66864009Y-61374742D01*
X66870760Y-61401694D01*
X66874837Y-61429178D01*
X66876200Y-61456930D01*
X66876200Y-62193070D01*
X66874837Y-62220822D01*
X66870760Y-62248306D01*
X66864009Y-62275258D01*
X66854648Y-62301419D01*
X66842768Y-62326537D01*
X66828484Y-62350369D01*
X66811932Y-62372686D01*
X66793273Y-62393273D01*
X66772686Y-62411932D01*
X66750369Y-62428484D01*
X66726537Y-62442768D01*
X66701419Y-62454648D01*
X66675258Y-62464009D01*
X66648306Y-62470760D01*
X66620822Y-62474837D01*
X66593070Y-62476200D01*
X65606930Y-62476200D01*
X65579178Y-62474837D01*
X65551694Y-62470760D01*
X65524742Y-62464009D01*
X65498581Y-62454648D01*
X65473463Y-62442768D01*
X65449631Y-62428484D01*
X65427314Y-62411932D01*
X65406727Y-62393273D01*
X65388068Y-62372686D01*
X65371516Y-62350369D01*
X65357232Y-62326537D01*
X65345352Y-62301419D01*
X65335991Y-62275258D01*
X65329240Y-62248306D01*
X65325163Y-62220822D01*
X65323800Y-62193070D01*
X65323800Y-61456930D01*
X65325163Y-61429178D01*
X65329240Y-61401694D01*
X65335991Y-61374742D01*
X65345352Y-61348581D01*
X65357232Y-61323463D01*
X65371516Y-61299631D01*
X65388068Y-61277314D01*
X65406727Y-61256727D01*
X65427314Y-61238068D01*
X65449631Y-61221516D01*
X65473463Y-61207232D01*
X65498581Y-61195352D01*
X65524742Y-61185991D01*
X65551694Y-61179240D01*
X65579178Y-61175163D01*
X65606930Y-61173800D01*
X66593070Y-61173800D01*
X66620822Y-61175163D01*
X66620822Y-61175163D01*
G37*
D21*
X66100000Y-61825000D03*
G04 #@! TD*
D19*
G04 #@! TO.C,R103*
G36*
X64120822Y-61175163D02*
X64148306Y-61179240D01*
X64175258Y-61185991D01*
X64201419Y-61195352D01*
X64226537Y-61207232D01*
X64250369Y-61221516D01*
X64272686Y-61238068D01*
X64293273Y-61256727D01*
X64311932Y-61277314D01*
X64328484Y-61299631D01*
X64342768Y-61323463D01*
X64354648Y-61348581D01*
X64364009Y-61374742D01*
X64370760Y-61401694D01*
X64374837Y-61429178D01*
X64376200Y-61456930D01*
X64376200Y-62193070D01*
X64374837Y-62220822D01*
X64370760Y-62248306D01*
X64364009Y-62275258D01*
X64354648Y-62301419D01*
X64342768Y-62326537D01*
X64328484Y-62350369D01*
X64311932Y-62372686D01*
X64293273Y-62393273D01*
X64272686Y-62411932D01*
X64250369Y-62428484D01*
X64226537Y-62442768D01*
X64201419Y-62454648D01*
X64175258Y-62464009D01*
X64148306Y-62470760D01*
X64120822Y-62474837D01*
X64093070Y-62476200D01*
X63106930Y-62476200D01*
X63079178Y-62474837D01*
X63051694Y-62470760D01*
X63024742Y-62464009D01*
X62998581Y-62454648D01*
X62973463Y-62442768D01*
X62949631Y-62428484D01*
X62927314Y-62411932D01*
X62906727Y-62393273D01*
X62888068Y-62372686D01*
X62871516Y-62350369D01*
X62857232Y-62326537D01*
X62845352Y-62301419D01*
X62835991Y-62275258D01*
X62829240Y-62248306D01*
X62825163Y-62220822D01*
X62823800Y-62193070D01*
X62823800Y-61456930D01*
X62825163Y-61429178D01*
X62829240Y-61401694D01*
X62835991Y-61374742D01*
X62845352Y-61348581D01*
X62857232Y-61323463D01*
X62871516Y-61299631D01*
X62888068Y-61277314D01*
X62906727Y-61256727D01*
X62927314Y-61238068D01*
X62949631Y-61221516D01*
X62973463Y-61207232D01*
X62998581Y-61195352D01*
X63024742Y-61185991D01*
X63051694Y-61179240D01*
X63079178Y-61175163D01*
X63106930Y-61173800D01*
X64093070Y-61173800D01*
X64120822Y-61175163D01*
X64120822Y-61175163D01*
G37*
D21*
X63600000Y-61825000D03*
D19*
G36*
X64120822Y-59125163D02*
X64148306Y-59129240D01*
X64175258Y-59135991D01*
X64201419Y-59145352D01*
X64226537Y-59157232D01*
X64250369Y-59171516D01*
X64272686Y-59188068D01*
X64293273Y-59206727D01*
X64311932Y-59227314D01*
X64328484Y-59249631D01*
X64342768Y-59273463D01*
X64354648Y-59298581D01*
X64364009Y-59324742D01*
X64370760Y-59351694D01*
X64374837Y-59379178D01*
X64376200Y-59406930D01*
X64376200Y-60143070D01*
X64374837Y-60170822D01*
X64370760Y-60198306D01*
X64364009Y-60225258D01*
X64354648Y-60251419D01*
X64342768Y-60276537D01*
X64328484Y-60300369D01*
X64311932Y-60322686D01*
X64293273Y-60343273D01*
X64272686Y-60361932D01*
X64250369Y-60378484D01*
X64226537Y-60392768D01*
X64201419Y-60404648D01*
X64175258Y-60414009D01*
X64148306Y-60420760D01*
X64120822Y-60424837D01*
X64093070Y-60426200D01*
X63106930Y-60426200D01*
X63079178Y-60424837D01*
X63051694Y-60420760D01*
X63024742Y-60414009D01*
X62998581Y-60404648D01*
X62973463Y-60392768D01*
X62949631Y-60378484D01*
X62927314Y-60361932D01*
X62906727Y-60343273D01*
X62888068Y-60322686D01*
X62871516Y-60300369D01*
X62857232Y-60276537D01*
X62845352Y-60251419D01*
X62835991Y-60225258D01*
X62829240Y-60198306D01*
X62825163Y-60170822D01*
X62823800Y-60143070D01*
X62823800Y-59406930D01*
X62825163Y-59379178D01*
X62829240Y-59351694D01*
X62835991Y-59324742D01*
X62845352Y-59298581D01*
X62857232Y-59273463D01*
X62871516Y-59249631D01*
X62888068Y-59227314D01*
X62906727Y-59206727D01*
X62927314Y-59188068D01*
X62949631Y-59171516D01*
X62973463Y-59157232D01*
X62998581Y-59145352D01*
X63024742Y-59135991D01*
X63051694Y-59129240D01*
X63079178Y-59125163D01*
X63106930Y-59123800D01*
X64093070Y-59123800D01*
X64120822Y-59125163D01*
X64120822Y-59125163D01*
G37*
D21*
X63600000Y-59775000D03*
G04 #@! TD*
D19*
G04 #@! TO.C,R104*
G36*
X61620822Y-61175163D02*
X61648306Y-61179240D01*
X61675258Y-61185991D01*
X61701419Y-61195352D01*
X61726537Y-61207232D01*
X61750369Y-61221516D01*
X61772686Y-61238068D01*
X61793273Y-61256727D01*
X61811932Y-61277314D01*
X61828484Y-61299631D01*
X61842768Y-61323463D01*
X61854648Y-61348581D01*
X61864009Y-61374742D01*
X61870760Y-61401694D01*
X61874837Y-61429178D01*
X61876200Y-61456930D01*
X61876200Y-62193070D01*
X61874837Y-62220822D01*
X61870760Y-62248306D01*
X61864009Y-62275258D01*
X61854648Y-62301419D01*
X61842768Y-62326537D01*
X61828484Y-62350369D01*
X61811932Y-62372686D01*
X61793273Y-62393273D01*
X61772686Y-62411932D01*
X61750369Y-62428484D01*
X61726537Y-62442768D01*
X61701419Y-62454648D01*
X61675258Y-62464009D01*
X61648306Y-62470760D01*
X61620822Y-62474837D01*
X61593070Y-62476200D01*
X60606930Y-62476200D01*
X60579178Y-62474837D01*
X60551694Y-62470760D01*
X60524742Y-62464009D01*
X60498581Y-62454648D01*
X60473463Y-62442768D01*
X60449631Y-62428484D01*
X60427314Y-62411932D01*
X60406727Y-62393273D01*
X60388068Y-62372686D01*
X60371516Y-62350369D01*
X60357232Y-62326537D01*
X60345352Y-62301419D01*
X60335991Y-62275258D01*
X60329240Y-62248306D01*
X60325163Y-62220822D01*
X60323800Y-62193070D01*
X60323800Y-61456930D01*
X60325163Y-61429178D01*
X60329240Y-61401694D01*
X60335991Y-61374742D01*
X60345352Y-61348581D01*
X60357232Y-61323463D01*
X60371516Y-61299631D01*
X60388068Y-61277314D01*
X60406727Y-61256727D01*
X60427314Y-61238068D01*
X60449631Y-61221516D01*
X60473463Y-61207232D01*
X60498581Y-61195352D01*
X60524742Y-61185991D01*
X60551694Y-61179240D01*
X60579178Y-61175163D01*
X60606930Y-61173800D01*
X61593070Y-61173800D01*
X61620822Y-61175163D01*
X61620822Y-61175163D01*
G37*
D21*
X61100000Y-61825000D03*
D19*
G36*
X61620822Y-59125163D02*
X61648306Y-59129240D01*
X61675258Y-59135991D01*
X61701419Y-59145352D01*
X61726537Y-59157232D01*
X61750369Y-59171516D01*
X61772686Y-59188068D01*
X61793273Y-59206727D01*
X61811932Y-59227314D01*
X61828484Y-59249631D01*
X61842768Y-59273463D01*
X61854648Y-59298581D01*
X61864009Y-59324742D01*
X61870760Y-59351694D01*
X61874837Y-59379178D01*
X61876200Y-59406930D01*
X61876200Y-60143070D01*
X61874837Y-60170822D01*
X61870760Y-60198306D01*
X61864009Y-60225258D01*
X61854648Y-60251419D01*
X61842768Y-60276537D01*
X61828484Y-60300369D01*
X61811932Y-60322686D01*
X61793273Y-60343273D01*
X61772686Y-60361932D01*
X61750369Y-60378484D01*
X61726537Y-60392768D01*
X61701419Y-60404648D01*
X61675258Y-60414009D01*
X61648306Y-60420760D01*
X61620822Y-60424837D01*
X61593070Y-60426200D01*
X60606930Y-60426200D01*
X60579178Y-60424837D01*
X60551694Y-60420760D01*
X60524742Y-60414009D01*
X60498581Y-60404648D01*
X60473463Y-60392768D01*
X60449631Y-60378484D01*
X60427314Y-60361932D01*
X60406727Y-60343273D01*
X60388068Y-60322686D01*
X60371516Y-60300369D01*
X60357232Y-60276537D01*
X60345352Y-60251419D01*
X60335991Y-60225258D01*
X60329240Y-60198306D01*
X60325163Y-60170822D01*
X60323800Y-60143070D01*
X60323800Y-59406930D01*
X60325163Y-59379178D01*
X60329240Y-59351694D01*
X60335991Y-59324742D01*
X60345352Y-59298581D01*
X60357232Y-59273463D01*
X60371516Y-59249631D01*
X60388068Y-59227314D01*
X60406727Y-59206727D01*
X60427314Y-59188068D01*
X60449631Y-59171516D01*
X60473463Y-59157232D01*
X60498581Y-59145352D01*
X60524742Y-59135991D01*
X60551694Y-59129240D01*
X60579178Y-59125163D01*
X60606930Y-59123800D01*
X61593070Y-59123800D01*
X61620822Y-59125163D01*
X61620822Y-59125163D01*
G37*
D21*
X61100000Y-59775000D03*
G04 #@! TD*
D19*
G04 #@! TO.C,R105*
G36*
X61020822Y-50275163D02*
X61048306Y-50279240D01*
X61075258Y-50285991D01*
X61101419Y-50295352D01*
X61126537Y-50307232D01*
X61150369Y-50321516D01*
X61172686Y-50338068D01*
X61193273Y-50356727D01*
X61211932Y-50377314D01*
X61228484Y-50399631D01*
X61242768Y-50423463D01*
X61254648Y-50448581D01*
X61264009Y-50474742D01*
X61270760Y-50501694D01*
X61274837Y-50529178D01*
X61276200Y-50556930D01*
X61276200Y-51293070D01*
X61274837Y-51320822D01*
X61270760Y-51348306D01*
X61264009Y-51375258D01*
X61254648Y-51401419D01*
X61242768Y-51426537D01*
X61228484Y-51450369D01*
X61211932Y-51472686D01*
X61193273Y-51493273D01*
X61172686Y-51511932D01*
X61150369Y-51528484D01*
X61126537Y-51542768D01*
X61101419Y-51554648D01*
X61075258Y-51564009D01*
X61048306Y-51570760D01*
X61020822Y-51574837D01*
X60993070Y-51576200D01*
X60006930Y-51576200D01*
X59979178Y-51574837D01*
X59951694Y-51570760D01*
X59924742Y-51564009D01*
X59898581Y-51554648D01*
X59873463Y-51542768D01*
X59849631Y-51528484D01*
X59827314Y-51511932D01*
X59806727Y-51493273D01*
X59788068Y-51472686D01*
X59771516Y-51450369D01*
X59757232Y-51426537D01*
X59745352Y-51401419D01*
X59735991Y-51375258D01*
X59729240Y-51348306D01*
X59725163Y-51320822D01*
X59723800Y-51293070D01*
X59723800Y-50556930D01*
X59725163Y-50529178D01*
X59729240Y-50501694D01*
X59735991Y-50474742D01*
X59745352Y-50448581D01*
X59757232Y-50423463D01*
X59771516Y-50399631D01*
X59788068Y-50377314D01*
X59806727Y-50356727D01*
X59827314Y-50338068D01*
X59849631Y-50321516D01*
X59873463Y-50307232D01*
X59898581Y-50295352D01*
X59924742Y-50285991D01*
X59951694Y-50279240D01*
X59979178Y-50275163D01*
X60006930Y-50273800D01*
X60993070Y-50273800D01*
X61020822Y-50275163D01*
X61020822Y-50275163D01*
G37*
D21*
X60500000Y-50925000D03*
D19*
G36*
X61020822Y-48225163D02*
X61048306Y-48229240D01*
X61075258Y-48235991D01*
X61101419Y-48245352D01*
X61126537Y-48257232D01*
X61150369Y-48271516D01*
X61172686Y-48288068D01*
X61193273Y-48306727D01*
X61211932Y-48327314D01*
X61228484Y-48349631D01*
X61242768Y-48373463D01*
X61254648Y-48398581D01*
X61264009Y-48424742D01*
X61270760Y-48451694D01*
X61274837Y-48479178D01*
X61276200Y-48506930D01*
X61276200Y-49243070D01*
X61274837Y-49270822D01*
X61270760Y-49298306D01*
X61264009Y-49325258D01*
X61254648Y-49351419D01*
X61242768Y-49376537D01*
X61228484Y-49400369D01*
X61211932Y-49422686D01*
X61193273Y-49443273D01*
X61172686Y-49461932D01*
X61150369Y-49478484D01*
X61126537Y-49492768D01*
X61101419Y-49504648D01*
X61075258Y-49514009D01*
X61048306Y-49520760D01*
X61020822Y-49524837D01*
X60993070Y-49526200D01*
X60006930Y-49526200D01*
X59979178Y-49524837D01*
X59951694Y-49520760D01*
X59924742Y-49514009D01*
X59898581Y-49504648D01*
X59873463Y-49492768D01*
X59849631Y-49478484D01*
X59827314Y-49461932D01*
X59806727Y-49443273D01*
X59788068Y-49422686D01*
X59771516Y-49400369D01*
X59757232Y-49376537D01*
X59745352Y-49351419D01*
X59735991Y-49325258D01*
X59729240Y-49298306D01*
X59725163Y-49270822D01*
X59723800Y-49243070D01*
X59723800Y-48506930D01*
X59725163Y-48479178D01*
X59729240Y-48451694D01*
X59735991Y-48424742D01*
X59745352Y-48398581D01*
X59757232Y-48373463D01*
X59771516Y-48349631D01*
X59788068Y-48327314D01*
X59806727Y-48306727D01*
X59827314Y-48288068D01*
X59849631Y-48271516D01*
X59873463Y-48257232D01*
X59898581Y-48245352D01*
X59924742Y-48235991D01*
X59951694Y-48229240D01*
X59979178Y-48225163D01*
X60006930Y-48223800D01*
X60993070Y-48223800D01*
X61020822Y-48225163D01*
X61020822Y-48225163D01*
G37*
D21*
X60500000Y-48875000D03*
G04 #@! TD*
D19*
G04 #@! TO.C,R106*
G36*
X58520822Y-48225163D02*
X58548306Y-48229240D01*
X58575258Y-48235991D01*
X58601419Y-48245352D01*
X58626537Y-48257232D01*
X58650369Y-48271516D01*
X58672686Y-48288068D01*
X58693273Y-48306727D01*
X58711932Y-48327314D01*
X58728484Y-48349631D01*
X58742768Y-48373463D01*
X58754648Y-48398581D01*
X58764009Y-48424742D01*
X58770760Y-48451694D01*
X58774837Y-48479178D01*
X58776200Y-48506930D01*
X58776200Y-49243070D01*
X58774837Y-49270822D01*
X58770760Y-49298306D01*
X58764009Y-49325258D01*
X58754648Y-49351419D01*
X58742768Y-49376537D01*
X58728484Y-49400369D01*
X58711932Y-49422686D01*
X58693273Y-49443273D01*
X58672686Y-49461932D01*
X58650369Y-49478484D01*
X58626537Y-49492768D01*
X58601419Y-49504648D01*
X58575258Y-49514009D01*
X58548306Y-49520760D01*
X58520822Y-49524837D01*
X58493070Y-49526200D01*
X57506930Y-49526200D01*
X57479178Y-49524837D01*
X57451694Y-49520760D01*
X57424742Y-49514009D01*
X57398581Y-49504648D01*
X57373463Y-49492768D01*
X57349631Y-49478484D01*
X57327314Y-49461932D01*
X57306727Y-49443273D01*
X57288068Y-49422686D01*
X57271516Y-49400369D01*
X57257232Y-49376537D01*
X57245352Y-49351419D01*
X57235991Y-49325258D01*
X57229240Y-49298306D01*
X57225163Y-49270822D01*
X57223800Y-49243070D01*
X57223800Y-48506930D01*
X57225163Y-48479178D01*
X57229240Y-48451694D01*
X57235991Y-48424742D01*
X57245352Y-48398581D01*
X57257232Y-48373463D01*
X57271516Y-48349631D01*
X57288068Y-48327314D01*
X57306727Y-48306727D01*
X57327314Y-48288068D01*
X57349631Y-48271516D01*
X57373463Y-48257232D01*
X57398581Y-48245352D01*
X57424742Y-48235991D01*
X57451694Y-48229240D01*
X57479178Y-48225163D01*
X57506930Y-48223800D01*
X58493070Y-48223800D01*
X58520822Y-48225163D01*
X58520822Y-48225163D01*
G37*
D21*
X58000000Y-48875000D03*
D19*
G36*
X58520822Y-50275163D02*
X58548306Y-50279240D01*
X58575258Y-50285991D01*
X58601419Y-50295352D01*
X58626537Y-50307232D01*
X58650369Y-50321516D01*
X58672686Y-50338068D01*
X58693273Y-50356727D01*
X58711932Y-50377314D01*
X58728484Y-50399631D01*
X58742768Y-50423463D01*
X58754648Y-50448581D01*
X58764009Y-50474742D01*
X58770760Y-50501694D01*
X58774837Y-50529178D01*
X58776200Y-50556930D01*
X58776200Y-51293070D01*
X58774837Y-51320822D01*
X58770760Y-51348306D01*
X58764009Y-51375258D01*
X58754648Y-51401419D01*
X58742768Y-51426537D01*
X58728484Y-51450369D01*
X58711932Y-51472686D01*
X58693273Y-51493273D01*
X58672686Y-51511932D01*
X58650369Y-51528484D01*
X58626537Y-51542768D01*
X58601419Y-51554648D01*
X58575258Y-51564009D01*
X58548306Y-51570760D01*
X58520822Y-51574837D01*
X58493070Y-51576200D01*
X57506930Y-51576200D01*
X57479178Y-51574837D01*
X57451694Y-51570760D01*
X57424742Y-51564009D01*
X57398581Y-51554648D01*
X57373463Y-51542768D01*
X57349631Y-51528484D01*
X57327314Y-51511932D01*
X57306727Y-51493273D01*
X57288068Y-51472686D01*
X57271516Y-51450369D01*
X57257232Y-51426537D01*
X57245352Y-51401419D01*
X57235991Y-51375258D01*
X57229240Y-51348306D01*
X57225163Y-51320822D01*
X57223800Y-51293070D01*
X57223800Y-50556930D01*
X57225163Y-50529178D01*
X57229240Y-50501694D01*
X57235991Y-50474742D01*
X57245352Y-50448581D01*
X57257232Y-50423463D01*
X57271516Y-50399631D01*
X57288068Y-50377314D01*
X57306727Y-50356727D01*
X57327314Y-50338068D01*
X57349631Y-50321516D01*
X57373463Y-50307232D01*
X57398581Y-50295352D01*
X57424742Y-50285991D01*
X57451694Y-50279240D01*
X57479178Y-50275163D01*
X57506930Y-50273800D01*
X58493070Y-50273800D01*
X58520822Y-50275163D01*
X58520822Y-50275163D01*
G37*
D21*
X58000000Y-50925000D03*
G04 #@! TD*
D19*
G04 #@! TO.C,R107*
G36*
X91220822Y-56875163D02*
X91248306Y-56879240D01*
X91275258Y-56885991D01*
X91301419Y-56895352D01*
X91326537Y-56907232D01*
X91350369Y-56921516D01*
X91372686Y-56938068D01*
X91393273Y-56956727D01*
X91411932Y-56977314D01*
X91428484Y-56999631D01*
X91442768Y-57023463D01*
X91454648Y-57048581D01*
X91464009Y-57074742D01*
X91470760Y-57101694D01*
X91474837Y-57129178D01*
X91476200Y-57156930D01*
X91476200Y-57893070D01*
X91474837Y-57920822D01*
X91470760Y-57948306D01*
X91464009Y-57975258D01*
X91454648Y-58001419D01*
X91442768Y-58026537D01*
X91428484Y-58050369D01*
X91411932Y-58072686D01*
X91393273Y-58093273D01*
X91372686Y-58111932D01*
X91350369Y-58128484D01*
X91326537Y-58142768D01*
X91301419Y-58154648D01*
X91275258Y-58164009D01*
X91248306Y-58170760D01*
X91220822Y-58174837D01*
X91193070Y-58176200D01*
X90206930Y-58176200D01*
X90179178Y-58174837D01*
X90151694Y-58170760D01*
X90124742Y-58164009D01*
X90098581Y-58154648D01*
X90073463Y-58142768D01*
X90049631Y-58128484D01*
X90027314Y-58111932D01*
X90006727Y-58093273D01*
X89988068Y-58072686D01*
X89971516Y-58050369D01*
X89957232Y-58026537D01*
X89945352Y-58001419D01*
X89935991Y-57975258D01*
X89929240Y-57948306D01*
X89925163Y-57920822D01*
X89923800Y-57893070D01*
X89923800Y-57156930D01*
X89925163Y-57129178D01*
X89929240Y-57101694D01*
X89935991Y-57074742D01*
X89945352Y-57048581D01*
X89957232Y-57023463D01*
X89971516Y-56999631D01*
X89988068Y-56977314D01*
X90006727Y-56956727D01*
X90027314Y-56938068D01*
X90049631Y-56921516D01*
X90073463Y-56907232D01*
X90098581Y-56895352D01*
X90124742Y-56885991D01*
X90151694Y-56879240D01*
X90179178Y-56875163D01*
X90206930Y-56873800D01*
X91193070Y-56873800D01*
X91220822Y-56875163D01*
X91220822Y-56875163D01*
G37*
D21*
X90700000Y-57525000D03*
D19*
G36*
X91220822Y-54825163D02*
X91248306Y-54829240D01*
X91275258Y-54835991D01*
X91301419Y-54845352D01*
X91326537Y-54857232D01*
X91350369Y-54871516D01*
X91372686Y-54888068D01*
X91393273Y-54906727D01*
X91411932Y-54927314D01*
X91428484Y-54949631D01*
X91442768Y-54973463D01*
X91454648Y-54998581D01*
X91464009Y-55024742D01*
X91470760Y-55051694D01*
X91474837Y-55079178D01*
X91476200Y-55106930D01*
X91476200Y-55843070D01*
X91474837Y-55870822D01*
X91470760Y-55898306D01*
X91464009Y-55925258D01*
X91454648Y-55951419D01*
X91442768Y-55976537D01*
X91428484Y-56000369D01*
X91411932Y-56022686D01*
X91393273Y-56043273D01*
X91372686Y-56061932D01*
X91350369Y-56078484D01*
X91326537Y-56092768D01*
X91301419Y-56104648D01*
X91275258Y-56114009D01*
X91248306Y-56120760D01*
X91220822Y-56124837D01*
X91193070Y-56126200D01*
X90206930Y-56126200D01*
X90179178Y-56124837D01*
X90151694Y-56120760D01*
X90124742Y-56114009D01*
X90098581Y-56104648D01*
X90073463Y-56092768D01*
X90049631Y-56078484D01*
X90027314Y-56061932D01*
X90006727Y-56043273D01*
X89988068Y-56022686D01*
X89971516Y-56000369D01*
X89957232Y-55976537D01*
X89945352Y-55951419D01*
X89935991Y-55925258D01*
X89929240Y-55898306D01*
X89925163Y-55870822D01*
X89923800Y-55843070D01*
X89923800Y-55106930D01*
X89925163Y-55079178D01*
X89929240Y-55051694D01*
X89935991Y-55024742D01*
X89945352Y-54998581D01*
X89957232Y-54973463D01*
X89971516Y-54949631D01*
X89988068Y-54927314D01*
X90006727Y-54906727D01*
X90027314Y-54888068D01*
X90049631Y-54871516D01*
X90073463Y-54857232D01*
X90098581Y-54845352D01*
X90124742Y-54835991D01*
X90151694Y-54829240D01*
X90179178Y-54825163D01*
X90206930Y-54823800D01*
X91193070Y-54823800D01*
X91220822Y-54825163D01*
X91220822Y-54825163D01*
G37*
D21*
X90700000Y-55475000D03*
G04 #@! TD*
D19*
G04 #@! TO.C,R108*
G36*
X99220822Y-54125163D02*
X99248306Y-54129240D01*
X99275258Y-54135991D01*
X99301419Y-54145352D01*
X99326537Y-54157232D01*
X99350369Y-54171516D01*
X99372686Y-54188068D01*
X99393273Y-54206727D01*
X99411932Y-54227314D01*
X99428484Y-54249631D01*
X99442768Y-54273463D01*
X99454648Y-54298581D01*
X99464009Y-54324742D01*
X99470760Y-54351694D01*
X99474837Y-54379178D01*
X99476200Y-54406930D01*
X99476200Y-55393070D01*
X99474837Y-55420822D01*
X99470760Y-55448306D01*
X99464009Y-55475258D01*
X99454648Y-55501419D01*
X99442768Y-55526537D01*
X99428484Y-55550369D01*
X99411932Y-55572686D01*
X99393273Y-55593273D01*
X99372686Y-55611932D01*
X99350369Y-55628484D01*
X99326537Y-55642768D01*
X99301419Y-55654648D01*
X99275258Y-55664009D01*
X99248306Y-55670760D01*
X99220822Y-55674837D01*
X99193070Y-55676200D01*
X98456930Y-55676200D01*
X98429178Y-55674837D01*
X98401694Y-55670760D01*
X98374742Y-55664009D01*
X98348581Y-55654648D01*
X98323463Y-55642768D01*
X98299631Y-55628484D01*
X98277314Y-55611932D01*
X98256727Y-55593273D01*
X98238068Y-55572686D01*
X98221516Y-55550369D01*
X98207232Y-55526537D01*
X98195352Y-55501419D01*
X98185991Y-55475258D01*
X98179240Y-55448306D01*
X98175163Y-55420822D01*
X98173800Y-55393070D01*
X98173800Y-54406930D01*
X98175163Y-54379178D01*
X98179240Y-54351694D01*
X98185991Y-54324742D01*
X98195352Y-54298581D01*
X98207232Y-54273463D01*
X98221516Y-54249631D01*
X98238068Y-54227314D01*
X98256727Y-54206727D01*
X98277314Y-54188068D01*
X98299631Y-54171516D01*
X98323463Y-54157232D01*
X98348581Y-54145352D01*
X98374742Y-54135991D01*
X98401694Y-54129240D01*
X98429178Y-54125163D01*
X98456930Y-54123800D01*
X99193070Y-54123800D01*
X99220822Y-54125163D01*
X99220822Y-54125163D01*
G37*
D21*
X98825000Y-54900000D03*
D19*
G36*
X97170822Y-54125163D02*
X97198306Y-54129240D01*
X97225258Y-54135991D01*
X97251419Y-54145352D01*
X97276537Y-54157232D01*
X97300369Y-54171516D01*
X97322686Y-54188068D01*
X97343273Y-54206727D01*
X97361932Y-54227314D01*
X97378484Y-54249631D01*
X97392768Y-54273463D01*
X97404648Y-54298581D01*
X97414009Y-54324742D01*
X97420760Y-54351694D01*
X97424837Y-54379178D01*
X97426200Y-54406930D01*
X97426200Y-55393070D01*
X97424837Y-55420822D01*
X97420760Y-55448306D01*
X97414009Y-55475258D01*
X97404648Y-55501419D01*
X97392768Y-55526537D01*
X97378484Y-55550369D01*
X97361932Y-55572686D01*
X97343273Y-55593273D01*
X97322686Y-55611932D01*
X97300369Y-55628484D01*
X97276537Y-55642768D01*
X97251419Y-55654648D01*
X97225258Y-55664009D01*
X97198306Y-55670760D01*
X97170822Y-55674837D01*
X97143070Y-55676200D01*
X96406930Y-55676200D01*
X96379178Y-55674837D01*
X96351694Y-55670760D01*
X96324742Y-55664009D01*
X96298581Y-55654648D01*
X96273463Y-55642768D01*
X96249631Y-55628484D01*
X96227314Y-55611932D01*
X96206727Y-55593273D01*
X96188068Y-55572686D01*
X96171516Y-55550369D01*
X96157232Y-55526537D01*
X96145352Y-55501419D01*
X96135991Y-55475258D01*
X96129240Y-55448306D01*
X96125163Y-55420822D01*
X96123800Y-55393070D01*
X96123800Y-54406930D01*
X96125163Y-54379178D01*
X96129240Y-54351694D01*
X96135991Y-54324742D01*
X96145352Y-54298581D01*
X96157232Y-54273463D01*
X96171516Y-54249631D01*
X96188068Y-54227314D01*
X96206727Y-54206727D01*
X96227314Y-54188068D01*
X96249631Y-54171516D01*
X96273463Y-54157232D01*
X96298581Y-54145352D01*
X96324742Y-54135991D01*
X96351694Y-54129240D01*
X96379178Y-54125163D01*
X96406930Y-54123800D01*
X97143070Y-54123800D01*
X97170822Y-54125163D01*
X97170822Y-54125163D01*
G37*
D21*
X96775000Y-54900000D03*
G04 #@! TD*
D19*
G04 #@! TO.C,R109*
G36*
X93720822Y-56875163D02*
X93748306Y-56879240D01*
X93775258Y-56885991D01*
X93801419Y-56895352D01*
X93826537Y-56907232D01*
X93850369Y-56921516D01*
X93872686Y-56938068D01*
X93893273Y-56956727D01*
X93911932Y-56977314D01*
X93928484Y-56999631D01*
X93942768Y-57023463D01*
X93954648Y-57048581D01*
X93964009Y-57074742D01*
X93970760Y-57101694D01*
X93974837Y-57129178D01*
X93976200Y-57156930D01*
X93976200Y-57893070D01*
X93974837Y-57920822D01*
X93970760Y-57948306D01*
X93964009Y-57975258D01*
X93954648Y-58001419D01*
X93942768Y-58026537D01*
X93928484Y-58050369D01*
X93911932Y-58072686D01*
X93893273Y-58093273D01*
X93872686Y-58111932D01*
X93850369Y-58128484D01*
X93826537Y-58142768D01*
X93801419Y-58154648D01*
X93775258Y-58164009D01*
X93748306Y-58170760D01*
X93720822Y-58174837D01*
X93693070Y-58176200D01*
X92706930Y-58176200D01*
X92679178Y-58174837D01*
X92651694Y-58170760D01*
X92624742Y-58164009D01*
X92598581Y-58154648D01*
X92573463Y-58142768D01*
X92549631Y-58128484D01*
X92527314Y-58111932D01*
X92506727Y-58093273D01*
X92488068Y-58072686D01*
X92471516Y-58050369D01*
X92457232Y-58026537D01*
X92445352Y-58001419D01*
X92435991Y-57975258D01*
X92429240Y-57948306D01*
X92425163Y-57920822D01*
X92423800Y-57893070D01*
X92423800Y-57156930D01*
X92425163Y-57129178D01*
X92429240Y-57101694D01*
X92435991Y-57074742D01*
X92445352Y-57048581D01*
X92457232Y-57023463D01*
X92471516Y-56999631D01*
X92488068Y-56977314D01*
X92506727Y-56956727D01*
X92527314Y-56938068D01*
X92549631Y-56921516D01*
X92573463Y-56907232D01*
X92598581Y-56895352D01*
X92624742Y-56885991D01*
X92651694Y-56879240D01*
X92679178Y-56875163D01*
X92706930Y-56873800D01*
X93693070Y-56873800D01*
X93720822Y-56875163D01*
X93720822Y-56875163D01*
G37*
D21*
X93200000Y-57525000D03*
D19*
G36*
X93720822Y-54825163D02*
X93748306Y-54829240D01*
X93775258Y-54835991D01*
X93801419Y-54845352D01*
X93826537Y-54857232D01*
X93850369Y-54871516D01*
X93872686Y-54888068D01*
X93893273Y-54906727D01*
X93911932Y-54927314D01*
X93928484Y-54949631D01*
X93942768Y-54973463D01*
X93954648Y-54998581D01*
X93964009Y-55024742D01*
X93970760Y-55051694D01*
X93974837Y-55079178D01*
X93976200Y-55106930D01*
X93976200Y-55843070D01*
X93974837Y-55870822D01*
X93970760Y-55898306D01*
X93964009Y-55925258D01*
X93954648Y-55951419D01*
X93942768Y-55976537D01*
X93928484Y-56000369D01*
X93911932Y-56022686D01*
X93893273Y-56043273D01*
X93872686Y-56061932D01*
X93850369Y-56078484D01*
X93826537Y-56092768D01*
X93801419Y-56104648D01*
X93775258Y-56114009D01*
X93748306Y-56120760D01*
X93720822Y-56124837D01*
X93693070Y-56126200D01*
X92706930Y-56126200D01*
X92679178Y-56124837D01*
X92651694Y-56120760D01*
X92624742Y-56114009D01*
X92598581Y-56104648D01*
X92573463Y-56092768D01*
X92549631Y-56078484D01*
X92527314Y-56061932D01*
X92506727Y-56043273D01*
X92488068Y-56022686D01*
X92471516Y-56000369D01*
X92457232Y-55976537D01*
X92445352Y-55951419D01*
X92435991Y-55925258D01*
X92429240Y-55898306D01*
X92425163Y-55870822D01*
X92423800Y-55843070D01*
X92423800Y-55106930D01*
X92425163Y-55079178D01*
X92429240Y-55051694D01*
X92435991Y-55024742D01*
X92445352Y-54998581D01*
X92457232Y-54973463D01*
X92471516Y-54949631D01*
X92488068Y-54927314D01*
X92506727Y-54906727D01*
X92527314Y-54888068D01*
X92549631Y-54871516D01*
X92573463Y-54857232D01*
X92598581Y-54845352D01*
X92624742Y-54835991D01*
X92651694Y-54829240D01*
X92679178Y-54825163D01*
X92706930Y-54823800D01*
X93693070Y-54823800D01*
X93720822Y-54825163D01*
X93720822Y-54825163D01*
G37*
D21*
X93200000Y-55475000D03*
G04 #@! TD*
D19*
G04 #@! TO.C,R110*
G36*
X43970822Y-50775163D02*
X43998306Y-50779240D01*
X44025258Y-50785991D01*
X44051419Y-50795352D01*
X44076537Y-50807232D01*
X44100369Y-50821516D01*
X44122686Y-50838068D01*
X44143273Y-50856727D01*
X44161932Y-50877314D01*
X44178484Y-50899631D01*
X44192768Y-50923463D01*
X44204648Y-50948581D01*
X44214009Y-50974742D01*
X44220760Y-51001694D01*
X44224837Y-51029178D01*
X44226200Y-51056930D01*
X44226200Y-52043070D01*
X44224837Y-52070822D01*
X44220760Y-52098306D01*
X44214009Y-52125258D01*
X44204648Y-52151419D01*
X44192768Y-52176537D01*
X44178484Y-52200369D01*
X44161932Y-52222686D01*
X44143273Y-52243273D01*
X44122686Y-52261932D01*
X44100369Y-52278484D01*
X44076537Y-52292768D01*
X44051419Y-52304648D01*
X44025258Y-52314009D01*
X43998306Y-52320760D01*
X43970822Y-52324837D01*
X43943070Y-52326200D01*
X43206930Y-52326200D01*
X43179178Y-52324837D01*
X43151694Y-52320760D01*
X43124742Y-52314009D01*
X43098581Y-52304648D01*
X43073463Y-52292768D01*
X43049631Y-52278484D01*
X43027314Y-52261932D01*
X43006727Y-52243273D01*
X42988068Y-52222686D01*
X42971516Y-52200369D01*
X42957232Y-52176537D01*
X42945352Y-52151419D01*
X42935991Y-52125258D01*
X42929240Y-52098306D01*
X42925163Y-52070822D01*
X42923800Y-52043070D01*
X42923800Y-51056930D01*
X42925163Y-51029178D01*
X42929240Y-51001694D01*
X42935991Y-50974742D01*
X42945352Y-50948581D01*
X42957232Y-50923463D01*
X42971516Y-50899631D01*
X42988068Y-50877314D01*
X43006727Y-50856727D01*
X43027314Y-50838068D01*
X43049631Y-50821516D01*
X43073463Y-50807232D01*
X43098581Y-50795352D01*
X43124742Y-50785991D01*
X43151694Y-50779240D01*
X43179178Y-50775163D01*
X43206930Y-50773800D01*
X43943070Y-50773800D01*
X43970822Y-50775163D01*
X43970822Y-50775163D01*
G37*
D21*
X43575000Y-51550000D03*
D19*
G36*
X46020822Y-50775163D02*
X46048306Y-50779240D01*
X46075258Y-50785991D01*
X46101419Y-50795352D01*
X46126537Y-50807232D01*
X46150369Y-50821516D01*
X46172686Y-50838068D01*
X46193273Y-50856727D01*
X46211932Y-50877314D01*
X46228484Y-50899631D01*
X46242768Y-50923463D01*
X46254648Y-50948581D01*
X46264009Y-50974742D01*
X46270760Y-51001694D01*
X46274837Y-51029178D01*
X46276200Y-51056930D01*
X46276200Y-52043070D01*
X46274837Y-52070822D01*
X46270760Y-52098306D01*
X46264009Y-52125258D01*
X46254648Y-52151419D01*
X46242768Y-52176537D01*
X46228484Y-52200369D01*
X46211932Y-52222686D01*
X46193273Y-52243273D01*
X46172686Y-52261932D01*
X46150369Y-52278484D01*
X46126537Y-52292768D01*
X46101419Y-52304648D01*
X46075258Y-52314009D01*
X46048306Y-52320760D01*
X46020822Y-52324837D01*
X45993070Y-52326200D01*
X45256930Y-52326200D01*
X45229178Y-52324837D01*
X45201694Y-52320760D01*
X45174742Y-52314009D01*
X45148581Y-52304648D01*
X45123463Y-52292768D01*
X45099631Y-52278484D01*
X45077314Y-52261932D01*
X45056727Y-52243273D01*
X45038068Y-52222686D01*
X45021516Y-52200369D01*
X45007232Y-52176537D01*
X44995352Y-52151419D01*
X44985991Y-52125258D01*
X44979240Y-52098306D01*
X44975163Y-52070822D01*
X44973800Y-52043070D01*
X44973800Y-51056930D01*
X44975163Y-51029178D01*
X44979240Y-51001694D01*
X44985991Y-50974742D01*
X44995352Y-50948581D01*
X45007232Y-50923463D01*
X45021516Y-50899631D01*
X45038068Y-50877314D01*
X45056727Y-50856727D01*
X45077314Y-50838068D01*
X45099631Y-50821516D01*
X45123463Y-50807232D01*
X45148581Y-50795352D01*
X45174742Y-50785991D01*
X45201694Y-50779240D01*
X45229178Y-50775163D01*
X45256930Y-50773800D01*
X45993070Y-50773800D01*
X46020822Y-50775163D01*
X46020822Y-50775163D01*
G37*
D21*
X45625000Y-51550000D03*
G04 #@! TD*
D19*
G04 #@! TO.C,R111*
G36*
X81870822Y-71425163D02*
X81898306Y-71429240D01*
X81925258Y-71435991D01*
X81951419Y-71445352D01*
X81976537Y-71457232D01*
X82000369Y-71471516D01*
X82022686Y-71488068D01*
X82043273Y-71506727D01*
X82061932Y-71527314D01*
X82078484Y-71549631D01*
X82092768Y-71573463D01*
X82104648Y-71598581D01*
X82114009Y-71624742D01*
X82120760Y-71651694D01*
X82124837Y-71679178D01*
X82126200Y-71706930D01*
X82126200Y-72443070D01*
X82124837Y-72470822D01*
X82120760Y-72498306D01*
X82114009Y-72525258D01*
X82104648Y-72551419D01*
X82092768Y-72576537D01*
X82078484Y-72600369D01*
X82061932Y-72622686D01*
X82043273Y-72643273D01*
X82022686Y-72661932D01*
X82000369Y-72678484D01*
X81976537Y-72692768D01*
X81951419Y-72704648D01*
X81925258Y-72714009D01*
X81898306Y-72720760D01*
X81870822Y-72724837D01*
X81843070Y-72726200D01*
X80856930Y-72726200D01*
X80829178Y-72724837D01*
X80801694Y-72720760D01*
X80774742Y-72714009D01*
X80748581Y-72704648D01*
X80723463Y-72692768D01*
X80699631Y-72678484D01*
X80677314Y-72661932D01*
X80656727Y-72643273D01*
X80638068Y-72622686D01*
X80621516Y-72600369D01*
X80607232Y-72576537D01*
X80595352Y-72551419D01*
X80585991Y-72525258D01*
X80579240Y-72498306D01*
X80575163Y-72470822D01*
X80573800Y-72443070D01*
X80573800Y-71706930D01*
X80575163Y-71679178D01*
X80579240Y-71651694D01*
X80585991Y-71624742D01*
X80595352Y-71598581D01*
X80607232Y-71573463D01*
X80621516Y-71549631D01*
X80638068Y-71527314D01*
X80656727Y-71506727D01*
X80677314Y-71488068D01*
X80699631Y-71471516D01*
X80723463Y-71457232D01*
X80748581Y-71445352D01*
X80774742Y-71435991D01*
X80801694Y-71429240D01*
X80829178Y-71425163D01*
X80856930Y-71423800D01*
X81843070Y-71423800D01*
X81870822Y-71425163D01*
X81870822Y-71425163D01*
G37*
D21*
X81350000Y-72075000D03*
D19*
G36*
X81870822Y-69375163D02*
X81898306Y-69379240D01*
X81925258Y-69385991D01*
X81951419Y-69395352D01*
X81976537Y-69407232D01*
X82000369Y-69421516D01*
X82022686Y-69438068D01*
X82043273Y-69456727D01*
X82061932Y-69477314D01*
X82078484Y-69499631D01*
X82092768Y-69523463D01*
X82104648Y-69548581D01*
X82114009Y-69574742D01*
X82120760Y-69601694D01*
X82124837Y-69629178D01*
X82126200Y-69656930D01*
X82126200Y-70393070D01*
X82124837Y-70420822D01*
X82120760Y-70448306D01*
X82114009Y-70475258D01*
X82104648Y-70501419D01*
X82092768Y-70526537D01*
X82078484Y-70550369D01*
X82061932Y-70572686D01*
X82043273Y-70593273D01*
X82022686Y-70611932D01*
X82000369Y-70628484D01*
X81976537Y-70642768D01*
X81951419Y-70654648D01*
X81925258Y-70664009D01*
X81898306Y-70670760D01*
X81870822Y-70674837D01*
X81843070Y-70676200D01*
X80856930Y-70676200D01*
X80829178Y-70674837D01*
X80801694Y-70670760D01*
X80774742Y-70664009D01*
X80748581Y-70654648D01*
X80723463Y-70642768D01*
X80699631Y-70628484D01*
X80677314Y-70611932D01*
X80656727Y-70593273D01*
X80638068Y-70572686D01*
X80621516Y-70550369D01*
X80607232Y-70526537D01*
X80595352Y-70501419D01*
X80585991Y-70475258D01*
X80579240Y-70448306D01*
X80575163Y-70420822D01*
X80573800Y-70393070D01*
X80573800Y-69656930D01*
X80575163Y-69629178D01*
X80579240Y-69601694D01*
X80585991Y-69574742D01*
X80595352Y-69548581D01*
X80607232Y-69523463D01*
X80621516Y-69499631D01*
X80638068Y-69477314D01*
X80656727Y-69456727D01*
X80677314Y-69438068D01*
X80699631Y-69421516D01*
X80723463Y-69407232D01*
X80748581Y-69395352D01*
X80774742Y-69385991D01*
X80801694Y-69379240D01*
X80829178Y-69375163D01*
X80856930Y-69373800D01*
X81843070Y-69373800D01*
X81870822Y-69375163D01*
X81870822Y-69375163D01*
G37*
D21*
X81350000Y-70025000D03*
G04 #@! TD*
D19*
G04 #@! TO.C,R112*
G36*
X65020822Y-98875163D02*
X65048306Y-98879240D01*
X65075258Y-98885991D01*
X65101419Y-98895352D01*
X65126537Y-98907232D01*
X65150369Y-98921516D01*
X65172686Y-98938068D01*
X65193273Y-98956727D01*
X65211932Y-98977314D01*
X65228484Y-98999631D01*
X65242768Y-99023463D01*
X65254648Y-99048581D01*
X65264009Y-99074742D01*
X65270760Y-99101694D01*
X65274837Y-99129178D01*
X65276200Y-99156930D01*
X65276200Y-100143070D01*
X65274837Y-100170822D01*
X65270760Y-100198306D01*
X65264009Y-100225258D01*
X65254648Y-100251419D01*
X65242768Y-100276537D01*
X65228484Y-100300369D01*
X65211932Y-100322686D01*
X65193273Y-100343273D01*
X65172686Y-100361932D01*
X65150369Y-100378484D01*
X65126537Y-100392768D01*
X65101419Y-100404648D01*
X65075258Y-100414009D01*
X65048306Y-100420760D01*
X65020822Y-100424837D01*
X64993070Y-100426200D01*
X64256930Y-100426200D01*
X64229178Y-100424837D01*
X64201694Y-100420760D01*
X64174742Y-100414009D01*
X64148581Y-100404648D01*
X64123463Y-100392768D01*
X64099631Y-100378484D01*
X64077314Y-100361932D01*
X64056727Y-100343273D01*
X64038068Y-100322686D01*
X64021516Y-100300369D01*
X64007232Y-100276537D01*
X63995352Y-100251419D01*
X63985991Y-100225258D01*
X63979240Y-100198306D01*
X63975163Y-100170822D01*
X63973800Y-100143070D01*
X63973800Y-99156930D01*
X63975163Y-99129178D01*
X63979240Y-99101694D01*
X63985991Y-99074742D01*
X63995352Y-99048581D01*
X64007232Y-99023463D01*
X64021516Y-98999631D01*
X64038068Y-98977314D01*
X64056727Y-98956727D01*
X64077314Y-98938068D01*
X64099631Y-98921516D01*
X64123463Y-98907232D01*
X64148581Y-98895352D01*
X64174742Y-98885991D01*
X64201694Y-98879240D01*
X64229178Y-98875163D01*
X64256930Y-98873800D01*
X64993070Y-98873800D01*
X65020822Y-98875163D01*
X65020822Y-98875163D01*
G37*
D21*
X64625000Y-99650000D03*
D19*
G36*
X62970822Y-98875163D02*
X62998306Y-98879240D01*
X63025258Y-98885991D01*
X63051419Y-98895352D01*
X63076537Y-98907232D01*
X63100369Y-98921516D01*
X63122686Y-98938068D01*
X63143273Y-98956727D01*
X63161932Y-98977314D01*
X63178484Y-98999631D01*
X63192768Y-99023463D01*
X63204648Y-99048581D01*
X63214009Y-99074742D01*
X63220760Y-99101694D01*
X63224837Y-99129178D01*
X63226200Y-99156930D01*
X63226200Y-100143070D01*
X63224837Y-100170822D01*
X63220760Y-100198306D01*
X63214009Y-100225258D01*
X63204648Y-100251419D01*
X63192768Y-100276537D01*
X63178484Y-100300369D01*
X63161932Y-100322686D01*
X63143273Y-100343273D01*
X63122686Y-100361932D01*
X63100369Y-100378484D01*
X63076537Y-100392768D01*
X63051419Y-100404648D01*
X63025258Y-100414009D01*
X62998306Y-100420760D01*
X62970822Y-100424837D01*
X62943070Y-100426200D01*
X62206930Y-100426200D01*
X62179178Y-100424837D01*
X62151694Y-100420760D01*
X62124742Y-100414009D01*
X62098581Y-100404648D01*
X62073463Y-100392768D01*
X62049631Y-100378484D01*
X62027314Y-100361932D01*
X62006727Y-100343273D01*
X61988068Y-100322686D01*
X61971516Y-100300369D01*
X61957232Y-100276537D01*
X61945352Y-100251419D01*
X61935991Y-100225258D01*
X61929240Y-100198306D01*
X61925163Y-100170822D01*
X61923800Y-100143070D01*
X61923800Y-99156930D01*
X61925163Y-99129178D01*
X61929240Y-99101694D01*
X61935991Y-99074742D01*
X61945352Y-99048581D01*
X61957232Y-99023463D01*
X61971516Y-98999631D01*
X61988068Y-98977314D01*
X62006727Y-98956727D01*
X62027314Y-98938068D01*
X62049631Y-98921516D01*
X62073463Y-98907232D01*
X62098581Y-98895352D01*
X62124742Y-98885991D01*
X62151694Y-98879240D01*
X62179178Y-98875163D01*
X62206930Y-98873800D01*
X62943070Y-98873800D01*
X62970822Y-98875163D01*
X62970822Y-98875163D01*
G37*
D21*
X62575000Y-99650000D03*
G04 #@! TD*
D19*
G04 #@! TO.C,R113*
G36*
X69720822Y-96575163D02*
X69748306Y-96579240D01*
X69775258Y-96585991D01*
X69801419Y-96595352D01*
X69826537Y-96607232D01*
X69850369Y-96621516D01*
X69872686Y-96638068D01*
X69893273Y-96656727D01*
X69911932Y-96677314D01*
X69928484Y-96699631D01*
X69942768Y-96723463D01*
X69954648Y-96748581D01*
X69964009Y-96774742D01*
X69970760Y-96801694D01*
X69974837Y-96829178D01*
X69976200Y-96856930D01*
X69976200Y-97593070D01*
X69974837Y-97620822D01*
X69970760Y-97648306D01*
X69964009Y-97675258D01*
X69954648Y-97701419D01*
X69942768Y-97726537D01*
X69928484Y-97750369D01*
X69911932Y-97772686D01*
X69893273Y-97793273D01*
X69872686Y-97811932D01*
X69850369Y-97828484D01*
X69826537Y-97842768D01*
X69801419Y-97854648D01*
X69775258Y-97864009D01*
X69748306Y-97870760D01*
X69720822Y-97874837D01*
X69693070Y-97876200D01*
X68706930Y-97876200D01*
X68679178Y-97874837D01*
X68651694Y-97870760D01*
X68624742Y-97864009D01*
X68598581Y-97854648D01*
X68573463Y-97842768D01*
X68549631Y-97828484D01*
X68527314Y-97811932D01*
X68506727Y-97793273D01*
X68488068Y-97772686D01*
X68471516Y-97750369D01*
X68457232Y-97726537D01*
X68445352Y-97701419D01*
X68435991Y-97675258D01*
X68429240Y-97648306D01*
X68425163Y-97620822D01*
X68423800Y-97593070D01*
X68423800Y-96856930D01*
X68425163Y-96829178D01*
X68429240Y-96801694D01*
X68435991Y-96774742D01*
X68445352Y-96748581D01*
X68457232Y-96723463D01*
X68471516Y-96699631D01*
X68488068Y-96677314D01*
X68506727Y-96656727D01*
X68527314Y-96638068D01*
X68549631Y-96621516D01*
X68573463Y-96607232D01*
X68598581Y-96595352D01*
X68624742Y-96585991D01*
X68651694Y-96579240D01*
X68679178Y-96575163D01*
X68706930Y-96573800D01*
X69693070Y-96573800D01*
X69720822Y-96575163D01*
X69720822Y-96575163D01*
G37*
D21*
X69200000Y-97225000D03*
D19*
G36*
X69720822Y-94525163D02*
X69748306Y-94529240D01*
X69775258Y-94535991D01*
X69801419Y-94545352D01*
X69826537Y-94557232D01*
X69850369Y-94571516D01*
X69872686Y-94588068D01*
X69893273Y-94606727D01*
X69911932Y-94627314D01*
X69928484Y-94649631D01*
X69942768Y-94673463D01*
X69954648Y-94698581D01*
X69964009Y-94724742D01*
X69970760Y-94751694D01*
X69974837Y-94779178D01*
X69976200Y-94806930D01*
X69976200Y-95543070D01*
X69974837Y-95570822D01*
X69970760Y-95598306D01*
X69964009Y-95625258D01*
X69954648Y-95651419D01*
X69942768Y-95676537D01*
X69928484Y-95700369D01*
X69911932Y-95722686D01*
X69893273Y-95743273D01*
X69872686Y-95761932D01*
X69850369Y-95778484D01*
X69826537Y-95792768D01*
X69801419Y-95804648D01*
X69775258Y-95814009D01*
X69748306Y-95820760D01*
X69720822Y-95824837D01*
X69693070Y-95826200D01*
X68706930Y-95826200D01*
X68679178Y-95824837D01*
X68651694Y-95820760D01*
X68624742Y-95814009D01*
X68598581Y-95804648D01*
X68573463Y-95792768D01*
X68549631Y-95778484D01*
X68527314Y-95761932D01*
X68506727Y-95743273D01*
X68488068Y-95722686D01*
X68471516Y-95700369D01*
X68457232Y-95676537D01*
X68445352Y-95651419D01*
X68435991Y-95625258D01*
X68429240Y-95598306D01*
X68425163Y-95570822D01*
X68423800Y-95543070D01*
X68423800Y-94806930D01*
X68425163Y-94779178D01*
X68429240Y-94751694D01*
X68435991Y-94724742D01*
X68445352Y-94698581D01*
X68457232Y-94673463D01*
X68471516Y-94649631D01*
X68488068Y-94627314D01*
X68506727Y-94606727D01*
X68527314Y-94588068D01*
X68549631Y-94571516D01*
X68573463Y-94557232D01*
X68598581Y-94545352D01*
X68624742Y-94535991D01*
X68651694Y-94529240D01*
X68679178Y-94525163D01*
X68706930Y-94523800D01*
X69693070Y-94523800D01*
X69720822Y-94525163D01*
X69720822Y-94525163D01*
G37*
D21*
X69200000Y-95175000D03*
G04 #@! TD*
D19*
G04 #@! TO.C,R114*
G36*
X105270822Y-83100163D02*
X105298306Y-83104240D01*
X105325258Y-83110991D01*
X105351419Y-83120352D01*
X105376537Y-83132232D01*
X105400369Y-83146516D01*
X105422686Y-83163068D01*
X105443273Y-83181727D01*
X105461932Y-83202314D01*
X105478484Y-83224631D01*
X105492768Y-83248463D01*
X105504648Y-83273581D01*
X105514009Y-83299742D01*
X105520760Y-83326694D01*
X105524837Y-83354178D01*
X105526200Y-83381930D01*
X105526200Y-84118070D01*
X105524837Y-84145822D01*
X105520760Y-84173306D01*
X105514009Y-84200258D01*
X105504648Y-84226419D01*
X105492768Y-84251537D01*
X105478484Y-84275369D01*
X105461932Y-84297686D01*
X105443273Y-84318273D01*
X105422686Y-84336932D01*
X105400369Y-84353484D01*
X105376537Y-84367768D01*
X105351419Y-84379648D01*
X105325258Y-84389009D01*
X105298306Y-84395760D01*
X105270822Y-84399837D01*
X105243070Y-84401200D01*
X104256930Y-84401200D01*
X104229178Y-84399837D01*
X104201694Y-84395760D01*
X104174742Y-84389009D01*
X104148581Y-84379648D01*
X104123463Y-84367768D01*
X104099631Y-84353484D01*
X104077314Y-84336932D01*
X104056727Y-84318273D01*
X104038068Y-84297686D01*
X104021516Y-84275369D01*
X104007232Y-84251537D01*
X103995352Y-84226419D01*
X103985991Y-84200258D01*
X103979240Y-84173306D01*
X103975163Y-84145822D01*
X103973800Y-84118070D01*
X103973800Y-83381930D01*
X103975163Y-83354178D01*
X103979240Y-83326694D01*
X103985991Y-83299742D01*
X103995352Y-83273581D01*
X104007232Y-83248463D01*
X104021516Y-83224631D01*
X104038068Y-83202314D01*
X104056727Y-83181727D01*
X104077314Y-83163068D01*
X104099631Y-83146516D01*
X104123463Y-83132232D01*
X104148581Y-83120352D01*
X104174742Y-83110991D01*
X104201694Y-83104240D01*
X104229178Y-83100163D01*
X104256930Y-83098800D01*
X105243070Y-83098800D01*
X105270822Y-83100163D01*
X105270822Y-83100163D01*
G37*
D21*
X104750000Y-83750000D03*
D19*
G36*
X105270822Y-81050163D02*
X105298306Y-81054240D01*
X105325258Y-81060991D01*
X105351419Y-81070352D01*
X105376537Y-81082232D01*
X105400369Y-81096516D01*
X105422686Y-81113068D01*
X105443273Y-81131727D01*
X105461932Y-81152314D01*
X105478484Y-81174631D01*
X105492768Y-81198463D01*
X105504648Y-81223581D01*
X105514009Y-81249742D01*
X105520760Y-81276694D01*
X105524837Y-81304178D01*
X105526200Y-81331930D01*
X105526200Y-82068070D01*
X105524837Y-82095822D01*
X105520760Y-82123306D01*
X105514009Y-82150258D01*
X105504648Y-82176419D01*
X105492768Y-82201537D01*
X105478484Y-82225369D01*
X105461932Y-82247686D01*
X105443273Y-82268273D01*
X105422686Y-82286932D01*
X105400369Y-82303484D01*
X105376537Y-82317768D01*
X105351419Y-82329648D01*
X105325258Y-82339009D01*
X105298306Y-82345760D01*
X105270822Y-82349837D01*
X105243070Y-82351200D01*
X104256930Y-82351200D01*
X104229178Y-82349837D01*
X104201694Y-82345760D01*
X104174742Y-82339009D01*
X104148581Y-82329648D01*
X104123463Y-82317768D01*
X104099631Y-82303484D01*
X104077314Y-82286932D01*
X104056727Y-82268273D01*
X104038068Y-82247686D01*
X104021516Y-82225369D01*
X104007232Y-82201537D01*
X103995352Y-82176419D01*
X103985991Y-82150258D01*
X103979240Y-82123306D01*
X103975163Y-82095822D01*
X103973800Y-82068070D01*
X103973800Y-81331930D01*
X103975163Y-81304178D01*
X103979240Y-81276694D01*
X103985991Y-81249742D01*
X103995352Y-81223581D01*
X104007232Y-81198463D01*
X104021516Y-81174631D01*
X104038068Y-81152314D01*
X104056727Y-81131727D01*
X104077314Y-81113068D01*
X104099631Y-81096516D01*
X104123463Y-81082232D01*
X104148581Y-81070352D01*
X104174742Y-81060991D01*
X104201694Y-81054240D01*
X104229178Y-81050163D01*
X104256930Y-81048800D01*
X105243070Y-81048800D01*
X105270822Y-81050163D01*
X105270822Y-81050163D01*
G37*
D21*
X104750000Y-81700000D03*
G04 #@! TD*
D19*
G04 #@! TO.C,R115*
G36*
X108970822Y-86725163D02*
X108998306Y-86729240D01*
X109025258Y-86735991D01*
X109051419Y-86745352D01*
X109076537Y-86757232D01*
X109100369Y-86771516D01*
X109122686Y-86788068D01*
X109143273Y-86806727D01*
X109161932Y-86827314D01*
X109178484Y-86849631D01*
X109192768Y-86873463D01*
X109204648Y-86898581D01*
X109214009Y-86924742D01*
X109220760Y-86951694D01*
X109224837Y-86979178D01*
X109226200Y-87006930D01*
X109226200Y-87993070D01*
X109224837Y-88020822D01*
X109220760Y-88048306D01*
X109214009Y-88075258D01*
X109204648Y-88101419D01*
X109192768Y-88126537D01*
X109178484Y-88150369D01*
X109161932Y-88172686D01*
X109143273Y-88193273D01*
X109122686Y-88211932D01*
X109100369Y-88228484D01*
X109076537Y-88242768D01*
X109051419Y-88254648D01*
X109025258Y-88264009D01*
X108998306Y-88270760D01*
X108970822Y-88274837D01*
X108943070Y-88276200D01*
X108206930Y-88276200D01*
X108179178Y-88274837D01*
X108151694Y-88270760D01*
X108124742Y-88264009D01*
X108098581Y-88254648D01*
X108073463Y-88242768D01*
X108049631Y-88228484D01*
X108027314Y-88211932D01*
X108006727Y-88193273D01*
X107988068Y-88172686D01*
X107971516Y-88150369D01*
X107957232Y-88126537D01*
X107945352Y-88101419D01*
X107935991Y-88075258D01*
X107929240Y-88048306D01*
X107925163Y-88020822D01*
X107923800Y-87993070D01*
X107923800Y-87006930D01*
X107925163Y-86979178D01*
X107929240Y-86951694D01*
X107935991Y-86924742D01*
X107945352Y-86898581D01*
X107957232Y-86873463D01*
X107971516Y-86849631D01*
X107988068Y-86827314D01*
X108006727Y-86806727D01*
X108027314Y-86788068D01*
X108049631Y-86771516D01*
X108073463Y-86757232D01*
X108098581Y-86745352D01*
X108124742Y-86735991D01*
X108151694Y-86729240D01*
X108179178Y-86725163D01*
X108206930Y-86723800D01*
X108943070Y-86723800D01*
X108970822Y-86725163D01*
X108970822Y-86725163D01*
G37*
D21*
X108575000Y-87500000D03*
D19*
G36*
X106920822Y-86725163D02*
X106948306Y-86729240D01*
X106975258Y-86735991D01*
X107001419Y-86745352D01*
X107026537Y-86757232D01*
X107050369Y-86771516D01*
X107072686Y-86788068D01*
X107093273Y-86806727D01*
X107111932Y-86827314D01*
X107128484Y-86849631D01*
X107142768Y-86873463D01*
X107154648Y-86898581D01*
X107164009Y-86924742D01*
X107170760Y-86951694D01*
X107174837Y-86979178D01*
X107176200Y-87006930D01*
X107176200Y-87993070D01*
X107174837Y-88020822D01*
X107170760Y-88048306D01*
X107164009Y-88075258D01*
X107154648Y-88101419D01*
X107142768Y-88126537D01*
X107128484Y-88150369D01*
X107111932Y-88172686D01*
X107093273Y-88193273D01*
X107072686Y-88211932D01*
X107050369Y-88228484D01*
X107026537Y-88242768D01*
X107001419Y-88254648D01*
X106975258Y-88264009D01*
X106948306Y-88270760D01*
X106920822Y-88274837D01*
X106893070Y-88276200D01*
X106156930Y-88276200D01*
X106129178Y-88274837D01*
X106101694Y-88270760D01*
X106074742Y-88264009D01*
X106048581Y-88254648D01*
X106023463Y-88242768D01*
X105999631Y-88228484D01*
X105977314Y-88211932D01*
X105956727Y-88193273D01*
X105938068Y-88172686D01*
X105921516Y-88150369D01*
X105907232Y-88126537D01*
X105895352Y-88101419D01*
X105885991Y-88075258D01*
X105879240Y-88048306D01*
X105875163Y-88020822D01*
X105873800Y-87993070D01*
X105873800Y-87006930D01*
X105875163Y-86979178D01*
X105879240Y-86951694D01*
X105885991Y-86924742D01*
X105895352Y-86898581D01*
X105907232Y-86873463D01*
X105921516Y-86849631D01*
X105938068Y-86827314D01*
X105956727Y-86806727D01*
X105977314Y-86788068D01*
X105999631Y-86771516D01*
X106023463Y-86757232D01*
X106048581Y-86745352D01*
X106074742Y-86735991D01*
X106101694Y-86729240D01*
X106129178Y-86725163D01*
X106156930Y-86723800D01*
X106893070Y-86723800D01*
X106920822Y-86725163D01*
X106920822Y-86725163D01*
G37*
D21*
X106525000Y-87500000D03*
G04 #@! TD*
D19*
G04 #@! TO.C,R116*
G36*
X102220822Y-86725163D02*
X102248306Y-86729240D01*
X102275258Y-86735991D01*
X102301419Y-86745352D01*
X102326537Y-86757232D01*
X102350369Y-86771516D01*
X102372686Y-86788068D01*
X102393273Y-86806727D01*
X102411932Y-86827314D01*
X102428484Y-86849631D01*
X102442768Y-86873463D01*
X102454648Y-86898581D01*
X102464009Y-86924742D01*
X102470760Y-86951694D01*
X102474837Y-86979178D01*
X102476200Y-87006930D01*
X102476200Y-87993070D01*
X102474837Y-88020822D01*
X102470760Y-88048306D01*
X102464009Y-88075258D01*
X102454648Y-88101419D01*
X102442768Y-88126537D01*
X102428484Y-88150369D01*
X102411932Y-88172686D01*
X102393273Y-88193273D01*
X102372686Y-88211932D01*
X102350369Y-88228484D01*
X102326537Y-88242768D01*
X102301419Y-88254648D01*
X102275258Y-88264009D01*
X102248306Y-88270760D01*
X102220822Y-88274837D01*
X102193070Y-88276200D01*
X101456930Y-88276200D01*
X101429178Y-88274837D01*
X101401694Y-88270760D01*
X101374742Y-88264009D01*
X101348581Y-88254648D01*
X101323463Y-88242768D01*
X101299631Y-88228484D01*
X101277314Y-88211932D01*
X101256727Y-88193273D01*
X101238068Y-88172686D01*
X101221516Y-88150369D01*
X101207232Y-88126537D01*
X101195352Y-88101419D01*
X101185991Y-88075258D01*
X101179240Y-88048306D01*
X101175163Y-88020822D01*
X101173800Y-87993070D01*
X101173800Y-87006930D01*
X101175163Y-86979178D01*
X101179240Y-86951694D01*
X101185991Y-86924742D01*
X101195352Y-86898581D01*
X101207232Y-86873463D01*
X101221516Y-86849631D01*
X101238068Y-86827314D01*
X101256727Y-86806727D01*
X101277314Y-86788068D01*
X101299631Y-86771516D01*
X101323463Y-86757232D01*
X101348581Y-86745352D01*
X101374742Y-86735991D01*
X101401694Y-86729240D01*
X101429178Y-86725163D01*
X101456930Y-86723800D01*
X102193070Y-86723800D01*
X102220822Y-86725163D01*
X102220822Y-86725163D01*
G37*
D21*
X101825000Y-87500000D03*
D19*
G36*
X104270822Y-86725163D02*
X104298306Y-86729240D01*
X104325258Y-86735991D01*
X104351419Y-86745352D01*
X104376537Y-86757232D01*
X104400369Y-86771516D01*
X104422686Y-86788068D01*
X104443273Y-86806727D01*
X104461932Y-86827314D01*
X104478484Y-86849631D01*
X104492768Y-86873463D01*
X104504648Y-86898581D01*
X104514009Y-86924742D01*
X104520760Y-86951694D01*
X104524837Y-86979178D01*
X104526200Y-87006930D01*
X104526200Y-87993070D01*
X104524837Y-88020822D01*
X104520760Y-88048306D01*
X104514009Y-88075258D01*
X104504648Y-88101419D01*
X104492768Y-88126537D01*
X104478484Y-88150369D01*
X104461932Y-88172686D01*
X104443273Y-88193273D01*
X104422686Y-88211932D01*
X104400369Y-88228484D01*
X104376537Y-88242768D01*
X104351419Y-88254648D01*
X104325258Y-88264009D01*
X104298306Y-88270760D01*
X104270822Y-88274837D01*
X104243070Y-88276200D01*
X103506930Y-88276200D01*
X103479178Y-88274837D01*
X103451694Y-88270760D01*
X103424742Y-88264009D01*
X103398581Y-88254648D01*
X103373463Y-88242768D01*
X103349631Y-88228484D01*
X103327314Y-88211932D01*
X103306727Y-88193273D01*
X103288068Y-88172686D01*
X103271516Y-88150369D01*
X103257232Y-88126537D01*
X103245352Y-88101419D01*
X103235991Y-88075258D01*
X103229240Y-88048306D01*
X103225163Y-88020822D01*
X103223800Y-87993070D01*
X103223800Y-87006930D01*
X103225163Y-86979178D01*
X103229240Y-86951694D01*
X103235991Y-86924742D01*
X103245352Y-86898581D01*
X103257232Y-86873463D01*
X103271516Y-86849631D01*
X103288068Y-86827314D01*
X103306727Y-86806727D01*
X103327314Y-86788068D01*
X103349631Y-86771516D01*
X103373463Y-86757232D01*
X103398581Y-86745352D01*
X103424742Y-86735991D01*
X103451694Y-86729240D01*
X103479178Y-86725163D01*
X103506930Y-86723800D01*
X104243070Y-86723800D01*
X104270822Y-86725163D01*
X104270822Y-86725163D01*
G37*
D21*
X103875000Y-87500000D03*
G04 #@! TD*
D19*
G04 #@! TO.C,R117*
G36*
X97170822Y-49125163D02*
X97198306Y-49129240D01*
X97225258Y-49135991D01*
X97251419Y-49145352D01*
X97276537Y-49157232D01*
X97300369Y-49171516D01*
X97322686Y-49188068D01*
X97343273Y-49206727D01*
X97361932Y-49227314D01*
X97378484Y-49249631D01*
X97392768Y-49273463D01*
X97404648Y-49298581D01*
X97414009Y-49324742D01*
X97420760Y-49351694D01*
X97424837Y-49379178D01*
X97426200Y-49406930D01*
X97426200Y-50393070D01*
X97424837Y-50420822D01*
X97420760Y-50448306D01*
X97414009Y-50475258D01*
X97404648Y-50501419D01*
X97392768Y-50526537D01*
X97378484Y-50550369D01*
X97361932Y-50572686D01*
X97343273Y-50593273D01*
X97322686Y-50611932D01*
X97300369Y-50628484D01*
X97276537Y-50642768D01*
X97251419Y-50654648D01*
X97225258Y-50664009D01*
X97198306Y-50670760D01*
X97170822Y-50674837D01*
X97143070Y-50676200D01*
X96406930Y-50676200D01*
X96379178Y-50674837D01*
X96351694Y-50670760D01*
X96324742Y-50664009D01*
X96298581Y-50654648D01*
X96273463Y-50642768D01*
X96249631Y-50628484D01*
X96227314Y-50611932D01*
X96206727Y-50593273D01*
X96188068Y-50572686D01*
X96171516Y-50550369D01*
X96157232Y-50526537D01*
X96145352Y-50501419D01*
X96135991Y-50475258D01*
X96129240Y-50448306D01*
X96125163Y-50420822D01*
X96123800Y-50393070D01*
X96123800Y-49406930D01*
X96125163Y-49379178D01*
X96129240Y-49351694D01*
X96135991Y-49324742D01*
X96145352Y-49298581D01*
X96157232Y-49273463D01*
X96171516Y-49249631D01*
X96188068Y-49227314D01*
X96206727Y-49206727D01*
X96227314Y-49188068D01*
X96249631Y-49171516D01*
X96273463Y-49157232D01*
X96298581Y-49145352D01*
X96324742Y-49135991D01*
X96351694Y-49129240D01*
X96379178Y-49125163D01*
X96406930Y-49123800D01*
X97143070Y-49123800D01*
X97170822Y-49125163D01*
X97170822Y-49125163D01*
G37*
D21*
X96775000Y-49900000D03*
D19*
G36*
X99220822Y-49125163D02*
X99248306Y-49129240D01*
X99275258Y-49135991D01*
X99301419Y-49145352D01*
X99326537Y-49157232D01*
X99350369Y-49171516D01*
X99372686Y-49188068D01*
X99393273Y-49206727D01*
X99411932Y-49227314D01*
X99428484Y-49249631D01*
X99442768Y-49273463D01*
X99454648Y-49298581D01*
X99464009Y-49324742D01*
X99470760Y-49351694D01*
X99474837Y-49379178D01*
X99476200Y-49406930D01*
X99476200Y-50393070D01*
X99474837Y-50420822D01*
X99470760Y-50448306D01*
X99464009Y-50475258D01*
X99454648Y-50501419D01*
X99442768Y-50526537D01*
X99428484Y-50550369D01*
X99411932Y-50572686D01*
X99393273Y-50593273D01*
X99372686Y-50611932D01*
X99350369Y-50628484D01*
X99326537Y-50642768D01*
X99301419Y-50654648D01*
X99275258Y-50664009D01*
X99248306Y-50670760D01*
X99220822Y-50674837D01*
X99193070Y-50676200D01*
X98456930Y-50676200D01*
X98429178Y-50674837D01*
X98401694Y-50670760D01*
X98374742Y-50664009D01*
X98348581Y-50654648D01*
X98323463Y-50642768D01*
X98299631Y-50628484D01*
X98277314Y-50611932D01*
X98256727Y-50593273D01*
X98238068Y-50572686D01*
X98221516Y-50550369D01*
X98207232Y-50526537D01*
X98195352Y-50501419D01*
X98185991Y-50475258D01*
X98179240Y-50448306D01*
X98175163Y-50420822D01*
X98173800Y-50393070D01*
X98173800Y-49406930D01*
X98175163Y-49379178D01*
X98179240Y-49351694D01*
X98185991Y-49324742D01*
X98195352Y-49298581D01*
X98207232Y-49273463D01*
X98221516Y-49249631D01*
X98238068Y-49227314D01*
X98256727Y-49206727D01*
X98277314Y-49188068D01*
X98299631Y-49171516D01*
X98323463Y-49157232D01*
X98348581Y-49145352D01*
X98374742Y-49135991D01*
X98401694Y-49129240D01*
X98429178Y-49125163D01*
X98456930Y-49123800D01*
X99193070Y-49123800D01*
X99220822Y-49125163D01*
X99220822Y-49125163D01*
G37*
D21*
X98825000Y-49900000D03*
G04 #@! TD*
D19*
G04 #@! TO.C,R118*
G36*
X105656302Y-104325163D02*
X105683786Y-104329240D01*
X105710738Y-104335991D01*
X105736899Y-104345352D01*
X105762017Y-104357232D01*
X105785849Y-104371516D01*
X105808166Y-104388068D01*
X105828753Y-104406727D01*
X105847412Y-104427314D01*
X105863964Y-104449631D01*
X105878248Y-104473463D01*
X105890128Y-104498581D01*
X105899489Y-104524742D01*
X105906240Y-104551694D01*
X105910317Y-104579178D01*
X105911680Y-104606930D01*
X105911680Y-105343070D01*
X105910317Y-105370822D01*
X105906240Y-105398306D01*
X105899489Y-105425258D01*
X105890128Y-105451419D01*
X105878248Y-105476537D01*
X105863964Y-105500369D01*
X105847412Y-105522686D01*
X105828753Y-105543273D01*
X105808166Y-105561932D01*
X105785849Y-105578484D01*
X105762017Y-105592768D01*
X105736899Y-105604648D01*
X105710738Y-105614009D01*
X105683786Y-105620760D01*
X105656302Y-105624837D01*
X105628550Y-105626200D01*
X104642410Y-105626200D01*
X104614658Y-105624837D01*
X104587174Y-105620760D01*
X104560222Y-105614009D01*
X104534061Y-105604648D01*
X104508943Y-105592768D01*
X104485111Y-105578484D01*
X104462794Y-105561932D01*
X104442207Y-105543273D01*
X104423548Y-105522686D01*
X104406996Y-105500369D01*
X104392712Y-105476537D01*
X104380832Y-105451419D01*
X104371471Y-105425258D01*
X104364720Y-105398306D01*
X104360643Y-105370822D01*
X104359280Y-105343070D01*
X104359280Y-104606930D01*
X104360643Y-104579178D01*
X104364720Y-104551694D01*
X104371471Y-104524742D01*
X104380832Y-104498581D01*
X104392712Y-104473463D01*
X104406996Y-104449631D01*
X104423548Y-104427314D01*
X104442207Y-104406727D01*
X104462794Y-104388068D01*
X104485111Y-104371516D01*
X104508943Y-104357232D01*
X104534061Y-104345352D01*
X104560222Y-104335991D01*
X104587174Y-104329240D01*
X104614658Y-104325163D01*
X104642410Y-104323800D01*
X105628550Y-104323800D01*
X105656302Y-104325163D01*
X105656302Y-104325163D01*
G37*
D21*
X105135480Y-104975000D03*
D19*
G36*
X105656302Y-106375163D02*
X105683786Y-106379240D01*
X105710738Y-106385991D01*
X105736899Y-106395352D01*
X105762017Y-106407232D01*
X105785849Y-106421516D01*
X105808166Y-106438068D01*
X105828753Y-106456727D01*
X105847412Y-106477314D01*
X105863964Y-106499631D01*
X105878248Y-106523463D01*
X105890128Y-106548581D01*
X105899489Y-106574742D01*
X105906240Y-106601694D01*
X105910317Y-106629178D01*
X105911680Y-106656930D01*
X105911680Y-107393070D01*
X105910317Y-107420822D01*
X105906240Y-107448306D01*
X105899489Y-107475258D01*
X105890128Y-107501419D01*
X105878248Y-107526537D01*
X105863964Y-107550369D01*
X105847412Y-107572686D01*
X105828753Y-107593273D01*
X105808166Y-107611932D01*
X105785849Y-107628484D01*
X105762017Y-107642768D01*
X105736899Y-107654648D01*
X105710738Y-107664009D01*
X105683786Y-107670760D01*
X105656302Y-107674837D01*
X105628550Y-107676200D01*
X104642410Y-107676200D01*
X104614658Y-107674837D01*
X104587174Y-107670760D01*
X104560222Y-107664009D01*
X104534061Y-107654648D01*
X104508943Y-107642768D01*
X104485111Y-107628484D01*
X104462794Y-107611932D01*
X104442207Y-107593273D01*
X104423548Y-107572686D01*
X104406996Y-107550369D01*
X104392712Y-107526537D01*
X104380832Y-107501419D01*
X104371471Y-107475258D01*
X104364720Y-107448306D01*
X104360643Y-107420822D01*
X104359280Y-107393070D01*
X104359280Y-106656930D01*
X104360643Y-106629178D01*
X104364720Y-106601694D01*
X104371471Y-106574742D01*
X104380832Y-106548581D01*
X104392712Y-106523463D01*
X104406996Y-106499631D01*
X104423548Y-106477314D01*
X104442207Y-106456727D01*
X104462794Y-106438068D01*
X104485111Y-106421516D01*
X104508943Y-106407232D01*
X104534061Y-106395352D01*
X104560222Y-106385991D01*
X104587174Y-106379240D01*
X104614658Y-106375163D01*
X104642410Y-106373800D01*
X105628550Y-106373800D01*
X105656302Y-106375163D01*
X105656302Y-106375163D01*
G37*
D21*
X105135480Y-107025000D03*
G04 #@! TD*
D19*
G04 #@! TO.C,R119*
G36*
X115920822Y-92525163D02*
X115948306Y-92529240D01*
X115975258Y-92535991D01*
X116001419Y-92545352D01*
X116026537Y-92557232D01*
X116050369Y-92571516D01*
X116072686Y-92588068D01*
X116093273Y-92606727D01*
X116111932Y-92627314D01*
X116128484Y-92649631D01*
X116142768Y-92673463D01*
X116154648Y-92698581D01*
X116164009Y-92724742D01*
X116170760Y-92751694D01*
X116174837Y-92779178D01*
X116176200Y-92806930D01*
X116176200Y-93793070D01*
X116174837Y-93820822D01*
X116170760Y-93848306D01*
X116164009Y-93875258D01*
X116154648Y-93901419D01*
X116142768Y-93926537D01*
X116128484Y-93950369D01*
X116111932Y-93972686D01*
X116093273Y-93993273D01*
X116072686Y-94011932D01*
X116050369Y-94028484D01*
X116026537Y-94042768D01*
X116001419Y-94054648D01*
X115975258Y-94064009D01*
X115948306Y-94070760D01*
X115920822Y-94074837D01*
X115893070Y-94076200D01*
X115156930Y-94076200D01*
X115129178Y-94074837D01*
X115101694Y-94070760D01*
X115074742Y-94064009D01*
X115048581Y-94054648D01*
X115023463Y-94042768D01*
X114999631Y-94028484D01*
X114977314Y-94011932D01*
X114956727Y-93993273D01*
X114938068Y-93972686D01*
X114921516Y-93950369D01*
X114907232Y-93926537D01*
X114895352Y-93901419D01*
X114885991Y-93875258D01*
X114879240Y-93848306D01*
X114875163Y-93820822D01*
X114873800Y-93793070D01*
X114873800Y-92806930D01*
X114875163Y-92779178D01*
X114879240Y-92751694D01*
X114885991Y-92724742D01*
X114895352Y-92698581D01*
X114907232Y-92673463D01*
X114921516Y-92649631D01*
X114938068Y-92627314D01*
X114956727Y-92606727D01*
X114977314Y-92588068D01*
X114999631Y-92571516D01*
X115023463Y-92557232D01*
X115048581Y-92545352D01*
X115074742Y-92535991D01*
X115101694Y-92529240D01*
X115129178Y-92525163D01*
X115156930Y-92523800D01*
X115893070Y-92523800D01*
X115920822Y-92525163D01*
X115920822Y-92525163D01*
G37*
D21*
X115525000Y-93300000D03*
D19*
G36*
X113870822Y-92525163D02*
X113898306Y-92529240D01*
X113925258Y-92535991D01*
X113951419Y-92545352D01*
X113976537Y-92557232D01*
X114000369Y-92571516D01*
X114022686Y-92588068D01*
X114043273Y-92606727D01*
X114061932Y-92627314D01*
X114078484Y-92649631D01*
X114092768Y-92673463D01*
X114104648Y-92698581D01*
X114114009Y-92724742D01*
X114120760Y-92751694D01*
X114124837Y-92779178D01*
X114126200Y-92806930D01*
X114126200Y-93793070D01*
X114124837Y-93820822D01*
X114120760Y-93848306D01*
X114114009Y-93875258D01*
X114104648Y-93901419D01*
X114092768Y-93926537D01*
X114078484Y-93950369D01*
X114061932Y-93972686D01*
X114043273Y-93993273D01*
X114022686Y-94011932D01*
X114000369Y-94028484D01*
X113976537Y-94042768D01*
X113951419Y-94054648D01*
X113925258Y-94064009D01*
X113898306Y-94070760D01*
X113870822Y-94074837D01*
X113843070Y-94076200D01*
X113106930Y-94076200D01*
X113079178Y-94074837D01*
X113051694Y-94070760D01*
X113024742Y-94064009D01*
X112998581Y-94054648D01*
X112973463Y-94042768D01*
X112949631Y-94028484D01*
X112927314Y-94011932D01*
X112906727Y-93993273D01*
X112888068Y-93972686D01*
X112871516Y-93950369D01*
X112857232Y-93926537D01*
X112845352Y-93901419D01*
X112835991Y-93875258D01*
X112829240Y-93848306D01*
X112825163Y-93820822D01*
X112823800Y-93793070D01*
X112823800Y-92806930D01*
X112825163Y-92779178D01*
X112829240Y-92751694D01*
X112835991Y-92724742D01*
X112845352Y-92698581D01*
X112857232Y-92673463D01*
X112871516Y-92649631D01*
X112888068Y-92627314D01*
X112906727Y-92606727D01*
X112927314Y-92588068D01*
X112949631Y-92571516D01*
X112973463Y-92557232D01*
X112998581Y-92545352D01*
X113024742Y-92535991D01*
X113051694Y-92529240D01*
X113079178Y-92525163D01*
X113106930Y-92523800D01*
X113843070Y-92523800D01*
X113870822Y-92525163D01*
X113870822Y-92525163D01*
G37*
D21*
X113475000Y-93300000D03*
G04 #@! TD*
D19*
G04 #@! TO.C,R120*
G36*
X113870822Y-95025163D02*
X113898306Y-95029240D01*
X113925258Y-95035991D01*
X113951419Y-95045352D01*
X113976537Y-95057232D01*
X114000369Y-95071516D01*
X114022686Y-95088068D01*
X114043273Y-95106727D01*
X114061932Y-95127314D01*
X114078484Y-95149631D01*
X114092768Y-95173463D01*
X114104648Y-95198581D01*
X114114009Y-95224742D01*
X114120760Y-95251694D01*
X114124837Y-95279178D01*
X114126200Y-95306930D01*
X114126200Y-96293070D01*
X114124837Y-96320822D01*
X114120760Y-96348306D01*
X114114009Y-96375258D01*
X114104648Y-96401419D01*
X114092768Y-96426537D01*
X114078484Y-96450369D01*
X114061932Y-96472686D01*
X114043273Y-96493273D01*
X114022686Y-96511932D01*
X114000369Y-96528484D01*
X113976537Y-96542768D01*
X113951419Y-96554648D01*
X113925258Y-96564009D01*
X113898306Y-96570760D01*
X113870822Y-96574837D01*
X113843070Y-96576200D01*
X113106930Y-96576200D01*
X113079178Y-96574837D01*
X113051694Y-96570760D01*
X113024742Y-96564009D01*
X112998581Y-96554648D01*
X112973463Y-96542768D01*
X112949631Y-96528484D01*
X112927314Y-96511932D01*
X112906727Y-96493273D01*
X112888068Y-96472686D01*
X112871516Y-96450369D01*
X112857232Y-96426537D01*
X112845352Y-96401419D01*
X112835991Y-96375258D01*
X112829240Y-96348306D01*
X112825163Y-96320822D01*
X112823800Y-96293070D01*
X112823800Y-95306930D01*
X112825163Y-95279178D01*
X112829240Y-95251694D01*
X112835991Y-95224742D01*
X112845352Y-95198581D01*
X112857232Y-95173463D01*
X112871516Y-95149631D01*
X112888068Y-95127314D01*
X112906727Y-95106727D01*
X112927314Y-95088068D01*
X112949631Y-95071516D01*
X112973463Y-95057232D01*
X112998581Y-95045352D01*
X113024742Y-95035991D01*
X113051694Y-95029240D01*
X113079178Y-95025163D01*
X113106930Y-95023800D01*
X113843070Y-95023800D01*
X113870822Y-95025163D01*
X113870822Y-95025163D01*
G37*
D21*
X113475000Y-95800000D03*
D19*
G36*
X115920822Y-95025163D02*
X115948306Y-95029240D01*
X115975258Y-95035991D01*
X116001419Y-95045352D01*
X116026537Y-95057232D01*
X116050369Y-95071516D01*
X116072686Y-95088068D01*
X116093273Y-95106727D01*
X116111932Y-95127314D01*
X116128484Y-95149631D01*
X116142768Y-95173463D01*
X116154648Y-95198581D01*
X116164009Y-95224742D01*
X116170760Y-95251694D01*
X116174837Y-95279178D01*
X116176200Y-95306930D01*
X116176200Y-96293070D01*
X116174837Y-96320822D01*
X116170760Y-96348306D01*
X116164009Y-96375258D01*
X116154648Y-96401419D01*
X116142768Y-96426537D01*
X116128484Y-96450369D01*
X116111932Y-96472686D01*
X116093273Y-96493273D01*
X116072686Y-96511932D01*
X116050369Y-96528484D01*
X116026537Y-96542768D01*
X116001419Y-96554648D01*
X115975258Y-96564009D01*
X115948306Y-96570760D01*
X115920822Y-96574837D01*
X115893070Y-96576200D01*
X115156930Y-96576200D01*
X115129178Y-96574837D01*
X115101694Y-96570760D01*
X115074742Y-96564009D01*
X115048581Y-96554648D01*
X115023463Y-96542768D01*
X114999631Y-96528484D01*
X114977314Y-96511932D01*
X114956727Y-96493273D01*
X114938068Y-96472686D01*
X114921516Y-96450369D01*
X114907232Y-96426537D01*
X114895352Y-96401419D01*
X114885991Y-96375258D01*
X114879240Y-96348306D01*
X114875163Y-96320822D01*
X114873800Y-96293070D01*
X114873800Y-95306930D01*
X114875163Y-95279178D01*
X114879240Y-95251694D01*
X114885991Y-95224742D01*
X114895352Y-95198581D01*
X114907232Y-95173463D01*
X114921516Y-95149631D01*
X114938068Y-95127314D01*
X114956727Y-95106727D01*
X114977314Y-95088068D01*
X114999631Y-95071516D01*
X115023463Y-95057232D01*
X115048581Y-95045352D01*
X115074742Y-95035991D01*
X115101694Y-95029240D01*
X115129178Y-95025163D01*
X115156930Y-95023800D01*
X115893070Y-95023800D01*
X115920822Y-95025163D01*
X115920822Y-95025163D01*
G37*
D21*
X115525000Y-95800000D03*
G04 #@! TD*
D19*
G04 #@! TO.C,R121*
G36*
X103220822Y-106375163D02*
X103248306Y-106379240D01*
X103275258Y-106385991D01*
X103301419Y-106395352D01*
X103326537Y-106407232D01*
X103350369Y-106421516D01*
X103372686Y-106438068D01*
X103393273Y-106456727D01*
X103411932Y-106477314D01*
X103428484Y-106499631D01*
X103442768Y-106523463D01*
X103454648Y-106548581D01*
X103464009Y-106574742D01*
X103470760Y-106601694D01*
X103474837Y-106629178D01*
X103476200Y-106656930D01*
X103476200Y-107393070D01*
X103474837Y-107420822D01*
X103470760Y-107448306D01*
X103464009Y-107475258D01*
X103454648Y-107501419D01*
X103442768Y-107526537D01*
X103428484Y-107550369D01*
X103411932Y-107572686D01*
X103393273Y-107593273D01*
X103372686Y-107611932D01*
X103350369Y-107628484D01*
X103326537Y-107642768D01*
X103301419Y-107654648D01*
X103275258Y-107664009D01*
X103248306Y-107670760D01*
X103220822Y-107674837D01*
X103193070Y-107676200D01*
X102206930Y-107676200D01*
X102179178Y-107674837D01*
X102151694Y-107670760D01*
X102124742Y-107664009D01*
X102098581Y-107654648D01*
X102073463Y-107642768D01*
X102049631Y-107628484D01*
X102027314Y-107611932D01*
X102006727Y-107593273D01*
X101988068Y-107572686D01*
X101971516Y-107550369D01*
X101957232Y-107526537D01*
X101945352Y-107501419D01*
X101935991Y-107475258D01*
X101929240Y-107448306D01*
X101925163Y-107420822D01*
X101923800Y-107393070D01*
X101923800Y-106656930D01*
X101925163Y-106629178D01*
X101929240Y-106601694D01*
X101935991Y-106574742D01*
X101945352Y-106548581D01*
X101957232Y-106523463D01*
X101971516Y-106499631D01*
X101988068Y-106477314D01*
X102006727Y-106456727D01*
X102027314Y-106438068D01*
X102049631Y-106421516D01*
X102073463Y-106407232D01*
X102098581Y-106395352D01*
X102124742Y-106385991D01*
X102151694Y-106379240D01*
X102179178Y-106375163D01*
X102206930Y-106373800D01*
X103193070Y-106373800D01*
X103220822Y-106375163D01*
X103220822Y-106375163D01*
G37*
D21*
X102700000Y-107025000D03*
D19*
G36*
X103220822Y-104325163D02*
X103248306Y-104329240D01*
X103275258Y-104335991D01*
X103301419Y-104345352D01*
X103326537Y-104357232D01*
X103350369Y-104371516D01*
X103372686Y-104388068D01*
X103393273Y-104406727D01*
X103411932Y-104427314D01*
X103428484Y-104449631D01*
X103442768Y-104473463D01*
X103454648Y-104498581D01*
X103464009Y-104524742D01*
X103470760Y-104551694D01*
X103474837Y-104579178D01*
X103476200Y-104606930D01*
X103476200Y-105343070D01*
X103474837Y-105370822D01*
X103470760Y-105398306D01*
X103464009Y-105425258D01*
X103454648Y-105451419D01*
X103442768Y-105476537D01*
X103428484Y-105500369D01*
X103411932Y-105522686D01*
X103393273Y-105543273D01*
X103372686Y-105561932D01*
X103350369Y-105578484D01*
X103326537Y-105592768D01*
X103301419Y-105604648D01*
X103275258Y-105614009D01*
X103248306Y-105620760D01*
X103220822Y-105624837D01*
X103193070Y-105626200D01*
X102206930Y-105626200D01*
X102179178Y-105624837D01*
X102151694Y-105620760D01*
X102124742Y-105614009D01*
X102098581Y-105604648D01*
X102073463Y-105592768D01*
X102049631Y-105578484D01*
X102027314Y-105561932D01*
X102006727Y-105543273D01*
X101988068Y-105522686D01*
X101971516Y-105500369D01*
X101957232Y-105476537D01*
X101945352Y-105451419D01*
X101935991Y-105425258D01*
X101929240Y-105398306D01*
X101925163Y-105370822D01*
X101923800Y-105343070D01*
X101923800Y-104606930D01*
X101925163Y-104579178D01*
X101929240Y-104551694D01*
X101935991Y-104524742D01*
X101945352Y-104498581D01*
X101957232Y-104473463D01*
X101971516Y-104449631D01*
X101988068Y-104427314D01*
X102006727Y-104406727D01*
X102027314Y-104388068D01*
X102049631Y-104371516D01*
X102073463Y-104357232D01*
X102098581Y-104345352D01*
X102124742Y-104335991D01*
X102151694Y-104329240D01*
X102179178Y-104325163D01*
X102206930Y-104323800D01*
X103193070Y-104323800D01*
X103220822Y-104325163D01*
X103220822Y-104325163D01*
G37*
D21*
X102700000Y-104975000D03*
G04 #@! TD*
D19*
G04 #@! TO.C,R122*
G36*
X99220822Y-44125163D02*
X99248306Y-44129240D01*
X99275258Y-44135991D01*
X99301419Y-44145352D01*
X99326537Y-44157232D01*
X99350369Y-44171516D01*
X99372686Y-44188068D01*
X99393273Y-44206727D01*
X99411932Y-44227314D01*
X99428484Y-44249631D01*
X99442768Y-44273463D01*
X99454648Y-44298581D01*
X99464009Y-44324742D01*
X99470760Y-44351694D01*
X99474837Y-44379178D01*
X99476200Y-44406930D01*
X99476200Y-45393070D01*
X99474837Y-45420822D01*
X99470760Y-45448306D01*
X99464009Y-45475258D01*
X99454648Y-45501419D01*
X99442768Y-45526537D01*
X99428484Y-45550369D01*
X99411932Y-45572686D01*
X99393273Y-45593273D01*
X99372686Y-45611932D01*
X99350369Y-45628484D01*
X99326537Y-45642768D01*
X99301419Y-45654648D01*
X99275258Y-45664009D01*
X99248306Y-45670760D01*
X99220822Y-45674837D01*
X99193070Y-45676200D01*
X98456930Y-45676200D01*
X98429178Y-45674837D01*
X98401694Y-45670760D01*
X98374742Y-45664009D01*
X98348581Y-45654648D01*
X98323463Y-45642768D01*
X98299631Y-45628484D01*
X98277314Y-45611932D01*
X98256727Y-45593273D01*
X98238068Y-45572686D01*
X98221516Y-45550369D01*
X98207232Y-45526537D01*
X98195352Y-45501419D01*
X98185991Y-45475258D01*
X98179240Y-45448306D01*
X98175163Y-45420822D01*
X98173800Y-45393070D01*
X98173800Y-44406930D01*
X98175163Y-44379178D01*
X98179240Y-44351694D01*
X98185991Y-44324742D01*
X98195352Y-44298581D01*
X98207232Y-44273463D01*
X98221516Y-44249631D01*
X98238068Y-44227314D01*
X98256727Y-44206727D01*
X98277314Y-44188068D01*
X98299631Y-44171516D01*
X98323463Y-44157232D01*
X98348581Y-44145352D01*
X98374742Y-44135991D01*
X98401694Y-44129240D01*
X98429178Y-44125163D01*
X98456930Y-44123800D01*
X99193070Y-44123800D01*
X99220822Y-44125163D01*
X99220822Y-44125163D01*
G37*
D21*
X98825000Y-44900000D03*
D19*
G36*
X97170822Y-44125163D02*
X97198306Y-44129240D01*
X97225258Y-44135991D01*
X97251419Y-44145352D01*
X97276537Y-44157232D01*
X97300369Y-44171516D01*
X97322686Y-44188068D01*
X97343273Y-44206727D01*
X97361932Y-44227314D01*
X97378484Y-44249631D01*
X97392768Y-44273463D01*
X97404648Y-44298581D01*
X97414009Y-44324742D01*
X97420760Y-44351694D01*
X97424837Y-44379178D01*
X97426200Y-44406930D01*
X97426200Y-45393070D01*
X97424837Y-45420822D01*
X97420760Y-45448306D01*
X97414009Y-45475258D01*
X97404648Y-45501419D01*
X97392768Y-45526537D01*
X97378484Y-45550369D01*
X97361932Y-45572686D01*
X97343273Y-45593273D01*
X97322686Y-45611932D01*
X97300369Y-45628484D01*
X97276537Y-45642768D01*
X97251419Y-45654648D01*
X97225258Y-45664009D01*
X97198306Y-45670760D01*
X97170822Y-45674837D01*
X97143070Y-45676200D01*
X96406930Y-45676200D01*
X96379178Y-45674837D01*
X96351694Y-45670760D01*
X96324742Y-45664009D01*
X96298581Y-45654648D01*
X96273463Y-45642768D01*
X96249631Y-45628484D01*
X96227314Y-45611932D01*
X96206727Y-45593273D01*
X96188068Y-45572686D01*
X96171516Y-45550369D01*
X96157232Y-45526537D01*
X96145352Y-45501419D01*
X96135991Y-45475258D01*
X96129240Y-45448306D01*
X96125163Y-45420822D01*
X96123800Y-45393070D01*
X96123800Y-44406930D01*
X96125163Y-44379178D01*
X96129240Y-44351694D01*
X96135991Y-44324742D01*
X96145352Y-44298581D01*
X96157232Y-44273463D01*
X96171516Y-44249631D01*
X96188068Y-44227314D01*
X96206727Y-44206727D01*
X96227314Y-44188068D01*
X96249631Y-44171516D01*
X96273463Y-44157232D01*
X96298581Y-44145352D01*
X96324742Y-44135991D01*
X96351694Y-44129240D01*
X96379178Y-44125163D01*
X96406930Y-44123800D01*
X97143070Y-44123800D01*
X97170822Y-44125163D01*
X97170822Y-44125163D01*
G37*
D21*
X96775000Y-44900000D03*
G04 #@! TD*
D19*
G04 #@! TO.C,R123*
G36*
X46820822Y-58825163D02*
X46848306Y-58829240D01*
X46875258Y-58835991D01*
X46901419Y-58845352D01*
X46926537Y-58857232D01*
X46950369Y-58871516D01*
X46972686Y-58888068D01*
X46993273Y-58906727D01*
X47011932Y-58927314D01*
X47028484Y-58949631D01*
X47042768Y-58973463D01*
X47054648Y-58998581D01*
X47064009Y-59024742D01*
X47070760Y-59051694D01*
X47074837Y-59079178D01*
X47076200Y-59106930D01*
X47076200Y-60093070D01*
X47074837Y-60120822D01*
X47070760Y-60148306D01*
X47064009Y-60175258D01*
X47054648Y-60201419D01*
X47042768Y-60226537D01*
X47028484Y-60250369D01*
X47011932Y-60272686D01*
X46993273Y-60293273D01*
X46972686Y-60311932D01*
X46950369Y-60328484D01*
X46926537Y-60342768D01*
X46901419Y-60354648D01*
X46875258Y-60364009D01*
X46848306Y-60370760D01*
X46820822Y-60374837D01*
X46793070Y-60376200D01*
X46056930Y-60376200D01*
X46029178Y-60374837D01*
X46001694Y-60370760D01*
X45974742Y-60364009D01*
X45948581Y-60354648D01*
X45923463Y-60342768D01*
X45899631Y-60328484D01*
X45877314Y-60311932D01*
X45856727Y-60293273D01*
X45838068Y-60272686D01*
X45821516Y-60250369D01*
X45807232Y-60226537D01*
X45795352Y-60201419D01*
X45785991Y-60175258D01*
X45779240Y-60148306D01*
X45775163Y-60120822D01*
X45773800Y-60093070D01*
X45773800Y-59106930D01*
X45775163Y-59079178D01*
X45779240Y-59051694D01*
X45785991Y-59024742D01*
X45795352Y-58998581D01*
X45807232Y-58973463D01*
X45821516Y-58949631D01*
X45838068Y-58927314D01*
X45856727Y-58906727D01*
X45877314Y-58888068D01*
X45899631Y-58871516D01*
X45923463Y-58857232D01*
X45948581Y-58845352D01*
X45974742Y-58835991D01*
X46001694Y-58829240D01*
X46029178Y-58825163D01*
X46056930Y-58823800D01*
X46793070Y-58823800D01*
X46820822Y-58825163D01*
X46820822Y-58825163D01*
G37*
D21*
X46425000Y-59600000D03*
D19*
G36*
X48870822Y-58825163D02*
X48898306Y-58829240D01*
X48925258Y-58835991D01*
X48951419Y-58845352D01*
X48976537Y-58857232D01*
X49000369Y-58871516D01*
X49022686Y-58888068D01*
X49043273Y-58906727D01*
X49061932Y-58927314D01*
X49078484Y-58949631D01*
X49092768Y-58973463D01*
X49104648Y-58998581D01*
X49114009Y-59024742D01*
X49120760Y-59051694D01*
X49124837Y-59079178D01*
X49126200Y-59106930D01*
X49126200Y-60093070D01*
X49124837Y-60120822D01*
X49120760Y-60148306D01*
X49114009Y-60175258D01*
X49104648Y-60201419D01*
X49092768Y-60226537D01*
X49078484Y-60250369D01*
X49061932Y-60272686D01*
X49043273Y-60293273D01*
X49022686Y-60311932D01*
X49000369Y-60328484D01*
X48976537Y-60342768D01*
X48951419Y-60354648D01*
X48925258Y-60364009D01*
X48898306Y-60370760D01*
X48870822Y-60374837D01*
X48843070Y-60376200D01*
X48106930Y-60376200D01*
X48079178Y-60374837D01*
X48051694Y-60370760D01*
X48024742Y-60364009D01*
X47998581Y-60354648D01*
X47973463Y-60342768D01*
X47949631Y-60328484D01*
X47927314Y-60311932D01*
X47906727Y-60293273D01*
X47888068Y-60272686D01*
X47871516Y-60250369D01*
X47857232Y-60226537D01*
X47845352Y-60201419D01*
X47835991Y-60175258D01*
X47829240Y-60148306D01*
X47825163Y-60120822D01*
X47823800Y-60093070D01*
X47823800Y-59106930D01*
X47825163Y-59079178D01*
X47829240Y-59051694D01*
X47835991Y-59024742D01*
X47845352Y-58998581D01*
X47857232Y-58973463D01*
X47871516Y-58949631D01*
X47888068Y-58927314D01*
X47906727Y-58906727D01*
X47927314Y-58888068D01*
X47949631Y-58871516D01*
X47973463Y-58857232D01*
X47998581Y-58845352D01*
X48024742Y-58835991D01*
X48051694Y-58829240D01*
X48079178Y-58825163D01*
X48106930Y-58823800D01*
X48843070Y-58823800D01*
X48870822Y-58825163D01*
X48870822Y-58825163D01*
G37*
D21*
X48475000Y-59600000D03*
G04 #@! TD*
D19*
G04 #@! TO.C,R124*
G36*
X79370822Y-71425163D02*
X79398306Y-71429240D01*
X79425258Y-71435991D01*
X79451419Y-71445352D01*
X79476537Y-71457232D01*
X79500369Y-71471516D01*
X79522686Y-71488068D01*
X79543273Y-71506727D01*
X79561932Y-71527314D01*
X79578484Y-71549631D01*
X79592768Y-71573463D01*
X79604648Y-71598581D01*
X79614009Y-71624742D01*
X79620760Y-71651694D01*
X79624837Y-71679178D01*
X79626200Y-71706930D01*
X79626200Y-72443070D01*
X79624837Y-72470822D01*
X79620760Y-72498306D01*
X79614009Y-72525258D01*
X79604648Y-72551419D01*
X79592768Y-72576537D01*
X79578484Y-72600369D01*
X79561932Y-72622686D01*
X79543273Y-72643273D01*
X79522686Y-72661932D01*
X79500369Y-72678484D01*
X79476537Y-72692768D01*
X79451419Y-72704648D01*
X79425258Y-72714009D01*
X79398306Y-72720760D01*
X79370822Y-72724837D01*
X79343070Y-72726200D01*
X78356930Y-72726200D01*
X78329178Y-72724837D01*
X78301694Y-72720760D01*
X78274742Y-72714009D01*
X78248581Y-72704648D01*
X78223463Y-72692768D01*
X78199631Y-72678484D01*
X78177314Y-72661932D01*
X78156727Y-72643273D01*
X78138068Y-72622686D01*
X78121516Y-72600369D01*
X78107232Y-72576537D01*
X78095352Y-72551419D01*
X78085991Y-72525258D01*
X78079240Y-72498306D01*
X78075163Y-72470822D01*
X78073800Y-72443070D01*
X78073800Y-71706930D01*
X78075163Y-71679178D01*
X78079240Y-71651694D01*
X78085991Y-71624742D01*
X78095352Y-71598581D01*
X78107232Y-71573463D01*
X78121516Y-71549631D01*
X78138068Y-71527314D01*
X78156727Y-71506727D01*
X78177314Y-71488068D01*
X78199631Y-71471516D01*
X78223463Y-71457232D01*
X78248581Y-71445352D01*
X78274742Y-71435991D01*
X78301694Y-71429240D01*
X78329178Y-71425163D01*
X78356930Y-71423800D01*
X79343070Y-71423800D01*
X79370822Y-71425163D01*
X79370822Y-71425163D01*
G37*
D21*
X78850000Y-72075000D03*
D19*
G36*
X79370822Y-69375163D02*
X79398306Y-69379240D01*
X79425258Y-69385991D01*
X79451419Y-69395352D01*
X79476537Y-69407232D01*
X79500369Y-69421516D01*
X79522686Y-69438068D01*
X79543273Y-69456727D01*
X79561932Y-69477314D01*
X79578484Y-69499631D01*
X79592768Y-69523463D01*
X79604648Y-69548581D01*
X79614009Y-69574742D01*
X79620760Y-69601694D01*
X79624837Y-69629178D01*
X79626200Y-69656930D01*
X79626200Y-70393070D01*
X79624837Y-70420822D01*
X79620760Y-70448306D01*
X79614009Y-70475258D01*
X79604648Y-70501419D01*
X79592768Y-70526537D01*
X79578484Y-70550369D01*
X79561932Y-70572686D01*
X79543273Y-70593273D01*
X79522686Y-70611932D01*
X79500369Y-70628484D01*
X79476537Y-70642768D01*
X79451419Y-70654648D01*
X79425258Y-70664009D01*
X79398306Y-70670760D01*
X79370822Y-70674837D01*
X79343070Y-70676200D01*
X78356930Y-70676200D01*
X78329178Y-70674837D01*
X78301694Y-70670760D01*
X78274742Y-70664009D01*
X78248581Y-70654648D01*
X78223463Y-70642768D01*
X78199631Y-70628484D01*
X78177314Y-70611932D01*
X78156727Y-70593273D01*
X78138068Y-70572686D01*
X78121516Y-70550369D01*
X78107232Y-70526537D01*
X78095352Y-70501419D01*
X78085991Y-70475258D01*
X78079240Y-70448306D01*
X78075163Y-70420822D01*
X78073800Y-70393070D01*
X78073800Y-69656930D01*
X78075163Y-69629178D01*
X78079240Y-69601694D01*
X78085991Y-69574742D01*
X78095352Y-69548581D01*
X78107232Y-69523463D01*
X78121516Y-69499631D01*
X78138068Y-69477314D01*
X78156727Y-69456727D01*
X78177314Y-69438068D01*
X78199631Y-69421516D01*
X78223463Y-69407232D01*
X78248581Y-69395352D01*
X78274742Y-69385991D01*
X78301694Y-69379240D01*
X78329178Y-69375163D01*
X78356930Y-69373800D01*
X79343070Y-69373800D01*
X79370822Y-69375163D01*
X79370822Y-69375163D01*
G37*
D21*
X78850000Y-70025000D03*
G04 #@! TD*
D19*
G04 #@! TO.C,R125*
G36*
X48870822Y-63825163D02*
X48898306Y-63829240D01*
X48925258Y-63835991D01*
X48951419Y-63845352D01*
X48976537Y-63857232D01*
X49000369Y-63871516D01*
X49022686Y-63888068D01*
X49043273Y-63906727D01*
X49061932Y-63927314D01*
X49078484Y-63949631D01*
X49092768Y-63973463D01*
X49104648Y-63998581D01*
X49114009Y-64024742D01*
X49120760Y-64051694D01*
X49124837Y-64079178D01*
X49126200Y-64106930D01*
X49126200Y-65093070D01*
X49124837Y-65120822D01*
X49120760Y-65148306D01*
X49114009Y-65175258D01*
X49104648Y-65201419D01*
X49092768Y-65226537D01*
X49078484Y-65250369D01*
X49061932Y-65272686D01*
X49043273Y-65293273D01*
X49022686Y-65311932D01*
X49000369Y-65328484D01*
X48976537Y-65342768D01*
X48951419Y-65354648D01*
X48925258Y-65364009D01*
X48898306Y-65370760D01*
X48870822Y-65374837D01*
X48843070Y-65376200D01*
X48106930Y-65376200D01*
X48079178Y-65374837D01*
X48051694Y-65370760D01*
X48024742Y-65364009D01*
X47998581Y-65354648D01*
X47973463Y-65342768D01*
X47949631Y-65328484D01*
X47927314Y-65311932D01*
X47906727Y-65293273D01*
X47888068Y-65272686D01*
X47871516Y-65250369D01*
X47857232Y-65226537D01*
X47845352Y-65201419D01*
X47835991Y-65175258D01*
X47829240Y-65148306D01*
X47825163Y-65120822D01*
X47823800Y-65093070D01*
X47823800Y-64106930D01*
X47825163Y-64079178D01*
X47829240Y-64051694D01*
X47835991Y-64024742D01*
X47845352Y-63998581D01*
X47857232Y-63973463D01*
X47871516Y-63949631D01*
X47888068Y-63927314D01*
X47906727Y-63906727D01*
X47927314Y-63888068D01*
X47949631Y-63871516D01*
X47973463Y-63857232D01*
X47998581Y-63845352D01*
X48024742Y-63835991D01*
X48051694Y-63829240D01*
X48079178Y-63825163D01*
X48106930Y-63823800D01*
X48843070Y-63823800D01*
X48870822Y-63825163D01*
X48870822Y-63825163D01*
G37*
D21*
X48475000Y-64600000D03*
D19*
G36*
X46820822Y-63825163D02*
X46848306Y-63829240D01*
X46875258Y-63835991D01*
X46901419Y-63845352D01*
X46926537Y-63857232D01*
X46950369Y-63871516D01*
X46972686Y-63888068D01*
X46993273Y-63906727D01*
X47011932Y-63927314D01*
X47028484Y-63949631D01*
X47042768Y-63973463D01*
X47054648Y-63998581D01*
X47064009Y-64024742D01*
X47070760Y-64051694D01*
X47074837Y-64079178D01*
X47076200Y-64106930D01*
X47076200Y-65093070D01*
X47074837Y-65120822D01*
X47070760Y-65148306D01*
X47064009Y-65175258D01*
X47054648Y-65201419D01*
X47042768Y-65226537D01*
X47028484Y-65250369D01*
X47011932Y-65272686D01*
X46993273Y-65293273D01*
X46972686Y-65311932D01*
X46950369Y-65328484D01*
X46926537Y-65342768D01*
X46901419Y-65354648D01*
X46875258Y-65364009D01*
X46848306Y-65370760D01*
X46820822Y-65374837D01*
X46793070Y-65376200D01*
X46056930Y-65376200D01*
X46029178Y-65374837D01*
X46001694Y-65370760D01*
X45974742Y-65364009D01*
X45948581Y-65354648D01*
X45923463Y-65342768D01*
X45899631Y-65328484D01*
X45877314Y-65311932D01*
X45856727Y-65293273D01*
X45838068Y-65272686D01*
X45821516Y-65250369D01*
X45807232Y-65226537D01*
X45795352Y-65201419D01*
X45785991Y-65175258D01*
X45779240Y-65148306D01*
X45775163Y-65120822D01*
X45773800Y-65093070D01*
X45773800Y-64106930D01*
X45775163Y-64079178D01*
X45779240Y-64051694D01*
X45785991Y-64024742D01*
X45795352Y-63998581D01*
X45807232Y-63973463D01*
X45821516Y-63949631D01*
X45838068Y-63927314D01*
X45856727Y-63906727D01*
X45877314Y-63888068D01*
X45899631Y-63871516D01*
X45923463Y-63857232D01*
X45948581Y-63845352D01*
X45974742Y-63835991D01*
X46001694Y-63829240D01*
X46029178Y-63825163D01*
X46056930Y-63823800D01*
X46793070Y-63823800D01*
X46820822Y-63825163D01*
X46820822Y-63825163D01*
G37*
D21*
X46425000Y-64600000D03*
G04 #@! TD*
D19*
G04 #@! TO.C,R126*
G36*
X48870822Y-68625163D02*
X48898306Y-68629240D01*
X48925258Y-68635991D01*
X48951419Y-68645352D01*
X48976537Y-68657232D01*
X49000369Y-68671516D01*
X49022686Y-68688068D01*
X49043273Y-68706727D01*
X49061932Y-68727314D01*
X49078484Y-68749631D01*
X49092768Y-68773463D01*
X49104648Y-68798581D01*
X49114009Y-68824742D01*
X49120760Y-68851694D01*
X49124837Y-68879178D01*
X49126200Y-68906930D01*
X49126200Y-69893070D01*
X49124837Y-69920822D01*
X49120760Y-69948306D01*
X49114009Y-69975258D01*
X49104648Y-70001419D01*
X49092768Y-70026537D01*
X49078484Y-70050369D01*
X49061932Y-70072686D01*
X49043273Y-70093273D01*
X49022686Y-70111932D01*
X49000369Y-70128484D01*
X48976537Y-70142768D01*
X48951419Y-70154648D01*
X48925258Y-70164009D01*
X48898306Y-70170760D01*
X48870822Y-70174837D01*
X48843070Y-70176200D01*
X48106930Y-70176200D01*
X48079178Y-70174837D01*
X48051694Y-70170760D01*
X48024742Y-70164009D01*
X47998581Y-70154648D01*
X47973463Y-70142768D01*
X47949631Y-70128484D01*
X47927314Y-70111932D01*
X47906727Y-70093273D01*
X47888068Y-70072686D01*
X47871516Y-70050369D01*
X47857232Y-70026537D01*
X47845352Y-70001419D01*
X47835991Y-69975258D01*
X47829240Y-69948306D01*
X47825163Y-69920822D01*
X47823800Y-69893070D01*
X47823800Y-68906930D01*
X47825163Y-68879178D01*
X47829240Y-68851694D01*
X47835991Y-68824742D01*
X47845352Y-68798581D01*
X47857232Y-68773463D01*
X47871516Y-68749631D01*
X47888068Y-68727314D01*
X47906727Y-68706727D01*
X47927314Y-68688068D01*
X47949631Y-68671516D01*
X47973463Y-68657232D01*
X47998581Y-68645352D01*
X48024742Y-68635991D01*
X48051694Y-68629240D01*
X48079178Y-68625163D01*
X48106930Y-68623800D01*
X48843070Y-68623800D01*
X48870822Y-68625163D01*
X48870822Y-68625163D01*
G37*
D21*
X48475000Y-69400000D03*
D19*
G36*
X46820822Y-68625163D02*
X46848306Y-68629240D01*
X46875258Y-68635991D01*
X46901419Y-68645352D01*
X46926537Y-68657232D01*
X46950369Y-68671516D01*
X46972686Y-68688068D01*
X46993273Y-68706727D01*
X47011932Y-68727314D01*
X47028484Y-68749631D01*
X47042768Y-68773463D01*
X47054648Y-68798581D01*
X47064009Y-68824742D01*
X47070760Y-68851694D01*
X47074837Y-68879178D01*
X47076200Y-68906930D01*
X47076200Y-69893070D01*
X47074837Y-69920822D01*
X47070760Y-69948306D01*
X47064009Y-69975258D01*
X47054648Y-70001419D01*
X47042768Y-70026537D01*
X47028484Y-70050369D01*
X47011932Y-70072686D01*
X46993273Y-70093273D01*
X46972686Y-70111932D01*
X46950369Y-70128484D01*
X46926537Y-70142768D01*
X46901419Y-70154648D01*
X46875258Y-70164009D01*
X46848306Y-70170760D01*
X46820822Y-70174837D01*
X46793070Y-70176200D01*
X46056930Y-70176200D01*
X46029178Y-70174837D01*
X46001694Y-70170760D01*
X45974742Y-70164009D01*
X45948581Y-70154648D01*
X45923463Y-70142768D01*
X45899631Y-70128484D01*
X45877314Y-70111932D01*
X45856727Y-70093273D01*
X45838068Y-70072686D01*
X45821516Y-70050369D01*
X45807232Y-70026537D01*
X45795352Y-70001419D01*
X45785991Y-69975258D01*
X45779240Y-69948306D01*
X45775163Y-69920822D01*
X45773800Y-69893070D01*
X45773800Y-68906930D01*
X45775163Y-68879178D01*
X45779240Y-68851694D01*
X45785991Y-68824742D01*
X45795352Y-68798581D01*
X45807232Y-68773463D01*
X45821516Y-68749631D01*
X45838068Y-68727314D01*
X45856727Y-68706727D01*
X45877314Y-68688068D01*
X45899631Y-68671516D01*
X45923463Y-68657232D01*
X45948581Y-68645352D01*
X45974742Y-68635991D01*
X46001694Y-68629240D01*
X46029178Y-68625163D01*
X46056930Y-68623800D01*
X46793070Y-68623800D01*
X46820822Y-68625163D01*
X46820822Y-68625163D01*
G37*
D21*
X46425000Y-69400000D03*
G04 #@! TD*
D33*
G04 #@! TO.C,SW101*
X73700000Y-113000000D03*
X67700000Y-109200000D03*
X67700000Y-113000000D03*
X73700000Y-109200000D03*
G04 #@! TD*
D34*
G04 #@! TO.C,U101*
X93200000Y-48995000D03*
X93200000Y-50265000D03*
X93200000Y-51535000D03*
X93200000Y-52805000D03*
X88000000Y-52805000D03*
X88000000Y-51535000D03*
X88000000Y-50265000D03*
X88000000Y-48995000D03*
G04 #@! TD*
D35*
G04 #@! TO.C,U102*
X71350000Y-58350000D03*
X70400000Y-58350000D03*
X69450000Y-58350000D03*
X69450000Y-60550000D03*
X71350000Y-60550000D03*
G04 #@! TD*
D36*
G04 #@! TO.C,U103*
X78295000Y-111800000D03*
X79565000Y-111800000D03*
X80835000Y-111800000D03*
X82105000Y-111800000D03*
X82105000Y-106400000D03*
X80835000Y-106400000D03*
X79565000Y-106400000D03*
X78295000Y-106400000D03*
G04 #@! TD*
D37*
G04 #@! TO.C,U104*
X77400000Y-77450000D03*
X77400000Y-77950000D03*
X77400000Y-78450000D03*
X77400000Y-78950000D03*
X77400000Y-79450000D03*
X77400000Y-79950000D03*
X77400000Y-80450000D03*
X77400000Y-80950000D03*
X77400000Y-81450000D03*
X77400000Y-81950000D03*
X77400000Y-82450000D03*
X77400000Y-82950000D03*
X77400000Y-83450000D03*
X77400000Y-83950000D03*
X77400000Y-84450000D03*
X77400000Y-84950000D03*
D38*
X79350000Y-86900000D03*
X79850000Y-86900000D03*
X80350000Y-86900000D03*
X80850000Y-86900000D03*
X81350000Y-86900000D03*
X81850000Y-86900000D03*
X82350000Y-86900000D03*
X82850000Y-86900000D03*
X83350000Y-86900000D03*
X83850000Y-86900000D03*
X84350000Y-86900000D03*
X84850000Y-86900000D03*
X85350000Y-86900000D03*
X85850000Y-86900000D03*
X86350000Y-86900000D03*
X86850000Y-86900000D03*
D37*
X88800000Y-84950000D03*
X88800000Y-84450000D03*
X88800000Y-83950000D03*
X88800000Y-83450000D03*
X88800000Y-82950000D03*
X88800000Y-82450000D03*
X88800000Y-81950000D03*
X88800000Y-81450000D03*
X88800000Y-80950000D03*
X88800000Y-80450000D03*
X88800000Y-79950000D03*
X88800000Y-79450000D03*
X88800000Y-78950000D03*
X88800000Y-78450000D03*
X88800000Y-77950000D03*
X88800000Y-77450000D03*
D38*
X86850000Y-75500000D03*
X86350000Y-75500000D03*
X85850000Y-75500000D03*
X85350000Y-75500000D03*
X84850000Y-75500000D03*
X84350000Y-75500000D03*
X83850000Y-75500000D03*
X83350000Y-75500000D03*
X82850000Y-75500000D03*
X82350000Y-75500000D03*
X81850000Y-75500000D03*
X81350000Y-75500000D03*
X80850000Y-75500000D03*
X80350000Y-75500000D03*
X79850000Y-75500000D03*
X79350000Y-75500000D03*
G04 #@! TD*
D39*
G04 #@! TO.C,U106*
X97600000Y-93525000D03*
X97600000Y-94175000D03*
X97600000Y-94825000D03*
X97600000Y-95475000D03*
X97600000Y-96125000D03*
X97600000Y-96775000D03*
X97600000Y-97425000D03*
X97600000Y-98075000D03*
X97600000Y-98725000D03*
X97600000Y-99375000D03*
X97600000Y-100025000D03*
X97600000Y-100675000D03*
X97600000Y-101325000D03*
X97600000Y-101975000D03*
X104800000Y-101975000D03*
X104800000Y-101325000D03*
X104800000Y-100675000D03*
X104800000Y-100025000D03*
X104800000Y-99375000D03*
X104800000Y-98725000D03*
X104800000Y-98075000D03*
X104800000Y-97425000D03*
X104800000Y-96775000D03*
X104800000Y-96125000D03*
X104800000Y-95475000D03*
X104800000Y-94825000D03*
X104800000Y-94175000D03*
X104800000Y-93525000D03*
G04 #@! TD*
D40*
G04 #@! TO.C,Y101*
X68300000Y-78200000D03*
X70300000Y-81400000D03*
X70300000Y-78200000D03*
X68300000Y-81400000D03*
G04 #@! TD*
M02*
