G04 #@! TF.GenerationSoftware,KiCad,Pcbnew,(5.0.0)*
G04 #@! TF.CreationDate,2019-07-14T20:37:54+10:00*
G04 #@! TF.ProjectId,reflow-oven-rev-001,7265666C6F772D6F76656E2D7265762D,A*
G04 #@! TF.SameCoordinates,Original*
G04 #@! TF.FileFunction,Copper,L2,Bot,Signal*
G04 #@! TF.FilePolarity,Positive*
%FSLAX46Y46*%
G04 Gerber Fmt 4.6, Leading zero omitted, Abs format (unit mm)*
G04 Created by KiCad (PCBNEW (5.0.0)) date 07/14/19 20:37:54*
%MOMM*%
%LPD*%
G01*
G04 APERTURE LIST*
G04 #@! TA.AperFunction,ComponentPad*
%ADD10O,1.700000X1.700000*%
G04 #@! TD*
G04 #@! TA.AperFunction,ComponentPad*
%ADD11R,1.700000X1.700000*%
G04 #@! TD*
G04 #@! TA.AperFunction,ComponentPad*
%ADD12C,6.400000*%
G04 #@! TD*
G04 #@! TA.AperFunction,ComponentPad*
%ADD13O,1.050000X1.200000*%
G04 #@! TD*
G04 #@! TA.AperFunction,ComponentPad*
%ADD14O,1.650000X1.000000*%
G04 #@! TD*
G04 #@! TA.AperFunction,ComponentPad*
%ADD15O,1.700000X2.300000*%
G04 #@! TD*
G04 #@! TA.AperFunction,ComponentPad*
%ADD16C,1.800000*%
G04 #@! TD*
G04 #@! TA.AperFunction,Conductor*
%ADD17C,0.150000*%
G04 #@! TD*
G04 #@! TA.AperFunction,SMDPad,CuDef*
%ADD18C,1.150000*%
G04 #@! TD*
G04 #@! TA.AperFunction,ComponentPad*
%ADD19C,1.900000*%
G04 #@! TD*
G04 #@! TA.AperFunction,ComponentPad*
%ADD20C,2.100000*%
G04 #@! TD*
G04 #@! TA.AperFunction,ComponentPad*
%ADD21C,1.600000*%
G04 #@! TD*
G04 #@! TA.AperFunction,ViaPad*
%ADD22C,0.700000*%
G04 #@! TD*
G04 #@! TA.AperFunction,ViaPad*
%ADD23C,0.500000*%
G04 #@! TD*
G04 #@! TA.AperFunction,Conductor*
%ADD24C,0.250000*%
G04 #@! TD*
G04 #@! TA.AperFunction,Conductor*
%ADD25C,1.000000*%
G04 #@! TD*
G04 #@! TA.AperFunction,Conductor*
%ADD26C,0.800000*%
G04 #@! TD*
G04 APERTURE END LIST*
D10*
G04 #@! TO.P,J111,8*
G04 #@! TO.N,Net-(J111-Pad8)*
X74920000Y-101750000D03*
G04 #@! TO.P,J111,7*
G04 #@! TO.N,Net-(J111-Pad7)*
X77460000Y-101750000D03*
G04 #@! TO.P,J111,6*
G04 #@! TO.N,Net-(J111-Pad6)*
X80000000Y-101750000D03*
G04 #@! TO.P,J111,5*
G04 #@! TO.N,Net-(J111-Pad5)*
X82540000Y-101750000D03*
G04 #@! TO.P,J111,4*
G04 #@! TO.N,Net-(J111-Pad4)*
X85080000Y-101750000D03*
G04 #@! TO.P,J111,3*
G04 #@! TO.N,Net-(J111-Pad3)*
X87620000Y-101750000D03*
G04 #@! TO.P,J111,2*
G04 #@! TO.N,Net-(J111-Pad2)*
X90160000Y-101750000D03*
D11*
G04 #@! TO.P,J111,1*
G04 #@! TO.N,Net-(J111-Pad1)*
X92700000Y-101750000D03*
G04 #@! TD*
G04 #@! TO.P,J110,1*
G04 #@! TO.N,+3V3*
X92700000Y-61550000D03*
D10*
G04 #@! TO.P,J110,2*
G04 #@! TO.N,GND*
X90160000Y-61550000D03*
G04 #@! TO.P,J110,3*
G04 #@! TO.N,/~LCD_CS*
X87620000Y-61550000D03*
G04 #@! TO.P,J110,4*
G04 #@! TO.N,/~LCD_RST*
X85080000Y-61550000D03*
G04 #@! TO.P,J110,5*
G04 #@! TO.N,/LCD_MODE*
X82540000Y-61550000D03*
G04 #@! TO.P,J110,6*
G04 #@! TO.N,/LCD_MOSI*
X80000000Y-61550000D03*
G04 #@! TO.P,J110,7*
G04 #@! TO.N,/LCD_SCLK*
X77460000Y-61550000D03*
G04 #@! TO.P,J110,8*
G04 #@! TO.N,Net-(J110-Pad8)*
X74920000Y-61550000D03*
G04 #@! TD*
D12*
G04 #@! TO.P,MH104,1*
G04 #@! TO.N,N/C*
X112000000Y-112000000D03*
G04 #@! TD*
G04 #@! TO.P,MH101,1*
G04 #@! TO.N,N/C*
X112000000Y-44000000D03*
G04 #@! TD*
G04 #@! TO.P,MH103,1*
G04 #@! TO.N,N/C*
X44000000Y-112000000D03*
G04 #@! TD*
G04 #@! TO.P,MH102,1*
G04 #@! TO.N,N/C*
X44000000Y-44000000D03*
G04 #@! TD*
D13*
G04 #@! TO.P,J112,6*
G04 #@! TO.N,Net-(J112-Pad6)*
X113550000Y-104450000D03*
X113550000Y-99450000D03*
D14*
X116250000Y-105450000D03*
X116250000Y-98450000D03*
G04 #@! TD*
D11*
G04 #@! TO.P,J107,1*
G04 #@! TO.N,/JTDO_TRACESWO*
X114000000Y-53000000D03*
D10*
G04 #@! TO.P,J107,2*
G04 #@! TO.N,+3V3*
X114000000Y-55540000D03*
G04 #@! TO.P,J107,3*
G04 #@! TO.N,/JTDI*
X111460000Y-53000000D03*
G04 #@! TO.P,J107,4*
G04 #@! TO.N,/JTRST*
X111460000Y-55540000D03*
G04 #@! TO.P,J107,5*
G04 #@! TO.N,/JTCK_SWCLK*
X108920000Y-53000000D03*
G04 #@! TO.P,J107,6*
G04 #@! TO.N,GND*
X108920000Y-55540000D03*
G04 #@! TO.P,J107,7*
G04 #@! TO.N,/JTMS_SWDIO*
X106380000Y-53000000D03*
G04 #@! TO.P,J107,8*
G04 #@! TO.N,/NRST*
X106380000Y-55540000D03*
G04 #@! TD*
D14*
G04 #@! TO.P,J109,6*
G04 #@! TO.N,Net-(J109-Pad6)*
X116350000Y-80600000D03*
X116350000Y-87600000D03*
D13*
X113650000Y-81600000D03*
X113650000Y-86600000D03*
G04 #@! TD*
D15*
G04 #@! TO.P,J104,1*
G04 #@! TO.N,GND*
X89050000Y-43400000D03*
G04 #@! TO.P,J104,2*
G04 #@! TO.N,Net-(C102-Pad1)*
X85550000Y-43400000D03*
G04 #@! TD*
G04 #@! TO.P,J106,1*
G04 #@! TO.N,Net-(C113-Pad1)*
X87950000Y-113500000D03*
G04 #@! TO.P,J106,2*
G04 #@! TO.N,Net-(C113-Pad2)*
X91450000Y-113500000D03*
G04 #@! TD*
G04 #@! TO.P,J101,1*
G04 #@! TO.N,+5V*
X70300000Y-43400000D03*
G04 #@! TO.P,J101,2*
G04 #@! TO.N,/RELAY_RET_1*
X66800000Y-43400000D03*
G04 #@! TO.P,J101,3*
G04 #@! TO.N,/RELAY_RET_2*
X63300000Y-43400000D03*
G04 #@! TO.P,J101,4*
G04 #@! TO.N,Net-(J101-Pad4)*
X59800000Y-43400000D03*
G04 #@! TD*
D16*
G04 #@! TO.P,BZ101,2*
G04 #@! TO.N,Net-(BZ101-Pad2)*
X60500000Y-107000000D03*
G04 #@! TO.P,BZ101,1*
G04 #@! TO.N,+5V*
X55500000Y-107000000D03*
G04 #@! TD*
D17*
G04 #@! TO.N,Net-(C101-Pad2)*
G04 #@! TO.C,C101*
G36*
X84624505Y-46101204D02*
X84648773Y-46104804D01*
X84672572Y-46110765D01*
X84695671Y-46119030D01*
X84717850Y-46129520D01*
X84738893Y-46142132D01*
X84758599Y-46156747D01*
X84776777Y-46173223D01*
X84793253Y-46191401D01*
X84807868Y-46211107D01*
X84820480Y-46232150D01*
X84830970Y-46254329D01*
X84839235Y-46277428D01*
X84845196Y-46301227D01*
X84848796Y-46325495D01*
X84850000Y-46349999D01*
X84850000Y-47250001D01*
X84848796Y-47274505D01*
X84845196Y-47298773D01*
X84839235Y-47322572D01*
X84830970Y-47345671D01*
X84820480Y-47367850D01*
X84807868Y-47388893D01*
X84793253Y-47408599D01*
X84776777Y-47426777D01*
X84758599Y-47443253D01*
X84738893Y-47457868D01*
X84717850Y-47470480D01*
X84695671Y-47480970D01*
X84672572Y-47489235D01*
X84648773Y-47495196D01*
X84624505Y-47498796D01*
X84600001Y-47500000D01*
X83949999Y-47500000D01*
X83925495Y-47498796D01*
X83901227Y-47495196D01*
X83877428Y-47489235D01*
X83854329Y-47480970D01*
X83832150Y-47470480D01*
X83811107Y-47457868D01*
X83791401Y-47443253D01*
X83773223Y-47426777D01*
X83756747Y-47408599D01*
X83742132Y-47388893D01*
X83729520Y-47367850D01*
X83719030Y-47345671D01*
X83710765Y-47322572D01*
X83704804Y-47298773D01*
X83701204Y-47274505D01*
X83700000Y-47250001D01*
X83700000Y-46349999D01*
X83701204Y-46325495D01*
X83704804Y-46301227D01*
X83710765Y-46277428D01*
X83719030Y-46254329D01*
X83729520Y-46232150D01*
X83742132Y-46211107D01*
X83756747Y-46191401D01*
X83773223Y-46173223D01*
X83791401Y-46156747D01*
X83811107Y-46142132D01*
X83832150Y-46129520D01*
X83854329Y-46119030D01*
X83877428Y-46110765D01*
X83901227Y-46104804D01*
X83925495Y-46101204D01*
X83949999Y-46100000D01*
X84600001Y-46100000D01*
X84624505Y-46101204D01*
X84624505Y-46101204D01*
G37*
D18*
G04 #@! TD*
G04 #@! TO.P,C101,2*
G04 #@! TO.N,Net-(C101-Pad2)*
X84275000Y-46800000D03*
D17*
G04 #@! TO.N,Net-(C101-Pad1)*
G04 #@! TO.C,C101*
G36*
X86674505Y-46101204D02*
X86698773Y-46104804D01*
X86722572Y-46110765D01*
X86745671Y-46119030D01*
X86767850Y-46129520D01*
X86788893Y-46142132D01*
X86808599Y-46156747D01*
X86826777Y-46173223D01*
X86843253Y-46191401D01*
X86857868Y-46211107D01*
X86870480Y-46232150D01*
X86880970Y-46254329D01*
X86889235Y-46277428D01*
X86895196Y-46301227D01*
X86898796Y-46325495D01*
X86900000Y-46349999D01*
X86900000Y-47250001D01*
X86898796Y-47274505D01*
X86895196Y-47298773D01*
X86889235Y-47322572D01*
X86880970Y-47345671D01*
X86870480Y-47367850D01*
X86857868Y-47388893D01*
X86843253Y-47408599D01*
X86826777Y-47426777D01*
X86808599Y-47443253D01*
X86788893Y-47457868D01*
X86767850Y-47470480D01*
X86745671Y-47480970D01*
X86722572Y-47489235D01*
X86698773Y-47495196D01*
X86674505Y-47498796D01*
X86650001Y-47500000D01*
X85999999Y-47500000D01*
X85975495Y-47498796D01*
X85951227Y-47495196D01*
X85927428Y-47489235D01*
X85904329Y-47480970D01*
X85882150Y-47470480D01*
X85861107Y-47457868D01*
X85841401Y-47443253D01*
X85823223Y-47426777D01*
X85806747Y-47408599D01*
X85792132Y-47388893D01*
X85779520Y-47367850D01*
X85769030Y-47345671D01*
X85760765Y-47322572D01*
X85754804Y-47298773D01*
X85751204Y-47274505D01*
X85750000Y-47250001D01*
X85750000Y-46349999D01*
X85751204Y-46325495D01*
X85754804Y-46301227D01*
X85760765Y-46277428D01*
X85769030Y-46254329D01*
X85779520Y-46232150D01*
X85792132Y-46211107D01*
X85806747Y-46191401D01*
X85823223Y-46173223D01*
X85841401Y-46156747D01*
X85861107Y-46142132D01*
X85882150Y-46129520D01*
X85904329Y-46119030D01*
X85927428Y-46110765D01*
X85951227Y-46104804D01*
X85975495Y-46101204D01*
X85999999Y-46100000D01*
X86650001Y-46100000D01*
X86674505Y-46101204D01*
X86674505Y-46101204D01*
G37*
D18*
G04 #@! TD*
G04 #@! TO.P,C101,1*
G04 #@! TO.N,Net-(C101-Pad1)*
X86325000Y-46800000D03*
D17*
G04 #@! TO.N,GND*
G04 #@! TO.C,C107*
G36*
X82224505Y-77101204D02*
X82248773Y-77104804D01*
X82272572Y-77110765D01*
X82295671Y-77119030D01*
X82317850Y-77129520D01*
X82338893Y-77142132D01*
X82358599Y-77156747D01*
X82376777Y-77173223D01*
X82393253Y-77191401D01*
X82407868Y-77211107D01*
X82420480Y-77232150D01*
X82430970Y-77254329D01*
X82439235Y-77277428D01*
X82445196Y-77301227D01*
X82448796Y-77325495D01*
X82450000Y-77349999D01*
X82450000Y-78250001D01*
X82448796Y-78274505D01*
X82445196Y-78298773D01*
X82439235Y-78322572D01*
X82430970Y-78345671D01*
X82420480Y-78367850D01*
X82407868Y-78388893D01*
X82393253Y-78408599D01*
X82376777Y-78426777D01*
X82358599Y-78443253D01*
X82338893Y-78457868D01*
X82317850Y-78470480D01*
X82295671Y-78480970D01*
X82272572Y-78489235D01*
X82248773Y-78495196D01*
X82224505Y-78498796D01*
X82200001Y-78500000D01*
X81549999Y-78500000D01*
X81525495Y-78498796D01*
X81501227Y-78495196D01*
X81477428Y-78489235D01*
X81454329Y-78480970D01*
X81432150Y-78470480D01*
X81411107Y-78457868D01*
X81391401Y-78443253D01*
X81373223Y-78426777D01*
X81356747Y-78408599D01*
X81342132Y-78388893D01*
X81329520Y-78367850D01*
X81319030Y-78345671D01*
X81310765Y-78322572D01*
X81304804Y-78298773D01*
X81301204Y-78274505D01*
X81300000Y-78250001D01*
X81300000Y-77349999D01*
X81301204Y-77325495D01*
X81304804Y-77301227D01*
X81310765Y-77277428D01*
X81319030Y-77254329D01*
X81329520Y-77232150D01*
X81342132Y-77211107D01*
X81356747Y-77191401D01*
X81373223Y-77173223D01*
X81391401Y-77156747D01*
X81411107Y-77142132D01*
X81432150Y-77129520D01*
X81454329Y-77119030D01*
X81477428Y-77110765D01*
X81501227Y-77104804D01*
X81525495Y-77101204D01*
X81549999Y-77100000D01*
X82200001Y-77100000D01*
X82224505Y-77101204D01*
X82224505Y-77101204D01*
G37*
D18*
G04 #@! TD*
G04 #@! TO.P,C107,2*
G04 #@! TO.N,GND*
X81875000Y-77800000D03*
D17*
G04 #@! TO.N,+3V3*
G04 #@! TO.C,C107*
G36*
X80174505Y-77101204D02*
X80198773Y-77104804D01*
X80222572Y-77110765D01*
X80245671Y-77119030D01*
X80267850Y-77129520D01*
X80288893Y-77142132D01*
X80308599Y-77156747D01*
X80326777Y-77173223D01*
X80343253Y-77191401D01*
X80357868Y-77211107D01*
X80370480Y-77232150D01*
X80380970Y-77254329D01*
X80389235Y-77277428D01*
X80395196Y-77301227D01*
X80398796Y-77325495D01*
X80400000Y-77349999D01*
X80400000Y-78250001D01*
X80398796Y-78274505D01*
X80395196Y-78298773D01*
X80389235Y-78322572D01*
X80380970Y-78345671D01*
X80370480Y-78367850D01*
X80357868Y-78388893D01*
X80343253Y-78408599D01*
X80326777Y-78426777D01*
X80308599Y-78443253D01*
X80288893Y-78457868D01*
X80267850Y-78470480D01*
X80245671Y-78480970D01*
X80222572Y-78489235D01*
X80198773Y-78495196D01*
X80174505Y-78498796D01*
X80150001Y-78500000D01*
X79499999Y-78500000D01*
X79475495Y-78498796D01*
X79451227Y-78495196D01*
X79427428Y-78489235D01*
X79404329Y-78480970D01*
X79382150Y-78470480D01*
X79361107Y-78457868D01*
X79341401Y-78443253D01*
X79323223Y-78426777D01*
X79306747Y-78408599D01*
X79292132Y-78388893D01*
X79279520Y-78367850D01*
X79269030Y-78345671D01*
X79260765Y-78322572D01*
X79254804Y-78298773D01*
X79251204Y-78274505D01*
X79250000Y-78250001D01*
X79250000Y-77349999D01*
X79251204Y-77325495D01*
X79254804Y-77301227D01*
X79260765Y-77277428D01*
X79269030Y-77254329D01*
X79279520Y-77232150D01*
X79292132Y-77211107D01*
X79306747Y-77191401D01*
X79323223Y-77173223D01*
X79341401Y-77156747D01*
X79361107Y-77142132D01*
X79382150Y-77129520D01*
X79404329Y-77119030D01*
X79427428Y-77110765D01*
X79451227Y-77104804D01*
X79475495Y-77101204D01*
X79499999Y-77100000D01*
X80150001Y-77100000D01*
X80174505Y-77101204D01*
X80174505Y-77101204D01*
G37*
D18*
G04 #@! TD*
G04 #@! TO.P,C107,1*
G04 #@! TO.N,+3V3*
X79825000Y-77800000D03*
D17*
G04 #@! TO.N,+3V3*
G04 #@! TO.C,C108*
G36*
X80174505Y-81401204D02*
X80198773Y-81404804D01*
X80222572Y-81410765D01*
X80245671Y-81419030D01*
X80267850Y-81429520D01*
X80288893Y-81442132D01*
X80308599Y-81456747D01*
X80326777Y-81473223D01*
X80343253Y-81491401D01*
X80357868Y-81511107D01*
X80370480Y-81532150D01*
X80380970Y-81554329D01*
X80389235Y-81577428D01*
X80395196Y-81601227D01*
X80398796Y-81625495D01*
X80400000Y-81649999D01*
X80400000Y-82550001D01*
X80398796Y-82574505D01*
X80395196Y-82598773D01*
X80389235Y-82622572D01*
X80380970Y-82645671D01*
X80370480Y-82667850D01*
X80357868Y-82688893D01*
X80343253Y-82708599D01*
X80326777Y-82726777D01*
X80308599Y-82743253D01*
X80288893Y-82757868D01*
X80267850Y-82770480D01*
X80245671Y-82780970D01*
X80222572Y-82789235D01*
X80198773Y-82795196D01*
X80174505Y-82798796D01*
X80150001Y-82800000D01*
X79499999Y-82800000D01*
X79475495Y-82798796D01*
X79451227Y-82795196D01*
X79427428Y-82789235D01*
X79404329Y-82780970D01*
X79382150Y-82770480D01*
X79361107Y-82757868D01*
X79341401Y-82743253D01*
X79323223Y-82726777D01*
X79306747Y-82708599D01*
X79292132Y-82688893D01*
X79279520Y-82667850D01*
X79269030Y-82645671D01*
X79260765Y-82622572D01*
X79254804Y-82598773D01*
X79251204Y-82574505D01*
X79250000Y-82550001D01*
X79250000Y-81649999D01*
X79251204Y-81625495D01*
X79254804Y-81601227D01*
X79260765Y-81577428D01*
X79269030Y-81554329D01*
X79279520Y-81532150D01*
X79292132Y-81511107D01*
X79306747Y-81491401D01*
X79323223Y-81473223D01*
X79341401Y-81456747D01*
X79361107Y-81442132D01*
X79382150Y-81429520D01*
X79404329Y-81419030D01*
X79427428Y-81410765D01*
X79451227Y-81404804D01*
X79475495Y-81401204D01*
X79499999Y-81400000D01*
X80150001Y-81400000D01*
X80174505Y-81401204D01*
X80174505Y-81401204D01*
G37*
D18*
G04 #@! TD*
G04 #@! TO.P,C108,1*
G04 #@! TO.N,+3V3*
X79825000Y-82100000D03*
D17*
G04 #@! TO.N,GND*
G04 #@! TO.C,C108*
G36*
X82224505Y-81401204D02*
X82248773Y-81404804D01*
X82272572Y-81410765D01*
X82295671Y-81419030D01*
X82317850Y-81429520D01*
X82338893Y-81442132D01*
X82358599Y-81456747D01*
X82376777Y-81473223D01*
X82393253Y-81491401D01*
X82407868Y-81511107D01*
X82420480Y-81532150D01*
X82430970Y-81554329D01*
X82439235Y-81577428D01*
X82445196Y-81601227D01*
X82448796Y-81625495D01*
X82450000Y-81649999D01*
X82450000Y-82550001D01*
X82448796Y-82574505D01*
X82445196Y-82598773D01*
X82439235Y-82622572D01*
X82430970Y-82645671D01*
X82420480Y-82667850D01*
X82407868Y-82688893D01*
X82393253Y-82708599D01*
X82376777Y-82726777D01*
X82358599Y-82743253D01*
X82338893Y-82757868D01*
X82317850Y-82770480D01*
X82295671Y-82780970D01*
X82272572Y-82789235D01*
X82248773Y-82795196D01*
X82224505Y-82798796D01*
X82200001Y-82800000D01*
X81549999Y-82800000D01*
X81525495Y-82798796D01*
X81501227Y-82795196D01*
X81477428Y-82789235D01*
X81454329Y-82780970D01*
X81432150Y-82770480D01*
X81411107Y-82757868D01*
X81391401Y-82743253D01*
X81373223Y-82726777D01*
X81356747Y-82708599D01*
X81342132Y-82688893D01*
X81329520Y-82667850D01*
X81319030Y-82645671D01*
X81310765Y-82622572D01*
X81304804Y-82598773D01*
X81301204Y-82574505D01*
X81300000Y-82550001D01*
X81300000Y-81649999D01*
X81301204Y-81625495D01*
X81304804Y-81601227D01*
X81310765Y-81577428D01*
X81319030Y-81554329D01*
X81329520Y-81532150D01*
X81342132Y-81511107D01*
X81356747Y-81491401D01*
X81373223Y-81473223D01*
X81391401Y-81456747D01*
X81411107Y-81442132D01*
X81432150Y-81429520D01*
X81454329Y-81419030D01*
X81477428Y-81410765D01*
X81501227Y-81404804D01*
X81525495Y-81401204D01*
X81549999Y-81400000D01*
X82200001Y-81400000D01*
X82224505Y-81401204D01*
X82224505Y-81401204D01*
G37*
D18*
G04 #@! TD*
G04 #@! TO.P,C108,2*
G04 #@! TO.N,GND*
X81875000Y-82100000D03*
D17*
G04 #@! TO.N,GND*
G04 #@! TO.C,C109*
G36*
X82224505Y-83901204D02*
X82248773Y-83904804D01*
X82272572Y-83910765D01*
X82295671Y-83919030D01*
X82317850Y-83929520D01*
X82338893Y-83942132D01*
X82358599Y-83956747D01*
X82376777Y-83973223D01*
X82393253Y-83991401D01*
X82407868Y-84011107D01*
X82420480Y-84032150D01*
X82430970Y-84054329D01*
X82439235Y-84077428D01*
X82445196Y-84101227D01*
X82448796Y-84125495D01*
X82450000Y-84149999D01*
X82450000Y-85050001D01*
X82448796Y-85074505D01*
X82445196Y-85098773D01*
X82439235Y-85122572D01*
X82430970Y-85145671D01*
X82420480Y-85167850D01*
X82407868Y-85188893D01*
X82393253Y-85208599D01*
X82376777Y-85226777D01*
X82358599Y-85243253D01*
X82338893Y-85257868D01*
X82317850Y-85270480D01*
X82295671Y-85280970D01*
X82272572Y-85289235D01*
X82248773Y-85295196D01*
X82224505Y-85298796D01*
X82200001Y-85300000D01*
X81549999Y-85300000D01*
X81525495Y-85298796D01*
X81501227Y-85295196D01*
X81477428Y-85289235D01*
X81454329Y-85280970D01*
X81432150Y-85270480D01*
X81411107Y-85257868D01*
X81391401Y-85243253D01*
X81373223Y-85226777D01*
X81356747Y-85208599D01*
X81342132Y-85188893D01*
X81329520Y-85167850D01*
X81319030Y-85145671D01*
X81310765Y-85122572D01*
X81304804Y-85098773D01*
X81301204Y-85074505D01*
X81300000Y-85050001D01*
X81300000Y-84149999D01*
X81301204Y-84125495D01*
X81304804Y-84101227D01*
X81310765Y-84077428D01*
X81319030Y-84054329D01*
X81329520Y-84032150D01*
X81342132Y-84011107D01*
X81356747Y-83991401D01*
X81373223Y-83973223D01*
X81391401Y-83956747D01*
X81411107Y-83942132D01*
X81432150Y-83929520D01*
X81454329Y-83919030D01*
X81477428Y-83910765D01*
X81501227Y-83904804D01*
X81525495Y-83901204D01*
X81549999Y-83900000D01*
X82200001Y-83900000D01*
X82224505Y-83901204D01*
X82224505Y-83901204D01*
G37*
D18*
G04 #@! TD*
G04 #@! TO.P,C109,2*
G04 #@! TO.N,GND*
X81875000Y-84600000D03*
D17*
G04 #@! TO.N,+3V3*
G04 #@! TO.C,C109*
G36*
X80174505Y-83901204D02*
X80198773Y-83904804D01*
X80222572Y-83910765D01*
X80245671Y-83919030D01*
X80267850Y-83929520D01*
X80288893Y-83942132D01*
X80308599Y-83956747D01*
X80326777Y-83973223D01*
X80343253Y-83991401D01*
X80357868Y-84011107D01*
X80370480Y-84032150D01*
X80380970Y-84054329D01*
X80389235Y-84077428D01*
X80395196Y-84101227D01*
X80398796Y-84125495D01*
X80400000Y-84149999D01*
X80400000Y-85050001D01*
X80398796Y-85074505D01*
X80395196Y-85098773D01*
X80389235Y-85122572D01*
X80380970Y-85145671D01*
X80370480Y-85167850D01*
X80357868Y-85188893D01*
X80343253Y-85208599D01*
X80326777Y-85226777D01*
X80308599Y-85243253D01*
X80288893Y-85257868D01*
X80267850Y-85270480D01*
X80245671Y-85280970D01*
X80222572Y-85289235D01*
X80198773Y-85295196D01*
X80174505Y-85298796D01*
X80150001Y-85300000D01*
X79499999Y-85300000D01*
X79475495Y-85298796D01*
X79451227Y-85295196D01*
X79427428Y-85289235D01*
X79404329Y-85280970D01*
X79382150Y-85270480D01*
X79361107Y-85257868D01*
X79341401Y-85243253D01*
X79323223Y-85226777D01*
X79306747Y-85208599D01*
X79292132Y-85188893D01*
X79279520Y-85167850D01*
X79269030Y-85145671D01*
X79260765Y-85122572D01*
X79254804Y-85098773D01*
X79251204Y-85074505D01*
X79250000Y-85050001D01*
X79250000Y-84149999D01*
X79251204Y-84125495D01*
X79254804Y-84101227D01*
X79260765Y-84077428D01*
X79269030Y-84054329D01*
X79279520Y-84032150D01*
X79292132Y-84011107D01*
X79306747Y-83991401D01*
X79323223Y-83973223D01*
X79341401Y-83956747D01*
X79361107Y-83942132D01*
X79382150Y-83929520D01*
X79404329Y-83919030D01*
X79427428Y-83910765D01*
X79451227Y-83904804D01*
X79475495Y-83901204D01*
X79499999Y-83900000D01*
X80150001Y-83900000D01*
X80174505Y-83901204D01*
X80174505Y-83901204D01*
G37*
D18*
G04 #@! TD*
G04 #@! TO.P,C109,1*
G04 #@! TO.N,+3V3*
X79825000Y-84600000D03*
D17*
G04 #@! TO.N,+3V3*
G04 #@! TO.C,C110*
G36*
X86974505Y-83901204D02*
X86998773Y-83904804D01*
X87022572Y-83910765D01*
X87045671Y-83919030D01*
X87067850Y-83929520D01*
X87088893Y-83942132D01*
X87108599Y-83956747D01*
X87126777Y-83973223D01*
X87143253Y-83991401D01*
X87157868Y-84011107D01*
X87170480Y-84032150D01*
X87180970Y-84054329D01*
X87189235Y-84077428D01*
X87195196Y-84101227D01*
X87198796Y-84125495D01*
X87200000Y-84149999D01*
X87200000Y-85050001D01*
X87198796Y-85074505D01*
X87195196Y-85098773D01*
X87189235Y-85122572D01*
X87180970Y-85145671D01*
X87170480Y-85167850D01*
X87157868Y-85188893D01*
X87143253Y-85208599D01*
X87126777Y-85226777D01*
X87108599Y-85243253D01*
X87088893Y-85257868D01*
X87067850Y-85270480D01*
X87045671Y-85280970D01*
X87022572Y-85289235D01*
X86998773Y-85295196D01*
X86974505Y-85298796D01*
X86950001Y-85300000D01*
X86299999Y-85300000D01*
X86275495Y-85298796D01*
X86251227Y-85295196D01*
X86227428Y-85289235D01*
X86204329Y-85280970D01*
X86182150Y-85270480D01*
X86161107Y-85257868D01*
X86141401Y-85243253D01*
X86123223Y-85226777D01*
X86106747Y-85208599D01*
X86092132Y-85188893D01*
X86079520Y-85167850D01*
X86069030Y-85145671D01*
X86060765Y-85122572D01*
X86054804Y-85098773D01*
X86051204Y-85074505D01*
X86050000Y-85050001D01*
X86050000Y-84149999D01*
X86051204Y-84125495D01*
X86054804Y-84101227D01*
X86060765Y-84077428D01*
X86069030Y-84054329D01*
X86079520Y-84032150D01*
X86092132Y-84011107D01*
X86106747Y-83991401D01*
X86123223Y-83973223D01*
X86141401Y-83956747D01*
X86161107Y-83942132D01*
X86182150Y-83929520D01*
X86204329Y-83919030D01*
X86227428Y-83910765D01*
X86251227Y-83904804D01*
X86275495Y-83901204D01*
X86299999Y-83900000D01*
X86950001Y-83900000D01*
X86974505Y-83901204D01*
X86974505Y-83901204D01*
G37*
D18*
G04 #@! TD*
G04 #@! TO.P,C110,1*
G04 #@! TO.N,+3V3*
X86625000Y-84600000D03*
D17*
G04 #@! TO.N,GND*
G04 #@! TO.C,C110*
G36*
X84924505Y-83901204D02*
X84948773Y-83904804D01*
X84972572Y-83910765D01*
X84995671Y-83919030D01*
X85017850Y-83929520D01*
X85038893Y-83942132D01*
X85058599Y-83956747D01*
X85076777Y-83973223D01*
X85093253Y-83991401D01*
X85107868Y-84011107D01*
X85120480Y-84032150D01*
X85130970Y-84054329D01*
X85139235Y-84077428D01*
X85145196Y-84101227D01*
X85148796Y-84125495D01*
X85150000Y-84149999D01*
X85150000Y-85050001D01*
X85148796Y-85074505D01*
X85145196Y-85098773D01*
X85139235Y-85122572D01*
X85130970Y-85145671D01*
X85120480Y-85167850D01*
X85107868Y-85188893D01*
X85093253Y-85208599D01*
X85076777Y-85226777D01*
X85058599Y-85243253D01*
X85038893Y-85257868D01*
X85017850Y-85270480D01*
X84995671Y-85280970D01*
X84972572Y-85289235D01*
X84948773Y-85295196D01*
X84924505Y-85298796D01*
X84900001Y-85300000D01*
X84249999Y-85300000D01*
X84225495Y-85298796D01*
X84201227Y-85295196D01*
X84177428Y-85289235D01*
X84154329Y-85280970D01*
X84132150Y-85270480D01*
X84111107Y-85257868D01*
X84091401Y-85243253D01*
X84073223Y-85226777D01*
X84056747Y-85208599D01*
X84042132Y-85188893D01*
X84029520Y-85167850D01*
X84019030Y-85145671D01*
X84010765Y-85122572D01*
X84004804Y-85098773D01*
X84001204Y-85074505D01*
X84000000Y-85050001D01*
X84000000Y-84149999D01*
X84001204Y-84125495D01*
X84004804Y-84101227D01*
X84010765Y-84077428D01*
X84019030Y-84054329D01*
X84029520Y-84032150D01*
X84042132Y-84011107D01*
X84056747Y-83991401D01*
X84073223Y-83973223D01*
X84091401Y-83956747D01*
X84111107Y-83942132D01*
X84132150Y-83929520D01*
X84154329Y-83919030D01*
X84177428Y-83910765D01*
X84201227Y-83904804D01*
X84225495Y-83901204D01*
X84249999Y-83900000D01*
X84900001Y-83900000D01*
X84924505Y-83901204D01*
X84924505Y-83901204D01*
G37*
D18*
G04 #@! TD*
G04 #@! TO.P,C110,2*
G04 #@! TO.N,GND*
X84575000Y-84600000D03*
D17*
G04 #@! TO.N,+3V3*
G04 #@! TO.C,C111*
G36*
X86974505Y-77101204D02*
X86998773Y-77104804D01*
X87022572Y-77110765D01*
X87045671Y-77119030D01*
X87067850Y-77129520D01*
X87088893Y-77142132D01*
X87108599Y-77156747D01*
X87126777Y-77173223D01*
X87143253Y-77191401D01*
X87157868Y-77211107D01*
X87170480Y-77232150D01*
X87180970Y-77254329D01*
X87189235Y-77277428D01*
X87195196Y-77301227D01*
X87198796Y-77325495D01*
X87200000Y-77349999D01*
X87200000Y-78250001D01*
X87198796Y-78274505D01*
X87195196Y-78298773D01*
X87189235Y-78322572D01*
X87180970Y-78345671D01*
X87170480Y-78367850D01*
X87157868Y-78388893D01*
X87143253Y-78408599D01*
X87126777Y-78426777D01*
X87108599Y-78443253D01*
X87088893Y-78457868D01*
X87067850Y-78470480D01*
X87045671Y-78480970D01*
X87022572Y-78489235D01*
X86998773Y-78495196D01*
X86974505Y-78498796D01*
X86950001Y-78500000D01*
X86299999Y-78500000D01*
X86275495Y-78498796D01*
X86251227Y-78495196D01*
X86227428Y-78489235D01*
X86204329Y-78480970D01*
X86182150Y-78470480D01*
X86161107Y-78457868D01*
X86141401Y-78443253D01*
X86123223Y-78426777D01*
X86106747Y-78408599D01*
X86092132Y-78388893D01*
X86079520Y-78367850D01*
X86069030Y-78345671D01*
X86060765Y-78322572D01*
X86054804Y-78298773D01*
X86051204Y-78274505D01*
X86050000Y-78250001D01*
X86050000Y-77349999D01*
X86051204Y-77325495D01*
X86054804Y-77301227D01*
X86060765Y-77277428D01*
X86069030Y-77254329D01*
X86079520Y-77232150D01*
X86092132Y-77211107D01*
X86106747Y-77191401D01*
X86123223Y-77173223D01*
X86141401Y-77156747D01*
X86161107Y-77142132D01*
X86182150Y-77129520D01*
X86204329Y-77119030D01*
X86227428Y-77110765D01*
X86251227Y-77104804D01*
X86275495Y-77101204D01*
X86299999Y-77100000D01*
X86950001Y-77100000D01*
X86974505Y-77101204D01*
X86974505Y-77101204D01*
G37*
D18*
G04 #@! TD*
G04 #@! TO.P,C111,1*
G04 #@! TO.N,+3V3*
X86625000Y-77800000D03*
D17*
G04 #@! TO.N,GND*
G04 #@! TO.C,C111*
G36*
X84924505Y-77101204D02*
X84948773Y-77104804D01*
X84972572Y-77110765D01*
X84995671Y-77119030D01*
X85017850Y-77129520D01*
X85038893Y-77142132D01*
X85058599Y-77156747D01*
X85076777Y-77173223D01*
X85093253Y-77191401D01*
X85107868Y-77211107D01*
X85120480Y-77232150D01*
X85130970Y-77254329D01*
X85139235Y-77277428D01*
X85145196Y-77301227D01*
X85148796Y-77325495D01*
X85150000Y-77349999D01*
X85150000Y-78250001D01*
X85148796Y-78274505D01*
X85145196Y-78298773D01*
X85139235Y-78322572D01*
X85130970Y-78345671D01*
X85120480Y-78367850D01*
X85107868Y-78388893D01*
X85093253Y-78408599D01*
X85076777Y-78426777D01*
X85058599Y-78443253D01*
X85038893Y-78457868D01*
X85017850Y-78470480D01*
X84995671Y-78480970D01*
X84972572Y-78489235D01*
X84948773Y-78495196D01*
X84924505Y-78498796D01*
X84900001Y-78500000D01*
X84249999Y-78500000D01*
X84225495Y-78498796D01*
X84201227Y-78495196D01*
X84177428Y-78489235D01*
X84154329Y-78480970D01*
X84132150Y-78470480D01*
X84111107Y-78457868D01*
X84091401Y-78443253D01*
X84073223Y-78426777D01*
X84056747Y-78408599D01*
X84042132Y-78388893D01*
X84029520Y-78367850D01*
X84019030Y-78345671D01*
X84010765Y-78322572D01*
X84004804Y-78298773D01*
X84001204Y-78274505D01*
X84000000Y-78250001D01*
X84000000Y-77349999D01*
X84001204Y-77325495D01*
X84004804Y-77301227D01*
X84010765Y-77277428D01*
X84019030Y-77254329D01*
X84029520Y-77232150D01*
X84042132Y-77211107D01*
X84056747Y-77191401D01*
X84073223Y-77173223D01*
X84091401Y-77156747D01*
X84111107Y-77142132D01*
X84132150Y-77129520D01*
X84154329Y-77119030D01*
X84177428Y-77110765D01*
X84201227Y-77104804D01*
X84225495Y-77101204D01*
X84249999Y-77100000D01*
X84900001Y-77100000D01*
X84924505Y-77101204D01*
X84924505Y-77101204D01*
G37*
D18*
G04 #@! TD*
G04 #@! TO.P,C111,2*
G04 #@! TO.N,GND*
X84575000Y-77800000D03*
D17*
G04 #@! TO.N,GND*
G04 #@! TO.C,C112*
G36*
X75424505Y-77101204D02*
X75448773Y-77104804D01*
X75472572Y-77110765D01*
X75495671Y-77119030D01*
X75517850Y-77129520D01*
X75538893Y-77142132D01*
X75558599Y-77156747D01*
X75576777Y-77173223D01*
X75593253Y-77191401D01*
X75607868Y-77211107D01*
X75620480Y-77232150D01*
X75630970Y-77254329D01*
X75639235Y-77277428D01*
X75645196Y-77301227D01*
X75648796Y-77325495D01*
X75650000Y-77349999D01*
X75650000Y-78250001D01*
X75648796Y-78274505D01*
X75645196Y-78298773D01*
X75639235Y-78322572D01*
X75630970Y-78345671D01*
X75620480Y-78367850D01*
X75607868Y-78388893D01*
X75593253Y-78408599D01*
X75576777Y-78426777D01*
X75558599Y-78443253D01*
X75538893Y-78457868D01*
X75517850Y-78470480D01*
X75495671Y-78480970D01*
X75472572Y-78489235D01*
X75448773Y-78495196D01*
X75424505Y-78498796D01*
X75400001Y-78500000D01*
X74749999Y-78500000D01*
X74725495Y-78498796D01*
X74701227Y-78495196D01*
X74677428Y-78489235D01*
X74654329Y-78480970D01*
X74632150Y-78470480D01*
X74611107Y-78457868D01*
X74591401Y-78443253D01*
X74573223Y-78426777D01*
X74556747Y-78408599D01*
X74542132Y-78388893D01*
X74529520Y-78367850D01*
X74519030Y-78345671D01*
X74510765Y-78322572D01*
X74504804Y-78298773D01*
X74501204Y-78274505D01*
X74500000Y-78250001D01*
X74500000Y-77349999D01*
X74501204Y-77325495D01*
X74504804Y-77301227D01*
X74510765Y-77277428D01*
X74519030Y-77254329D01*
X74529520Y-77232150D01*
X74542132Y-77211107D01*
X74556747Y-77191401D01*
X74573223Y-77173223D01*
X74591401Y-77156747D01*
X74611107Y-77142132D01*
X74632150Y-77129520D01*
X74654329Y-77119030D01*
X74677428Y-77110765D01*
X74701227Y-77104804D01*
X74725495Y-77101204D01*
X74749999Y-77100000D01*
X75400001Y-77100000D01*
X75424505Y-77101204D01*
X75424505Y-77101204D01*
G37*
D18*
G04 #@! TD*
G04 #@! TO.P,C112,2*
G04 #@! TO.N,GND*
X75075000Y-77800000D03*
D17*
G04 #@! TO.N,+3V3*
G04 #@! TO.C,C112*
G36*
X77474505Y-77101204D02*
X77498773Y-77104804D01*
X77522572Y-77110765D01*
X77545671Y-77119030D01*
X77567850Y-77129520D01*
X77588893Y-77142132D01*
X77608599Y-77156747D01*
X77626777Y-77173223D01*
X77643253Y-77191401D01*
X77657868Y-77211107D01*
X77670480Y-77232150D01*
X77680970Y-77254329D01*
X77689235Y-77277428D01*
X77695196Y-77301227D01*
X77698796Y-77325495D01*
X77700000Y-77349999D01*
X77700000Y-78250001D01*
X77698796Y-78274505D01*
X77695196Y-78298773D01*
X77689235Y-78322572D01*
X77680970Y-78345671D01*
X77670480Y-78367850D01*
X77657868Y-78388893D01*
X77643253Y-78408599D01*
X77626777Y-78426777D01*
X77608599Y-78443253D01*
X77588893Y-78457868D01*
X77567850Y-78470480D01*
X77545671Y-78480970D01*
X77522572Y-78489235D01*
X77498773Y-78495196D01*
X77474505Y-78498796D01*
X77450001Y-78500000D01*
X76799999Y-78500000D01*
X76775495Y-78498796D01*
X76751227Y-78495196D01*
X76727428Y-78489235D01*
X76704329Y-78480970D01*
X76682150Y-78470480D01*
X76661107Y-78457868D01*
X76641401Y-78443253D01*
X76623223Y-78426777D01*
X76606747Y-78408599D01*
X76592132Y-78388893D01*
X76579520Y-78367850D01*
X76569030Y-78345671D01*
X76560765Y-78322572D01*
X76554804Y-78298773D01*
X76551204Y-78274505D01*
X76550000Y-78250001D01*
X76550000Y-77349999D01*
X76551204Y-77325495D01*
X76554804Y-77301227D01*
X76560765Y-77277428D01*
X76569030Y-77254329D01*
X76579520Y-77232150D01*
X76592132Y-77211107D01*
X76606747Y-77191401D01*
X76623223Y-77173223D01*
X76641401Y-77156747D01*
X76661107Y-77142132D01*
X76682150Y-77129520D01*
X76704329Y-77119030D01*
X76727428Y-77110765D01*
X76751227Y-77104804D01*
X76775495Y-77101204D01*
X76799999Y-77100000D01*
X77450001Y-77100000D01*
X77474505Y-77101204D01*
X77474505Y-77101204D01*
G37*
D18*
G04 #@! TD*
G04 #@! TO.P,C112,1*
G04 #@! TO.N,+3V3*
X77125000Y-77800000D03*
D17*
G04 #@! TO.N,GND*
G04 #@! TO.C,C117*
G36*
X102174505Y-98051204D02*
X102198773Y-98054804D01*
X102222572Y-98060765D01*
X102245671Y-98069030D01*
X102267850Y-98079520D01*
X102288893Y-98092132D01*
X102308599Y-98106747D01*
X102326777Y-98123223D01*
X102343253Y-98141401D01*
X102357868Y-98161107D01*
X102370480Y-98182150D01*
X102380970Y-98204329D01*
X102389235Y-98227428D01*
X102395196Y-98251227D01*
X102398796Y-98275495D01*
X102400000Y-98299999D01*
X102400000Y-98950001D01*
X102398796Y-98974505D01*
X102395196Y-98998773D01*
X102389235Y-99022572D01*
X102380970Y-99045671D01*
X102370480Y-99067850D01*
X102357868Y-99088893D01*
X102343253Y-99108599D01*
X102326777Y-99126777D01*
X102308599Y-99143253D01*
X102288893Y-99157868D01*
X102267850Y-99170480D01*
X102245671Y-99180970D01*
X102222572Y-99189235D01*
X102198773Y-99195196D01*
X102174505Y-99198796D01*
X102150001Y-99200000D01*
X101249999Y-99200000D01*
X101225495Y-99198796D01*
X101201227Y-99195196D01*
X101177428Y-99189235D01*
X101154329Y-99180970D01*
X101132150Y-99170480D01*
X101111107Y-99157868D01*
X101091401Y-99143253D01*
X101073223Y-99126777D01*
X101056747Y-99108599D01*
X101042132Y-99088893D01*
X101029520Y-99067850D01*
X101019030Y-99045671D01*
X101010765Y-99022572D01*
X101004804Y-98998773D01*
X101001204Y-98974505D01*
X101000000Y-98950001D01*
X101000000Y-98299999D01*
X101001204Y-98275495D01*
X101004804Y-98251227D01*
X101010765Y-98227428D01*
X101019030Y-98204329D01*
X101029520Y-98182150D01*
X101042132Y-98161107D01*
X101056747Y-98141401D01*
X101073223Y-98123223D01*
X101091401Y-98106747D01*
X101111107Y-98092132D01*
X101132150Y-98079520D01*
X101154329Y-98069030D01*
X101177428Y-98060765D01*
X101201227Y-98054804D01*
X101225495Y-98051204D01*
X101249999Y-98050000D01*
X102150001Y-98050000D01*
X102174505Y-98051204D01*
X102174505Y-98051204D01*
G37*
D18*
G04 #@! TD*
G04 #@! TO.P,C117,1*
G04 #@! TO.N,GND*
X101700000Y-98625000D03*
D17*
G04 #@! TO.N,Net-(C117-Pad2)*
G04 #@! TO.C,C117*
G36*
X102174505Y-100101204D02*
X102198773Y-100104804D01*
X102222572Y-100110765D01*
X102245671Y-100119030D01*
X102267850Y-100129520D01*
X102288893Y-100142132D01*
X102308599Y-100156747D01*
X102326777Y-100173223D01*
X102343253Y-100191401D01*
X102357868Y-100211107D01*
X102370480Y-100232150D01*
X102380970Y-100254329D01*
X102389235Y-100277428D01*
X102395196Y-100301227D01*
X102398796Y-100325495D01*
X102400000Y-100349999D01*
X102400000Y-101000001D01*
X102398796Y-101024505D01*
X102395196Y-101048773D01*
X102389235Y-101072572D01*
X102380970Y-101095671D01*
X102370480Y-101117850D01*
X102357868Y-101138893D01*
X102343253Y-101158599D01*
X102326777Y-101176777D01*
X102308599Y-101193253D01*
X102288893Y-101207868D01*
X102267850Y-101220480D01*
X102245671Y-101230970D01*
X102222572Y-101239235D01*
X102198773Y-101245196D01*
X102174505Y-101248796D01*
X102150001Y-101250000D01*
X101249999Y-101250000D01*
X101225495Y-101248796D01*
X101201227Y-101245196D01*
X101177428Y-101239235D01*
X101154329Y-101230970D01*
X101132150Y-101220480D01*
X101111107Y-101207868D01*
X101091401Y-101193253D01*
X101073223Y-101176777D01*
X101056747Y-101158599D01*
X101042132Y-101138893D01*
X101029520Y-101117850D01*
X101019030Y-101095671D01*
X101010765Y-101072572D01*
X101004804Y-101048773D01*
X101001204Y-101024505D01*
X101000000Y-101000001D01*
X101000000Y-100349999D01*
X101001204Y-100325495D01*
X101004804Y-100301227D01*
X101010765Y-100277428D01*
X101019030Y-100254329D01*
X101029520Y-100232150D01*
X101042132Y-100211107D01*
X101056747Y-100191401D01*
X101073223Y-100173223D01*
X101091401Y-100156747D01*
X101111107Y-100142132D01*
X101132150Y-100129520D01*
X101154329Y-100119030D01*
X101177428Y-100110765D01*
X101201227Y-100104804D01*
X101225495Y-100101204D01*
X101249999Y-100100000D01*
X102150001Y-100100000D01*
X102174505Y-100101204D01*
X102174505Y-100101204D01*
G37*
D18*
G04 #@! TD*
G04 #@! TO.P,C117,2*
G04 #@! TO.N,Net-(C117-Pad2)*
X101700000Y-100675000D03*
D19*
G04 #@! TO.P,H101,4*
G04 #@! TO.N,+3V3*
X57500000Y-89440000D03*
D20*
G04 #@! TO.P,H101,9*
G04 #@! TO.N,GND*
X55700000Y-94350000D03*
D21*
G04 #@! TO.P,H101,7*
G04 #@! TO.N,/JOYSTICK_BTN*
X51550000Y-78700000D03*
X44700000Y-78700000D03*
G04 #@! TO.P,H101,8*
G04 #@! TO.N,GND*
X44700000Y-74400000D03*
X51550000Y-74400000D03*
D19*
G04 #@! TO.P,H101,5*
G04 #@! TO.N,/JOYSTICK_Y*
X57500000Y-86900000D03*
G04 #@! TO.P,H101,6*
G04 #@! TO.N,GND*
X57500000Y-84360000D03*
G04 #@! TO.P,H101,2*
G04 #@! TO.N,/JOYSTICK_X*
X48000000Y-96400000D03*
G04 #@! TO.P,H101,3*
G04 #@! TO.N,GND*
X50540000Y-96400000D03*
G04 #@! TO.P,H101,1*
G04 #@! TO.N,+3V3*
X45460000Y-96400000D03*
D20*
G04 #@! TO.P,H101,9*
G04 #@! TO.N,GND*
X40300000Y-94300000D03*
X40300000Y-79500000D03*
X55700000Y-79500000D03*
G04 #@! TD*
D11*
G04 #@! TO.P,J105,1*
G04 #@! TO.N,GND*
X40500000Y-55000000D03*
D10*
G04 #@! TO.P,J105,2*
G04 #@! TO.N,+5V*
X43040000Y-55000000D03*
G04 #@! TO.P,J105,3*
G04 #@! TO.N,Net-(J105-Pad3)*
X45580000Y-55000000D03*
G04 #@! TD*
D22*
G04 #@! TO.N,+5V*
X71600000Y-56400000D03*
D23*
X88900000Y-57500000D03*
X100250000Y-49900000D03*
X51500000Y-53650000D03*
G04 #@! TO.N,Net-(C101-Pad2)*
X80800000Y-49000000D03*
G04 #@! TO.N,Net-(C101-Pad1)*
X87700000Y-47100000D03*
G04 #@! TO.N,Net-(C102-Pad1)*
X94800000Y-50250000D03*
X86150000Y-48250000D03*
D22*
G04 #@! TO.N,GND*
X66650000Y-49200000D03*
D23*
X71450000Y-79800000D03*
D22*
X55350000Y-52250000D03*
X73950000Y-79750000D03*
X48150000Y-53500000D03*
X66950000Y-78200000D03*
X53950000Y-58400000D03*
X53900000Y-62650000D03*
X53900000Y-66650000D03*
X81400000Y-68750000D03*
D23*
X76250000Y-82950000D03*
D22*
X111650000Y-100650000D03*
X106450000Y-100000000D03*
X100500000Y-87500000D03*
X111250000Y-70150000D03*
X108450000Y-74850000D03*
X104650000Y-74850000D03*
X100250000Y-47450000D03*
X93100000Y-58950000D03*
X69250000Y-64650000D03*
X67750000Y-63050000D03*
X72150000Y-106250000D03*
X52300000Y-53100000D03*
X65150000Y-50900000D03*
X95650000Y-55900000D03*
X111700000Y-82800000D03*
X103350000Y-95200000D03*
X89700000Y-108400000D03*
X84400000Y-115200000D03*
D23*
X79550000Y-85850010D03*
D22*
X86350000Y-88200004D03*
X90150006Y-77700000D03*
X79250000Y-74150000D03*
X106102305Y-84452305D03*
X99000008Y-97400000D03*
X106400000Y-97950000D03*
D23*
G04 #@! TO.N,+3V3*
X78450000Y-83450000D03*
X80350000Y-85850000D03*
X86850000Y-85850000D03*
X87750000Y-77450000D03*
X79350000Y-76550000D03*
X78450000Y-77450000D03*
D22*
X71350000Y-64450000D03*
D23*
X111150000Y-67950000D03*
X85050000Y-110500000D03*
X92450000Y-106250000D03*
G04 #@! TO.N,/NRST*
X74850000Y-88181576D03*
X74850000Y-94600000D03*
G04 #@! TO.N,Net-(C117-Pad2)*
X103200000Y-100700000D03*
G04 #@! TO.N,Net-(D102-Pad1)*
X60500000Y-53500000D03*
X59225000Y-52200000D03*
G04 #@! TO.N,Net-(D103-Pad1)*
X58100000Y-53500000D03*
X56600000Y-50325000D03*
G04 #@! TO.N,/JOYSTICK_BTN*
X84950000Y-91600000D03*
X84950000Y-88500000D03*
G04 #@! TO.N,/JOYSTICK_Y*
X84350000Y-88974990D03*
X84343481Y-92675010D03*
G04 #@! TO.N,/JOYSTICK_X*
X83750000Y-88550000D03*
X83747096Y-93125021D03*
G04 #@! TO.N,/~SD_CS*
X92343413Y-81693413D03*
X97675000Y-72925000D03*
G04 #@! TO.N,/LCD_MOSI*
X97900000Y-73950000D03*
X91250000Y-83100000D03*
X89778784Y-66558042D03*
X92541965Y-69321223D03*
G04 #@! TO.N,/LCD_SCLK*
X91600000Y-84550000D03*
X99000000Y-77000000D03*
X91600000Y-91821030D03*
X91931594Y-69931594D03*
X88775000Y-66774994D03*
G04 #@! TO.N,/SD_MISO*
X90450000Y-83950000D03*
X90449992Y-91850000D03*
X99600000Y-74850000D03*
G04 #@! TO.N,VBUS*
X110650000Y-84450000D03*
X111700000Y-85550000D03*
G04 #@! TO.N,/~LCD_CS*
X85875000Y-64750000D03*
G04 #@! TO.N,/~LCD_RST*
X85075000Y-64750000D03*
G04 #@! TO.N,/RELAY_2*
X76100000Y-81600000D03*
X68550000Y-73874989D03*
G04 #@! TO.N,/RELAY_1*
X56200000Y-53700000D03*
X54200000Y-49500000D03*
X75500000Y-81100000D03*
X69200000Y-73450000D03*
G04 #@! TO.N,/RELAY_3*
X75500000Y-82250011D03*
X67950000Y-73450000D03*
G04 #@! TO.N,/SERVO*
X76793424Y-88756576D03*
X80331587Y-88368413D03*
X66050000Y-76300000D03*
X66050000Y-71700000D03*
G04 #@! TO.N,/BUZZER*
X80826563Y-88863389D03*
X77100000Y-93575032D03*
G04 #@! TO.N,/~TC_CS*
X91024992Y-92305549D03*
X91024990Y-88350000D03*
G04 #@! TO.N,/FTDI_RTS*
X78950022Y-90100000D03*
X82400000Y-90124968D03*
G04 #@! TD*
D24*
G04 #@! TO.N,+5V*
X72700000Y-57500000D02*
X71600000Y-56400000D01*
X88900000Y-57500000D02*
X72700000Y-57500000D01*
D25*
X70300000Y-41450000D02*
X70300000Y-43400000D01*
X68750000Y-39900000D02*
X70300000Y-41450000D01*
X56650000Y-39900000D02*
X68750000Y-39900000D01*
X43040000Y-55000000D02*
X43040000Y-53510000D01*
X43040000Y-53510000D02*
X56650000Y-39900000D01*
D24*
X88900000Y-57500000D02*
X92650000Y-57500000D01*
X92650000Y-57500000D02*
X100250000Y-49900000D01*
X48500000Y-56650000D02*
X51500000Y-53650000D01*
X43040000Y-55000000D02*
X44690000Y-56650000D01*
X44690000Y-56650000D02*
X48500000Y-56650000D01*
G04 #@! TO.N,Net-(C101-Pad2)*
X83000000Y-46800000D02*
X80800000Y-49000000D01*
X84275000Y-46800000D02*
X83000000Y-46800000D01*
G04 #@! TO.N,Net-(C101-Pad1)*
X87400000Y-46800000D02*
X87700000Y-47100000D01*
X86325000Y-46800000D02*
X87400000Y-46800000D01*
G04 #@! TO.N,Net-(C102-Pad1)*
X92800000Y-48250000D02*
X94800000Y-50250000D01*
X86150000Y-48250000D02*
X92800000Y-48250000D01*
G04 #@! TO.N,+3V3*
X77475000Y-77450000D02*
X77125000Y-77800000D01*
X78450000Y-77450000D02*
X77475000Y-77450000D01*
X79350000Y-77325000D02*
X79825000Y-77800000D01*
X79350000Y-76550000D02*
X79350000Y-77325000D01*
X86975000Y-77450000D02*
X86625000Y-77800000D01*
X87750000Y-77450000D02*
X86975000Y-77450000D01*
X78475000Y-83450000D02*
X79825000Y-82100000D01*
X78450000Y-83450000D02*
X78475000Y-83450000D01*
X80350000Y-85125000D02*
X79825000Y-84600000D01*
X80350000Y-85850000D02*
X80350000Y-85125000D01*
X79600000Y-84600000D02*
X78450000Y-83450000D01*
X79825000Y-84600000D02*
X79600000Y-84600000D01*
X86850000Y-84825000D02*
X86625000Y-84600000D01*
X86850000Y-85850000D02*
X86850000Y-84825000D01*
X80350000Y-85850000D02*
X86850000Y-85850000D01*
X78450000Y-77450000D02*
X79475000Y-77450000D01*
X84425000Y-80000000D02*
X79825000Y-80000000D01*
X86625000Y-77800000D02*
X84425000Y-80000000D01*
X79825000Y-82100000D02*
X79825000Y-80000000D01*
X79825000Y-80000000D02*
X79825000Y-77800000D01*
X71350000Y-68550000D02*
X79350000Y-76550000D01*
X71350000Y-64450000D02*
X71350000Y-68550000D01*
X52420000Y-89440000D02*
X57500000Y-89440000D01*
X45460000Y-96400000D02*
X52420000Y-89440000D01*
X64710000Y-89440000D02*
X57500000Y-89440000D01*
X68800000Y-85350000D02*
X64710000Y-89440000D01*
X78450000Y-83450000D02*
X76550000Y-85350000D01*
X76550000Y-85350000D02*
X68800000Y-85350000D01*
X111190000Y-58350000D02*
X114000000Y-55540000D01*
X92700000Y-61550000D02*
X95900000Y-58350000D01*
X95900000Y-58350000D02*
X111190000Y-58350000D01*
X111190000Y-58350000D02*
X111190000Y-67910000D01*
X111190000Y-67910000D02*
X111150000Y-67950000D01*
X85050000Y-110500000D02*
X89300000Y-106250000D01*
X89300000Y-106250000D02*
X92450000Y-106250000D01*
G04 #@! TO.N,/NRST*
X74850000Y-88181576D02*
X74850000Y-94600000D01*
G04 #@! TO.N,Net-(C117-Pad2)*
X101725000Y-100700000D02*
X101700000Y-100675000D01*
X103200000Y-100700000D02*
X101725000Y-100700000D01*
G04 #@! TO.N,Net-(D102-Pad1)*
X59225000Y-52225000D02*
X60500000Y-53500000D01*
X59225000Y-52200000D02*
X59225000Y-52225000D01*
G04 #@! TO.N,Net-(D103-Pad1)*
X57600000Y-53000000D02*
X58100000Y-53500000D01*
X56950000Y-52350000D02*
X57600000Y-53000000D01*
X56600000Y-50325000D02*
X56950000Y-50675000D01*
X56950000Y-50675000D02*
X56950000Y-52350000D01*
G04 #@! TO.N,/JOYSTICK_BTN*
X84950000Y-88500000D02*
X84950000Y-91600000D01*
G04 #@! TO.N,/JOYSTICK_Y*
X84350000Y-88974990D02*
X84350000Y-92668491D01*
X84350000Y-92668491D02*
X84343481Y-92675010D01*
G04 #@! TO.N,/JOYSTICK_X*
X83750000Y-93122117D02*
X83747096Y-93125021D01*
X83750000Y-88550000D02*
X83750000Y-93122117D01*
G04 #@! TO.N,/~SD_CS*
X92343413Y-81693413D02*
X97150000Y-76886826D01*
X97150000Y-76886826D02*
X97150000Y-73450000D01*
X97150000Y-73450000D02*
X97675000Y-72925000D01*
G04 #@! TO.N,/LCD_MOSI*
X91750000Y-83100000D02*
X91250000Y-83100000D01*
X97900000Y-76950000D02*
X91750000Y-83100000D01*
X97900000Y-73950000D02*
X97900000Y-76950000D01*
X89778784Y-66558042D02*
X92541965Y-69321223D01*
G04 #@! TO.N,/LCD_SCLK*
X99000000Y-77153549D02*
X99000000Y-77000000D01*
X91603549Y-84550000D02*
X99000000Y-77153549D01*
X91931594Y-69931594D02*
X88775000Y-66775000D01*
X88775000Y-66775000D02*
X88775000Y-66774994D01*
X91600000Y-84550000D02*
X91600000Y-91821030D01*
G04 #@! TO.N,/SD_MISO*
X90450000Y-83950000D02*
X91536411Y-83950000D01*
X91536411Y-83950000D02*
X98350011Y-77136400D01*
X98350011Y-77136400D02*
X98350011Y-76099989D01*
X98350011Y-76099989D02*
X99600000Y-74850000D01*
X90450000Y-83950000D02*
X90200001Y-84199999D01*
X90450000Y-89001006D02*
X90450000Y-91849992D01*
X90200001Y-88376015D02*
X90450000Y-88626014D01*
X90450000Y-88626014D02*
X90450000Y-89001006D01*
X90200001Y-84199999D02*
X90200001Y-88376015D01*
G04 #@! TO.N,VBUS*
X110650000Y-84450000D02*
X111700000Y-85500000D01*
X111700000Y-85500000D02*
X111700000Y-85550000D01*
G04 #@! TO.N,/~LCD_CS*
X87620000Y-61550000D02*
X87620000Y-63005000D01*
X86124999Y-64500001D02*
X85875000Y-64750000D01*
X87620000Y-63005000D02*
X86124999Y-64500001D01*
G04 #@! TO.N,/~LCD_RST*
X85080000Y-61550000D02*
X85080000Y-64745000D01*
X85080000Y-64745000D02*
X85075000Y-64750000D01*
G04 #@! TO.N,/RELAY_2*
X76100000Y-81600000D02*
X76024999Y-81675001D01*
X68550000Y-74228542D02*
X68550000Y-73874989D01*
X76024999Y-81675001D02*
X71688590Y-81675001D01*
X68550000Y-78536411D02*
X68550000Y-74228542D01*
X71688590Y-81675001D02*
X68550000Y-78536411D01*
G04 #@! TO.N,/RELAY_1*
X69200000Y-78550000D02*
X69200000Y-73450000D01*
X75500000Y-81100000D02*
X71750000Y-81100000D01*
X71750000Y-81100000D02*
X69200000Y-78550000D01*
X56200000Y-51500000D02*
X56200000Y-53700000D01*
X54200000Y-49500000D02*
X56200000Y-51500000D01*
G04 #@! TO.N,/RELAY_3*
X67950000Y-78572822D02*
X67950000Y-73803553D01*
X67950000Y-73803553D02*
X67950000Y-73450000D01*
X75500000Y-82250011D02*
X71627189Y-82250011D01*
X71627189Y-82250011D02*
X67950000Y-78572822D01*
G04 #@! TO.N,/SERVO*
X76793424Y-88756576D02*
X79943424Y-88756576D01*
X79943424Y-88756576D02*
X80331587Y-88368413D01*
X66050000Y-76300000D02*
X66050000Y-71700000D01*
G04 #@! TO.N,/BUZZER*
X78674021Y-89524999D02*
X77100000Y-91099020D01*
X77100000Y-91099020D02*
X77100000Y-93221479D01*
X80826563Y-88863389D02*
X80164953Y-89524999D01*
X77100000Y-93221479D02*
X77100000Y-93575032D01*
X80164953Y-89524999D02*
X78674021Y-89524999D01*
G04 #@! TO.N,/~TC_CS*
X91024992Y-88350002D02*
X91024990Y-88350000D01*
X91024992Y-92305549D02*
X91024992Y-88350002D01*
G04 #@! TO.N,/FTDI_RTS*
X78950000Y-90100000D02*
X78974968Y-90124968D01*
X82046447Y-90124968D02*
X82400000Y-90124968D01*
X78974968Y-90124968D02*
X82046447Y-90124968D01*
G04 #@! TD*
D26*
G04 #@! TO.N,GND*
G36*
X55784848Y-39034848D02*
X55717898Y-39135046D01*
X42275047Y-52577898D01*
X42174849Y-52644848D01*
X42007951Y-52894629D01*
X41909625Y-53041784D01*
X41816491Y-53510000D01*
X41840000Y-53628188D01*
X41840000Y-54006000D01*
X41579932Y-54395220D01*
X41459634Y-55000000D01*
X41579932Y-55604780D01*
X41922512Y-56117488D01*
X42435220Y-56460068D01*
X42887340Y-56550000D01*
X43192660Y-56550000D01*
X43385013Y-56511739D01*
X44049184Y-57175910D01*
X44095209Y-57244791D01*
X44368101Y-57427132D01*
X44608749Y-57475000D01*
X44608752Y-57475000D01*
X44689999Y-57491161D01*
X44771247Y-57475000D01*
X48418753Y-57475000D01*
X48500000Y-57491161D01*
X48581247Y-57475000D01*
X48581251Y-57475000D01*
X48821899Y-57427132D01*
X49094791Y-57244791D01*
X49140818Y-57175907D01*
X50125583Y-56191142D01*
X70550000Y-56191142D01*
X70550000Y-56608858D01*
X70709853Y-56994777D01*
X71005223Y-57290147D01*
X71391142Y-57450000D01*
X71483275Y-57450000D01*
X72059184Y-58025910D01*
X72105209Y-58094791D01*
X72378101Y-58277132D01*
X72618749Y-58325000D01*
X72618752Y-58325000D01*
X72700000Y-58341161D01*
X72781247Y-58325000D01*
X88409257Y-58325000D01*
X88711033Y-58450000D01*
X89088967Y-58450000D01*
X89390743Y-58325000D01*
X92568753Y-58325000D01*
X92650000Y-58341161D01*
X92731247Y-58325000D01*
X92731251Y-58325000D01*
X92971899Y-58277132D01*
X93244791Y-58094791D01*
X93290818Y-58025907D01*
X100486356Y-50830371D01*
X100788132Y-50705371D01*
X101055371Y-50438132D01*
X101200000Y-50088967D01*
X101200000Y-49711033D01*
X101055371Y-49361868D01*
X100788132Y-49094629D01*
X100438967Y-48950000D01*
X100061033Y-48950000D01*
X99711868Y-49094629D01*
X99444629Y-49361868D01*
X99319629Y-49663644D01*
X92308275Y-56675000D01*
X89390743Y-56675000D01*
X89088967Y-56550000D01*
X88711033Y-56550000D01*
X88409257Y-56675000D01*
X73041726Y-56675000D01*
X72650000Y-56283275D01*
X72650000Y-56191142D01*
X72490147Y-55805223D01*
X72194777Y-55509853D01*
X71808858Y-55350000D01*
X71391142Y-55350000D01*
X71005223Y-55509853D01*
X70709853Y-55805223D01*
X70550000Y-56191142D01*
X50125583Y-56191142D01*
X51736354Y-54580371D01*
X52038132Y-54455371D01*
X52305371Y-54188132D01*
X52450000Y-53838967D01*
X52450000Y-53461033D01*
X52305371Y-53111868D01*
X52038132Y-52844629D01*
X51688967Y-52700000D01*
X51311033Y-52700000D01*
X50961868Y-52844629D01*
X50694629Y-53111868D01*
X50569629Y-53413646D01*
X48158275Y-55825000D01*
X46892922Y-55825000D01*
X47040068Y-55604780D01*
X47160366Y-55000000D01*
X47040068Y-54395220D01*
X46697488Y-53882512D01*
X46184780Y-53539932D01*
X45732660Y-53450000D01*
X45427340Y-53450000D01*
X44975220Y-53539932D01*
X44462512Y-53882512D01*
X44310000Y-54110763D01*
X44240423Y-54006632D01*
X48936022Y-49311033D01*
X53250000Y-49311033D01*
X53250000Y-49688967D01*
X53394629Y-50038132D01*
X53661868Y-50305371D01*
X53963646Y-50430372D01*
X55375000Y-51841727D01*
X55375001Y-53209255D01*
X55250000Y-53511033D01*
X55250000Y-53888967D01*
X55394629Y-54238132D01*
X55661868Y-54505371D01*
X56011033Y-54650000D01*
X56388967Y-54650000D01*
X56738132Y-54505371D01*
X57005371Y-54238132D01*
X57150000Y-53888967D01*
X57150000Y-53716725D01*
X57169628Y-53736353D01*
X57294629Y-54038132D01*
X57561868Y-54305371D01*
X57911033Y-54450000D01*
X58288967Y-54450000D01*
X58638132Y-54305371D01*
X58905371Y-54038132D01*
X59050000Y-53688967D01*
X59050000Y-53311033D01*
X58983314Y-53150040D01*
X59569629Y-53736355D01*
X59694629Y-54038132D01*
X59961868Y-54305371D01*
X60311033Y-54450000D01*
X60688967Y-54450000D01*
X61038132Y-54305371D01*
X61305371Y-54038132D01*
X61450000Y-53688967D01*
X61450000Y-53311033D01*
X61305371Y-52961868D01*
X61038132Y-52694629D01*
X60736355Y-52569629D01*
X60173049Y-52006324D01*
X60030371Y-51661868D01*
X59763132Y-51394629D01*
X59413967Y-51250000D01*
X59036033Y-51250000D01*
X58686868Y-51394629D01*
X58419629Y-51661868D01*
X58275000Y-52011033D01*
X58275000Y-52388967D01*
X58352624Y-52576368D01*
X58336353Y-52569628D01*
X58240818Y-52474093D01*
X58240816Y-52474090D01*
X57775000Y-52008275D01*
X57775000Y-50756247D01*
X57791161Y-50675000D01*
X57775000Y-50593750D01*
X57775000Y-50593749D01*
X57727132Y-50353101D01*
X57544791Y-50080209D01*
X57520022Y-50063659D01*
X57405371Y-49786868D01*
X57138132Y-49519629D01*
X56788967Y-49375000D01*
X56411033Y-49375000D01*
X56061868Y-49519629D01*
X55794629Y-49786868D01*
X55753321Y-49886595D01*
X55130372Y-49263646D01*
X55005371Y-48961868D01*
X54854536Y-48811033D01*
X79850000Y-48811033D01*
X79850000Y-49188967D01*
X79994629Y-49538132D01*
X80261868Y-49805371D01*
X80611033Y-49950000D01*
X80988967Y-49950000D01*
X81338132Y-49805371D01*
X81605371Y-49538132D01*
X81730372Y-49236353D01*
X83175115Y-47791611D01*
X83268552Y-47931448D01*
X83581202Y-48140355D01*
X83949999Y-48213713D01*
X84600001Y-48213713D01*
X84968798Y-48140355D01*
X85243048Y-47957106D01*
X85200000Y-48061033D01*
X85200000Y-48438967D01*
X85344629Y-48788132D01*
X85611868Y-49055371D01*
X85961033Y-49200000D01*
X86338967Y-49200000D01*
X86640743Y-49075000D01*
X92458275Y-49075000D01*
X93869629Y-50486356D01*
X93994629Y-50788132D01*
X94261868Y-51055371D01*
X94611033Y-51200000D01*
X94988967Y-51200000D01*
X95338132Y-51055371D01*
X95605371Y-50788132D01*
X95750000Y-50438967D01*
X95750000Y-50061033D01*
X95605371Y-49711868D01*
X95338132Y-49444629D01*
X95036356Y-49319629D01*
X93440818Y-47724092D01*
X93394791Y-47655209D01*
X93121899Y-47472868D01*
X92881251Y-47425000D01*
X92881247Y-47425000D01*
X92800000Y-47408839D01*
X92718753Y-47425000D01*
X88593653Y-47425000D01*
X88650000Y-47288967D01*
X88650000Y-46911033D01*
X88505371Y-46561868D01*
X88238132Y-46294629D01*
X87950001Y-46175281D01*
X87721899Y-46022868D01*
X87541505Y-45986985D01*
X87540355Y-45981202D01*
X87331448Y-45668552D01*
X87018798Y-45459645D01*
X86650001Y-45386287D01*
X85999999Y-45386287D01*
X85631202Y-45459645D01*
X85318552Y-45668552D01*
X85300000Y-45696317D01*
X85281448Y-45668552D01*
X84968798Y-45459645D01*
X84600001Y-45386287D01*
X83949999Y-45386287D01*
X83581202Y-45459645D01*
X83268552Y-45668552D01*
X83065837Y-45971935D01*
X83000000Y-45958839D01*
X82918752Y-45975000D01*
X82918749Y-45975000D01*
X82678101Y-46022868D01*
X82405209Y-46205209D01*
X82359184Y-46274090D01*
X80563647Y-48069628D01*
X80261868Y-48194629D01*
X79994629Y-48461868D01*
X79850000Y-48811033D01*
X54854536Y-48811033D01*
X54738132Y-48694629D01*
X54388967Y-48550000D01*
X54011033Y-48550000D01*
X53661868Y-48694629D01*
X53394629Y-48961868D01*
X53250000Y-49311033D01*
X48936022Y-49311033D01*
X55299715Y-42947340D01*
X58250000Y-42947340D01*
X58250000Y-43852659D01*
X58339932Y-44304779D01*
X58682512Y-44817488D01*
X59195220Y-45160068D01*
X59800000Y-45280366D01*
X60404779Y-45160068D01*
X60917488Y-44817488D01*
X61260068Y-44304780D01*
X61350000Y-43852660D01*
X61350000Y-42947341D01*
X61350000Y-42947340D01*
X61750000Y-42947340D01*
X61750000Y-43852659D01*
X61839932Y-44304779D01*
X62182512Y-44817488D01*
X62695220Y-45160068D01*
X63300000Y-45280366D01*
X63904779Y-45160068D01*
X64417488Y-44817488D01*
X64760068Y-44304780D01*
X64850000Y-43852660D01*
X64850000Y-42947341D01*
X64850000Y-42947340D01*
X65250000Y-42947340D01*
X65250000Y-43852659D01*
X65339932Y-44304779D01*
X65682512Y-44817488D01*
X66195220Y-45160068D01*
X66800000Y-45280366D01*
X67404779Y-45160068D01*
X67917488Y-44817488D01*
X68260068Y-44304780D01*
X68350000Y-43852660D01*
X68350000Y-42947341D01*
X68260068Y-42495220D01*
X67917488Y-41982512D01*
X67404780Y-41639932D01*
X66800000Y-41519634D01*
X66195221Y-41639932D01*
X65682512Y-41982512D01*
X65339932Y-42495220D01*
X65250000Y-42947340D01*
X64850000Y-42947340D01*
X64760068Y-42495220D01*
X64417488Y-41982512D01*
X63904780Y-41639932D01*
X63300000Y-41519634D01*
X62695221Y-41639932D01*
X62182512Y-41982512D01*
X61839932Y-42495220D01*
X61750000Y-42947340D01*
X61350000Y-42947340D01*
X61260068Y-42495220D01*
X60917488Y-41982512D01*
X60404780Y-41639932D01*
X59800000Y-41519634D01*
X59195221Y-41639932D01*
X58682512Y-41982512D01*
X58339932Y-42495220D01*
X58250000Y-42947340D01*
X55299715Y-42947340D01*
X57147056Y-41100000D01*
X68252945Y-41100000D01*
X69100000Y-41947056D01*
X69100000Y-42106000D01*
X68839932Y-42495220D01*
X68750000Y-42947340D01*
X68750000Y-43852659D01*
X68839932Y-44304779D01*
X69182512Y-44817488D01*
X69695220Y-45160068D01*
X70300000Y-45280366D01*
X70904779Y-45160068D01*
X71417488Y-44817488D01*
X71760068Y-44304780D01*
X71850000Y-43852660D01*
X71850000Y-42947341D01*
X71850000Y-42947340D01*
X84000000Y-42947340D01*
X84000000Y-43852659D01*
X84089932Y-44304779D01*
X84432512Y-44817488D01*
X84945220Y-45160068D01*
X85550000Y-45280366D01*
X86154779Y-45160068D01*
X86667488Y-44817488D01*
X87010068Y-44304780D01*
X87100000Y-43852660D01*
X87100000Y-42947341D01*
X87010068Y-42495220D01*
X86667488Y-41982512D01*
X86154780Y-41639932D01*
X85550000Y-41519634D01*
X84945221Y-41639932D01*
X84432512Y-41982512D01*
X84089932Y-42495220D01*
X84000000Y-42947340D01*
X71850000Y-42947340D01*
X71760068Y-42495220D01*
X71500000Y-42106000D01*
X71500000Y-41568187D01*
X71523509Y-41449999D01*
X71430375Y-40981783D01*
X71394567Y-40928193D01*
X71165152Y-40584848D01*
X71064954Y-40517898D01*
X69682104Y-39135049D01*
X69615152Y-39034848D01*
X69413337Y-38900000D01*
X111834314Y-38900000D01*
X113217140Y-40282826D01*
X112775758Y-40100000D01*
X111224242Y-40100000D01*
X109790827Y-40693739D01*
X108693739Y-41790827D01*
X108100000Y-43224242D01*
X108100000Y-44775758D01*
X108693739Y-46209173D01*
X109790827Y-47306261D01*
X111224242Y-47900000D01*
X112775758Y-47900000D01*
X114209173Y-47306261D01*
X115306261Y-46209173D01*
X115900000Y-44775758D01*
X115900000Y-43224242D01*
X115717174Y-42782860D01*
X117100000Y-44165686D01*
X117100000Y-79461029D01*
X116793188Y-79400000D01*
X115906812Y-79400000D01*
X115556783Y-79469625D01*
X115159848Y-79734848D01*
X114894625Y-80131783D01*
X114801491Y-80600000D01*
X114894625Y-81068217D01*
X115159848Y-81465152D01*
X115556783Y-81730375D01*
X115906812Y-81800000D01*
X116793188Y-81800000D01*
X117100000Y-81738971D01*
X117100000Y-86461029D01*
X116793188Y-86400000D01*
X115906812Y-86400000D01*
X115556783Y-86469625D01*
X115159848Y-86734848D01*
X114894625Y-87131783D01*
X114801491Y-87600000D01*
X114894625Y-88068217D01*
X115159848Y-88465152D01*
X115556783Y-88730375D01*
X115906812Y-88800000D01*
X116793188Y-88800000D01*
X117100000Y-88738971D01*
X117100000Y-97357566D01*
X117043217Y-97319625D01*
X116693188Y-97250000D01*
X115806812Y-97250000D01*
X115456783Y-97319625D01*
X115059848Y-97584848D01*
X114794625Y-97981783D01*
X114701491Y-98450000D01*
X114794625Y-98918217D01*
X115059848Y-99315152D01*
X115456783Y-99580375D01*
X115806812Y-99650000D01*
X116693188Y-99650000D01*
X117043217Y-99580375D01*
X117100000Y-99542434D01*
X117100000Y-104357566D01*
X117043217Y-104319625D01*
X116693188Y-104250000D01*
X115806812Y-104250000D01*
X115456783Y-104319625D01*
X115059848Y-104584848D01*
X114794625Y-104981783D01*
X114701491Y-105450000D01*
X114794625Y-105918217D01*
X115059848Y-106315152D01*
X115456783Y-106580375D01*
X115806812Y-106650000D01*
X116693188Y-106650000D01*
X117043217Y-106580375D01*
X117100000Y-106542434D01*
X117100000Y-111834314D01*
X115717174Y-113217140D01*
X115900000Y-112775758D01*
X115900000Y-111224242D01*
X115306261Y-109790827D01*
X114209173Y-108693739D01*
X112775758Y-108100000D01*
X111224242Y-108100000D01*
X109790827Y-108693739D01*
X108693739Y-109790827D01*
X108100000Y-111224242D01*
X108100000Y-112775758D01*
X108693739Y-114209173D01*
X109790827Y-115306261D01*
X111224242Y-115900000D01*
X112775758Y-115900000D01*
X113217140Y-115717174D01*
X111834314Y-117100000D01*
X44165686Y-117100000D01*
X42782860Y-115717174D01*
X43224242Y-115900000D01*
X44775758Y-115900000D01*
X46209173Y-115306261D01*
X47306261Y-114209173D01*
X47787506Y-113047341D01*
X86400000Y-113047341D01*
X86400000Y-113952660D01*
X86489932Y-114404780D01*
X86832512Y-114917488D01*
X87345221Y-115260068D01*
X87950000Y-115380366D01*
X88554780Y-115260068D01*
X89067488Y-114917488D01*
X89410068Y-114404780D01*
X89500000Y-113952659D01*
X89500000Y-113047341D01*
X89900000Y-113047341D01*
X89900000Y-113952660D01*
X89989932Y-114404780D01*
X90332512Y-114917488D01*
X90845221Y-115260068D01*
X91450000Y-115380366D01*
X92054780Y-115260068D01*
X92567488Y-114917488D01*
X92910068Y-114404780D01*
X93000000Y-113952659D01*
X93000000Y-113047340D01*
X92910068Y-112595220D01*
X92567488Y-112082512D01*
X92054779Y-111739932D01*
X91450000Y-111619634D01*
X90845220Y-111739932D01*
X90332512Y-112082512D01*
X89989932Y-112595221D01*
X89900000Y-113047341D01*
X89500000Y-113047341D01*
X89500000Y-113047340D01*
X89410068Y-112595220D01*
X89067488Y-112082512D01*
X88554779Y-111739932D01*
X87950000Y-111619634D01*
X87345220Y-111739932D01*
X86832512Y-112082512D01*
X86489932Y-112595221D01*
X86400000Y-113047341D01*
X47787506Y-113047341D01*
X47900000Y-112775758D01*
X47900000Y-111224242D01*
X47521738Y-110311033D01*
X84100000Y-110311033D01*
X84100000Y-110688967D01*
X84244629Y-111038132D01*
X84511868Y-111305371D01*
X84861033Y-111450000D01*
X85238967Y-111450000D01*
X85588132Y-111305371D01*
X85855371Y-111038132D01*
X85980372Y-110736353D01*
X89641726Y-107075000D01*
X91959257Y-107075000D01*
X92261033Y-107200000D01*
X92638967Y-107200000D01*
X92988132Y-107055371D01*
X93255371Y-106788132D01*
X93400000Y-106438967D01*
X93400000Y-106061033D01*
X93255371Y-105711868D01*
X92988132Y-105444629D01*
X92638967Y-105300000D01*
X92261033Y-105300000D01*
X91959257Y-105425000D01*
X89381247Y-105425000D01*
X89300000Y-105408839D01*
X89218752Y-105425000D01*
X89218749Y-105425000D01*
X88978101Y-105472868D01*
X88705209Y-105655209D01*
X88659184Y-105724090D01*
X84813647Y-109569628D01*
X84511868Y-109694629D01*
X84244629Y-109961868D01*
X84100000Y-110311033D01*
X47521738Y-110311033D01*
X47306261Y-109790827D01*
X46209173Y-108693739D01*
X44775758Y-108100000D01*
X43224242Y-108100000D01*
X41790827Y-108693739D01*
X40693739Y-109790827D01*
X40100000Y-111224242D01*
X40100000Y-112775758D01*
X40282826Y-113217140D01*
X38900000Y-111834314D01*
X38900000Y-106681740D01*
X53900000Y-106681740D01*
X53900000Y-107318260D01*
X54143585Y-107906327D01*
X54593673Y-108356415D01*
X55181740Y-108600000D01*
X55818260Y-108600000D01*
X56406327Y-108356415D01*
X56856415Y-107906327D01*
X57100000Y-107318260D01*
X57100000Y-106681740D01*
X58900000Y-106681740D01*
X58900000Y-107318260D01*
X59143585Y-107906327D01*
X59593673Y-108356415D01*
X60181740Y-108600000D01*
X60818260Y-108600000D01*
X61406327Y-108356415D01*
X61856415Y-107906327D01*
X62100000Y-107318260D01*
X62100000Y-106681740D01*
X61856415Y-106093673D01*
X61406327Y-105643585D01*
X60818260Y-105400000D01*
X60181740Y-105400000D01*
X59593673Y-105643585D01*
X59143585Y-106093673D01*
X58900000Y-106681740D01*
X57100000Y-106681740D01*
X56856415Y-106093673D01*
X56406327Y-105643585D01*
X55818260Y-105400000D01*
X55181740Y-105400000D01*
X54593673Y-105643585D01*
X54143585Y-106093673D01*
X53900000Y-106681740D01*
X38900000Y-106681740D01*
X38900000Y-104254349D01*
X112325000Y-104254349D01*
X112325000Y-104645652D01*
X112396075Y-105002971D01*
X112666825Y-105408176D01*
X113072030Y-105678925D01*
X113550000Y-105773999D01*
X114027971Y-105678925D01*
X114433176Y-105408176D01*
X114703925Y-105002970D01*
X114775000Y-104645651D01*
X114775000Y-104254348D01*
X114703925Y-103897029D01*
X114433176Y-103491824D01*
X114027970Y-103221075D01*
X113550000Y-103126001D01*
X113072029Y-103221075D01*
X112666824Y-103491824D01*
X112396075Y-103897030D01*
X112325000Y-104254349D01*
X38900000Y-104254349D01*
X38900000Y-101750000D01*
X73339634Y-101750000D01*
X73459932Y-102354780D01*
X73802512Y-102867488D01*
X74315220Y-103210068D01*
X74767340Y-103300000D01*
X75072660Y-103300000D01*
X75524780Y-103210068D01*
X76037488Y-102867488D01*
X76190000Y-102639237D01*
X76342512Y-102867488D01*
X76855220Y-103210068D01*
X77307340Y-103300000D01*
X77612660Y-103300000D01*
X78064780Y-103210068D01*
X78577488Y-102867488D01*
X78730000Y-102639237D01*
X78882512Y-102867488D01*
X79395220Y-103210068D01*
X79847340Y-103300000D01*
X80152660Y-103300000D01*
X80604780Y-103210068D01*
X81117488Y-102867488D01*
X81270000Y-102639237D01*
X81422512Y-102867488D01*
X81935220Y-103210068D01*
X82387340Y-103300000D01*
X82692660Y-103300000D01*
X83144780Y-103210068D01*
X83657488Y-102867488D01*
X83810000Y-102639237D01*
X83962512Y-102867488D01*
X84475220Y-103210068D01*
X84927340Y-103300000D01*
X85232660Y-103300000D01*
X85684780Y-103210068D01*
X86197488Y-102867488D01*
X86350000Y-102639237D01*
X86502512Y-102867488D01*
X87015220Y-103210068D01*
X87467340Y-103300000D01*
X87772660Y-103300000D01*
X88224780Y-103210068D01*
X88737488Y-102867488D01*
X88890000Y-102639237D01*
X89042512Y-102867488D01*
X89555220Y-103210068D01*
X90007340Y-103300000D01*
X90312660Y-103300000D01*
X90764780Y-103210068D01*
X91214825Y-102909358D01*
X91345329Y-103104671D01*
X91576874Y-103259385D01*
X91850000Y-103313713D01*
X93550000Y-103313713D01*
X93823126Y-103259385D01*
X94054671Y-103104671D01*
X94209385Y-102873126D01*
X94263713Y-102600000D01*
X94263713Y-100900000D01*
X94209385Y-100626874D01*
X94054671Y-100395329D01*
X93986831Y-100349999D01*
X100286287Y-100349999D01*
X100286287Y-101000001D01*
X100359645Y-101368798D01*
X100568552Y-101681448D01*
X100881202Y-101890355D01*
X101249999Y-101963713D01*
X102150001Y-101963713D01*
X102518798Y-101890355D01*
X102831448Y-101681448D01*
X102886835Y-101598556D01*
X103011033Y-101650000D01*
X103388967Y-101650000D01*
X103738132Y-101505371D01*
X104005371Y-101238132D01*
X104150000Y-100888967D01*
X104150000Y-100511033D01*
X104005371Y-100161868D01*
X103738132Y-99894629D01*
X103388967Y-99750000D01*
X103011033Y-99750000D01*
X102913002Y-99790606D01*
X102831448Y-99668552D01*
X102518798Y-99459645D01*
X102150001Y-99386287D01*
X101249999Y-99386287D01*
X100881202Y-99459645D01*
X100568552Y-99668552D01*
X100359645Y-99981202D01*
X100286287Y-100349999D01*
X93986831Y-100349999D01*
X93823126Y-100240615D01*
X93550000Y-100186287D01*
X91850000Y-100186287D01*
X91576874Y-100240615D01*
X91345329Y-100395329D01*
X91214825Y-100590642D01*
X90764780Y-100289932D01*
X90312660Y-100200000D01*
X90007340Y-100200000D01*
X89555220Y-100289932D01*
X89042512Y-100632512D01*
X88890000Y-100860763D01*
X88737488Y-100632512D01*
X88224780Y-100289932D01*
X87772660Y-100200000D01*
X87467340Y-100200000D01*
X87015220Y-100289932D01*
X86502512Y-100632512D01*
X86350000Y-100860763D01*
X86197488Y-100632512D01*
X85684780Y-100289932D01*
X85232660Y-100200000D01*
X84927340Y-100200000D01*
X84475220Y-100289932D01*
X83962512Y-100632512D01*
X83810000Y-100860763D01*
X83657488Y-100632512D01*
X83144780Y-100289932D01*
X82692660Y-100200000D01*
X82387340Y-100200000D01*
X81935220Y-100289932D01*
X81422512Y-100632512D01*
X81270000Y-100860763D01*
X81117488Y-100632512D01*
X80604780Y-100289932D01*
X80152660Y-100200000D01*
X79847340Y-100200000D01*
X79395220Y-100289932D01*
X78882512Y-100632512D01*
X78730000Y-100860763D01*
X78577488Y-100632512D01*
X78064780Y-100289932D01*
X77612660Y-100200000D01*
X77307340Y-100200000D01*
X76855220Y-100289932D01*
X76342512Y-100632512D01*
X76190000Y-100860763D01*
X76037488Y-100632512D01*
X75524780Y-100289932D01*
X75072660Y-100200000D01*
X74767340Y-100200000D01*
X74315220Y-100289932D01*
X73802512Y-100632512D01*
X73459932Y-101145220D01*
X73339634Y-101750000D01*
X38900000Y-101750000D01*
X38900000Y-99254349D01*
X112325000Y-99254349D01*
X112325000Y-99645652D01*
X112396075Y-100002971D01*
X112666825Y-100408176D01*
X113072030Y-100678925D01*
X113550000Y-100773999D01*
X114027971Y-100678925D01*
X114433176Y-100408176D01*
X114703925Y-100002970D01*
X114775000Y-99645651D01*
X114775000Y-99254348D01*
X114703925Y-98897029D01*
X114433176Y-98491824D01*
X114027970Y-98221075D01*
X113550000Y-98126001D01*
X113072029Y-98221075D01*
X112666824Y-98491824D01*
X112396075Y-98897030D01*
X112325000Y-99254349D01*
X38900000Y-99254349D01*
X38900000Y-96071795D01*
X43810000Y-96071795D01*
X43810000Y-96728205D01*
X44061198Y-97334650D01*
X44525350Y-97798802D01*
X45131795Y-98050000D01*
X45788205Y-98050000D01*
X46394650Y-97798802D01*
X46730000Y-97463452D01*
X47065350Y-97798802D01*
X47671795Y-98050000D01*
X48328205Y-98050000D01*
X48934650Y-97798802D01*
X49398802Y-97334650D01*
X49650000Y-96728205D01*
X49650000Y-96071795D01*
X49398802Y-95465350D01*
X48934650Y-95001198D01*
X48328205Y-94750000D01*
X48276725Y-94750000D01*
X52761726Y-90265000D01*
X56055779Y-90265000D01*
X56101198Y-90374650D01*
X56565350Y-90838802D01*
X57171795Y-91090000D01*
X57828205Y-91090000D01*
X58434650Y-90838802D01*
X58898802Y-90374650D01*
X58944221Y-90265000D01*
X64628753Y-90265000D01*
X64710000Y-90281161D01*
X64791247Y-90265000D01*
X64791251Y-90265000D01*
X65031899Y-90217132D01*
X65304791Y-90034791D01*
X65350818Y-89965907D01*
X67324116Y-87992609D01*
X73900000Y-87992609D01*
X73900000Y-88370543D01*
X74025000Y-88672320D01*
X74025001Y-94109254D01*
X73900000Y-94411033D01*
X73900000Y-94788967D01*
X74044629Y-95138132D01*
X74311868Y-95405371D01*
X74661033Y-95550000D01*
X75038967Y-95550000D01*
X75388132Y-95405371D01*
X75655371Y-95138132D01*
X75800000Y-94788967D01*
X75800000Y-94411033D01*
X75675000Y-94109257D01*
X75675000Y-88672319D01*
X75718372Y-88567609D01*
X75843424Y-88567609D01*
X75843424Y-88945543D01*
X75988053Y-89294708D01*
X76255292Y-89561947D01*
X76604457Y-89706576D01*
X76982391Y-89706576D01*
X77284167Y-89581576D01*
X77450718Y-89581576D01*
X76574093Y-90458202D01*
X76505209Y-90504229D01*
X76322868Y-90777122D01*
X76275000Y-91017770D01*
X76275000Y-91017773D01*
X76258839Y-91099020D01*
X76275000Y-91180268D01*
X76275001Y-93084286D01*
X76150000Y-93386065D01*
X76150000Y-93763999D01*
X76294629Y-94113164D01*
X76561868Y-94380403D01*
X76911033Y-94525032D01*
X77288967Y-94525032D01*
X77638132Y-94380403D01*
X77905371Y-94113164D01*
X78050000Y-93763999D01*
X78050000Y-93386065D01*
X77925000Y-93084289D01*
X77925000Y-91440745D01*
X78446174Y-90919572D01*
X78761055Y-91050000D01*
X79138989Y-91050000D01*
X79380487Y-90949968D01*
X81909257Y-90949968D01*
X82211033Y-91074968D01*
X82588967Y-91074968D01*
X82925001Y-90935778D01*
X82925001Y-92627265D01*
X82797096Y-92936054D01*
X82797096Y-93313988D01*
X82941725Y-93663153D01*
X83208964Y-93930392D01*
X83558129Y-94075021D01*
X83936063Y-94075021D01*
X84285228Y-93930392D01*
X84552467Y-93663153D01*
X84575685Y-93607101D01*
X84881613Y-93480381D01*
X85148852Y-93213142D01*
X85293481Y-92863977D01*
X85293481Y-92486043D01*
X85293465Y-92486005D01*
X85488132Y-92405371D01*
X85755371Y-92138132D01*
X85900000Y-91788967D01*
X85900000Y-91411033D01*
X85775000Y-91109257D01*
X85775000Y-88990743D01*
X85900000Y-88688967D01*
X85900000Y-88311033D01*
X85755371Y-87961868D01*
X85488132Y-87694629D01*
X85138967Y-87550000D01*
X84761033Y-87550000D01*
X84411868Y-87694629D01*
X84325000Y-87781497D01*
X84288132Y-87744629D01*
X83938967Y-87600000D01*
X83561033Y-87600000D01*
X83211868Y-87744629D01*
X82944629Y-88011868D01*
X82800000Y-88361033D01*
X82800000Y-88738967D01*
X82925000Y-89040744D01*
X82925000Y-89314158D01*
X82588967Y-89174968D01*
X82211033Y-89174968D01*
X81909257Y-89299968D01*
X81673999Y-89299968D01*
X81776563Y-89052356D01*
X81776563Y-88674422D01*
X81631934Y-88325257D01*
X81364695Y-88058018D01*
X81203661Y-87991315D01*
X81136958Y-87830281D01*
X80869719Y-87563042D01*
X80520554Y-87418413D01*
X80142620Y-87418413D01*
X79793455Y-87563042D01*
X79526216Y-87830281D01*
X79484258Y-87931576D01*
X77284167Y-87931576D01*
X76982391Y-87806576D01*
X76604457Y-87806576D01*
X76255292Y-87951205D01*
X75988053Y-88218444D01*
X75843424Y-88567609D01*
X75718372Y-88567609D01*
X75800000Y-88370543D01*
X75800000Y-87992609D01*
X75655371Y-87643444D01*
X75388132Y-87376205D01*
X75038967Y-87231576D01*
X74661033Y-87231576D01*
X74311868Y-87376205D01*
X74044629Y-87643444D01*
X73900000Y-87992609D01*
X67324116Y-87992609D01*
X69141726Y-86175000D01*
X76468753Y-86175000D01*
X76550000Y-86191161D01*
X76631247Y-86175000D01*
X76631251Y-86175000D01*
X76871899Y-86127132D01*
X77144791Y-85944791D01*
X77190818Y-85875907D01*
X78450000Y-84616726D01*
X78536287Y-84703013D01*
X78536287Y-85050001D01*
X78609645Y-85418798D01*
X78818552Y-85731448D01*
X79131202Y-85940355D01*
X79400000Y-85993822D01*
X79400000Y-86038967D01*
X79544629Y-86388132D01*
X79811868Y-86655371D01*
X80161033Y-86800000D01*
X80538967Y-86800000D01*
X80840743Y-86675000D01*
X86359257Y-86675000D01*
X86661033Y-86800000D01*
X87038967Y-86800000D01*
X87388132Y-86655371D01*
X87655371Y-86388132D01*
X87800000Y-86038967D01*
X87800000Y-85661033D01*
X87753503Y-85548780D01*
X87840355Y-85418798D01*
X87913713Y-85050001D01*
X87913713Y-84199999D01*
X89358840Y-84199999D01*
X89375001Y-84281247D01*
X89375002Y-88294763D01*
X89358840Y-88376015D01*
X89422869Y-88697913D01*
X89554107Y-88894323D01*
X89605211Y-88970806D01*
X89625000Y-88984029D01*
X89625001Y-91359235D01*
X89499992Y-91661033D01*
X89499992Y-92038967D01*
X89644621Y-92388132D01*
X89911860Y-92655371D01*
X90189205Y-92770251D01*
X90219621Y-92843681D01*
X90486860Y-93110920D01*
X90836025Y-93255549D01*
X91213959Y-93255549D01*
X91563124Y-93110920D01*
X91830363Y-92843681D01*
X91875262Y-92735285D01*
X92138132Y-92626401D01*
X92405371Y-92359162D01*
X92550000Y-92009997D01*
X92550000Y-91632063D01*
X92425000Y-91330287D01*
X92425000Y-85040743D01*
X92527863Y-84792412D01*
X93059242Y-84261033D01*
X109700000Y-84261033D01*
X109700000Y-84638967D01*
X109844629Y-84988132D01*
X110111868Y-85255371D01*
X110413646Y-85380372D01*
X110750000Y-85716726D01*
X110750000Y-85738967D01*
X110894629Y-86088132D01*
X111161868Y-86355371D01*
X111511033Y-86500000D01*
X111888967Y-86500000D01*
X112238132Y-86355371D01*
X112483561Y-86109942D01*
X112425000Y-86404349D01*
X112425000Y-86795652D01*
X112496075Y-87152971D01*
X112766825Y-87558176D01*
X113172030Y-87828925D01*
X113650000Y-87923999D01*
X114127971Y-87828925D01*
X114533176Y-87558176D01*
X114803925Y-87152970D01*
X114875000Y-86795651D01*
X114875000Y-86404348D01*
X114803925Y-86047029D01*
X114533176Y-85641824D01*
X114127970Y-85371075D01*
X113650000Y-85276001D01*
X113172029Y-85371075D01*
X112766824Y-85641824D01*
X112565326Y-85943389D01*
X112650000Y-85738967D01*
X112650000Y-85361033D01*
X112505371Y-85011868D01*
X112238132Y-84744629D01*
X112021711Y-84654984D01*
X111580372Y-84213646D01*
X111455371Y-83911868D01*
X111188132Y-83644629D01*
X110838967Y-83500000D01*
X110461033Y-83500000D01*
X110111868Y-83644629D01*
X109844629Y-83911868D01*
X109700000Y-84261033D01*
X93059242Y-84261033D01*
X95915926Y-81404349D01*
X112425000Y-81404349D01*
X112425000Y-81795652D01*
X112496075Y-82152971D01*
X112766825Y-82558176D01*
X113172030Y-82828925D01*
X113650000Y-82923999D01*
X114127971Y-82828925D01*
X114533176Y-82558176D01*
X114803925Y-82152970D01*
X114875000Y-81795651D01*
X114875000Y-81404348D01*
X114803925Y-81047029D01*
X114533176Y-80641824D01*
X114127970Y-80371075D01*
X113650000Y-80276001D01*
X113172029Y-80371075D01*
X112766824Y-80641824D01*
X112496075Y-81047030D01*
X112425000Y-81404349D01*
X95915926Y-81404349D01*
X99498481Y-77821795D01*
X99538132Y-77805371D01*
X99805371Y-77538132D01*
X99950000Y-77188967D01*
X99950000Y-76811033D01*
X99805371Y-76461868D01*
X99538132Y-76194629D01*
X99456082Y-76160643D01*
X99836354Y-75780372D01*
X100138132Y-75655371D01*
X100405371Y-75388132D01*
X100550000Y-75038967D01*
X100550000Y-74661033D01*
X100405371Y-74311868D01*
X100138132Y-74044629D01*
X99788967Y-73900000D01*
X99411033Y-73900000D01*
X99061868Y-74044629D01*
X98794629Y-74311868D01*
X98725000Y-74479967D01*
X98725000Y-74440743D01*
X98850000Y-74138967D01*
X98850000Y-73761033D01*
X98705371Y-73411868D01*
X98561287Y-73267784D01*
X98625000Y-73113967D01*
X98625000Y-72736033D01*
X98480371Y-72386868D01*
X98213132Y-72119629D01*
X97863967Y-71975000D01*
X97486033Y-71975000D01*
X97136868Y-72119629D01*
X96869629Y-72386868D01*
X96744628Y-72688646D01*
X96624090Y-72809185D01*
X96555210Y-72855209D01*
X96509185Y-72924090D01*
X96509184Y-72924091D01*
X96372868Y-73128102D01*
X96308839Y-73450000D01*
X96325001Y-73531252D01*
X96325000Y-76545100D01*
X92107060Y-80763041D01*
X91805281Y-80888042D01*
X91538042Y-81155281D01*
X91393413Y-81504446D01*
X91393413Y-81882380D01*
X91512762Y-82170513D01*
X91505653Y-82177622D01*
X91438967Y-82150000D01*
X91061033Y-82150000D01*
X90711868Y-82294629D01*
X90444629Y-82561868D01*
X90300000Y-82911033D01*
X90300000Y-83000000D01*
X90261033Y-83000000D01*
X89911868Y-83144629D01*
X89644629Y-83411868D01*
X89500000Y-83761033D01*
X89500000Y-83762666D01*
X89422869Y-83878101D01*
X89375001Y-84118749D01*
X89375001Y-84118752D01*
X89358840Y-84199999D01*
X87913713Y-84199999D01*
X87913713Y-84149999D01*
X87840355Y-83781202D01*
X87631448Y-83468552D01*
X87318798Y-83259645D01*
X86950001Y-83186287D01*
X86299999Y-83186287D01*
X85931202Y-83259645D01*
X85618552Y-83468552D01*
X85409645Y-83781202D01*
X85336287Y-84149999D01*
X85336287Y-85025000D01*
X81171271Y-85025000D01*
X81127132Y-84803101D01*
X81113713Y-84783018D01*
X81113713Y-84149999D01*
X81040355Y-83781202D01*
X80831448Y-83468552D01*
X80654023Y-83350000D01*
X80831448Y-83231448D01*
X81040355Y-82918798D01*
X81113713Y-82550001D01*
X81113713Y-81649999D01*
X81040355Y-81281202D01*
X80831448Y-80968552D01*
X80650000Y-80847312D01*
X80650000Y-80825000D01*
X84343753Y-80825000D01*
X84425000Y-80841161D01*
X84506247Y-80825000D01*
X84506251Y-80825000D01*
X84746899Y-80777132D01*
X85019791Y-80594791D01*
X85065818Y-80525907D01*
X86378013Y-79213713D01*
X86950001Y-79213713D01*
X87318798Y-79140355D01*
X87631448Y-78931448D01*
X87840355Y-78618798D01*
X87883876Y-78400000D01*
X87938967Y-78400000D01*
X88288132Y-78255371D01*
X88555371Y-77988132D01*
X88700000Y-77638967D01*
X88700000Y-77261033D01*
X88555371Y-76911868D01*
X88288132Y-76644629D01*
X87938967Y-76500000D01*
X87561033Y-76500000D01*
X87448780Y-76546497D01*
X87318798Y-76459645D01*
X86950001Y-76386287D01*
X86299999Y-76386287D01*
X85931202Y-76459645D01*
X85618552Y-76668552D01*
X85409645Y-76981202D01*
X85336287Y-77349999D01*
X85336287Y-77921987D01*
X84083275Y-79175000D01*
X80650000Y-79175000D01*
X80650000Y-79052688D01*
X80831448Y-78931448D01*
X81040355Y-78618798D01*
X81113713Y-78250001D01*
X81113713Y-77349999D01*
X81040355Y-76981202D01*
X80831448Y-76668552D01*
X80518798Y-76459645D01*
X80300000Y-76416124D01*
X80300000Y-76361033D01*
X80155371Y-76011868D01*
X79888132Y-75744629D01*
X79586355Y-75619629D01*
X72175000Y-68208275D01*
X72175000Y-66586027D01*
X87825000Y-66586027D01*
X87825000Y-66963961D01*
X87969629Y-67313126D01*
X88236868Y-67580365D01*
X88538637Y-67705362D01*
X91001223Y-70167948D01*
X91126223Y-70469726D01*
X91393462Y-70736965D01*
X91742627Y-70881594D01*
X92120561Y-70881594D01*
X92469726Y-70736965D01*
X92736965Y-70469726D01*
X92837466Y-70227095D01*
X93080097Y-70126594D01*
X93347336Y-69859355D01*
X93491965Y-69510190D01*
X93491965Y-69132256D01*
X93347336Y-68783091D01*
X93080097Y-68515852D01*
X92778319Y-68390852D01*
X90709156Y-66321689D01*
X90584155Y-66019910D01*
X90316916Y-65752671D01*
X89967751Y-65608042D01*
X89589817Y-65608042D01*
X89240652Y-65752671D01*
X89108473Y-65884850D01*
X88963967Y-65824994D01*
X88586033Y-65824994D01*
X88236868Y-65969623D01*
X87969629Y-66236862D01*
X87825000Y-66586027D01*
X72175000Y-66586027D01*
X72175000Y-65109924D01*
X72240147Y-65044777D01*
X72400000Y-64658858D01*
X72400000Y-64241142D01*
X72240147Y-63855223D01*
X71944777Y-63559853D01*
X71558858Y-63400000D01*
X71141142Y-63400000D01*
X70755223Y-63559853D01*
X70459853Y-63855223D01*
X70300000Y-64241142D01*
X70300000Y-64658858D01*
X70459853Y-65044777D01*
X70525000Y-65109924D01*
X70525001Y-68468748D01*
X70508839Y-68550000D01*
X70572868Y-68871898D01*
X70658012Y-68999324D01*
X70755210Y-69144791D01*
X70824091Y-69190816D01*
X78170694Y-76537420D01*
X78025317Y-76597637D01*
X77818798Y-76459645D01*
X77450001Y-76386287D01*
X76799999Y-76386287D01*
X76431202Y-76459645D01*
X76118552Y-76668552D01*
X75909645Y-76981202D01*
X75836287Y-77349999D01*
X75836287Y-78250001D01*
X75909645Y-78618798D01*
X76118552Y-78931448D01*
X76431202Y-79140355D01*
X76799999Y-79213713D01*
X77450001Y-79213713D01*
X77818798Y-79140355D01*
X78131448Y-78931448D01*
X78340355Y-78618798D01*
X78383876Y-78400000D01*
X78566124Y-78400000D01*
X78609645Y-78618798D01*
X78818552Y-78931448D01*
X79000000Y-79052689D01*
X79000000Y-79918748D01*
X78983838Y-80000000D01*
X79000001Y-80081256D01*
X79000001Y-80847311D01*
X78818552Y-80968552D01*
X78609645Y-81281202D01*
X78536287Y-81649999D01*
X78536287Y-82221987D01*
X78256324Y-82501951D01*
X77911868Y-82644629D01*
X77644629Y-82911868D01*
X77519628Y-83213646D01*
X76208275Y-84525000D01*
X68881245Y-84525000D01*
X68799999Y-84508839D01*
X68718753Y-84525000D01*
X68718749Y-84525000D01*
X68478101Y-84572868D01*
X68205209Y-84755209D01*
X68159184Y-84824090D01*
X64368275Y-88615000D01*
X58944221Y-88615000D01*
X58898802Y-88505350D01*
X58563452Y-88170000D01*
X58898802Y-87834650D01*
X59150000Y-87228205D01*
X59150000Y-86571795D01*
X58898802Y-85965350D01*
X58434650Y-85501198D01*
X57828205Y-85250000D01*
X57171795Y-85250000D01*
X56565350Y-85501198D01*
X56101198Y-85965350D01*
X55850000Y-86571795D01*
X55850000Y-87228205D01*
X56101198Y-87834650D01*
X56436548Y-88170000D01*
X56101198Y-88505350D01*
X56055779Y-88615000D01*
X52501245Y-88615000D01*
X52419999Y-88598839D01*
X52338753Y-88615000D01*
X52338749Y-88615000D01*
X52098101Y-88662868D01*
X51825209Y-88845209D01*
X51779184Y-88914090D01*
X45897856Y-94795419D01*
X45788205Y-94750000D01*
X45131795Y-94750000D01*
X44525350Y-95001198D01*
X44061198Y-95465350D01*
X43810000Y-96071795D01*
X38900000Y-96071795D01*
X38900000Y-78401631D01*
X43200000Y-78401631D01*
X43200000Y-78998369D01*
X43428361Y-79549682D01*
X43850318Y-79971639D01*
X44401631Y-80200000D01*
X44998369Y-80200000D01*
X45549682Y-79971639D01*
X45971639Y-79549682D01*
X46200000Y-78998369D01*
X46200000Y-78401631D01*
X50050000Y-78401631D01*
X50050000Y-78998369D01*
X50278361Y-79549682D01*
X50700318Y-79971639D01*
X51251631Y-80200000D01*
X51848369Y-80200000D01*
X52399682Y-79971639D01*
X52821639Y-79549682D01*
X53050000Y-78998369D01*
X53050000Y-78401631D01*
X52821639Y-77850318D01*
X52399682Y-77428361D01*
X51848369Y-77200000D01*
X51251631Y-77200000D01*
X50700318Y-77428361D01*
X50278361Y-77850318D01*
X50050000Y-78401631D01*
X46200000Y-78401631D01*
X45971639Y-77850318D01*
X45549682Y-77428361D01*
X44998369Y-77200000D01*
X44401631Y-77200000D01*
X43850318Y-77428361D01*
X43428361Y-77850318D01*
X43200000Y-78401631D01*
X38900000Y-78401631D01*
X38900000Y-71511033D01*
X65100000Y-71511033D01*
X65100000Y-71888967D01*
X65225001Y-72190746D01*
X65225000Y-75809256D01*
X65100000Y-76111033D01*
X65100000Y-76488967D01*
X65244629Y-76838132D01*
X65511868Y-77105371D01*
X65861033Y-77250000D01*
X66238967Y-77250000D01*
X66588132Y-77105371D01*
X66855371Y-76838132D01*
X67000000Y-76488967D01*
X67000000Y-76111033D01*
X66875000Y-75809257D01*
X66875000Y-73261033D01*
X67000000Y-73261033D01*
X67000000Y-73638967D01*
X67125001Y-73940746D01*
X67125000Y-78491574D01*
X67108839Y-78572822D01*
X67125000Y-78654069D01*
X67125000Y-78654072D01*
X67172868Y-78894720D01*
X67355209Y-79167613D01*
X67424093Y-79213640D01*
X70986373Y-82775921D01*
X71032398Y-82844802D01*
X71101279Y-82890827D01*
X71150924Y-82923999D01*
X71305290Y-83027143D01*
X71545938Y-83075011D01*
X71545941Y-83075011D01*
X71627189Y-83091172D01*
X71708436Y-83075011D01*
X75009257Y-83075011D01*
X75311033Y-83200011D01*
X75688967Y-83200011D01*
X76038132Y-83055382D01*
X76305371Y-82788143D01*
X76427840Y-82492477D01*
X76638132Y-82405371D01*
X76905371Y-82138132D01*
X77050000Y-81788967D01*
X77050000Y-81411033D01*
X76905371Y-81061868D01*
X76638132Y-80794629D01*
X76352834Y-80676455D01*
X76305371Y-80561868D01*
X76038132Y-80294629D01*
X75688967Y-80150000D01*
X75311033Y-80150000D01*
X75009257Y-80275000D01*
X72091726Y-80275000D01*
X70025000Y-78208275D01*
X70025000Y-73940743D01*
X70150000Y-73638967D01*
X70150000Y-73261033D01*
X70005371Y-72911868D01*
X69738132Y-72644629D01*
X69388967Y-72500000D01*
X69011033Y-72500000D01*
X68661868Y-72644629D01*
X68575000Y-72731497D01*
X68488132Y-72644629D01*
X68138967Y-72500000D01*
X67761033Y-72500000D01*
X67411868Y-72644629D01*
X67144629Y-72911868D01*
X67000000Y-73261033D01*
X66875000Y-73261033D01*
X66875000Y-72190743D01*
X67000000Y-71888967D01*
X67000000Y-71511033D01*
X66855371Y-71161868D01*
X66588132Y-70894629D01*
X66238967Y-70750000D01*
X65861033Y-70750000D01*
X65511868Y-70894629D01*
X65244629Y-71161868D01*
X65100000Y-71511033D01*
X38900000Y-71511033D01*
X38900000Y-61550000D01*
X73339634Y-61550000D01*
X73459932Y-62154780D01*
X73802512Y-62667488D01*
X74315220Y-63010068D01*
X74767340Y-63100000D01*
X75072660Y-63100000D01*
X75524780Y-63010068D01*
X76037488Y-62667488D01*
X76190000Y-62439237D01*
X76342512Y-62667488D01*
X76855220Y-63010068D01*
X77307340Y-63100000D01*
X77612660Y-63100000D01*
X78064780Y-63010068D01*
X78577488Y-62667488D01*
X78730000Y-62439237D01*
X78882512Y-62667488D01*
X79395220Y-63010068D01*
X79847340Y-63100000D01*
X80152660Y-63100000D01*
X80604780Y-63010068D01*
X81117488Y-62667488D01*
X81270000Y-62439237D01*
X81422512Y-62667488D01*
X81935220Y-63010068D01*
X82387340Y-63100000D01*
X82692660Y-63100000D01*
X83144780Y-63010068D01*
X83657488Y-62667488D01*
X83810000Y-62439237D01*
X83962512Y-62667488D01*
X84255000Y-62862922D01*
X84255001Y-64247184D01*
X84125000Y-64561033D01*
X84125000Y-64938967D01*
X84269629Y-65288132D01*
X84536868Y-65555371D01*
X84886033Y-65700000D01*
X85263967Y-65700000D01*
X85475000Y-65612587D01*
X85686033Y-65700000D01*
X86063967Y-65700000D01*
X86413132Y-65555371D01*
X86680371Y-65288132D01*
X86805372Y-64986353D01*
X88145910Y-63645816D01*
X88214791Y-63599791D01*
X88397132Y-63326899D01*
X88445000Y-63086251D01*
X88445000Y-63086248D01*
X88461161Y-63005000D01*
X88445000Y-62923753D01*
X88445000Y-62862922D01*
X88737488Y-62667488D01*
X89080068Y-62154780D01*
X89200366Y-61550000D01*
X89080068Y-60945220D01*
X88916218Y-60700000D01*
X91136287Y-60700000D01*
X91136287Y-62400000D01*
X91190615Y-62673126D01*
X91345329Y-62904671D01*
X91576874Y-63059385D01*
X91850000Y-63113713D01*
X93550000Y-63113713D01*
X93823126Y-63059385D01*
X94054671Y-62904671D01*
X94209385Y-62673126D01*
X94263713Y-62400000D01*
X94263713Y-61153012D01*
X96241726Y-59175000D01*
X110365000Y-59175000D01*
X110365001Y-67391496D01*
X110344629Y-67411868D01*
X110200000Y-67761033D01*
X110200000Y-68138967D01*
X110344629Y-68488132D01*
X110611868Y-68755371D01*
X110961033Y-68900000D01*
X111338967Y-68900000D01*
X111688132Y-68755371D01*
X111955371Y-68488132D01*
X112100000Y-68138967D01*
X112100000Y-67761033D01*
X112015000Y-67555825D01*
X112015000Y-58691725D01*
X113654988Y-57051739D01*
X113847340Y-57090000D01*
X114152660Y-57090000D01*
X114604780Y-57000068D01*
X115117488Y-56657488D01*
X115460068Y-56144780D01*
X115580366Y-55540000D01*
X115460068Y-54935220D01*
X115159358Y-54485175D01*
X115354671Y-54354671D01*
X115509385Y-54123126D01*
X115563713Y-53850000D01*
X115563713Y-52150000D01*
X115509385Y-51876874D01*
X115354671Y-51645329D01*
X115123126Y-51490615D01*
X114850000Y-51436287D01*
X113150000Y-51436287D01*
X112876874Y-51490615D01*
X112645329Y-51645329D01*
X112514825Y-51840642D01*
X112064780Y-51539932D01*
X111612660Y-51450000D01*
X111307340Y-51450000D01*
X110855220Y-51539932D01*
X110342512Y-51882512D01*
X110190000Y-52110763D01*
X110037488Y-51882512D01*
X109524780Y-51539932D01*
X109072660Y-51450000D01*
X108767340Y-51450000D01*
X108315220Y-51539932D01*
X107802512Y-51882512D01*
X107650000Y-52110763D01*
X107497488Y-51882512D01*
X106984780Y-51539932D01*
X106532660Y-51450000D01*
X106227340Y-51450000D01*
X105775220Y-51539932D01*
X105262512Y-51882512D01*
X104919932Y-52395220D01*
X104799634Y-53000000D01*
X104919932Y-53604780D01*
X105262512Y-54117488D01*
X105490763Y-54270000D01*
X105262512Y-54422512D01*
X104919932Y-54935220D01*
X104799634Y-55540000D01*
X104919932Y-56144780D01*
X105262512Y-56657488D01*
X105775220Y-57000068D01*
X106227340Y-57090000D01*
X106532660Y-57090000D01*
X106984780Y-57000068D01*
X107497488Y-56657488D01*
X107840068Y-56144780D01*
X107960366Y-55540000D01*
X107840068Y-54935220D01*
X107497488Y-54422512D01*
X107269237Y-54270000D01*
X107497488Y-54117488D01*
X107650000Y-53889237D01*
X107802512Y-54117488D01*
X108315220Y-54460068D01*
X108767340Y-54550000D01*
X109072660Y-54550000D01*
X109524780Y-54460068D01*
X110037488Y-54117488D01*
X110190000Y-53889237D01*
X110342512Y-54117488D01*
X110570763Y-54270000D01*
X110342512Y-54422512D01*
X109999932Y-54935220D01*
X109879634Y-55540000D01*
X109999932Y-56144780D01*
X110342512Y-56657488D01*
X110855220Y-57000068D01*
X111287267Y-57086007D01*
X110848275Y-57525000D01*
X95981245Y-57525000D01*
X95899999Y-57508839D01*
X95818753Y-57525000D01*
X95818749Y-57525000D01*
X95578101Y-57572868D01*
X95305209Y-57755209D01*
X95259184Y-57824090D01*
X93096988Y-59986287D01*
X91850000Y-59986287D01*
X91576874Y-60040615D01*
X91345329Y-60195329D01*
X91190615Y-60426874D01*
X91136287Y-60700000D01*
X88916218Y-60700000D01*
X88737488Y-60432512D01*
X88224780Y-60089932D01*
X87772660Y-60000000D01*
X87467340Y-60000000D01*
X87015220Y-60089932D01*
X86502512Y-60432512D01*
X86350000Y-60660763D01*
X86197488Y-60432512D01*
X85684780Y-60089932D01*
X85232660Y-60000000D01*
X84927340Y-60000000D01*
X84475220Y-60089932D01*
X83962512Y-60432512D01*
X83810000Y-60660763D01*
X83657488Y-60432512D01*
X83144780Y-60089932D01*
X82692660Y-60000000D01*
X82387340Y-60000000D01*
X81935220Y-60089932D01*
X81422512Y-60432512D01*
X81270000Y-60660763D01*
X81117488Y-60432512D01*
X80604780Y-60089932D01*
X80152660Y-60000000D01*
X79847340Y-60000000D01*
X79395220Y-60089932D01*
X78882512Y-60432512D01*
X78730000Y-60660763D01*
X78577488Y-60432512D01*
X78064780Y-60089932D01*
X77612660Y-60000000D01*
X77307340Y-60000000D01*
X76855220Y-60089932D01*
X76342512Y-60432512D01*
X76190000Y-60660763D01*
X76037488Y-60432512D01*
X75524780Y-60089932D01*
X75072660Y-60000000D01*
X74767340Y-60000000D01*
X74315220Y-60089932D01*
X73802512Y-60432512D01*
X73459932Y-60945220D01*
X73339634Y-61550000D01*
X38900000Y-61550000D01*
X38900000Y-44165686D01*
X40282826Y-42782860D01*
X40100000Y-43224242D01*
X40100000Y-44775758D01*
X40693739Y-46209173D01*
X41790827Y-47306261D01*
X43224242Y-47900000D01*
X44775758Y-47900000D01*
X46209173Y-47306261D01*
X47306261Y-46209173D01*
X47900000Y-44775758D01*
X47900000Y-43224242D01*
X47306261Y-41790827D01*
X46209173Y-40693739D01*
X44775758Y-40100000D01*
X43224242Y-40100000D01*
X42782860Y-40282826D01*
X44165686Y-38900000D01*
X55986663Y-38900000D01*
X55784848Y-39034848D01*
X55784848Y-39034848D01*
G37*
X55784848Y-39034848D02*
X55717898Y-39135046D01*
X42275047Y-52577898D01*
X42174849Y-52644848D01*
X42007951Y-52894629D01*
X41909625Y-53041784D01*
X41816491Y-53510000D01*
X41840000Y-53628188D01*
X41840000Y-54006000D01*
X41579932Y-54395220D01*
X41459634Y-55000000D01*
X41579932Y-55604780D01*
X41922512Y-56117488D01*
X42435220Y-56460068D01*
X42887340Y-56550000D01*
X43192660Y-56550000D01*
X43385013Y-56511739D01*
X44049184Y-57175910D01*
X44095209Y-57244791D01*
X44368101Y-57427132D01*
X44608749Y-57475000D01*
X44608752Y-57475000D01*
X44689999Y-57491161D01*
X44771247Y-57475000D01*
X48418753Y-57475000D01*
X48500000Y-57491161D01*
X48581247Y-57475000D01*
X48581251Y-57475000D01*
X48821899Y-57427132D01*
X49094791Y-57244791D01*
X49140818Y-57175907D01*
X50125583Y-56191142D01*
X70550000Y-56191142D01*
X70550000Y-56608858D01*
X70709853Y-56994777D01*
X71005223Y-57290147D01*
X71391142Y-57450000D01*
X71483275Y-57450000D01*
X72059184Y-58025910D01*
X72105209Y-58094791D01*
X72378101Y-58277132D01*
X72618749Y-58325000D01*
X72618752Y-58325000D01*
X72700000Y-58341161D01*
X72781247Y-58325000D01*
X88409257Y-58325000D01*
X88711033Y-58450000D01*
X89088967Y-58450000D01*
X89390743Y-58325000D01*
X92568753Y-58325000D01*
X92650000Y-58341161D01*
X92731247Y-58325000D01*
X92731251Y-58325000D01*
X92971899Y-58277132D01*
X93244791Y-58094791D01*
X93290818Y-58025907D01*
X100486356Y-50830371D01*
X100788132Y-50705371D01*
X101055371Y-50438132D01*
X101200000Y-50088967D01*
X101200000Y-49711033D01*
X101055371Y-49361868D01*
X100788132Y-49094629D01*
X100438967Y-48950000D01*
X100061033Y-48950000D01*
X99711868Y-49094629D01*
X99444629Y-49361868D01*
X99319629Y-49663644D01*
X92308275Y-56675000D01*
X89390743Y-56675000D01*
X89088967Y-56550000D01*
X88711033Y-56550000D01*
X88409257Y-56675000D01*
X73041726Y-56675000D01*
X72650000Y-56283275D01*
X72650000Y-56191142D01*
X72490147Y-55805223D01*
X72194777Y-55509853D01*
X71808858Y-55350000D01*
X71391142Y-55350000D01*
X71005223Y-55509853D01*
X70709853Y-55805223D01*
X70550000Y-56191142D01*
X50125583Y-56191142D01*
X51736354Y-54580371D01*
X52038132Y-54455371D01*
X52305371Y-54188132D01*
X52450000Y-53838967D01*
X52450000Y-53461033D01*
X52305371Y-53111868D01*
X52038132Y-52844629D01*
X51688967Y-52700000D01*
X51311033Y-52700000D01*
X50961868Y-52844629D01*
X50694629Y-53111868D01*
X50569629Y-53413646D01*
X48158275Y-55825000D01*
X46892922Y-55825000D01*
X47040068Y-55604780D01*
X47160366Y-55000000D01*
X47040068Y-54395220D01*
X46697488Y-53882512D01*
X46184780Y-53539932D01*
X45732660Y-53450000D01*
X45427340Y-53450000D01*
X44975220Y-53539932D01*
X44462512Y-53882512D01*
X44310000Y-54110763D01*
X44240423Y-54006632D01*
X48936022Y-49311033D01*
X53250000Y-49311033D01*
X53250000Y-49688967D01*
X53394629Y-50038132D01*
X53661868Y-50305371D01*
X53963646Y-50430372D01*
X55375000Y-51841727D01*
X55375001Y-53209255D01*
X55250000Y-53511033D01*
X55250000Y-53888967D01*
X55394629Y-54238132D01*
X55661868Y-54505371D01*
X56011033Y-54650000D01*
X56388967Y-54650000D01*
X56738132Y-54505371D01*
X57005371Y-54238132D01*
X57150000Y-53888967D01*
X57150000Y-53716725D01*
X57169628Y-53736353D01*
X57294629Y-54038132D01*
X57561868Y-54305371D01*
X57911033Y-54450000D01*
X58288967Y-54450000D01*
X58638132Y-54305371D01*
X58905371Y-54038132D01*
X59050000Y-53688967D01*
X59050000Y-53311033D01*
X58983314Y-53150040D01*
X59569629Y-53736355D01*
X59694629Y-54038132D01*
X59961868Y-54305371D01*
X60311033Y-54450000D01*
X60688967Y-54450000D01*
X61038132Y-54305371D01*
X61305371Y-54038132D01*
X61450000Y-53688967D01*
X61450000Y-53311033D01*
X61305371Y-52961868D01*
X61038132Y-52694629D01*
X60736355Y-52569629D01*
X60173049Y-52006324D01*
X60030371Y-51661868D01*
X59763132Y-51394629D01*
X59413967Y-51250000D01*
X59036033Y-51250000D01*
X58686868Y-51394629D01*
X58419629Y-51661868D01*
X58275000Y-52011033D01*
X58275000Y-52388967D01*
X58352624Y-52576368D01*
X58336353Y-52569628D01*
X58240818Y-52474093D01*
X58240816Y-52474090D01*
X57775000Y-52008275D01*
X57775000Y-50756247D01*
X57791161Y-50675000D01*
X57775000Y-50593750D01*
X57775000Y-50593749D01*
X57727132Y-50353101D01*
X57544791Y-50080209D01*
X57520022Y-50063659D01*
X57405371Y-49786868D01*
X57138132Y-49519629D01*
X56788967Y-49375000D01*
X56411033Y-49375000D01*
X56061868Y-49519629D01*
X55794629Y-49786868D01*
X55753321Y-49886595D01*
X55130372Y-49263646D01*
X55005371Y-48961868D01*
X54854536Y-48811033D01*
X79850000Y-48811033D01*
X79850000Y-49188967D01*
X79994629Y-49538132D01*
X80261868Y-49805371D01*
X80611033Y-49950000D01*
X80988967Y-49950000D01*
X81338132Y-49805371D01*
X81605371Y-49538132D01*
X81730372Y-49236353D01*
X83175115Y-47791611D01*
X83268552Y-47931448D01*
X83581202Y-48140355D01*
X83949999Y-48213713D01*
X84600001Y-48213713D01*
X84968798Y-48140355D01*
X85243048Y-47957106D01*
X85200000Y-48061033D01*
X85200000Y-48438967D01*
X85344629Y-48788132D01*
X85611868Y-49055371D01*
X85961033Y-49200000D01*
X86338967Y-49200000D01*
X86640743Y-49075000D01*
X92458275Y-49075000D01*
X93869629Y-50486356D01*
X93994629Y-50788132D01*
X94261868Y-51055371D01*
X94611033Y-51200000D01*
X94988967Y-51200000D01*
X95338132Y-51055371D01*
X95605371Y-50788132D01*
X95750000Y-50438967D01*
X95750000Y-50061033D01*
X95605371Y-49711868D01*
X95338132Y-49444629D01*
X95036356Y-49319629D01*
X93440818Y-47724092D01*
X93394791Y-47655209D01*
X93121899Y-47472868D01*
X92881251Y-47425000D01*
X92881247Y-47425000D01*
X92800000Y-47408839D01*
X92718753Y-47425000D01*
X88593653Y-47425000D01*
X88650000Y-47288967D01*
X88650000Y-46911033D01*
X88505371Y-46561868D01*
X88238132Y-46294629D01*
X87950001Y-46175281D01*
X87721899Y-46022868D01*
X87541505Y-45986985D01*
X87540355Y-45981202D01*
X87331448Y-45668552D01*
X87018798Y-45459645D01*
X86650001Y-45386287D01*
X85999999Y-45386287D01*
X85631202Y-45459645D01*
X85318552Y-45668552D01*
X85300000Y-45696317D01*
X85281448Y-45668552D01*
X84968798Y-45459645D01*
X84600001Y-45386287D01*
X83949999Y-45386287D01*
X83581202Y-45459645D01*
X83268552Y-45668552D01*
X83065837Y-45971935D01*
X83000000Y-45958839D01*
X82918752Y-45975000D01*
X82918749Y-45975000D01*
X82678101Y-46022868D01*
X82405209Y-46205209D01*
X82359184Y-46274090D01*
X80563647Y-48069628D01*
X80261868Y-48194629D01*
X79994629Y-48461868D01*
X79850000Y-48811033D01*
X54854536Y-48811033D01*
X54738132Y-48694629D01*
X54388967Y-48550000D01*
X54011033Y-48550000D01*
X53661868Y-48694629D01*
X53394629Y-48961868D01*
X53250000Y-49311033D01*
X48936022Y-49311033D01*
X55299715Y-42947340D01*
X58250000Y-42947340D01*
X58250000Y-43852659D01*
X58339932Y-44304779D01*
X58682512Y-44817488D01*
X59195220Y-45160068D01*
X59800000Y-45280366D01*
X60404779Y-45160068D01*
X60917488Y-44817488D01*
X61260068Y-44304780D01*
X61350000Y-43852660D01*
X61350000Y-42947341D01*
X61350000Y-42947340D01*
X61750000Y-42947340D01*
X61750000Y-43852659D01*
X61839932Y-44304779D01*
X62182512Y-44817488D01*
X62695220Y-45160068D01*
X63300000Y-45280366D01*
X63904779Y-45160068D01*
X64417488Y-44817488D01*
X64760068Y-44304780D01*
X64850000Y-43852660D01*
X64850000Y-42947341D01*
X64850000Y-42947340D01*
X65250000Y-42947340D01*
X65250000Y-43852659D01*
X65339932Y-44304779D01*
X65682512Y-44817488D01*
X66195220Y-45160068D01*
X66800000Y-45280366D01*
X67404779Y-45160068D01*
X67917488Y-44817488D01*
X68260068Y-44304780D01*
X68350000Y-43852660D01*
X68350000Y-42947341D01*
X68260068Y-42495220D01*
X67917488Y-41982512D01*
X67404780Y-41639932D01*
X66800000Y-41519634D01*
X66195221Y-41639932D01*
X65682512Y-41982512D01*
X65339932Y-42495220D01*
X65250000Y-42947340D01*
X64850000Y-42947340D01*
X64760068Y-42495220D01*
X64417488Y-41982512D01*
X63904780Y-41639932D01*
X63300000Y-41519634D01*
X62695221Y-41639932D01*
X62182512Y-41982512D01*
X61839932Y-42495220D01*
X61750000Y-42947340D01*
X61350000Y-42947340D01*
X61260068Y-42495220D01*
X60917488Y-41982512D01*
X60404780Y-41639932D01*
X59800000Y-41519634D01*
X59195221Y-41639932D01*
X58682512Y-41982512D01*
X58339932Y-42495220D01*
X58250000Y-42947340D01*
X55299715Y-42947340D01*
X57147056Y-41100000D01*
X68252945Y-41100000D01*
X69100000Y-41947056D01*
X69100000Y-42106000D01*
X68839932Y-42495220D01*
X68750000Y-42947340D01*
X68750000Y-43852659D01*
X68839932Y-44304779D01*
X69182512Y-44817488D01*
X69695220Y-45160068D01*
X70300000Y-45280366D01*
X70904779Y-45160068D01*
X71417488Y-44817488D01*
X71760068Y-44304780D01*
X71850000Y-43852660D01*
X71850000Y-42947341D01*
X71850000Y-42947340D01*
X84000000Y-42947340D01*
X84000000Y-43852659D01*
X84089932Y-44304779D01*
X84432512Y-44817488D01*
X84945220Y-45160068D01*
X85550000Y-45280366D01*
X86154779Y-45160068D01*
X86667488Y-44817488D01*
X87010068Y-44304780D01*
X87100000Y-43852660D01*
X87100000Y-42947341D01*
X87010068Y-42495220D01*
X86667488Y-41982512D01*
X86154780Y-41639932D01*
X85550000Y-41519634D01*
X84945221Y-41639932D01*
X84432512Y-41982512D01*
X84089932Y-42495220D01*
X84000000Y-42947340D01*
X71850000Y-42947340D01*
X71760068Y-42495220D01*
X71500000Y-42106000D01*
X71500000Y-41568187D01*
X71523509Y-41449999D01*
X71430375Y-40981783D01*
X71394567Y-40928193D01*
X71165152Y-40584848D01*
X71064954Y-40517898D01*
X69682104Y-39135049D01*
X69615152Y-39034848D01*
X69413337Y-38900000D01*
X111834314Y-38900000D01*
X113217140Y-40282826D01*
X112775758Y-40100000D01*
X111224242Y-40100000D01*
X109790827Y-40693739D01*
X108693739Y-41790827D01*
X108100000Y-43224242D01*
X108100000Y-44775758D01*
X108693739Y-46209173D01*
X109790827Y-47306261D01*
X111224242Y-47900000D01*
X112775758Y-47900000D01*
X114209173Y-47306261D01*
X115306261Y-46209173D01*
X115900000Y-44775758D01*
X115900000Y-43224242D01*
X115717174Y-42782860D01*
X117100000Y-44165686D01*
X117100000Y-79461029D01*
X116793188Y-79400000D01*
X115906812Y-79400000D01*
X115556783Y-79469625D01*
X115159848Y-79734848D01*
X114894625Y-80131783D01*
X114801491Y-80600000D01*
X114894625Y-81068217D01*
X115159848Y-81465152D01*
X115556783Y-81730375D01*
X115906812Y-81800000D01*
X116793188Y-81800000D01*
X117100000Y-81738971D01*
X117100000Y-86461029D01*
X116793188Y-86400000D01*
X115906812Y-86400000D01*
X115556783Y-86469625D01*
X115159848Y-86734848D01*
X114894625Y-87131783D01*
X114801491Y-87600000D01*
X114894625Y-88068217D01*
X115159848Y-88465152D01*
X115556783Y-88730375D01*
X115906812Y-88800000D01*
X116793188Y-88800000D01*
X117100000Y-88738971D01*
X117100000Y-97357566D01*
X117043217Y-97319625D01*
X116693188Y-97250000D01*
X115806812Y-97250000D01*
X115456783Y-97319625D01*
X115059848Y-97584848D01*
X114794625Y-97981783D01*
X114701491Y-98450000D01*
X114794625Y-98918217D01*
X115059848Y-99315152D01*
X115456783Y-99580375D01*
X115806812Y-99650000D01*
X116693188Y-99650000D01*
X117043217Y-99580375D01*
X117100000Y-99542434D01*
X117100000Y-104357566D01*
X117043217Y-104319625D01*
X116693188Y-104250000D01*
X115806812Y-104250000D01*
X115456783Y-104319625D01*
X115059848Y-104584848D01*
X114794625Y-104981783D01*
X114701491Y-105450000D01*
X114794625Y-105918217D01*
X115059848Y-106315152D01*
X115456783Y-106580375D01*
X115806812Y-106650000D01*
X116693188Y-106650000D01*
X117043217Y-106580375D01*
X117100000Y-106542434D01*
X117100000Y-111834314D01*
X115717174Y-113217140D01*
X115900000Y-112775758D01*
X115900000Y-111224242D01*
X115306261Y-109790827D01*
X114209173Y-108693739D01*
X112775758Y-108100000D01*
X111224242Y-108100000D01*
X109790827Y-108693739D01*
X108693739Y-109790827D01*
X108100000Y-111224242D01*
X108100000Y-112775758D01*
X108693739Y-114209173D01*
X109790827Y-115306261D01*
X111224242Y-115900000D01*
X112775758Y-115900000D01*
X113217140Y-115717174D01*
X111834314Y-117100000D01*
X44165686Y-117100000D01*
X42782860Y-115717174D01*
X43224242Y-115900000D01*
X44775758Y-115900000D01*
X46209173Y-115306261D01*
X47306261Y-114209173D01*
X47787506Y-113047341D01*
X86400000Y-113047341D01*
X86400000Y-113952660D01*
X86489932Y-114404780D01*
X86832512Y-114917488D01*
X87345221Y-115260068D01*
X87950000Y-115380366D01*
X88554780Y-115260068D01*
X89067488Y-114917488D01*
X89410068Y-114404780D01*
X89500000Y-113952659D01*
X89500000Y-113047341D01*
X89900000Y-113047341D01*
X89900000Y-113952660D01*
X89989932Y-114404780D01*
X90332512Y-114917488D01*
X90845221Y-115260068D01*
X91450000Y-115380366D01*
X92054780Y-115260068D01*
X92567488Y-114917488D01*
X92910068Y-114404780D01*
X93000000Y-113952659D01*
X93000000Y-113047340D01*
X92910068Y-112595220D01*
X92567488Y-112082512D01*
X92054779Y-111739932D01*
X91450000Y-111619634D01*
X90845220Y-111739932D01*
X90332512Y-112082512D01*
X89989932Y-112595221D01*
X89900000Y-113047341D01*
X89500000Y-113047341D01*
X89500000Y-113047340D01*
X89410068Y-112595220D01*
X89067488Y-112082512D01*
X88554779Y-111739932D01*
X87950000Y-111619634D01*
X87345220Y-111739932D01*
X86832512Y-112082512D01*
X86489932Y-112595221D01*
X86400000Y-113047341D01*
X47787506Y-113047341D01*
X47900000Y-112775758D01*
X47900000Y-111224242D01*
X47521738Y-110311033D01*
X84100000Y-110311033D01*
X84100000Y-110688967D01*
X84244629Y-111038132D01*
X84511868Y-111305371D01*
X84861033Y-111450000D01*
X85238967Y-111450000D01*
X85588132Y-111305371D01*
X85855371Y-111038132D01*
X85980372Y-110736353D01*
X89641726Y-107075000D01*
X91959257Y-107075000D01*
X92261033Y-107200000D01*
X92638967Y-107200000D01*
X92988132Y-107055371D01*
X93255371Y-106788132D01*
X93400000Y-106438967D01*
X93400000Y-106061033D01*
X93255371Y-105711868D01*
X92988132Y-105444629D01*
X92638967Y-105300000D01*
X92261033Y-105300000D01*
X91959257Y-105425000D01*
X89381247Y-105425000D01*
X89300000Y-105408839D01*
X89218752Y-105425000D01*
X89218749Y-105425000D01*
X88978101Y-105472868D01*
X88705209Y-105655209D01*
X88659184Y-105724090D01*
X84813647Y-109569628D01*
X84511868Y-109694629D01*
X84244629Y-109961868D01*
X84100000Y-110311033D01*
X47521738Y-110311033D01*
X47306261Y-109790827D01*
X46209173Y-108693739D01*
X44775758Y-108100000D01*
X43224242Y-108100000D01*
X41790827Y-108693739D01*
X40693739Y-109790827D01*
X40100000Y-111224242D01*
X40100000Y-112775758D01*
X40282826Y-113217140D01*
X38900000Y-111834314D01*
X38900000Y-106681740D01*
X53900000Y-106681740D01*
X53900000Y-107318260D01*
X54143585Y-107906327D01*
X54593673Y-108356415D01*
X55181740Y-108600000D01*
X55818260Y-108600000D01*
X56406327Y-108356415D01*
X56856415Y-107906327D01*
X57100000Y-107318260D01*
X57100000Y-106681740D01*
X58900000Y-106681740D01*
X58900000Y-107318260D01*
X59143585Y-107906327D01*
X59593673Y-108356415D01*
X60181740Y-108600000D01*
X60818260Y-108600000D01*
X61406327Y-108356415D01*
X61856415Y-107906327D01*
X62100000Y-107318260D01*
X62100000Y-106681740D01*
X61856415Y-106093673D01*
X61406327Y-105643585D01*
X60818260Y-105400000D01*
X60181740Y-105400000D01*
X59593673Y-105643585D01*
X59143585Y-106093673D01*
X58900000Y-106681740D01*
X57100000Y-106681740D01*
X56856415Y-106093673D01*
X56406327Y-105643585D01*
X55818260Y-105400000D01*
X55181740Y-105400000D01*
X54593673Y-105643585D01*
X54143585Y-106093673D01*
X53900000Y-106681740D01*
X38900000Y-106681740D01*
X38900000Y-104254349D01*
X112325000Y-104254349D01*
X112325000Y-104645652D01*
X112396075Y-105002971D01*
X112666825Y-105408176D01*
X113072030Y-105678925D01*
X113550000Y-105773999D01*
X114027971Y-105678925D01*
X114433176Y-105408176D01*
X114703925Y-105002970D01*
X114775000Y-104645651D01*
X114775000Y-104254348D01*
X114703925Y-103897029D01*
X114433176Y-103491824D01*
X114027970Y-103221075D01*
X113550000Y-103126001D01*
X113072029Y-103221075D01*
X112666824Y-103491824D01*
X112396075Y-103897030D01*
X112325000Y-104254349D01*
X38900000Y-104254349D01*
X38900000Y-101750000D01*
X73339634Y-101750000D01*
X73459932Y-102354780D01*
X73802512Y-102867488D01*
X74315220Y-103210068D01*
X74767340Y-103300000D01*
X75072660Y-103300000D01*
X75524780Y-103210068D01*
X76037488Y-102867488D01*
X76190000Y-102639237D01*
X76342512Y-102867488D01*
X76855220Y-103210068D01*
X77307340Y-103300000D01*
X77612660Y-103300000D01*
X78064780Y-103210068D01*
X78577488Y-102867488D01*
X78730000Y-102639237D01*
X78882512Y-102867488D01*
X79395220Y-103210068D01*
X79847340Y-103300000D01*
X80152660Y-103300000D01*
X80604780Y-103210068D01*
X81117488Y-102867488D01*
X81270000Y-102639237D01*
X81422512Y-102867488D01*
X81935220Y-103210068D01*
X82387340Y-103300000D01*
X82692660Y-103300000D01*
X83144780Y-103210068D01*
X83657488Y-102867488D01*
X83810000Y-102639237D01*
X83962512Y-102867488D01*
X84475220Y-103210068D01*
X84927340Y-103300000D01*
X85232660Y-103300000D01*
X85684780Y-103210068D01*
X86197488Y-102867488D01*
X86350000Y-102639237D01*
X86502512Y-102867488D01*
X87015220Y-103210068D01*
X87467340Y-103300000D01*
X87772660Y-103300000D01*
X88224780Y-103210068D01*
X88737488Y-102867488D01*
X88890000Y-102639237D01*
X89042512Y-102867488D01*
X89555220Y-103210068D01*
X90007340Y-103300000D01*
X90312660Y-103300000D01*
X90764780Y-103210068D01*
X91214825Y-102909358D01*
X91345329Y-103104671D01*
X91576874Y-103259385D01*
X91850000Y-103313713D01*
X93550000Y-103313713D01*
X93823126Y-103259385D01*
X94054671Y-103104671D01*
X94209385Y-102873126D01*
X94263713Y-102600000D01*
X94263713Y-100900000D01*
X94209385Y-100626874D01*
X94054671Y-100395329D01*
X93986831Y-100349999D01*
X100286287Y-100349999D01*
X100286287Y-101000001D01*
X100359645Y-101368798D01*
X100568552Y-101681448D01*
X100881202Y-101890355D01*
X101249999Y-101963713D01*
X102150001Y-101963713D01*
X102518798Y-101890355D01*
X102831448Y-101681448D01*
X102886835Y-101598556D01*
X103011033Y-101650000D01*
X103388967Y-101650000D01*
X103738132Y-101505371D01*
X104005371Y-101238132D01*
X104150000Y-100888967D01*
X104150000Y-100511033D01*
X104005371Y-100161868D01*
X103738132Y-99894629D01*
X103388967Y-99750000D01*
X103011033Y-99750000D01*
X102913002Y-99790606D01*
X102831448Y-99668552D01*
X102518798Y-99459645D01*
X102150001Y-99386287D01*
X101249999Y-99386287D01*
X100881202Y-99459645D01*
X100568552Y-99668552D01*
X100359645Y-99981202D01*
X100286287Y-100349999D01*
X93986831Y-100349999D01*
X93823126Y-100240615D01*
X93550000Y-100186287D01*
X91850000Y-100186287D01*
X91576874Y-100240615D01*
X91345329Y-100395329D01*
X91214825Y-100590642D01*
X90764780Y-100289932D01*
X90312660Y-100200000D01*
X90007340Y-100200000D01*
X89555220Y-100289932D01*
X89042512Y-100632512D01*
X88890000Y-100860763D01*
X88737488Y-100632512D01*
X88224780Y-100289932D01*
X87772660Y-100200000D01*
X87467340Y-100200000D01*
X87015220Y-100289932D01*
X86502512Y-100632512D01*
X86350000Y-100860763D01*
X86197488Y-100632512D01*
X85684780Y-100289932D01*
X85232660Y-100200000D01*
X84927340Y-100200000D01*
X84475220Y-100289932D01*
X83962512Y-100632512D01*
X83810000Y-100860763D01*
X83657488Y-100632512D01*
X83144780Y-100289932D01*
X82692660Y-100200000D01*
X82387340Y-100200000D01*
X81935220Y-100289932D01*
X81422512Y-100632512D01*
X81270000Y-100860763D01*
X81117488Y-100632512D01*
X80604780Y-100289932D01*
X80152660Y-100200000D01*
X79847340Y-100200000D01*
X79395220Y-100289932D01*
X78882512Y-100632512D01*
X78730000Y-100860763D01*
X78577488Y-100632512D01*
X78064780Y-100289932D01*
X77612660Y-100200000D01*
X77307340Y-100200000D01*
X76855220Y-100289932D01*
X76342512Y-100632512D01*
X76190000Y-100860763D01*
X76037488Y-100632512D01*
X75524780Y-100289932D01*
X75072660Y-100200000D01*
X74767340Y-100200000D01*
X74315220Y-100289932D01*
X73802512Y-100632512D01*
X73459932Y-101145220D01*
X73339634Y-101750000D01*
X38900000Y-101750000D01*
X38900000Y-99254349D01*
X112325000Y-99254349D01*
X112325000Y-99645652D01*
X112396075Y-100002971D01*
X112666825Y-100408176D01*
X113072030Y-100678925D01*
X113550000Y-100773999D01*
X114027971Y-100678925D01*
X114433176Y-100408176D01*
X114703925Y-100002970D01*
X114775000Y-99645651D01*
X114775000Y-99254348D01*
X114703925Y-98897029D01*
X114433176Y-98491824D01*
X114027970Y-98221075D01*
X113550000Y-98126001D01*
X113072029Y-98221075D01*
X112666824Y-98491824D01*
X112396075Y-98897030D01*
X112325000Y-99254349D01*
X38900000Y-99254349D01*
X38900000Y-96071795D01*
X43810000Y-96071795D01*
X43810000Y-96728205D01*
X44061198Y-97334650D01*
X44525350Y-97798802D01*
X45131795Y-98050000D01*
X45788205Y-98050000D01*
X46394650Y-97798802D01*
X46730000Y-97463452D01*
X47065350Y-97798802D01*
X47671795Y-98050000D01*
X48328205Y-98050000D01*
X48934650Y-97798802D01*
X49398802Y-97334650D01*
X49650000Y-96728205D01*
X49650000Y-96071795D01*
X49398802Y-95465350D01*
X48934650Y-95001198D01*
X48328205Y-94750000D01*
X48276725Y-94750000D01*
X52761726Y-90265000D01*
X56055779Y-90265000D01*
X56101198Y-90374650D01*
X56565350Y-90838802D01*
X57171795Y-91090000D01*
X57828205Y-91090000D01*
X58434650Y-90838802D01*
X58898802Y-90374650D01*
X58944221Y-90265000D01*
X64628753Y-90265000D01*
X64710000Y-90281161D01*
X64791247Y-90265000D01*
X64791251Y-90265000D01*
X65031899Y-90217132D01*
X65304791Y-90034791D01*
X65350818Y-89965907D01*
X67324116Y-87992609D01*
X73900000Y-87992609D01*
X73900000Y-88370543D01*
X74025000Y-88672320D01*
X74025001Y-94109254D01*
X73900000Y-94411033D01*
X73900000Y-94788967D01*
X74044629Y-95138132D01*
X74311868Y-95405371D01*
X74661033Y-95550000D01*
X75038967Y-95550000D01*
X75388132Y-95405371D01*
X75655371Y-95138132D01*
X75800000Y-94788967D01*
X75800000Y-94411033D01*
X75675000Y-94109257D01*
X75675000Y-88672319D01*
X75718372Y-88567609D01*
X75843424Y-88567609D01*
X75843424Y-88945543D01*
X75988053Y-89294708D01*
X76255292Y-89561947D01*
X76604457Y-89706576D01*
X76982391Y-89706576D01*
X77284167Y-89581576D01*
X77450718Y-89581576D01*
X76574093Y-90458202D01*
X76505209Y-90504229D01*
X76322868Y-90777122D01*
X76275000Y-91017770D01*
X76275000Y-91017773D01*
X76258839Y-91099020D01*
X76275000Y-91180268D01*
X76275001Y-93084286D01*
X76150000Y-93386065D01*
X76150000Y-93763999D01*
X76294629Y-94113164D01*
X76561868Y-94380403D01*
X76911033Y-94525032D01*
X77288967Y-94525032D01*
X77638132Y-94380403D01*
X77905371Y-94113164D01*
X78050000Y-93763999D01*
X78050000Y-93386065D01*
X77925000Y-93084289D01*
X77925000Y-91440745D01*
X78446174Y-90919572D01*
X78761055Y-91050000D01*
X79138989Y-91050000D01*
X79380487Y-90949968D01*
X81909257Y-90949968D01*
X82211033Y-91074968D01*
X82588967Y-91074968D01*
X82925001Y-90935778D01*
X82925001Y-92627265D01*
X82797096Y-92936054D01*
X82797096Y-93313988D01*
X82941725Y-93663153D01*
X83208964Y-93930392D01*
X83558129Y-94075021D01*
X83936063Y-94075021D01*
X84285228Y-93930392D01*
X84552467Y-93663153D01*
X84575685Y-93607101D01*
X84881613Y-93480381D01*
X85148852Y-93213142D01*
X85293481Y-92863977D01*
X85293481Y-92486043D01*
X85293465Y-92486005D01*
X85488132Y-92405371D01*
X85755371Y-92138132D01*
X85900000Y-91788967D01*
X85900000Y-91411033D01*
X85775000Y-91109257D01*
X85775000Y-88990743D01*
X85900000Y-88688967D01*
X85900000Y-88311033D01*
X85755371Y-87961868D01*
X85488132Y-87694629D01*
X85138967Y-87550000D01*
X84761033Y-87550000D01*
X84411868Y-87694629D01*
X84325000Y-87781497D01*
X84288132Y-87744629D01*
X83938967Y-87600000D01*
X83561033Y-87600000D01*
X83211868Y-87744629D01*
X82944629Y-88011868D01*
X82800000Y-88361033D01*
X82800000Y-88738967D01*
X82925000Y-89040744D01*
X82925000Y-89314158D01*
X82588967Y-89174968D01*
X82211033Y-89174968D01*
X81909257Y-89299968D01*
X81673999Y-89299968D01*
X81776563Y-89052356D01*
X81776563Y-88674422D01*
X81631934Y-88325257D01*
X81364695Y-88058018D01*
X81203661Y-87991315D01*
X81136958Y-87830281D01*
X80869719Y-87563042D01*
X80520554Y-87418413D01*
X80142620Y-87418413D01*
X79793455Y-87563042D01*
X79526216Y-87830281D01*
X79484258Y-87931576D01*
X77284167Y-87931576D01*
X76982391Y-87806576D01*
X76604457Y-87806576D01*
X76255292Y-87951205D01*
X75988053Y-88218444D01*
X75843424Y-88567609D01*
X75718372Y-88567609D01*
X75800000Y-88370543D01*
X75800000Y-87992609D01*
X75655371Y-87643444D01*
X75388132Y-87376205D01*
X75038967Y-87231576D01*
X74661033Y-87231576D01*
X74311868Y-87376205D01*
X74044629Y-87643444D01*
X73900000Y-87992609D01*
X67324116Y-87992609D01*
X69141726Y-86175000D01*
X76468753Y-86175000D01*
X76550000Y-86191161D01*
X76631247Y-86175000D01*
X76631251Y-86175000D01*
X76871899Y-86127132D01*
X77144791Y-85944791D01*
X77190818Y-85875907D01*
X78450000Y-84616726D01*
X78536287Y-84703013D01*
X78536287Y-85050001D01*
X78609645Y-85418798D01*
X78818552Y-85731448D01*
X79131202Y-85940355D01*
X79400000Y-85993822D01*
X79400000Y-86038967D01*
X79544629Y-86388132D01*
X79811868Y-86655371D01*
X80161033Y-86800000D01*
X80538967Y-86800000D01*
X80840743Y-86675000D01*
X86359257Y-86675000D01*
X86661033Y-86800000D01*
X87038967Y-86800000D01*
X87388132Y-86655371D01*
X87655371Y-86388132D01*
X87800000Y-86038967D01*
X87800000Y-85661033D01*
X87753503Y-85548780D01*
X87840355Y-85418798D01*
X87913713Y-85050001D01*
X87913713Y-84199999D01*
X89358840Y-84199999D01*
X89375001Y-84281247D01*
X89375002Y-88294763D01*
X89358840Y-88376015D01*
X89422869Y-88697913D01*
X89554107Y-88894323D01*
X89605211Y-88970806D01*
X89625000Y-88984029D01*
X89625001Y-91359235D01*
X89499992Y-91661033D01*
X89499992Y-92038967D01*
X89644621Y-92388132D01*
X89911860Y-92655371D01*
X90189205Y-92770251D01*
X90219621Y-92843681D01*
X90486860Y-93110920D01*
X90836025Y-93255549D01*
X91213959Y-93255549D01*
X91563124Y-93110920D01*
X91830363Y-92843681D01*
X91875262Y-92735285D01*
X92138132Y-92626401D01*
X92405371Y-92359162D01*
X92550000Y-92009997D01*
X92550000Y-91632063D01*
X92425000Y-91330287D01*
X92425000Y-85040743D01*
X92527863Y-84792412D01*
X93059242Y-84261033D01*
X109700000Y-84261033D01*
X109700000Y-84638967D01*
X109844629Y-84988132D01*
X110111868Y-85255371D01*
X110413646Y-85380372D01*
X110750000Y-85716726D01*
X110750000Y-85738967D01*
X110894629Y-86088132D01*
X111161868Y-86355371D01*
X111511033Y-86500000D01*
X111888967Y-86500000D01*
X112238132Y-86355371D01*
X112483561Y-86109942D01*
X112425000Y-86404349D01*
X112425000Y-86795652D01*
X112496075Y-87152971D01*
X112766825Y-87558176D01*
X113172030Y-87828925D01*
X113650000Y-87923999D01*
X114127971Y-87828925D01*
X114533176Y-87558176D01*
X114803925Y-87152970D01*
X114875000Y-86795651D01*
X114875000Y-86404348D01*
X114803925Y-86047029D01*
X114533176Y-85641824D01*
X114127970Y-85371075D01*
X113650000Y-85276001D01*
X113172029Y-85371075D01*
X112766824Y-85641824D01*
X112565326Y-85943389D01*
X112650000Y-85738967D01*
X112650000Y-85361033D01*
X112505371Y-85011868D01*
X112238132Y-84744629D01*
X112021711Y-84654984D01*
X111580372Y-84213646D01*
X111455371Y-83911868D01*
X111188132Y-83644629D01*
X110838967Y-83500000D01*
X110461033Y-83500000D01*
X110111868Y-83644629D01*
X109844629Y-83911868D01*
X109700000Y-84261033D01*
X93059242Y-84261033D01*
X95915926Y-81404349D01*
X112425000Y-81404349D01*
X112425000Y-81795652D01*
X112496075Y-82152971D01*
X112766825Y-82558176D01*
X113172030Y-82828925D01*
X113650000Y-82923999D01*
X114127971Y-82828925D01*
X114533176Y-82558176D01*
X114803925Y-82152970D01*
X114875000Y-81795651D01*
X114875000Y-81404348D01*
X114803925Y-81047029D01*
X114533176Y-80641824D01*
X114127970Y-80371075D01*
X113650000Y-80276001D01*
X113172029Y-80371075D01*
X112766824Y-80641824D01*
X112496075Y-81047030D01*
X112425000Y-81404349D01*
X95915926Y-81404349D01*
X99498481Y-77821795D01*
X99538132Y-77805371D01*
X99805371Y-77538132D01*
X99950000Y-77188967D01*
X99950000Y-76811033D01*
X99805371Y-76461868D01*
X99538132Y-76194629D01*
X99456082Y-76160643D01*
X99836354Y-75780372D01*
X100138132Y-75655371D01*
X100405371Y-75388132D01*
X100550000Y-75038967D01*
X100550000Y-74661033D01*
X100405371Y-74311868D01*
X100138132Y-74044629D01*
X99788967Y-73900000D01*
X99411033Y-73900000D01*
X99061868Y-74044629D01*
X98794629Y-74311868D01*
X98725000Y-74479967D01*
X98725000Y-74440743D01*
X98850000Y-74138967D01*
X98850000Y-73761033D01*
X98705371Y-73411868D01*
X98561287Y-73267784D01*
X98625000Y-73113967D01*
X98625000Y-72736033D01*
X98480371Y-72386868D01*
X98213132Y-72119629D01*
X97863967Y-71975000D01*
X97486033Y-71975000D01*
X97136868Y-72119629D01*
X96869629Y-72386868D01*
X96744628Y-72688646D01*
X96624090Y-72809185D01*
X96555210Y-72855209D01*
X96509185Y-72924090D01*
X96509184Y-72924091D01*
X96372868Y-73128102D01*
X96308839Y-73450000D01*
X96325001Y-73531252D01*
X96325000Y-76545100D01*
X92107060Y-80763041D01*
X91805281Y-80888042D01*
X91538042Y-81155281D01*
X91393413Y-81504446D01*
X91393413Y-81882380D01*
X91512762Y-82170513D01*
X91505653Y-82177622D01*
X91438967Y-82150000D01*
X91061033Y-82150000D01*
X90711868Y-82294629D01*
X90444629Y-82561868D01*
X90300000Y-82911033D01*
X90300000Y-83000000D01*
X90261033Y-83000000D01*
X89911868Y-83144629D01*
X89644629Y-83411868D01*
X89500000Y-83761033D01*
X89500000Y-83762666D01*
X89422869Y-83878101D01*
X89375001Y-84118749D01*
X89375001Y-84118752D01*
X89358840Y-84199999D01*
X87913713Y-84199999D01*
X87913713Y-84149999D01*
X87840355Y-83781202D01*
X87631448Y-83468552D01*
X87318798Y-83259645D01*
X86950001Y-83186287D01*
X86299999Y-83186287D01*
X85931202Y-83259645D01*
X85618552Y-83468552D01*
X85409645Y-83781202D01*
X85336287Y-84149999D01*
X85336287Y-85025000D01*
X81171271Y-85025000D01*
X81127132Y-84803101D01*
X81113713Y-84783018D01*
X81113713Y-84149999D01*
X81040355Y-83781202D01*
X80831448Y-83468552D01*
X80654023Y-83350000D01*
X80831448Y-83231448D01*
X81040355Y-82918798D01*
X81113713Y-82550001D01*
X81113713Y-81649999D01*
X81040355Y-81281202D01*
X80831448Y-80968552D01*
X80650000Y-80847312D01*
X80650000Y-80825000D01*
X84343753Y-80825000D01*
X84425000Y-80841161D01*
X84506247Y-80825000D01*
X84506251Y-80825000D01*
X84746899Y-80777132D01*
X85019791Y-80594791D01*
X85065818Y-80525907D01*
X86378013Y-79213713D01*
X86950001Y-79213713D01*
X87318798Y-79140355D01*
X87631448Y-78931448D01*
X87840355Y-78618798D01*
X87883876Y-78400000D01*
X87938967Y-78400000D01*
X88288132Y-78255371D01*
X88555371Y-77988132D01*
X88700000Y-77638967D01*
X88700000Y-77261033D01*
X88555371Y-76911868D01*
X88288132Y-76644629D01*
X87938967Y-76500000D01*
X87561033Y-76500000D01*
X87448780Y-76546497D01*
X87318798Y-76459645D01*
X86950001Y-76386287D01*
X86299999Y-76386287D01*
X85931202Y-76459645D01*
X85618552Y-76668552D01*
X85409645Y-76981202D01*
X85336287Y-77349999D01*
X85336287Y-77921987D01*
X84083275Y-79175000D01*
X80650000Y-79175000D01*
X80650000Y-79052688D01*
X80831448Y-78931448D01*
X81040355Y-78618798D01*
X81113713Y-78250001D01*
X81113713Y-77349999D01*
X81040355Y-76981202D01*
X80831448Y-76668552D01*
X80518798Y-76459645D01*
X80300000Y-76416124D01*
X80300000Y-76361033D01*
X80155371Y-76011868D01*
X79888132Y-75744629D01*
X79586355Y-75619629D01*
X72175000Y-68208275D01*
X72175000Y-66586027D01*
X87825000Y-66586027D01*
X87825000Y-66963961D01*
X87969629Y-67313126D01*
X88236868Y-67580365D01*
X88538637Y-67705362D01*
X91001223Y-70167948D01*
X91126223Y-70469726D01*
X91393462Y-70736965D01*
X91742627Y-70881594D01*
X92120561Y-70881594D01*
X92469726Y-70736965D01*
X92736965Y-70469726D01*
X92837466Y-70227095D01*
X93080097Y-70126594D01*
X93347336Y-69859355D01*
X93491965Y-69510190D01*
X93491965Y-69132256D01*
X93347336Y-68783091D01*
X93080097Y-68515852D01*
X92778319Y-68390852D01*
X90709156Y-66321689D01*
X90584155Y-66019910D01*
X90316916Y-65752671D01*
X89967751Y-65608042D01*
X89589817Y-65608042D01*
X89240652Y-65752671D01*
X89108473Y-65884850D01*
X88963967Y-65824994D01*
X88586033Y-65824994D01*
X88236868Y-65969623D01*
X87969629Y-66236862D01*
X87825000Y-66586027D01*
X72175000Y-66586027D01*
X72175000Y-65109924D01*
X72240147Y-65044777D01*
X72400000Y-64658858D01*
X72400000Y-64241142D01*
X72240147Y-63855223D01*
X71944777Y-63559853D01*
X71558858Y-63400000D01*
X71141142Y-63400000D01*
X70755223Y-63559853D01*
X70459853Y-63855223D01*
X70300000Y-64241142D01*
X70300000Y-64658858D01*
X70459853Y-65044777D01*
X70525000Y-65109924D01*
X70525001Y-68468748D01*
X70508839Y-68550000D01*
X70572868Y-68871898D01*
X70658012Y-68999324D01*
X70755210Y-69144791D01*
X70824091Y-69190816D01*
X78170694Y-76537420D01*
X78025317Y-76597637D01*
X77818798Y-76459645D01*
X77450001Y-76386287D01*
X76799999Y-76386287D01*
X76431202Y-76459645D01*
X76118552Y-76668552D01*
X75909645Y-76981202D01*
X75836287Y-77349999D01*
X75836287Y-78250001D01*
X75909645Y-78618798D01*
X76118552Y-78931448D01*
X76431202Y-79140355D01*
X76799999Y-79213713D01*
X77450001Y-79213713D01*
X77818798Y-79140355D01*
X78131448Y-78931448D01*
X78340355Y-78618798D01*
X78383876Y-78400000D01*
X78566124Y-78400000D01*
X78609645Y-78618798D01*
X78818552Y-78931448D01*
X79000000Y-79052689D01*
X79000000Y-79918748D01*
X78983838Y-80000000D01*
X79000001Y-80081256D01*
X79000001Y-80847311D01*
X78818552Y-80968552D01*
X78609645Y-81281202D01*
X78536287Y-81649999D01*
X78536287Y-82221987D01*
X78256324Y-82501951D01*
X77911868Y-82644629D01*
X77644629Y-82911868D01*
X77519628Y-83213646D01*
X76208275Y-84525000D01*
X68881245Y-84525000D01*
X68799999Y-84508839D01*
X68718753Y-84525000D01*
X68718749Y-84525000D01*
X68478101Y-84572868D01*
X68205209Y-84755209D01*
X68159184Y-84824090D01*
X64368275Y-88615000D01*
X58944221Y-88615000D01*
X58898802Y-88505350D01*
X58563452Y-88170000D01*
X58898802Y-87834650D01*
X59150000Y-87228205D01*
X59150000Y-86571795D01*
X58898802Y-85965350D01*
X58434650Y-85501198D01*
X57828205Y-85250000D01*
X57171795Y-85250000D01*
X56565350Y-85501198D01*
X56101198Y-85965350D01*
X55850000Y-86571795D01*
X55850000Y-87228205D01*
X56101198Y-87834650D01*
X56436548Y-88170000D01*
X56101198Y-88505350D01*
X56055779Y-88615000D01*
X52501245Y-88615000D01*
X52419999Y-88598839D01*
X52338753Y-88615000D01*
X52338749Y-88615000D01*
X52098101Y-88662868D01*
X51825209Y-88845209D01*
X51779184Y-88914090D01*
X45897856Y-94795419D01*
X45788205Y-94750000D01*
X45131795Y-94750000D01*
X44525350Y-95001198D01*
X44061198Y-95465350D01*
X43810000Y-96071795D01*
X38900000Y-96071795D01*
X38900000Y-78401631D01*
X43200000Y-78401631D01*
X43200000Y-78998369D01*
X43428361Y-79549682D01*
X43850318Y-79971639D01*
X44401631Y-80200000D01*
X44998369Y-80200000D01*
X45549682Y-79971639D01*
X45971639Y-79549682D01*
X46200000Y-78998369D01*
X46200000Y-78401631D01*
X50050000Y-78401631D01*
X50050000Y-78998369D01*
X50278361Y-79549682D01*
X50700318Y-79971639D01*
X51251631Y-80200000D01*
X51848369Y-80200000D01*
X52399682Y-79971639D01*
X52821639Y-79549682D01*
X53050000Y-78998369D01*
X53050000Y-78401631D01*
X52821639Y-77850318D01*
X52399682Y-77428361D01*
X51848369Y-77200000D01*
X51251631Y-77200000D01*
X50700318Y-77428361D01*
X50278361Y-77850318D01*
X50050000Y-78401631D01*
X46200000Y-78401631D01*
X45971639Y-77850318D01*
X45549682Y-77428361D01*
X44998369Y-77200000D01*
X44401631Y-77200000D01*
X43850318Y-77428361D01*
X43428361Y-77850318D01*
X43200000Y-78401631D01*
X38900000Y-78401631D01*
X38900000Y-71511033D01*
X65100000Y-71511033D01*
X65100000Y-71888967D01*
X65225001Y-72190746D01*
X65225000Y-75809256D01*
X65100000Y-76111033D01*
X65100000Y-76488967D01*
X65244629Y-76838132D01*
X65511868Y-77105371D01*
X65861033Y-77250000D01*
X66238967Y-77250000D01*
X66588132Y-77105371D01*
X66855371Y-76838132D01*
X67000000Y-76488967D01*
X67000000Y-76111033D01*
X66875000Y-75809257D01*
X66875000Y-73261033D01*
X67000000Y-73261033D01*
X67000000Y-73638967D01*
X67125001Y-73940746D01*
X67125000Y-78491574D01*
X67108839Y-78572822D01*
X67125000Y-78654069D01*
X67125000Y-78654072D01*
X67172868Y-78894720D01*
X67355209Y-79167613D01*
X67424093Y-79213640D01*
X70986373Y-82775921D01*
X71032398Y-82844802D01*
X71101279Y-82890827D01*
X71150924Y-82923999D01*
X71305290Y-83027143D01*
X71545938Y-83075011D01*
X71545941Y-83075011D01*
X71627189Y-83091172D01*
X71708436Y-83075011D01*
X75009257Y-83075011D01*
X75311033Y-83200011D01*
X75688967Y-83200011D01*
X76038132Y-83055382D01*
X76305371Y-82788143D01*
X76427840Y-82492477D01*
X76638132Y-82405371D01*
X76905371Y-82138132D01*
X77050000Y-81788967D01*
X77050000Y-81411033D01*
X76905371Y-81061868D01*
X76638132Y-80794629D01*
X76352834Y-80676455D01*
X76305371Y-80561868D01*
X76038132Y-80294629D01*
X75688967Y-80150000D01*
X75311033Y-80150000D01*
X75009257Y-80275000D01*
X72091726Y-80275000D01*
X70025000Y-78208275D01*
X70025000Y-73940743D01*
X70150000Y-73638967D01*
X70150000Y-73261033D01*
X70005371Y-72911868D01*
X69738132Y-72644629D01*
X69388967Y-72500000D01*
X69011033Y-72500000D01*
X68661868Y-72644629D01*
X68575000Y-72731497D01*
X68488132Y-72644629D01*
X68138967Y-72500000D01*
X67761033Y-72500000D01*
X67411868Y-72644629D01*
X67144629Y-72911868D01*
X67000000Y-73261033D01*
X66875000Y-73261033D01*
X66875000Y-72190743D01*
X67000000Y-71888967D01*
X67000000Y-71511033D01*
X66855371Y-71161868D01*
X66588132Y-70894629D01*
X66238967Y-70750000D01*
X65861033Y-70750000D01*
X65511868Y-70894629D01*
X65244629Y-71161868D01*
X65100000Y-71511033D01*
X38900000Y-71511033D01*
X38900000Y-61550000D01*
X73339634Y-61550000D01*
X73459932Y-62154780D01*
X73802512Y-62667488D01*
X74315220Y-63010068D01*
X74767340Y-63100000D01*
X75072660Y-63100000D01*
X75524780Y-63010068D01*
X76037488Y-62667488D01*
X76190000Y-62439237D01*
X76342512Y-62667488D01*
X76855220Y-63010068D01*
X77307340Y-63100000D01*
X77612660Y-63100000D01*
X78064780Y-63010068D01*
X78577488Y-62667488D01*
X78730000Y-62439237D01*
X78882512Y-62667488D01*
X79395220Y-63010068D01*
X79847340Y-63100000D01*
X80152660Y-63100000D01*
X80604780Y-63010068D01*
X81117488Y-62667488D01*
X81270000Y-62439237D01*
X81422512Y-62667488D01*
X81935220Y-63010068D01*
X82387340Y-63100000D01*
X82692660Y-63100000D01*
X83144780Y-63010068D01*
X83657488Y-62667488D01*
X83810000Y-62439237D01*
X83962512Y-62667488D01*
X84255000Y-62862922D01*
X84255001Y-64247184D01*
X84125000Y-64561033D01*
X84125000Y-64938967D01*
X84269629Y-65288132D01*
X84536868Y-65555371D01*
X84886033Y-65700000D01*
X85263967Y-65700000D01*
X85475000Y-65612587D01*
X85686033Y-65700000D01*
X86063967Y-65700000D01*
X86413132Y-65555371D01*
X86680371Y-65288132D01*
X86805372Y-64986353D01*
X88145910Y-63645816D01*
X88214791Y-63599791D01*
X88397132Y-63326899D01*
X88445000Y-63086251D01*
X88445000Y-63086248D01*
X88461161Y-63005000D01*
X88445000Y-62923753D01*
X88445000Y-62862922D01*
X88737488Y-62667488D01*
X89080068Y-62154780D01*
X89200366Y-61550000D01*
X89080068Y-60945220D01*
X88916218Y-60700000D01*
X91136287Y-60700000D01*
X91136287Y-62400000D01*
X91190615Y-62673126D01*
X91345329Y-62904671D01*
X91576874Y-63059385D01*
X91850000Y-63113713D01*
X93550000Y-63113713D01*
X93823126Y-63059385D01*
X94054671Y-62904671D01*
X94209385Y-62673126D01*
X94263713Y-62400000D01*
X94263713Y-61153012D01*
X96241726Y-59175000D01*
X110365000Y-59175000D01*
X110365001Y-67391496D01*
X110344629Y-67411868D01*
X110200000Y-67761033D01*
X110200000Y-68138967D01*
X110344629Y-68488132D01*
X110611868Y-68755371D01*
X110961033Y-68900000D01*
X111338967Y-68900000D01*
X111688132Y-68755371D01*
X111955371Y-68488132D01*
X112100000Y-68138967D01*
X112100000Y-67761033D01*
X112015000Y-67555825D01*
X112015000Y-58691725D01*
X113654988Y-57051739D01*
X113847340Y-57090000D01*
X114152660Y-57090000D01*
X114604780Y-57000068D01*
X115117488Y-56657488D01*
X115460068Y-56144780D01*
X115580366Y-55540000D01*
X115460068Y-54935220D01*
X115159358Y-54485175D01*
X115354671Y-54354671D01*
X115509385Y-54123126D01*
X115563713Y-53850000D01*
X115563713Y-52150000D01*
X115509385Y-51876874D01*
X115354671Y-51645329D01*
X115123126Y-51490615D01*
X114850000Y-51436287D01*
X113150000Y-51436287D01*
X112876874Y-51490615D01*
X112645329Y-51645329D01*
X112514825Y-51840642D01*
X112064780Y-51539932D01*
X111612660Y-51450000D01*
X111307340Y-51450000D01*
X110855220Y-51539932D01*
X110342512Y-51882512D01*
X110190000Y-52110763D01*
X110037488Y-51882512D01*
X109524780Y-51539932D01*
X109072660Y-51450000D01*
X108767340Y-51450000D01*
X108315220Y-51539932D01*
X107802512Y-51882512D01*
X107650000Y-52110763D01*
X107497488Y-51882512D01*
X106984780Y-51539932D01*
X106532660Y-51450000D01*
X106227340Y-51450000D01*
X105775220Y-51539932D01*
X105262512Y-51882512D01*
X104919932Y-52395220D01*
X104799634Y-53000000D01*
X104919932Y-53604780D01*
X105262512Y-54117488D01*
X105490763Y-54270000D01*
X105262512Y-54422512D01*
X104919932Y-54935220D01*
X104799634Y-55540000D01*
X104919932Y-56144780D01*
X105262512Y-56657488D01*
X105775220Y-57000068D01*
X106227340Y-57090000D01*
X106532660Y-57090000D01*
X106984780Y-57000068D01*
X107497488Y-56657488D01*
X107840068Y-56144780D01*
X107960366Y-55540000D01*
X107840068Y-54935220D01*
X107497488Y-54422512D01*
X107269237Y-54270000D01*
X107497488Y-54117488D01*
X107650000Y-53889237D01*
X107802512Y-54117488D01*
X108315220Y-54460068D01*
X108767340Y-54550000D01*
X109072660Y-54550000D01*
X109524780Y-54460068D01*
X110037488Y-54117488D01*
X110190000Y-53889237D01*
X110342512Y-54117488D01*
X110570763Y-54270000D01*
X110342512Y-54422512D01*
X109999932Y-54935220D01*
X109879634Y-55540000D01*
X109999932Y-56144780D01*
X110342512Y-56657488D01*
X110855220Y-57000068D01*
X111287267Y-57086007D01*
X110848275Y-57525000D01*
X95981245Y-57525000D01*
X95899999Y-57508839D01*
X95818753Y-57525000D01*
X95818749Y-57525000D01*
X95578101Y-57572868D01*
X95305209Y-57755209D01*
X95259184Y-57824090D01*
X93096988Y-59986287D01*
X91850000Y-59986287D01*
X91576874Y-60040615D01*
X91345329Y-60195329D01*
X91190615Y-60426874D01*
X91136287Y-60700000D01*
X88916218Y-60700000D01*
X88737488Y-60432512D01*
X88224780Y-60089932D01*
X87772660Y-60000000D01*
X87467340Y-60000000D01*
X87015220Y-60089932D01*
X86502512Y-60432512D01*
X86350000Y-60660763D01*
X86197488Y-60432512D01*
X85684780Y-60089932D01*
X85232660Y-60000000D01*
X84927340Y-60000000D01*
X84475220Y-60089932D01*
X83962512Y-60432512D01*
X83810000Y-60660763D01*
X83657488Y-60432512D01*
X83144780Y-60089932D01*
X82692660Y-60000000D01*
X82387340Y-60000000D01*
X81935220Y-60089932D01*
X81422512Y-60432512D01*
X81270000Y-60660763D01*
X81117488Y-60432512D01*
X80604780Y-60089932D01*
X80152660Y-60000000D01*
X79847340Y-60000000D01*
X79395220Y-60089932D01*
X78882512Y-60432512D01*
X78730000Y-60660763D01*
X78577488Y-60432512D01*
X78064780Y-60089932D01*
X77612660Y-60000000D01*
X77307340Y-60000000D01*
X76855220Y-60089932D01*
X76342512Y-60432512D01*
X76190000Y-60660763D01*
X76037488Y-60432512D01*
X75524780Y-60089932D01*
X75072660Y-60000000D01*
X74767340Y-60000000D01*
X74315220Y-60089932D01*
X73802512Y-60432512D01*
X73459932Y-60945220D01*
X73339634Y-61550000D01*
X38900000Y-61550000D01*
X38900000Y-44165686D01*
X40282826Y-42782860D01*
X40100000Y-43224242D01*
X40100000Y-44775758D01*
X40693739Y-46209173D01*
X41790827Y-47306261D01*
X43224242Y-47900000D01*
X44775758Y-47900000D01*
X46209173Y-47306261D01*
X47306261Y-46209173D01*
X47900000Y-44775758D01*
X47900000Y-43224242D01*
X47306261Y-41790827D01*
X46209173Y-40693739D01*
X44775758Y-40100000D01*
X43224242Y-40100000D01*
X42782860Y-40282826D01*
X44165686Y-38900000D01*
X55986663Y-38900000D01*
X55784848Y-39034848D01*
G04 #@! TD*
M02*
