G04 #@! TF.GenerationSoftware,KiCad,Pcbnew,(5.0.0)*
G04 #@! TF.CreationDate,2019-07-14T20:37:54+10:00*
G04 #@! TF.ProjectId,reflow-oven-rev-001,7265666C6F772D6F76656E2D7265762D,A*
G04 #@! TF.SameCoordinates,Original*
G04 #@! TF.FileFunction,Legend,Top*
G04 #@! TF.FilePolarity,Positive*
%FSLAX46Y46*%
G04 Gerber Fmt 4.6, Leading zero omitted, Abs format (unit mm)*
G04 Created by KiCad (PCBNEW (5.0.0)) date 07/14/19 20:37:54*
%MOMM*%
%LPD*%
G01*
G04 APERTURE LIST*
%ADD10C,0.200000*%
%ADD11C,0.300000*%
%ADD12C,0.600000*%
%ADD13C,0.120000*%
%ADD14C,0.150000*%
%ADD15C,0.100000*%
%ADD16C,0.400000*%
G04 APERTURE END LIST*
D10*
X111655160Y-47680710D02*
X112059221Y-48084771D01*
X111150084Y-48589847D02*
X111857190Y-47882740D01*
X111991877Y-49431641D02*
X112092893Y-48859221D01*
X111587816Y-49027580D02*
X112294923Y-48320473D01*
X112564297Y-48589847D01*
X112597969Y-48690862D01*
X112597969Y-48758206D01*
X112564297Y-48859221D01*
X112463282Y-48960236D01*
X112362267Y-48993908D01*
X112294923Y-48993908D01*
X112193908Y-48960236D01*
X111924534Y-48690862D01*
X112463282Y-49498984D02*
X112800000Y-49835702D01*
X112193908Y-49633671D02*
X113136717Y-49162267D01*
X112665312Y-50105076D01*
X113372419Y-50677496D02*
X113305076Y-50677496D01*
X113170389Y-50610152D01*
X113103045Y-50542809D01*
X113035702Y-50408122D01*
X113035702Y-50273435D01*
X113069374Y-50172419D01*
X113170389Y-50004061D01*
X113271404Y-49903045D01*
X113439763Y-49802030D01*
X113540778Y-49768358D01*
X113675465Y-49768358D01*
X113810152Y-49835702D01*
X113877496Y-49903045D01*
X113944839Y-50037732D01*
X113944839Y-50105076D01*
X113978511Y-50677496D02*
X114214213Y-50913198D01*
X113944839Y-51384602D02*
X113608122Y-51047885D01*
X114315228Y-50340778D01*
X114651946Y-50677496D01*
X110496954Y-49122503D02*
X109991877Y-49627580D01*
X109857190Y-49694923D01*
X109722503Y-49694923D01*
X109587816Y-49627580D01*
X109520473Y-49560236D01*
X110732656Y-49358206D02*
X111136717Y-49762267D01*
X110227580Y-50267343D02*
X110934687Y-49560236D01*
X110665312Y-50705076D02*
X111372419Y-49997969D01*
X111540778Y-50166328D01*
X111608122Y-50301015D01*
X111608122Y-50435702D01*
X111574450Y-50536717D01*
X111473435Y-50705076D01*
X111372419Y-50806091D01*
X111204061Y-50907106D01*
X111103045Y-50940778D01*
X110968358Y-50940778D01*
X110833671Y-50873435D01*
X110665312Y-50705076D01*
X111372419Y-51412183D02*
X112079526Y-50705076D01*
X105914381Y-48086801D02*
X105981725Y-48221488D01*
X106150084Y-48389847D01*
X106251099Y-48423519D01*
X106318442Y-48423519D01*
X106419458Y-48389847D01*
X106486801Y-48322503D01*
X106520473Y-48221488D01*
X106520473Y-48154145D01*
X106486801Y-48053129D01*
X106385786Y-47884771D01*
X106352114Y-47783755D01*
X106352114Y-47716412D01*
X106385786Y-47615397D01*
X106453129Y-47548053D01*
X106554145Y-47514381D01*
X106621488Y-47514381D01*
X106722503Y-47548053D01*
X106890862Y-47716412D01*
X106958206Y-47851099D01*
X107227580Y-48053129D02*
X106688832Y-48928595D01*
X107328595Y-48558206D01*
X106958206Y-49197969D01*
X107833671Y-48659221D01*
X107867343Y-49972419D02*
X107800000Y-49972419D01*
X107665312Y-49905076D01*
X107597969Y-49837732D01*
X107530625Y-49703045D01*
X107530625Y-49568358D01*
X107564297Y-49467343D01*
X107665312Y-49298984D01*
X107766328Y-49197969D01*
X107934687Y-49096954D01*
X108035702Y-49063282D01*
X108170389Y-49063282D01*
X108305076Y-49130625D01*
X108372419Y-49197969D01*
X108439763Y-49332656D01*
X108439763Y-49400000D01*
X108439763Y-50679526D02*
X108103045Y-50342809D01*
X108810152Y-49635702D01*
X108675465Y-50915228D02*
X109382572Y-50208122D01*
X109079526Y-51319289D02*
X109180541Y-50612183D01*
X109786633Y-50612183D02*
X108978511Y-50612183D01*
X103415397Y-48387816D02*
X103482740Y-48522503D01*
X103651099Y-48690862D01*
X103752114Y-48724534D01*
X103819458Y-48724534D01*
X103920473Y-48690862D01*
X103987816Y-48623519D01*
X104021488Y-48522503D01*
X104021488Y-48455160D01*
X103987816Y-48354145D01*
X103886801Y-48185786D01*
X103853129Y-48084771D01*
X103853129Y-48017427D01*
X103886801Y-47916412D01*
X103954145Y-47849068D01*
X104055160Y-47815397D01*
X104122503Y-47815397D01*
X104223519Y-47849068D01*
X104391877Y-48017427D01*
X104459221Y-48152114D01*
X104728595Y-48354145D02*
X104189847Y-49229610D01*
X104829610Y-48859221D01*
X104459221Y-49498984D01*
X105334687Y-48960236D01*
X104896954Y-49936717D02*
X105604061Y-49229610D01*
X105772419Y-49397969D01*
X105839763Y-49532656D01*
X105839763Y-49667343D01*
X105806091Y-49768358D01*
X105705076Y-49936717D01*
X105604061Y-50037732D01*
X105435702Y-50138748D01*
X105334687Y-50172419D01*
X105200000Y-50172419D01*
X105065312Y-50105076D01*
X104896954Y-49936717D01*
X105604061Y-50643824D02*
X106311167Y-49936717D01*
X106782572Y-50408122D02*
X106917259Y-50542809D01*
X106950931Y-50643824D01*
X106950931Y-50778511D01*
X106849915Y-50946870D01*
X106614213Y-51182572D01*
X106445854Y-51283587D01*
X106311167Y-51283587D01*
X106210152Y-51249915D01*
X106075465Y-51115228D01*
X106041793Y-51014213D01*
X106041793Y-50879526D01*
X106142809Y-50711167D01*
X106378511Y-50475465D01*
X106546870Y-50374450D01*
X106681557Y-50374450D01*
X106782572Y-50408122D01*
X104157142Y-58852380D02*
X104157142Y-57852380D01*
X104728571Y-58852380D01*
X104728571Y-57852380D01*
X105776190Y-58852380D02*
X105442857Y-58376190D01*
X105204761Y-58852380D02*
X105204761Y-57852380D01*
X105585714Y-57852380D01*
X105680952Y-57900000D01*
X105728571Y-57947619D01*
X105776190Y-58042857D01*
X105776190Y-58185714D01*
X105728571Y-58280952D01*
X105680952Y-58328571D01*
X105585714Y-58376190D01*
X105204761Y-58376190D01*
X106157142Y-58804761D02*
X106300000Y-58852380D01*
X106538095Y-58852380D01*
X106633333Y-58804761D01*
X106680952Y-58757142D01*
X106728571Y-58661904D01*
X106728571Y-58566666D01*
X106680952Y-58471428D01*
X106633333Y-58423809D01*
X106538095Y-58376190D01*
X106347619Y-58328571D01*
X106252380Y-58280952D01*
X106204761Y-58233333D01*
X106157142Y-58138095D01*
X106157142Y-58042857D01*
X106204761Y-57947619D01*
X106252380Y-57900000D01*
X106347619Y-57852380D01*
X106585714Y-57852380D01*
X106728571Y-57900000D01*
X107014285Y-57852380D02*
X107585714Y-57852380D01*
X107300000Y-58852380D02*
X107300000Y-57852380D01*
X110185714Y-57852380D02*
X110185714Y-58566666D01*
X110138095Y-58709523D01*
X110042857Y-58804761D01*
X109900000Y-58852380D01*
X109804761Y-58852380D01*
X111233333Y-58852380D02*
X110900000Y-58376190D01*
X110661904Y-58852380D02*
X110661904Y-57852380D01*
X111042857Y-57852380D01*
X111138095Y-57900000D01*
X111185714Y-57947619D01*
X111233333Y-58042857D01*
X111233333Y-58185714D01*
X111185714Y-58280952D01*
X111138095Y-58328571D01*
X111042857Y-58376190D01*
X110661904Y-58376190D01*
X111614285Y-58804761D02*
X111757142Y-58852380D01*
X111995238Y-58852380D01*
X112090476Y-58804761D01*
X112138095Y-58757142D01*
X112185714Y-58661904D01*
X112185714Y-58566666D01*
X112138095Y-58471428D01*
X112090476Y-58423809D01*
X111995238Y-58376190D01*
X111804761Y-58328571D01*
X111709523Y-58280952D01*
X111661904Y-58233333D01*
X111614285Y-58138095D01*
X111614285Y-58042857D01*
X111661904Y-57947619D01*
X111709523Y-57900000D01*
X111804761Y-57852380D01*
X112042857Y-57852380D01*
X112185714Y-57900000D01*
X112471428Y-57852380D02*
X113042857Y-57852380D01*
X112757142Y-58852380D02*
X112757142Y-57852380D01*
D11*
X108228571Y-58307142D02*
X109371428Y-58307142D01*
X113628571Y-58307142D02*
X114771428Y-58307142D01*
X114200000Y-58878571D02*
X114200000Y-57735714D01*
D10*
X46400000Y-58200000D02*
X46400000Y-57200000D01*
X45600000Y-58200000D02*
X46400000Y-58200000D01*
X45600000Y-57200000D02*
X45600000Y-58200000D01*
X44800000Y-57200000D02*
X45600000Y-57200000D01*
X44800000Y-58200000D02*
X44800000Y-57200000D01*
D11*
X40028571Y-57707142D02*
X41171428Y-57707142D01*
X40600000Y-58278571D02*
X40600000Y-57135714D01*
X42428571Y-57707142D02*
X43571428Y-57707142D01*
X110407142Y-106664285D02*
X110478571Y-106450000D01*
X110478571Y-106092857D01*
X110407142Y-105950000D01*
X110335714Y-105878571D01*
X110192857Y-105807142D01*
X110050000Y-105807142D01*
X109907142Y-105878571D01*
X109835714Y-105950000D01*
X109764285Y-106092857D01*
X109692857Y-106378571D01*
X109621428Y-106521428D01*
X109550000Y-106592857D01*
X109407142Y-106664285D01*
X109264285Y-106664285D01*
X109121428Y-106592857D01*
X109050000Y-106521428D01*
X108978571Y-106378571D01*
X108978571Y-106021428D01*
X109050000Y-105807142D01*
X109692857Y-105164285D02*
X109692857Y-104664285D01*
X110478571Y-104450000D02*
X110478571Y-105164285D01*
X108978571Y-105164285D01*
X108978571Y-104450000D01*
X110478571Y-102950000D02*
X109764285Y-103450000D01*
X110478571Y-103807142D02*
X108978571Y-103807142D01*
X108978571Y-103235714D01*
X109050000Y-103092857D01*
X109121428Y-103021428D01*
X109264285Y-102950000D01*
X109478571Y-102950000D01*
X109621428Y-103021428D01*
X109692857Y-103092857D01*
X109764285Y-103235714D01*
X109764285Y-103807142D01*
X110478571Y-102307142D02*
X108978571Y-102307142D01*
X110050000Y-101664285D02*
X110050000Y-100950000D01*
X110478571Y-101807142D02*
X108978571Y-101307142D01*
X110478571Y-100807142D01*
X110478571Y-99592857D02*
X110478571Y-100307142D01*
X108978571Y-100307142D01*
X110478571Y-79078571D02*
X110478571Y-77578571D01*
X111335714Y-79078571D01*
X111335714Y-77578571D01*
X111978571Y-78650000D02*
X112692857Y-78650000D01*
X111835714Y-79078571D02*
X112335714Y-77578571D01*
X112835714Y-79078571D01*
X113121428Y-77578571D02*
X113978571Y-77578571D01*
X113550000Y-79078571D02*
X113550000Y-77578571D01*
X114478571Y-79078571D02*
X114478571Y-77578571D01*
X114978571Y-77578571D02*
X115478571Y-79078571D01*
X115978571Y-77578571D01*
X116478571Y-78292857D02*
X116978571Y-78292857D01*
X117192857Y-79078571D02*
X116478571Y-79078571D01*
X116478571Y-77578571D01*
X117192857Y-77578571D01*
D12*
X82857142Y-116214285D02*
X85142857Y-116214285D01*
X84000000Y-117357142D02*
X84000000Y-115071428D01*
X94057142Y-116214285D02*
X96342857Y-116214285D01*
D10*
X40859523Y-71371428D02*
X41016666Y-71423809D01*
X41069047Y-71476190D01*
X41121428Y-71580952D01*
X41121428Y-71738095D01*
X41069047Y-71842857D01*
X41016666Y-71895238D01*
X40911904Y-71947619D01*
X40492857Y-71947619D01*
X40492857Y-70847619D01*
X40859523Y-70847619D01*
X40964285Y-70900000D01*
X41016666Y-70952380D01*
X41069047Y-71057142D01*
X41069047Y-71161904D01*
X41016666Y-71266666D01*
X40964285Y-71319047D01*
X40859523Y-71371428D01*
X40492857Y-71371428D01*
X42116666Y-71947619D02*
X41592857Y-71947619D01*
X41592857Y-70847619D01*
X42483333Y-70847619D02*
X42483333Y-71738095D01*
X42535714Y-71842857D01*
X42588095Y-71895238D01*
X42692857Y-71947619D01*
X42902380Y-71947619D01*
X43007142Y-71895238D01*
X43059523Y-71842857D01*
X43111904Y-71738095D01*
X43111904Y-70847619D01*
X43635714Y-71371428D02*
X44002380Y-71371428D01*
X44159523Y-71947619D02*
X43635714Y-71947619D01*
X43635714Y-70847619D01*
X44159523Y-70847619D01*
X41116666Y-65900000D02*
X41011904Y-65847619D01*
X40854761Y-65847619D01*
X40697619Y-65900000D01*
X40592857Y-66004761D01*
X40540476Y-66109523D01*
X40488095Y-66319047D01*
X40488095Y-66476190D01*
X40540476Y-66685714D01*
X40592857Y-66790476D01*
X40697619Y-66895238D01*
X40854761Y-66947619D01*
X40959523Y-66947619D01*
X41116666Y-66895238D01*
X41169047Y-66842857D01*
X41169047Y-66476190D01*
X40959523Y-66476190D01*
X42269047Y-66947619D02*
X41902380Y-66423809D01*
X41640476Y-66947619D02*
X41640476Y-65847619D01*
X42059523Y-65847619D01*
X42164285Y-65900000D01*
X42216666Y-65952380D01*
X42269047Y-66057142D01*
X42269047Y-66214285D01*
X42216666Y-66319047D01*
X42164285Y-66371428D01*
X42059523Y-66423809D01*
X41640476Y-66423809D01*
X42740476Y-66371428D02*
X43107142Y-66371428D01*
X43264285Y-66947619D02*
X42740476Y-66947619D01*
X42740476Y-65847619D01*
X43264285Y-65847619D01*
X43735714Y-66371428D02*
X44102380Y-66371428D01*
X44259523Y-66947619D02*
X43735714Y-66947619D01*
X43735714Y-65847619D01*
X44259523Y-65847619D01*
X44730952Y-66947619D02*
X44730952Y-65847619D01*
X45359523Y-66947619D01*
X45359523Y-65847619D01*
X41342857Y-62197619D02*
X40976190Y-61673809D01*
X40714285Y-62197619D02*
X40714285Y-61097619D01*
X41133333Y-61097619D01*
X41238095Y-61150000D01*
X41290476Y-61202380D01*
X41342857Y-61307142D01*
X41342857Y-61464285D01*
X41290476Y-61569047D01*
X41238095Y-61621428D01*
X41133333Y-61673809D01*
X40714285Y-61673809D01*
X41814285Y-61621428D02*
X42180952Y-61621428D01*
X42338095Y-62197619D02*
X41814285Y-62197619D01*
X41814285Y-61097619D01*
X42338095Y-61097619D01*
X42809523Y-62197619D02*
X42809523Y-61097619D01*
X43071428Y-61097619D01*
X43228571Y-61150000D01*
X43333333Y-61254761D01*
X43385714Y-61359523D01*
X43438095Y-61569047D01*
X43438095Y-61726190D01*
X43385714Y-61935714D01*
X43333333Y-62040476D01*
X43228571Y-62145238D01*
X43071428Y-62197619D01*
X42809523Y-62197619D01*
D11*
X39957142Y-68314285D02*
X40028571Y-68100000D01*
X40028571Y-67742857D01*
X39957142Y-67600000D01*
X39885714Y-67528571D01*
X39742857Y-67457142D01*
X39600000Y-67457142D01*
X39457142Y-67528571D01*
X39385714Y-67600000D01*
X39314285Y-67742857D01*
X39242857Y-68028571D01*
X39171428Y-68171428D01*
X39100000Y-68242857D01*
X38957142Y-68314285D01*
X38814285Y-68314285D01*
X38671428Y-68242857D01*
X38600000Y-68171428D01*
X38528571Y-68028571D01*
X38528571Y-67671428D01*
X38600000Y-67457142D01*
X38528571Y-67028571D02*
X38528571Y-66171428D01*
X40028571Y-66600000D02*
X38528571Y-66600000D01*
X39600000Y-65742857D02*
X39600000Y-65028571D01*
X40028571Y-65885714D02*
X38528571Y-65385714D01*
X40028571Y-64885714D01*
X38528571Y-64600000D02*
X38528571Y-63742857D01*
X40028571Y-64171428D02*
X38528571Y-64171428D01*
X38528571Y-63242857D02*
X39742857Y-63242857D01*
X39885714Y-63171428D01*
X39957142Y-63100000D01*
X40028571Y-62957142D01*
X40028571Y-62671428D01*
X39957142Y-62528571D01*
X39885714Y-62457142D01*
X39742857Y-62385714D01*
X38528571Y-62385714D01*
X39957142Y-61742857D02*
X40028571Y-61528571D01*
X40028571Y-61171428D01*
X39957142Y-61028571D01*
X39885714Y-60957142D01*
X39742857Y-60885714D01*
X39600000Y-60885714D01*
X39457142Y-60957142D01*
X39385714Y-61028571D01*
X39314285Y-61171428D01*
X39242857Y-61457142D01*
X39171428Y-61600000D01*
X39100000Y-61671428D01*
X38957142Y-61742857D01*
X38814285Y-61742857D01*
X38671428Y-61671428D01*
X38600000Y-61600000D01*
X38528571Y-61457142D01*
X38528571Y-61100000D01*
X38600000Y-60885714D01*
X64828571Y-53628571D02*
X63971428Y-53628571D01*
X64400000Y-53628571D02*
X64400000Y-52128571D01*
X64257142Y-52342857D01*
X64114285Y-52485714D01*
X63971428Y-52557142D01*
X61421428Y-52271428D02*
X61492857Y-52200000D01*
X61635714Y-52128571D01*
X61992857Y-52128571D01*
X62135714Y-52200000D01*
X62207142Y-52271428D01*
X62278571Y-52414285D01*
X62278571Y-52557142D01*
X62207142Y-52771428D01*
X61350000Y-53628571D01*
X62278571Y-53628571D01*
X58850000Y-52128571D02*
X59778571Y-52128571D01*
X59278571Y-52700000D01*
X59492857Y-52700000D01*
X59635714Y-52771428D01*
X59707142Y-52842857D01*
X59778571Y-52985714D01*
X59778571Y-53342857D01*
X59707142Y-53485714D01*
X59635714Y-53557142D01*
X59492857Y-53628571D01*
X59064285Y-53628571D01*
X58921428Y-53557142D01*
X58850000Y-53485714D01*
X107857142Y-90378571D02*
X108714285Y-90378571D01*
X108285714Y-91878571D02*
X108285714Y-90378571D01*
X109071428Y-90378571D02*
X110071428Y-91878571D01*
X110071428Y-90378571D02*
X109071428Y-91878571D01*
X108750000Y-98678571D02*
X108250000Y-97964285D01*
X107892857Y-98678571D02*
X107892857Y-97178571D01*
X108464285Y-97178571D01*
X108607142Y-97250000D01*
X108678571Y-97321428D01*
X108750000Y-97464285D01*
X108750000Y-97678571D01*
X108678571Y-97821428D01*
X108607142Y-97892857D01*
X108464285Y-97964285D01*
X107892857Y-97964285D01*
X109250000Y-97178571D02*
X110250000Y-98678571D01*
X110250000Y-97178571D02*
X109250000Y-98678571D01*
X51728571Y-46792857D02*
X51014285Y-47292857D01*
X51728571Y-47650000D02*
X50228571Y-47650000D01*
X50228571Y-47078571D01*
X50300000Y-46935714D01*
X50371428Y-46864285D01*
X50514285Y-46792857D01*
X50728571Y-46792857D01*
X50871428Y-46864285D01*
X50942857Y-46935714D01*
X51014285Y-47078571D01*
X51014285Y-47650000D01*
X50942857Y-46150000D02*
X50942857Y-45650000D01*
X51728571Y-45435714D02*
X51728571Y-46150000D01*
X50228571Y-46150000D01*
X50228571Y-45435714D01*
X51728571Y-44078571D02*
X51728571Y-44792857D01*
X50228571Y-44792857D01*
X51300000Y-43650000D02*
X51300000Y-42935714D01*
X51728571Y-43792857D02*
X50228571Y-43292857D01*
X51728571Y-42792857D01*
X51014285Y-42007142D02*
X51728571Y-42007142D01*
X50228571Y-42507142D02*
X51014285Y-42007142D01*
X50228571Y-41507142D01*
X50228571Y-40007142D02*
X50228571Y-39078571D01*
X50800000Y-39578571D01*
X50800000Y-39364285D01*
X50871428Y-39221428D01*
X50942857Y-39150000D01*
X51085714Y-39078571D01*
X51442857Y-39078571D01*
X51585714Y-39150000D01*
X51657142Y-39221428D01*
X51728571Y-39364285D01*
X51728571Y-39792857D01*
X51657142Y-39935714D01*
X51585714Y-40007142D01*
X54278571Y-46792857D02*
X53564285Y-47292857D01*
X54278571Y-47650000D02*
X52778571Y-47650000D01*
X52778571Y-47078571D01*
X52850000Y-46935714D01*
X52921428Y-46864285D01*
X53064285Y-46792857D01*
X53278571Y-46792857D01*
X53421428Y-46864285D01*
X53492857Y-46935714D01*
X53564285Y-47078571D01*
X53564285Y-47650000D01*
X53492857Y-46150000D02*
X53492857Y-45650000D01*
X54278571Y-45435714D02*
X54278571Y-46150000D01*
X52778571Y-46150000D01*
X52778571Y-45435714D01*
X54278571Y-44078571D02*
X54278571Y-44792857D01*
X52778571Y-44792857D01*
X53850000Y-43650000D02*
X53850000Y-42935714D01*
X54278571Y-43792857D02*
X52778571Y-43292857D01*
X54278571Y-42792857D01*
X53564285Y-42007142D02*
X54278571Y-42007142D01*
X52778571Y-42507142D02*
X53564285Y-42007142D01*
X52778571Y-41507142D01*
X52921428Y-39935714D02*
X52850000Y-39864285D01*
X52778571Y-39721428D01*
X52778571Y-39364285D01*
X52850000Y-39221428D01*
X52921428Y-39150000D01*
X53064285Y-39078571D01*
X53207142Y-39078571D01*
X53421428Y-39150000D01*
X54278571Y-40007142D01*
X54278571Y-39078571D01*
X56828571Y-46792857D02*
X56114285Y-47292857D01*
X56828571Y-47650000D02*
X55328571Y-47650000D01*
X55328571Y-47078571D01*
X55400000Y-46935714D01*
X55471428Y-46864285D01*
X55614285Y-46792857D01*
X55828571Y-46792857D01*
X55971428Y-46864285D01*
X56042857Y-46935714D01*
X56114285Y-47078571D01*
X56114285Y-47650000D01*
X56042857Y-46150000D02*
X56042857Y-45650000D01*
X56828571Y-45435714D02*
X56828571Y-46150000D01*
X55328571Y-46150000D01*
X55328571Y-45435714D01*
X56828571Y-44078571D02*
X56828571Y-44792857D01*
X55328571Y-44792857D01*
X56400000Y-43650000D02*
X56400000Y-42935714D01*
X56828571Y-43792857D02*
X55328571Y-43292857D01*
X56828571Y-42792857D01*
X56114285Y-42007142D02*
X56828571Y-42007142D01*
X55328571Y-42507142D02*
X56114285Y-42007142D01*
X55328571Y-41507142D01*
X56828571Y-39078571D02*
X56828571Y-39935714D01*
X56828571Y-39507142D02*
X55328571Y-39507142D01*
X55542857Y-39650000D01*
X55685714Y-39792857D01*
X55757142Y-39935714D01*
D12*
X91657142Y-40414285D02*
X93942857Y-40414285D01*
X80457142Y-40414285D02*
X82742857Y-40414285D01*
X81600000Y-41557142D02*
X81600000Y-39271428D01*
D11*
X72978571Y-42378571D02*
X73978571Y-42378571D01*
X73335714Y-43878571D01*
X75478571Y-42878571D02*
X76050000Y-42878571D01*
X75692857Y-42378571D02*
X75692857Y-43664285D01*
X75764285Y-43807142D01*
X75907142Y-43878571D01*
X76050000Y-43878571D01*
X76764285Y-43878571D02*
X76621428Y-43807142D01*
X76550000Y-43735714D01*
X76478571Y-43592857D01*
X76478571Y-43164285D01*
X76550000Y-43021428D01*
X76621428Y-42950000D01*
X76764285Y-42878571D01*
X76978571Y-42878571D01*
X77121428Y-42950000D01*
X77192857Y-43021428D01*
X77264285Y-43164285D01*
X77264285Y-43592857D01*
X77192857Y-43735714D01*
X77121428Y-43807142D01*
X76978571Y-43878571D01*
X76764285Y-43878571D01*
X78978571Y-42521428D02*
X79050000Y-42450000D01*
X79192857Y-42378571D01*
X79550000Y-42378571D01*
X79692857Y-42450000D01*
X79764285Y-42521428D01*
X79835714Y-42664285D01*
X79835714Y-42807142D01*
X79764285Y-43021428D01*
X78907142Y-43878571D01*
X79835714Y-43878571D01*
X81121428Y-42878571D02*
X81121428Y-43878571D01*
X80764285Y-42307142D02*
X80407142Y-43378571D01*
X81335714Y-43378571D01*
X81692857Y-42378571D02*
X82192857Y-43878571D01*
X82692857Y-42378571D01*
D13*
G04 #@! TO.C,J111*
X94030000Y-101750000D02*
X94030000Y-103080000D01*
X94030000Y-103080000D02*
X92700000Y-103080000D01*
X91430000Y-103080000D02*
X73590000Y-103080000D01*
X73590000Y-100420000D02*
X73590000Y-103080000D01*
X91430000Y-100420000D02*
X73590000Y-100420000D01*
X91430000Y-100420000D02*
X91430000Y-103080000D01*
G04 #@! TO.C,J110*
X91430000Y-60220000D02*
X91430000Y-62880000D01*
X91430000Y-60220000D02*
X73590000Y-60220000D01*
X73590000Y-60220000D02*
X73590000Y-62880000D01*
X91430000Y-62880000D02*
X73590000Y-62880000D01*
X94030000Y-62880000D02*
X92700000Y-62880000D01*
X94030000Y-61550000D02*
X94030000Y-62880000D01*
D14*
G04 #@! TO.C,J112*
X111300000Y-102950000D02*
X111900000Y-103250000D01*
X111300000Y-103550000D02*
X111300000Y-102950000D01*
X111900000Y-103250000D02*
X111300000Y-103550000D01*
D13*
G04 #@! TO.C,J107*
X105050000Y-51670000D02*
X105050000Y-56870000D01*
X112730000Y-51670000D02*
X105050000Y-51670000D01*
X115330000Y-56870000D02*
X105050000Y-56870000D01*
X112730000Y-51670000D02*
X112730000Y-54270000D01*
X112730000Y-54270000D02*
X115330000Y-54270000D01*
X115330000Y-54270000D02*
X115330000Y-56870000D01*
X114000000Y-51670000D02*
X115330000Y-51670000D01*
X115330000Y-51670000D02*
X115330000Y-53000000D01*
D14*
G04 #@! TO.C,J109*
X112000000Y-85400000D02*
X111400000Y-85700000D01*
X111400000Y-85700000D02*
X111400000Y-85100000D01*
X111400000Y-85100000D02*
X112000000Y-85400000D01*
D13*
G04 #@! TO.C,U105*
X107650000Y-86060000D02*
X109450000Y-86060000D01*
X109450000Y-82840000D02*
X107000000Y-82840000D01*
D15*
G04 #@! TO.C,J104*
X90850000Y-45550000D02*
X90850000Y-46550000D01*
X90850000Y-46550000D02*
X89850000Y-46550000D01*
X84750000Y-46550000D02*
X83750000Y-46550000D01*
X83750000Y-46550000D02*
X83750000Y-45550000D01*
X83750000Y-40450000D02*
X83750000Y-39450000D01*
X83750000Y-39450000D02*
X84750000Y-39450000D01*
X90850000Y-40450000D02*
X90850000Y-39450000D01*
X90850000Y-39450000D02*
X89850000Y-39450000D01*
G04 #@! TO.C,J106*
X86150000Y-111350000D02*
X86150000Y-110350000D01*
X86150000Y-110350000D02*
X87150000Y-110350000D01*
X92250000Y-110350000D02*
X93250000Y-110350000D01*
X93250000Y-110350000D02*
X93250000Y-111350000D01*
X93250000Y-116450000D02*
X93250000Y-117450000D01*
X93250000Y-117450000D02*
X92250000Y-117450000D01*
X86150000Y-116450000D02*
X86150000Y-117450000D01*
X86150000Y-117450000D02*
X87150000Y-117450000D01*
G04 #@! TO.C,J101*
X72100000Y-45550000D02*
X72100000Y-46550000D01*
X72100000Y-46550000D02*
X71100000Y-46550000D01*
X59000000Y-46550000D02*
X58000000Y-46550000D01*
X58000000Y-45550000D02*
X58000000Y-46550000D01*
X58000000Y-40450000D02*
X58000000Y-39450000D01*
X58000000Y-39450000D02*
X59000000Y-39450000D01*
X72100000Y-40450000D02*
X72100000Y-39450000D01*
X72100000Y-39450000D02*
X71100000Y-39450000D01*
D10*
G04 #@! TO.C,BZ101*
X64400000Y-107000000D02*
G75*
G03X64400000Y-107000000I-6400000J0D01*
G01*
D13*
G04 #@! TO.C,C102*
X86160000Y-50910436D02*
X86160000Y-52114564D01*
X84340000Y-50910436D02*
X84340000Y-52114564D01*
G04 #@! TO.C,C103*
X67961252Y-51610000D02*
X67438748Y-51610000D01*
X67961252Y-50190000D02*
X67438748Y-50190000D01*
G04 #@! TO.C,C104*
X70561252Y-62190000D02*
X70038748Y-62190000D01*
X70561252Y-63610000D02*
X70038748Y-63610000D01*
G04 #@! TO.C,C105*
X97538748Y-51690000D02*
X98061252Y-51690000D01*
X97538748Y-53110000D02*
X98061252Y-53110000D01*
G04 #@! TO.C,C106*
X85110000Y-112488748D02*
X85110000Y-113011252D01*
X83690000Y-112488748D02*
X83690000Y-113011252D01*
G04 #@! TO.C,C113*
X85760000Y-107661252D02*
X85760000Y-107138748D01*
X84340000Y-107661252D02*
X84340000Y-107138748D01*
G04 #@! TO.C,C114*
X69338748Y-107060000D02*
X69861252Y-107060000D01*
X69338748Y-105640000D02*
X69861252Y-105640000D01*
G04 #@! TO.C,C115*
X71790000Y-77338748D02*
X71790000Y-77861252D01*
X73210000Y-77338748D02*
X73210000Y-77861252D01*
G04 #@! TO.C,C116*
X73210000Y-81738748D02*
X73210000Y-82261252D01*
X71790000Y-81738748D02*
X71790000Y-82261252D01*
D15*
G04 #@! TO.C,D101*
X63900000Y-56100000D02*
X64300000Y-55700000D01*
X64700000Y-56100000D02*
X63900000Y-56100000D01*
X64300000Y-55700000D02*
X64700000Y-56100000D01*
X64700000Y-55700000D02*
X63900000Y-55700000D01*
D13*
X63400000Y-54100000D02*
X63400000Y-56900000D01*
X65200000Y-54100000D02*
X63400000Y-54100000D01*
X65200000Y-56900000D02*
X65200000Y-54100000D01*
G04 #@! TO.C,D102*
X62700000Y-56900000D02*
X62700000Y-54100000D01*
X62700000Y-54100000D02*
X60900000Y-54100000D01*
X60900000Y-54100000D02*
X60900000Y-56900000D01*
D15*
X62200000Y-55700000D02*
X61400000Y-55700000D01*
X61800000Y-55700000D02*
X62200000Y-56100000D01*
X62200000Y-56100000D02*
X61400000Y-56100000D01*
X61400000Y-56100000D02*
X61800000Y-55700000D01*
G04 #@! TO.C,D103*
X58900000Y-56100000D02*
X59300000Y-55700000D01*
X59700000Y-56100000D02*
X58900000Y-56100000D01*
X59300000Y-55700000D02*
X59700000Y-56100000D01*
X59700000Y-55700000D02*
X58900000Y-55700000D01*
D13*
X58400000Y-54100000D02*
X58400000Y-56900000D01*
X60200000Y-54100000D02*
X58400000Y-54100000D01*
X60200000Y-56900000D02*
X60200000Y-54100000D01*
G04 #@! TO.C,D104*
X83350000Y-49600000D02*
X80050000Y-49600000D01*
X80050000Y-49600000D02*
X80050000Y-56500000D01*
X83350000Y-49600000D02*
X83350000Y-56500000D01*
G04 #@! TO.C,D105*
X87170000Y-108160000D02*
X88100000Y-108160000D01*
X90330000Y-108160000D02*
X89400000Y-108160000D01*
X90330000Y-108160000D02*
X90330000Y-106000000D01*
X87170000Y-108160000D02*
X87170000Y-106700000D01*
D15*
G04 #@! TO.C,D106*
X97600000Y-47000000D02*
X98000000Y-47400000D01*
X97600000Y-47800000D02*
X97600000Y-47000000D01*
X98000000Y-47400000D02*
X97600000Y-47800000D01*
X98000000Y-47800000D02*
X98000000Y-47000000D01*
D13*
X99600000Y-46500000D02*
X96800000Y-46500000D01*
X99600000Y-48300000D02*
X99600000Y-46500000D01*
X96800000Y-48300000D02*
X99600000Y-48300000D01*
G04 #@! TO.C,D107*
X96800000Y-43300000D02*
X99600000Y-43300000D01*
X99600000Y-43300000D02*
X99600000Y-41500000D01*
X99600000Y-41500000D02*
X96800000Y-41500000D01*
D15*
X98000000Y-42800000D02*
X98000000Y-42000000D01*
X98000000Y-42400000D02*
X97600000Y-42800000D01*
X97600000Y-42800000D02*
X97600000Y-42000000D01*
X97600000Y-42000000D02*
X98000000Y-42400000D01*
D13*
G04 #@! TO.C,D108*
X41250000Y-60500000D02*
X44050000Y-60500000D01*
X44050000Y-60500000D02*
X44050000Y-58700000D01*
X44050000Y-58700000D02*
X41250000Y-58700000D01*
D15*
X42450000Y-60000000D02*
X42450000Y-59200000D01*
X42450000Y-59600000D02*
X42050000Y-60000000D01*
X42050000Y-60000000D02*
X42050000Y-59200000D01*
X42050000Y-59200000D02*
X42450000Y-59600000D01*
G04 #@! TO.C,D109*
X42050000Y-64200000D02*
X42450000Y-64600000D01*
X42050000Y-65000000D02*
X42050000Y-64200000D01*
X42450000Y-64600000D02*
X42050000Y-65000000D01*
X42450000Y-65000000D02*
X42450000Y-64200000D01*
D13*
X44050000Y-63700000D02*
X41250000Y-63700000D01*
X44050000Y-65500000D02*
X44050000Y-63700000D01*
X41250000Y-65500000D02*
X44050000Y-65500000D01*
G04 #@! TO.C,D110*
X41250000Y-70300000D02*
X44050000Y-70300000D01*
X44050000Y-70300000D02*
X44050000Y-68500000D01*
X44050000Y-68500000D02*
X41250000Y-68500000D01*
D15*
X42450000Y-69800000D02*
X42450000Y-69000000D01*
X42450000Y-69400000D02*
X42050000Y-69800000D01*
X42050000Y-69800000D02*
X42050000Y-69000000D01*
X42050000Y-69000000D02*
X42450000Y-69400000D01*
G04 #@! TO.C,D111*
X109400000Y-93700000D02*
X109000000Y-93300000D01*
X109400000Y-92900000D02*
X109400000Y-93700000D01*
X109000000Y-93300000D02*
X109400000Y-92900000D01*
X109000000Y-92900000D02*
X109000000Y-93700000D01*
D13*
X107400000Y-94200000D02*
X110200000Y-94200000D01*
X107400000Y-92400000D02*
X107400000Y-94200000D01*
X110200000Y-92400000D02*
X107400000Y-92400000D01*
G04 #@! TO.C,D112*
X110200000Y-94900000D02*
X107400000Y-94900000D01*
X107400000Y-94900000D02*
X107400000Y-96700000D01*
X107400000Y-96700000D02*
X110200000Y-96700000D01*
D15*
X109000000Y-95400000D02*
X109000000Y-96200000D01*
X109000000Y-95800000D02*
X109400000Y-95400000D01*
X109400000Y-95400000D02*
X109400000Y-96200000D01*
X109400000Y-96200000D02*
X109000000Y-95800000D01*
D10*
G04 #@! TO.C,H101*
X59300000Y-98100000D02*
X38400000Y-98100000D01*
X38400000Y-98100000D02*
X38400000Y-72500000D01*
X38400000Y-72500000D02*
X59300000Y-72500000D01*
X59300000Y-72500000D02*
X59300000Y-98100000D01*
D13*
G04 #@! TO.C,J105*
X46910000Y-56330000D02*
X46910000Y-53670000D01*
X41770000Y-56330000D02*
X46910000Y-56330000D01*
X41770000Y-53670000D02*
X46910000Y-53670000D01*
X41770000Y-56330000D02*
X41770000Y-53670000D01*
X40500000Y-56330000D02*
X39170000Y-56330000D01*
X39170000Y-56330000D02*
X39170000Y-55000000D01*
D10*
G04 #@! TO.C,J108*
X102650000Y-61000000D02*
X105000000Y-61000000D01*
X102650000Y-61000000D02*
X102650000Y-74800000D01*
X102650000Y-74800000D02*
X105000000Y-74800000D01*
X108200000Y-61000000D02*
X113200000Y-61000000D01*
X108200000Y-74800000D02*
X113200000Y-74800000D01*
X116400000Y-74800000D02*
X117300000Y-74800000D01*
X117300000Y-74800000D02*
X117300000Y-61000000D01*
X117300000Y-61000000D02*
X116400000Y-61000000D01*
X117300001Y-71099999D02*
G75*
G02X117300001Y-64700001I4049999J3199999D01*
G01*
G04 #@! TO.C,L101*
X78650000Y-48450000D02*
X78650000Y-48050000D01*
X78650000Y-48050000D02*
X70450000Y-48050000D01*
X70450000Y-48050000D02*
X70450000Y-48450000D01*
X78650000Y-55850000D02*
X78650000Y-56250000D01*
X78650000Y-56250000D02*
X70450000Y-56250000D01*
X70450000Y-56250000D02*
X70450000Y-55850000D01*
D13*
G04 #@! TO.C,Q101*
X52840000Y-51600000D02*
X52840000Y-53000000D01*
X55160000Y-53000000D02*
X55160000Y-51100000D01*
G04 #@! TO.C,Q102*
X48640000Y-51600000D02*
X48640000Y-53500000D01*
X50960000Y-53000000D02*
X50960000Y-51600000D01*
G04 #@! TO.C,Q103*
X64840000Y-94620000D02*
X66300000Y-94620000D01*
X64840000Y-97780000D02*
X67000000Y-97780000D01*
X64840000Y-97780000D02*
X64840000Y-96850000D01*
X64840000Y-94620000D02*
X64840000Y-95550000D01*
G04 #@! TO.C,Q104*
X76930000Y-70290000D02*
X76930000Y-71750000D01*
X73770000Y-70290000D02*
X73770000Y-72450000D01*
X73770000Y-70290000D02*
X74700000Y-70290000D01*
X76930000Y-70290000D02*
X76000000Y-70290000D01*
G04 #@! TO.C,Q105*
X52140000Y-58820000D02*
X52140000Y-59750000D01*
X52140000Y-61980000D02*
X52140000Y-61050000D01*
X52140000Y-61980000D02*
X54300000Y-61980000D01*
X52140000Y-58820000D02*
X53600000Y-58820000D01*
G04 #@! TO.C,Q106*
X52140000Y-63020000D02*
X53600000Y-63020000D01*
X52140000Y-66180000D02*
X54300000Y-66180000D01*
X52140000Y-66180000D02*
X52140000Y-65250000D01*
X52140000Y-63020000D02*
X52140000Y-63950000D01*
G04 #@! TO.C,Q107*
X52140000Y-67020000D02*
X52140000Y-67950000D01*
X52140000Y-70180000D02*
X52140000Y-69250000D01*
X52140000Y-70180000D02*
X54300000Y-70180000D01*
X52140000Y-67020000D02*
X53600000Y-67020000D01*
G04 #@! TO.C,R101*
X62290000Y-50161252D02*
X62290000Y-49638748D01*
X63710000Y-50161252D02*
X63710000Y-49638748D01*
G04 #@! TO.C,R102*
X66810000Y-61061252D02*
X66810000Y-60538748D01*
X65390000Y-61061252D02*
X65390000Y-60538748D01*
G04 #@! TO.C,R103*
X62890000Y-61061252D02*
X62890000Y-60538748D01*
X64310000Y-61061252D02*
X64310000Y-60538748D01*
G04 #@! TO.C,R104*
X60390000Y-61061252D02*
X60390000Y-60538748D01*
X61810000Y-61061252D02*
X61810000Y-60538748D01*
G04 #@! TO.C,R105*
X59790000Y-50161252D02*
X59790000Y-49638748D01*
X61210000Y-50161252D02*
X61210000Y-49638748D01*
G04 #@! TO.C,R106*
X58710000Y-50161252D02*
X58710000Y-49638748D01*
X57290000Y-50161252D02*
X57290000Y-49638748D01*
G04 #@! TO.C,R107*
X89990000Y-56761252D02*
X89990000Y-56238748D01*
X91410000Y-56761252D02*
X91410000Y-56238748D01*
G04 #@! TO.C,R108*
X98061252Y-55610000D02*
X97538748Y-55610000D01*
X98061252Y-54190000D02*
X97538748Y-54190000D01*
G04 #@! TO.C,R109*
X92490000Y-56238748D02*
X92490000Y-56761252D01*
X93910000Y-56238748D02*
X93910000Y-56761252D01*
G04 #@! TO.C,R110*
X44861252Y-50840000D02*
X44338748Y-50840000D01*
X44861252Y-52260000D02*
X44338748Y-52260000D01*
G04 #@! TO.C,R111*
X80640000Y-71311252D02*
X80640000Y-70788748D01*
X82060000Y-71311252D02*
X82060000Y-70788748D01*
G04 #@! TO.C,R112*
X63338748Y-100360000D02*
X63861252Y-100360000D01*
X63338748Y-98940000D02*
X63861252Y-98940000D01*
G04 #@! TO.C,R113*
X68490000Y-96461252D02*
X68490000Y-95938748D01*
X69910000Y-96461252D02*
X69910000Y-95938748D01*
G04 #@! TO.C,R114*
X104040000Y-82463748D02*
X104040000Y-82986252D01*
X105460000Y-82463748D02*
X105460000Y-82986252D01*
G04 #@! TO.C,R115*
X107811252Y-88210000D02*
X107288748Y-88210000D01*
X107811252Y-86790000D02*
X107288748Y-86790000D01*
G04 #@! TO.C,R116*
X103111252Y-86790000D02*
X102588748Y-86790000D01*
X103111252Y-88210000D02*
X102588748Y-88210000D01*
G04 #@! TO.C,R117*
X98061252Y-49190000D02*
X97538748Y-49190000D01*
X98061252Y-50610000D02*
X97538748Y-50610000D01*
G04 #@! TO.C,R118*
X105845480Y-106261252D02*
X105845480Y-105738748D01*
X104425480Y-106261252D02*
X104425480Y-105738748D01*
G04 #@! TO.C,R119*
X114761252Y-94010000D02*
X114238748Y-94010000D01*
X114761252Y-92590000D02*
X114238748Y-92590000D01*
G04 #@! TO.C,R120*
X114761252Y-95090000D02*
X114238748Y-95090000D01*
X114761252Y-96510000D02*
X114238748Y-96510000D01*
G04 #@! TO.C,R121*
X101990000Y-105738748D02*
X101990000Y-106261252D01*
X103410000Y-105738748D02*
X103410000Y-106261252D01*
G04 #@! TO.C,R122*
X98061252Y-45610000D02*
X97538748Y-45610000D01*
X98061252Y-44190000D02*
X97538748Y-44190000D01*
G04 #@! TO.C,R123*
X47188748Y-58890000D02*
X47711252Y-58890000D01*
X47188748Y-60310000D02*
X47711252Y-60310000D01*
G04 #@! TO.C,R124*
X78140000Y-71311252D02*
X78140000Y-70788748D01*
X79560000Y-71311252D02*
X79560000Y-70788748D01*
G04 #@! TO.C,R125*
X47188748Y-65310000D02*
X47711252Y-65310000D01*
X47188748Y-63890000D02*
X47711252Y-63890000D01*
G04 #@! TO.C,R126*
X47188748Y-70110000D02*
X47711252Y-70110000D01*
X47188748Y-68690000D02*
X47711252Y-68690000D01*
D15*
G04 #@! TO.C,SW101*
X72100000Y-111100000D02*
G75*
G03X72100000Y-111100000I-1400000J0D01*
G01*
X72200000Y-113400000D02*
X69200000Y-113400000D01*
X68400000Y-111850000D02*
X68400000Y-110350000D01*
X69200000Y-108800000D02*
X72200000Y-108800000D01*
X73000000Y-111850000D02*
X73000000Y-110350000D01*
D16*
G04 #@! TO.C,U101*
X88200000Y-47900000D02*
G75*
G03X88200000Y-47900000I-200000J0D01*
G01*
D10*
X88600000Y-53600000D02*
X92600000Y-53600000D01*
X88600000Y-48200000D02*
X92600000Y-48200000D01*
D13*
G04 #@! TO.C,U102*
X68790000Y-58550000D02*
X68790000Y-60350000D01*
X72010000Y-60350000D02*
X72010000Y-57900000D01*
D14*
G04 #@! TO.C,U103*
X77625000Y-111175000D02*
X77675000Y-111175000D01*
X77625000Y-107025000D02*
X77770000Y-107025000D01*
X82775000Y-107025000D02*
X82630000Y-107025000D01*
X82775000Y-111175000D02*
X82630000Y-111175000D01*
X77625000Y-111175000D02*
X77625000Y-107025000D01*
X82775000Y-111175000D02*
X82775000Y-107025000D01*
X77675000Y-111175000D02*
X77675000Y-112575000D01*
G04 #@! TO.C,U104*
X77925000Y-76025000D02*
X77925000Y-77025000D01*
X88275000Y-76025000D02*
X88275000Y-77100000D01*
X88275000Y-86375000D02*
X88275000Y-85300000D01*
X77925000Y-86375000D02*
X77925000Y-85300000D01*
X77925000Y-76025000D02*
X79000000Y-76025000D01*
X77925000Y-86375000D02*
X79000000Y-86375000D01*
X88275000Y-86375000D02*
X87200000Y-86375000D01*
X88275000Y-76025000D02*
X87200000Y-76025000D01*
X77925000Y-77025000D02*
X76900000Y-77025000D01*
G04 #@! TO.C,U106*
X98325000Y-92425000D02*
X98325000Y-93000000D01*
X104075000Y-92425000D02*
X104075000Y-93075000D01*
X104075000Y-103075000D02*
X104075000Y-102425000D01*
X98325000Y-103075000D02*
X98325000Y-102425000D01*
X98325000Y-92425000D02*
X104075000Y-92425000D01*
X98325000Y-103075000D02*
X104075000Y-103075000D01*
X98325000Y-93000000D02*
X96725000Y-93000000D01*
D15*
G04 #@! TO.C,Y101*
X69050000Y-78750000D02*
X69550000Y-78750000D01*
X69050000Y-80850000D02*
X69550000Y-80850000D01*
X68000000Y-79950000D02*
X68000000Y-79650000D01*
X70600000Y-79950000D02*
X70600000Y-79650000D01*
D11*
X66950000Y-81300000D02*
G75*
G03X66950000Y-81300000I-150000J0D01*
G01*
G04 #@! TO.C,J111*
D14*
X94922380Y-103035714D02*
X95636666Y-103035714D01*
X95779523Y-103083333D01*
X95874761Y-103178571D01*
X95922380Y-103321428D01*
X95922380Y-103416666D01*
X95922380Y-102035714D02*
X95922380Y-102607142D01*
X95922380Y-102321428D02*
X94922380Y-102321428D01*
X95065238Y-102416666D01*
X95160476Y-102511904D01*
X95208095Y-102607142D01*
X95922380Y-101083333D02*
X95922380Y-101654761D01*
X95922380Y-101369047D02*
X94922380Y-101369047D01*
X95065238Y-101464285D01*
X95160476Y-101559523D01*
X95208095Y-101654761D01*
X95922380Y-100130952D02*
X95922380Y-100702380D01*
X95922380Y-100416666D02*
X94922380Y-100416666D01*
X95065238Y-100511904D01*
X95160476Y-100607142D01*
X95208095Y-100702380D01*
G04 #@! TO.C,J110*
X94922380Y-62835714D02*
X95636666Y-62835714D01*
X95779523Y-62883333D01*
X95874761Y-62978571D01*
X95922380Y-63121428D01*
X95922380Y-63216666D01*
X95922380Y-61835714D02*
X95922380Y-62407142D01*
X95922380Y-62121428D02*
X94922380Y-62121428D01*
X95065238Y-62216666D01*
X95160476Y-62311904D01*
X95208095Y-62407142D01*
X95922380Y-60883333D02*
X95922380Y-61454761D01*
X95922380Y-61169047D02*
X94922380Y-61169047D01*
X95065238Y-61264285D01*
X95160476Y-61359523D01*
X95208095Y-61454761D01*
X94922380Y-60264285D02*
X94922380Y-60169047D01*
X94970000Y-60073809D01*
X95017619Y-60026190D01*
X95112857Y-59978571D01*
X95303333Y-59930952D01*
X95541428Y-59930952D01*
X95731904Y-59978571D01*
X95827142Y-60026190D01*
X95874761Y-60073809D01*
X95922380Y-60169047D01*
X95922380Y-60264285D01*
X95874761Y-60359523D01*
X95827142Y-60407142D01*
X95731904Y-60454761D01*
X95541428Y-60502380D01*
X95303333Y-60502380D01*
X95112857Y-60454761D01*
X95017619Y-60407142D01*
X94970000Y-60359523D01*
X94922380Y-60264285D01*
G04 #@! TO.C,J112*
X114814285Y-106652380D02*
X114814285Y-107366666D01*
X114766666Y-107509523D01*
X114671428Y-107604761D01*
X114528571Y-107652380D01*
X114433333Y-107652380D01*
X115814285Y-107652380D02*
X115242857Y-107652380D01*
X115528571Y-107652380D02*
X115528571Y-106652380D01*
X115433333Y-106795238D01*
X115338095Y-106890476D01*
X115242857Y-106938095D01*
X116766666Y-107652380D02*
X116195238Y-107652380D01*
X116480952Y-107652380D02*
X116480952Y-106652380D01*
X116385714Y-106795238D01*
X116290476Y-106890476D01*
X116195238Y-106938095D01*
X117147619Y-106747619D02*
X117195238Y-106700000D01*
X117290476Y-106652380D01*
X117528571Y-106652380D01*
X117623809Y-106700000D01*
X117671428Y-106747619D01*
X117719047Y-106842857D01*
X117719047Y-106938095D01*
X117671428Y-107080952D01*
X117100000Y-107652380D01*
X117719047Y-107652380D01*
G04 #@! TO.C,J107*
X116252380Y-55685714D02*
X116966666Y-55685714D01*
X117109523Y-55733333D01*
X117204761Y-55828571D01*
X117252380Y-55971428D01*
X117252380Y-56066666D01*
X117252380Y-54685714D02*
X117252380Y-55257142D01*
X117252380Y-54971428D02*
X116252380Y-54971428D01*
X116395238Y-55066666D01*
X116490476Y-55161904D01*
X116538095Y-55257142D01*
X116252380Y-54066666D02*
X116252380Y-53971428D01*
X116300000Y-53876190D01*
X116347619Y-53828571D01*
X116442857Y-53780952D01*
X116633333Y-53733333D01*
X116871428Y-53733333D01*
X117061904Y-53780952D01*
X117157142Y-53828571D01*
X117204761Y-53876190D01*
X117252380Y-53971428D01*
X117252380Y-54066666D01*
X117204761Y-54161904D01*
X117157142Y-54209523D01*
X117061904Y-54257142D01*
X116871428Y-54304761D01*
X116633333Y-54304761D01*
X116442857Y-54257142D01*
X116347619Y-54209523D01*
X116300000Y-54161904D01*
X116252380Y-54066666D01*
X116252380Y-53400000D02*
X116252380Y-52733333D01*
X117252380Y-53161904D01*
G04 #@! TO.C,J109*
X114514285Y-88852380D02*
X114514285Y-89566666D01*
X114466666Y-89709523D01*
X114371428Y-89804761D01*
X114228571Y-89852380D01*
X114133333Y-89852380D01*
X115514285Y-89852380D02*
X114942857Y-89852380D01*
X115228571Y-89852380D02*
X115228571Y-88852380D01*
X115133333Y-88995238D01*
X115038095Y-89090476D01*
X114942857Y-89138095D01*
X116133333Y-88852380D02*
X116228571Y-88852380D01*
X116323809Y-88900000D01*
X116371428Y-88947619D01*
X116419047Y-89042857D01*
X116466666Y-89233333D01*
X116466666Y-89471428D01*
X116419047Y-89661904D01*
X116371428Y-89757142D01*
X116323809Y-89804761D01*
X116228571Y-89852380D01*
X116133333Y-89852380D01*
X116038095Y-89804761D01*
X115990476Y-89757142D01*
X115942857Y-89661904D01*
X115895238Y-89471428D01*
X115895238Y-89233333D01*
X115942857Y-89042857D01*
X115990476Y-88947619D01*
X116038095Y-88900000D01*
X116133333Y-88852380D01*
X116942857Y-89852380D02*
X117133333Y-89852380D01*
X117228571Y-89804761D01*
X117276190Y-89757142D01*
X117371428Y-89614285D01*
X117419047Y-89423809D01*
X117419047Y-89042857D01*
X117371428Y-88947619D01*
X117323809Y-88900000D01*
X117228571Y-88852380D01*
X117038095Y-88852380D01*
X116942857Y-88900000D01*
X116895238Y-88947619D01*
X116847619Y-89042857D01*
X116847619Y-89280952D01*
X116895238Y-89376190D01*
X116942857Y-89423809D01*
X117038095Y-89471428D01*
X117228571Y-89471428D01*
X117323809Y-89423809D01*
X117371428Y-89376190D01*
X117419047Y-89280952D01*
G04 #@! TO.C,U105*
X106835714Y-81002380D02*
X106835714Y-81811904D01*
X106883333Y-81907142D01*
X106930952Y-81954761D01*
X107026190Y-82002380D01*
X107216666Y-82002380D01*
X107311904Y-81954761D01*
X107359523Y-81907142D01*
X107407142Y-81811904D01*
X107407142Y-81002380D01*
X108407142Y-82002380D02*
X107835714Y-82002380D01*
X108121428Y-82002380D02*
X108121428Y-81002380D01*
X108026190Y-81145238D01*
X107930952Y-81240476D01*
X107835714Y-81288095D01*
X109026190Y-81002380D02*
X109121428Y-81002380D01*
X109216666Y-81050000D01*
X109264285Y-81097619D01*
X109311904Y-81192857D01*
X109359523Y-81383333D01*
X109359523Y-81621428D01*
X109311904Y-81811904D01*
X109264285Y-81907142D01*
X109216666Y-81954761D01*
X109121428Y-82002380D01*
X109026190Y-82002380D01*
X108930952Y-81954761D01*
X108883333Y-81907142D01*
X108835714Y-81811904D01*
X108788095Y-81621428D01*
X108788095Y-81383333D01*
X108835714Y-81192857D01*
X108883333Y-81097619D01*
X108930952Y-81050000D01*
X109026190Y-81002380D01*
X110264285Y-81002380D02*
X109788095Y-81002380D01*
X109740476Y-81478571D01*
X109788095Y-81430952D01*
X109883333Y-81383333D01*
X110121428Y-81383333D01*
X110216666Y-81430952D01*
X110264285Y-81478571D01*
X110311904Y-81573809D01*
X110311904Y-81811904D01*
X110264285Y-81907142D01*
X110216666Y-81954761D01*
X110121428Y-82002380D01*
X109883333Y-82002380D01*
X109788095Y-81954761D01*
X109740476Y-81907142D01*
G04 #@! TO.C,J104*
X80314285Y-44452380D02*
X80314285Y-45166666D01*
X80266666Y-45309523D01*
X80171428Y-45404761D01*
X80028571Y-45452380D01*
X79933333Y-45452380D01*
X81314285Y-45452380D02*
X80742857Y-45452380D01*
X81028571Y-45452380D02*
X81028571Y-44452380D01*
X80933333Y-44595238D01*
X80838095Y-44690476D01*
X80742857Y-44738095D01*
X81933333Y-44452380D02*
X82028571Y-44452380D01*
X82123809Y-44500000D01*
X82171428Y-44547619D01*
X82219047Y-44642857D01*
X82266666Y-44833333D01*
X82266666Y-45071428D01*
X82219047Y-45261904D01*
X82171428Y-45357142D01*
X82123809Y-45404761D01*
X82028571Y-45452380D01*
X81933333Y-45452380D01*
X81838095Y-45404761D01*
X81790476Y-45357142D01*
X81742857Y-45261904D01*
X81695238Y-45071428D01*
X81695238Y-44833333D01*
X81742857Y-44642857D01*
X81790476Y-44547619D01*
X81838095Y-44500000D01*
X81933333Y-44452380D01*
X83123809Y-44785714D02*
X83123809Y-45452380D01*
X82885714Y-44404761D02*
X82647619Y-45119047D01*
X83266666Y-45119047D01*
G04 #@! TO.C,J106*
X91014285Y-108852380D02*
X91014285Y-109566666D01*
X90966666Y-109709523D01*
X90871428Y-109804761D01*
X90728571Y-109852380D01*
X90633333Y-109852380D01*
X92014285Y-109852380D02*
X91442857Y-109852380D01*
X91728571Y-109852380D02*
X91728571Y-108852380D01*
X91633333Y-108995238D01*
X91538095Y-109090476D01*
X91442857Y-109138095D01*
X92633333Y-108852380D02*
X92728571Y-108852380D01*
X92823809Y-108900000D01*
X92871428Y-108947619D01*
X92919047Y-109042857D01*
X92966666Y-109233333D01*
X92966666Y-109471428D01*
X92919047Y-109661904D01*
X92871428Y-109757142D01*
X92823809Y-109804761D01*
X92728571Y-109852380D01*
X92633333Y-109852380D01*
X92538095Y-109804761D01*
X92490476Y-109757142D01*
X92442857Y-109661904D01*
X92395238Y-109471428D01*
X92395238Y-109233333D01*
X92442857Y-109042857D01*
X92490476Y-108947619D01*
X92538095Y-108900000D01*
X92633333Y-108852380D01*
X93823809Y-108852380D02*
X93633333Y-108852380D01*
X93538095Y-108900000D01*
X93490476Y-108947619D01*
X93395238Y-109090476D01*
X93347619Y-109280952D01*
X93347619Y-109661904D01*
X93395238Y-109757142D01*
X93442857Y-109804761D01*
X93538095Y-109852380D01*
X93728571Y-109852380D01*
X93823809Y-109804761D01*
X93871428Y-109757142D01*
X93919047Y-109661904D01*
X93919047Y-109423809D01*
X93871428Y-109328571D01*
X93823809Y-109280952D01*
X93728571Y-109233333D01*
X93538095Y-109233333D01*
X93442857Y-109280952D01*
X93395238Y-109328571D01*
X93347619Y-109423809D01*
G04 #@! TO.C,J101*
X73114285Y-39052380D02*
X73114285Y-39766666D01*
X73066666Y-39909523D01*
X72971428Y-40004761D01*
X72828571Y-40052380D01*
X72733333Y-40052380D01*
X74114285Y-40052380D02*
X73542857Y-40052380D01*
X73828571Y-40052380D02*
X73828571Y-39052380D01*
X73733333Y-39195238D01*
X73638095Y-39290476D01*
X73542857Y-39338095D01*
X74733333Y-39052380D02*
X74828571Y-39052380D01*
X74923809Y-39100000D01*
X74971428Y-39147619D01*
X75019047Y-39242857D01*
X75066666Y-39433333D01*
X75066666Y-39671428D01*
X75019047Y-39861904D01*
X74971428Y-39957142D01*
X74923809Y-40004761D01*
X74828571Y-40052380D01*
X74733333Y-40052380D01*
X74638095Y-40004761D01*
X74590476Y-39957142D01*
X74542857Y-39861904D01*
X74495238Y-39671428D01*
X74495238Y-39433333D01*
X74542857Y-39242857D01*
X74590476Y-39147619D01*
X74638095Y-39100000D01*
X74733333Y-39052380D01*
X76019047Y-40052380D02*
X75447619Y-40052380D01*
X75733333Y-40052380D02*
X75733333Y-39052380D01*
X75638095Y-39195238D01*
X75542857Y-39290476D01*
X75447619Y-39338095D01*
G04 #@! TO.C,BZ101*
X48366666Y-101628571D02*
X48509523Y-101676190D01*
X48557142Y-101723809D01*
X48604761Y-101819047D01*
X48604761Y-101961904D01*
X48557142Y-102057142D01*
X48509523Y-102104761D01*
X48414285Y-102152380D01*
X48033333Y-102152380D01*
X48033333Y-101152380D01*
X48366666Y-101152380D01*
X48461904Y-101200000D01*
X48509523Y-101247619D01*
X48557142Y-101342857D01*
X48557142Y-101438095D01*
X48509523Y-101533333D01*
X48461904Y-101580952D01*
X48366666Y-101628571D01*
X48033333Y-101628571D01*
X48938095Y-101152380D02*
X49604761Y-101152380D01*
X48938095Y-102152380D01*
X49604761Y-102152380D01*
X50509523Y-102152380D02*
X49938095Y-102152380D01*
X50223809Y-102152380D02*
X50223809Y-101152380D01*
X50128571Y-101295238D01*
X50033333Y-101390476D01*
X49938095Y-101438095D01*
X51128571Y-101152380D02*
X51223809Y-101152380D01*
X51319047Y-101200000D01*
X51366666Y-101247619D01*
X51414285Y-101342857D01*
X51461904Y-101533333D01*
X51461904Y-101771428D01*
X51414285Y-101961904D01*
X51366666Y-102057142D01*
X51319047Y-102104761D01*
X51223809Y-102152380D01*
X51128571Y-102152380D01*
X51033333Y-102104761D01*
X50985714Y-102057142D01*
X50938095Y-101961904D01*
X50890476Y-101771428D01*
X50890476Y-101533333D01*
X50938095Y-101342857D01*
X50985714Y-101247619D01*
X51033333Y-101200000D01*
X51128571Y-101152380D01*
X52414285Y-102152380D02*
X51842857Y-102152380D01*
X52128571Y-102152380D02*
X52128571Y-101152380D01*
X52033333Y-101295238D01*
X51938095Y-101390476D01*
X51842857Y-101438095D01*
G04 #@! TO.C,C102*
X85557142Y-57319047D02*
X85604761Y-57366666D01*
X85652380Y-57509523D01*
X85652380Y-57604761D01*
X85604761Y-57747619D01*
X85509523Y-57842857D01*
X85414285Y-57890476D01*
X85223809Y-57938095D01*
X85080952Y-57938095D01*
X84890476Y-57890476D01*
X84795238Y-57842857D01*
X84700000Y-57747619D01*
X84652380Y-57604761D01*
X84652380Y-57509523D01*
X84700000Y-57366666D01*
X84747619Y-57319047D01*
X85652380Y-56366666D02*
X85652380Y-56938095D01*
X85652380Y-56652380D02*
X84652380Y-56652380D01*
X84795238Y-56747619D01*
X84890476Y-56842857D01*
X84938095Y-56938095D01*
X84652380Y-55747619D02*
X84652380Y-55652380D01*
X84700000Y-55557142D01*
X84747619Y-55509523D01*
X84842857Y-55461904D01*
X85033333Y-55414285D01*
X85271428Y-55414285D01*
X85461904Y-55461904D01*
X85557142Y-55509523D01*
X85604761Y-55557142D01*
X85652380Y-55652380D01*
X85652380Y-55747619D01*
X85604761Y-55842857D01*
X85557142Y-55890476D01*
X85461904Y-55938095D01*
X85271428Y-55985714D01*
X85033333Y-55985714D01*
X84842857Y-55938095D01*
X84747619Y-55890476D01*
X84700000Y-55842857D01*
X84652380Y-55747619D01*
X84747619Y-55033333D02*
X84700000Y-54985714D01*
X84652380Y-54890476D01*
X84652380Y-54652380D01*
X84700000Y-54557142D01*
X84747619Y-54509523D01*
X84842857Y-54461904D01*
X84938095Y-54461904D01*
X85080952Y-54509523D01*
X85652380Y-55080952D01*
X85652380Y-54461904D01*
G04 #@! TO.C,C103*
X66480952Y-49357142D02*
X66433333Y-49404761D01*
X66290476Y-49452380D01*
X66195238Y-49452380D01*
X66052380Y-49404761D01*
X65957142Y-49309523D01*
X65909523Y-49214285D01*
X65861904Y-49023809D01*
X65861904Y-48880952D01*
X65909523Y-48690476D01*
X65957142Y-48595238D01*
X66052380Y-48500000D01*
X66195238Y-48452380D01*
X66290476Y-48452380D01*
X66433333Y-48500000D01*
X66480952Y-48547619D01*
X67433333Y-49452380D02*
X66861904Y-49452380D01*
X67147619Y-49452380D02*
X67147619Y-48452380D01*
X67052380Y-48595238D01*
X66957142Y-48690476D01*
X66861904Y-48738095D01*
X68052380Y-48452380D02*
X68147619Y-48452380D01*
X68242857Y-48500000D01*
X68290476Y-48547619D01*
X68338095Y-48642857D01*
X68385714Y-48833333D01*
X68385714Y-49071428D01*
X68338095Y-49261904D01*
X68290476Y-49357142D01*
X68242857Y-49404761D01*
X68147619Y-49452380D01*
X68052380Y-49452380D01*
X67957142Y-49404761D01*
X67909523Y-49357142D01*
X67861904Y-49261904D01*
X67814285Y-49071428D01*
X67814285Y-48833333D01*
X67861904Y-48642857D01*
X67909523Y-48547619D01*
X67957142Y-48500000D01*
X68052380Y-48452380D01*
X68719047Y-48452380D02*
X69338095Y-48452380D01*
X69004761Y-48833333D01*
X69147619Y-48833333D01*
X69242857Y-48880952D01*
X69290476Y-48928571D01*
X69338095Y-49023809D01*
X69338095Y-49261904D01*
X69290476Y-49357142D01*
X69242857Y-49404761D01*
X69147619Y-49452380D01*
X68861904Y-49452380D01*
X68766666Y-49404761D01*
X68719047Y-49357142D01*
G04 #@! TO.C,C104*
X69180952Y-64907142D02*
X69133333Y-64954761D01*
X68990476Y-65002380D01*
X68895238Y-65002380D01*
X68752380Y-64954761D01*
X68657142Y-64859523D01*
X68609523Y-64764285D01*
X68561904Y-64573809D01*
X68561904Y-64430952D01*
X68609523Y-64240476D01*
X68657142Y-64145238D01*
X68752380Y-64050000D01*
X68895238Y-64002380D01*
X68990476Y-64002380D01*
X69133333Y-64050000D01*
X69180952Y-64097619D01*
X70133333Y-65002380D02*
X69561904Y-65002380D01*
X69847619Y-65002380D02*
X69847619Y-64002380D01*
X69752380Y-64145238D01*
X69657142Y-64240476D01*
X69561904Y-64288095D01*
X70752380Y-64002380D02*
X70847619Y-64002380D01*
X70942857Y-64050000D01*
X70990476Y-64097619D01*
X71038095Y-64192857D01*
X71085714Y-64383333D01*
X71085714Y-64621428D01*
X71038095Y-64811904D01*
X70990476Y-64907142D01*
X70942857Y-64954761D01*
X70847619Y-65002380D01*
X70752380Y-65002380D01*
X70657142Y-64954761D01*
X70609523Y-64907142D01*
X70561904Y-64811904D01*
X70514285Y-64621428D01*
X70514285Y-64383333D01*
X70561904Y-64192857D01*
X70609523Y-64097619D01*
X70657142Y-64050000D01*
X70752380Y-64002380D01*
X71942857Y-64335714D02*
X71942857Y-65002380D01*
X71704761Y-63954761D02*
X71466666Y-64669047D01*
X72085714Y-64669047D01*
G04 #@! TO.C,C105*
X100680952Y-52757142D02*
X100633333Y-52804761D01*
X100490476Y-52852380D01*
X100395238Y-52852380D01*
X100252380Y-52804761D01*
X100157142Y-52709523D01*
X100109523Y-52614285D01*
X100061904Y-52423809D01*
X100061904Y-52280952D01*
X100109523Y-52090476D01*
X100157142Y-51995238D01*
X100252380Y-51900000D01*
X100395238Y-51852380D01*
X100490476Y-51852380D01*
X100633333Y-51900000D01*
X100680952Y-51947619D01*
X101633333Y-52852380D02*
X101061904Y-52852380D01*
X101347619Y-52852380D02*
X101347619Y-51852380D01*
X101252380Y-51995238D01*
X101157142Y-52090476D01*
X101061904Y-52138095D01*
X102252380Y-51852380D02*
X102347619Y-51852380D01*
X102442857Y-51900000D01*
X102490476Y-51947619D01*
X102538095Y-52042857D01*
X102585714Y-52233333D01*
X102585714Y-52471428D01*
X102538095Y-52661904D01*
X102490476Y-52757142D01*
X102442857Y-52804761D01*
X102347619Y-52852380D01*
X102252380Y-52852380D01*
X102157142Y-52804761D01*
X102109523Y-52757142D01*
X102061904Y-52661904D01*
X102014285Y-52471428D01*
X102014285Y-52233333D01*
X102061904Y-52042857D01*
X102109523Y-51947619D01*
X102157142Y-51900000D01*
X102252380Y-51852380D01*
X103490476Y-51852380D02*
X103014285Y-51852380D01*
X102966666Y-52328571D01*
X103014285Y-52280952D01*
X103109523Y-52233333D01*
X103347619Y-52233333D01*
X103442857Y-52280952D01*
X103490476Y-52328571D01*
X103538095Y-52423809D01*
X103538095Y-52661904D01*
X103490476Y-52757142D01*
X103442857Y-52804761D01*
X103347619Y-52852380D01*
X103109523Y-52852380D01*
X103014285Y-52804761D01*
X102966666Y-52757142D01*
G04 #@! TO.C,C106*
X80080952Y-114357142D02*
X80033333Y-114404761D01*
X79890476Y-114452380D01*
X79795238Y-114452380D01*
X79652380Y-114404761D01*
X79557142Y-114309523D01*
X79509523Y-114214285D01*
X79461904Y-114023809D01*
X79461904Y-113880952D01*
X79509523Y-113690476D01*
X79557142Y-113595238D01*
X79652380Y-113500000D01*
X79795238Y-113452380D01*
X79890476Y-113452380D01*
X80033333Y-113500000D01*
X80080952Y-113547619D01*
X81033333Y-114452380D02*
X80461904Y-114452380D01*
X80747619Y-114452380D02*
X80747619Y-113452380D01*
X80652380Y-113595238D01*
X80557142Y-113690476D01*
X80461904Y-113738095D01*
X81652380Y-113452380D02*
X81747619Y-113452380D01*
X81842857Y-113500000D01*
X81890476Y-113547619D01*
X81938095Y-113642857D01*
X81985714Y-113833333D01*
X81985714Y-114071428D01*
X81938095Y-114261904D01*
X81890476Y-114357142D01*
X81842857Y-114404761D01*
X81747619Y-114452380D01*
X81652380Y-114452380D01*
X81557142Y-114404761D01*
X81509523Y-114357142D01*
X81461904Y-114261904D01*
X81414285Y-114071428D01*
X81414285Y-113833333D01*
X81461904Y-113642857D01*
X81509523Y-113547619D01*
X81557142Y-113500000D01*
X81652380Y-113452380D01*
X82842857Y-113452380D02*
X82652380Y-113452380D01*
X82557142Y-113500000D01*
X82509523Y-113547619D01*
X82414285Y-113690476D01*
X82366666Y-113880952D01*
X82366666Y-114261904D01*
X82414285Y-114357142D01*
X82461904Y-114404761D01*
X82557142Y-114452380D01*
X82747619Y-114452380D01*
X82842857Y-114404761D01*
X82890476Y-114357142D01*
X82938095Y-114261904D01*
X82938095Y-114023809D01*
X82890476Y-113928571D01*
X82842857Y-113880952D01*
X82747619Y-113833333D01*
X82557142Y-113833333D01*
X82461904Y-113880952D01*
X82414285Y-113928571D01*
X82366666Y-114023809D01*
G04 #@! TO.C,C113*
X83780952Y-104957142D02*
X83733333Y-105004761D01*
X83590476Y-105052380D01*
X83495238Y-105052380D01*
X83352380Y-105004761D01*
X83257142Y-104909523D01*
X83209523Y-104814285D01*
X83161904Y-104623809D01*
X83161904Y-104480952D01*
X83209523Y-104290476D01*
X83257142Y-104195238D01*
X83352380Y-104100000D01*
X83495238Y-104052380D01*
X83590476Y-104052380D01*
X83733333Y-104100000D01*
X83780952Y-104147619D01*
X84733333Y-105052380D02*
X84161904Y-105052380D01*
X84447619Y-105052380D02*
X84447619Y-104052380D01*
X84352380Y-104195238D01*
X84257142Y-104290476D01*
X84161904Y-104338095D01*
X85685714Y-105052380D02*
X85114285Y-105052380D01*
X85400000Y-105052380D02*
X85400000Y-104052380D01*
X85304761Y-104195238D01*
X85209523Y-104290476D01*
X85114285Y-104338095D01*
X86019047Y-104052380D02*
X86638095Y-104052380D01*
X86304761Y-104433333D01*
X86447619Y-104433333D01*
X86542857Y-104480952D01*
X86590476Y-104528571D01*
X86638095Y-104623809D01*
X86638095Y-104861904D01*
X86590476Y-104957142D01*
X86542857Y-105004761D01*
X86447619Y-105052380D01*
X86161904Y-105052380D01*
X86066666Y-105004761D01*
X86019047Y-104957142D01*
G04 #@! TO.C,C114*
X68480952Y-105057142D02*
X68433333Y-105104761D01*
X68290476Y-105152380D01*
X68195238Y-105152380D01*
X68052380Y-105104761D01*
X67957142Y-105009523D01*
X67909523Y-104914285D01*
X67861904Y-104723809D01*
X67861904Y-104580952D01*
X67909523Y-104390476D01*
X67957142Y-104295238D01*
X68052380Y-104200000D01*
X68195238Y-104152380D01*
X68290476Y-104152380D01*
X68433333Y-104200000D01*
X68480952Y-104247619D01*
X69433333Y-105152380D02*
X68861904Y-105152380D01*
X69147619Y-105152380D02*
X69147619Y-104152380D01*
X69052380Y-104295238D01*
X68957142Y-104390476D01*
X68861904Y-104438095D01*
X70385714Y-105152380D02*
X69814285Y-105152380D01*
X70100000Y-105152380D02*
X70100000Y-104152380D01*
X70004761Y-104295238D01*
X69909523Y-104390476D01*
X69814285Y-104438095D01*
X71242857Y-104485714D02*
X71242857Y-105152380D01*
X71004761Y-104104761D02*
X70766666Y-104819047D01*
X71385714Y-104819047D01*
G04 #@! TO.C,C115*
X71980952Y-75357142D02*
X71933333Y-75404761D01*
X71790476Y-75452380D01*
X71695238Y-75452380D01*
X71552380Y-75404761D01*
X71457142Y-75309523D01*
X71409523Y-75214285D01*
X71361904Y-75023809D01*
X71361904Y-74880952D01*
X71409523Y-74690476D01*
X71457142Y-74595238D01*
X71552380Y-74500000D01*
X71695238Y-74452380D01*
X71790476Y-74452380D01*
X71933333Y-74500000D01*
X71980952Y-74547619D01*
X72933333Y-75452380D02*
X72361904Y-75452380D01*
X72647619Y-75452380D02*
X72647619Y-74452380D01*
X72552380Y-74595238D01*
X72457142Y-74690476D01*
X72361904Y-74738095D01*
X73885714Y-75452380D02*
X73314285Y-75452380D01*
X73600000Y-75452380D02*
X73600000Y-74452380D01*
X73504761Y-74595238D01*
X73409523Y-74690476D01*
X73314285Y-74738095D01*
X74790476Y-74452380D02*
X74314285Y-74452380D01*
X74266666Y-74928571D01*
X74314285Y-74880952D01*
X74409523Y-74833333D01*
X74647619Y-74833333D01*
X74742857Y-74880952D01*
X74790476Y-74928571D01*
X74838095Y-75023809D01*
X74838095Y-75261904D01*
X74790476Y-75357142D01*
X74742857Y-75404761D01*
X74647619Y-75452380D01*
X74409523Y-75452380D01*
X74314285Y-75404761D01*
X74266666Y-75357142D01*
G04 #@! TO.C,C116*
X71380952Y-85457142D02*
X71333333Y-85504761D01*
X71190476Y-85552380D01*
X71095238Y-85552380D01*
X70952380Y-85504761D01*
X70857142Y-85409523D01*
X70809523Y-85314285D01*
X70761904Y-85123809D01*
X70761904Y-84980952D01*
X70809523Y-84790476D01*
X70857142Y-84695238D01*
X70952380Y-84600000D01*
X71095238Y-84552380D01*
X71190476Y-84552380D01*
X71333333Y-84600000D01*
X71380952Y-84647619D01*
X72333333Y-85552380D02*
X71761904Y-85552380D01*
X72047619Y-85552380D02*
X72047619Y-84552380D01*
X71952380Y-84695238D01*
X71857142Y-84790476D01*
X71761904Y-84838095D01*
X73285714Y-85552380D02*
X72714285Y-85552380D01*
X73000000Y-85552380D02*
X73000000Y-84552380D01*
X72904761Y-84695238D01*
X72809523Y-84790476D01*
X72714285Y-84838095D01*
X74142857Y-84552380D02*
X73952380Y-84552380D01*
X73857142Y-84600000D01*
X73809523Y-84647619D01*
X73714285Y-84790476D01*
X73666666Y-84980952D01*
X73666666Y-85361904D01*
X73714285Y-85457142D01*
X73761904Y-85504761D01*
X73857142Y-85552380D01*
X74047619Y-85552380D01*
X74142857Y-85504761D01*
X74190476Y-85457142D01*
X74238095Y-85361904D01*
X74238095Y-85123809D01*
X74190476Y-85028571D01*
X74142857Y-84980952D01*
X74047619Y-84933333D01*
X73857142Y-84933333D01*
X73761904Y-84980952D01*
X73714285Y-85028571D01*
X73666666Y-85123809D01*
G04 #@! TO.C,D101*
X64159523Y-58902380D02*
X64159523Y-57902380D01*
X64397619Y-57902380D01*
X64540476Y-57950000D01*
X64635714Y-58045238D01*
X64683333Y-58140476D01*
X64730952Y-58330952D01*
X64730952Y-58473809D01*
X64683333Y-58664285D01*
X64635714Y-58759523D01*
X64540476Y-58854761D01*
X64397619Y-58902380D01*
X64159523Y-58902380D01*
X65683333Y-58902380D02*
X65111904Y-58902380D01*
X65397619Y-58902380D02*
X65397619Y-57902380D01*
X65302380Y-58045238D01*
X65207142Y-58140476D01*
X65111904Y-58188095D01*
X66302380Y-57902380D02*
X66397619Y-57902380D01*
X66492857Y-57950000D01*
X66540476Y-57997619D01*
X66588095Y-58092857D01*
X66635714Y-58283333D01*
X66635714Y-58521428D01*
X66588095Y-58711904D01*
X66540476Y-58807142D01*
X66492857Y-58854761D01*
X66397619Y-58902380D01*
X66302380Y-58902380D01*
X66207142Y-58854761D01*
X66159523Y-58807142D01*
X66111904Y-58711904D01*
X66064285Y-58521428D01*
X66064285Y-58283333D01*
X66111904Y-58092857D01*
X66159523Y-57997619D01*
X66207142Y-57950000D01*
X66302380Y-57902380D01*
X67588095Y-58902380D02*
X67016666Y-58902380D01*
X67302380Y-58902380D02*
X67302380Y-57902380D01*
X67207142Y-58045238D01*
X67111904Y-58140476D01*
X67016666Y-58188095D01*
G04 #@! TO.C,D102*
X60109523Y-58852380D02*
X60109523Y-57852380D01*
X60347619Y-57852380D01*
X60490476Y-57900000D01*
X60585714Y-57995238D01*
X60633333Y-58090476D01*
X60680952Y-58280952D01*
X60680952Y-58423809D01*
X60633333Y-58614285D01*
X60585714Y-58709523D01*
X60490476Y-58804761D01*
X60347619Y-58852380D01*
X60109523Y-58852380D01*
X61633333Y-58852380D02*
X61061904Y-58852380D01*
X61347619Y-58852380D02*
X61347619Y-57852380D01*
X61252380Y-57995238D01*
X61157142Y-58090476D01*
X61061904Y-58138095D01*
X62252380Y-57852380D02*
X62347619Y-57852380D01*
X62442857Y-57900000D01*
X62490476Y-57947619D01*
X62538095Y-58042857D01*
X62585714Y-58233333D01*
X62585714Y-58471428D01*
X62538095Y-58661904D01*
X62490476Y-58757142D01*
X62442857Y-58804761D01*
X62347619Y-58852380D01*
X62252380Y-58852380D01*
X62157142Y-58804761D01*
X62109523Y-58757142D01*
X62061904Y-58661904D01*
X62014285Y-58471428D01*
X62014285Y-58233333D01*
X62061904Y-58042857D01*
X62109523Y-57947619D01*
X62157142Y-57900000D01*
X62252380Y-57852380D01*
X62966666Y-57947619D02*
X63014285Y-57900000D01*
X63109523Y-57852380D01*
X63347619Y-57852380D01*
X63442857Y-57900000D01*
X63490476Y-57947619D01*
X63538095Y-58042857D01*
X63538095Y-58138095D01*
X63490476Y-58280952D01*
X62919047Y-58852380D01*
X63538095Y-58852380D01*
G04 #@! TO.C,D103*
X56009523Y-58852380D02*
X56009523Y-57852380D01*
X56247619Y-57852380D01*
X56390476Y-57900000D01*
X56485714Y-57995238D01*
X56533333Y-58090476D01*
X56580952Y-58280952D01*
X56580952Y-58423809D01*
X56533333Y-58614285D01*
X56485714Y-58709523D01*
X56390476Y-58804761D01*
X56247619Y-58852380D01*
X56009523Y-58852380D01*
X57533333Y-58852380D02*
X56961904Y-58852380D01*
X57247619Y-58852380D02*
X57247619Y-57852380D01*
X57152380Y-57995238D01*
X57057142Y-58090476D01*
X56961904Y-58138095D01*
X58152380Y-57852380D02*
X58247619Y-57852380D01*
X58342857Y-57900000D01*
X58390476Y-57947619D01*
X58438095Y-58042857D01*
X58485714Y-58233333D01*
X58485714Y-58471428D01*
X58438095Y-58661904D01*
X58390476Y-58757142D01*
X58342857Y-58804761D01*
X58247619Y-58852380D01*
X58152380Y-58852380D01*
X58057142Y-58804761D01*
X58009523Y-58757142D01*
X57961904Y-58661904D01*
X57914285Y-58471428D01*
X57914285Y-58233333D01*
X57961904Y-58042857D01*
X58009523Y-57947619D01*
X58057142Y-57900000D01*
X58152380Y-57852380D01*
X58819047Y-57852380D02*
X59438095Y-57852380D01*
X59104761Y-58233333D01*
X59247619Y-58233333D01*
X59342857Y-58280952D01*
X59390476Y-58328571D01*
X59438095Y-58423809D01*
X59438095Y-58661904D01*
X59390476Y-58757142D01*
X59342857Y-58804761D01*
X59247619Y-58852380D01*
X58961904Y-58852380D01*
X58866666Y-58804761D01*
X58819047Y-58757142D01*
G04 #@! TO.C,D104*
X79909523Y-48852380D02*
X79909523Y-47852380D01*
X80147619Y-47852380D01*
X80290476Y-47900000D01*
X80385714Y-47995238D01*
X80433333Y-48090476D01*
X80480952Y-48280952D01*
X80480952Y-48423809D01*
X80433333Y-48614285D01*
X80385714Y-48709523D01*
X80290476Y-48804761D01*
X80147619Y-48852380D01*
X79909523Y-48852380D01*
X81433333Y-48852380D02*
X80861904Y-48852380D01*
X81147619Y-48852380D02*
X81147619Y-47852380D01*
X81052380Y-47995238D01*
X80957142Y-48090476D01*
X80861904Y-48138095D01*
X82052380Y-47852380D02*
X82147619Y-47852380D01*
X82242857Y-47900000D01*
X82290476Y-47947619D01*
X82338095Y-48042857D01*
X82385714Y-48233333D01*
X82385714Y-48471428D01*
X82338095Y-48661904D01*
X82290476Y-48757142D01*
X82242857Y-48804761D01*
X82147619Y-48852380D01*
X82052380Y-48852380D01*
X81957142Y-48804761D01*
X81909523Y-48757142D01*
X81861904Y-48661904D01*
X81814285Y-48471428D01*
X81814285Y-48233333D01*
X81861904Y-48042857D01*
X81909523Y-47947619D01*
X81957142Y-47900000D01*
X82052380Y-47852380D01*
X83242857Y-48185714D02*
X83242857Y-48852380D01*
X83004761Y-47804761D02*
X82766666Y-48519047D01*
X83385714Y-48519047D01*
G04 #@! TO.C,D105*
X87509523Y-105052380D02*
X87509523Y-104052380D01*
X87747619Y-104052380D01*
X87890476Y-104100000D01*
X87985714Y-104195238D01*
X88033333Y-104290476D01*
X88080952Y-104480952D01*
X88080952Y-104623809D01*
X88033333Y-104814285D01*
X87985714Y-104909523D01*
X87890476Y-105004761D01*
X87747619Y-105052380D01*
X87509523Y-105052380D01*
X89033333Y-105052380D02*
X88461904Y-105052380D01*
X88747619Y-105052380D02*
X88747619Y-104052380D01*
X88652380Y-104195238D01*
X88557142Y-104290476D01*
X88461904Y-104338095D01*
X89652380Y-104052380D02*
X89747619Y-104052380D01*
X89842857Y-104100000D01*
X89890476Y-104147619D01*
X89938095Y-104242857D01*
X89985714Y-104433333D01*
X89985714Y-104671428D01*
X89938095Y-104861904D01*
X89890476Y-104957142D01*
X89842857Y-105004761D01*
X89747619Y-105052380D01*
X89652380Y-105052380D01*
X89557142Y-105004761D01*
X89509523Y-104957142D01*
X89461904Y-104861904D01*
X89414285Y-104671428D01*
X89414285Y-104433333D01*
X89461904Y-104242857D01*
X89509523Y-104147619D01*
X89557142Y-104100000D01*
X89652380Y-104052380D01*
X90890476Y-104052380D02*
X90414285Y-104052380D01*
X90366666Y-104528571D01*
X90414285Y-104480952D01*
X90509523Y-104433333D01*
X90747619Y-104433333D01*
X90842857Y-104480952D01*
X90890476Y-104528571D01*
X90938095Y-104623809D01*
X90938095Y-104861904D01*
X90890476Y-104957142D01*
X90842857Y-105004761D01*
X90747619Y-105052380D01*
X90509523Y-105052380D01*
X90414285Y-105004761D01*
X90366666Y-104957142D01*
G04 #@! TO.C,D106*
X92109523Y-47852380D02*
X92109523Y-46852380D01*
X92347619Y-46852380D01*
X92490476Y-46900000D01*
X92585714Y-46995238D01*
X92633333Y-47090476D01*
X92680952Y-47280952D01*
X92680952Y-47423809D01*
X92633333Y-47614285D01*
X92585714Y-47709523D01*
X92490476Y-47804761D01*
X92347619Y-47852380D01*
X92109523Y-47852380D01*
X93633333Y-47852380D02*
X93061904Y-47852380D01*
X93347619Y-47852380D02*
X93347619Y-46852380D01*
X93252380Y-46995238D01*
X93157142Y-47090476D01*
X93061904Y-47138095D01*
X94252380Y-46852380D02*
X94347619Y-46852380D01*
X94442857Y-46900000D01*
X94490476Y-46947619D01*
X94538095Y-47042857D01*
X94585714Y-47233333D01*
X94585714Y-47471428D01*
X94538095Y-47661904D01*
X94490476Y-47757142D01*
X94442857Y-47804761D01*
X94347619Y-47852380D01*
X94252380Y-47852380D01*
X94157142Y-47804761D01*
X94109523Y-47757142D01*
X94061904Y-47661904D01*
X94014285Y-47471428D01*
X94014285Y-47233333D01*
X94061904Y-47042857D01*
X94109523Y-46947619D01*
X94157142Y-46900000D01*
X94252380Y-46852380D01*
X95442857Y-46852380D02*
X95252380Y-46852380D01*
X95157142Y-46900000D01*
X95109523Y-46947619D01*
X95014285Y-47090476D01*
X94966666Y-47280952D01*
X94966666Y-47661904D01*
X95014285Y-47757142D01*
X95061904Y-47804761D01*
X95157142Y-47852380D01*
X95347619Y-47852380D01*
X95442857Y-47804761D01*
X95490476Y-47757142D01*
X95538095Y-47661904D01*
X95538095Y-47423809D01*
X95490476Y-47328571D01*
X95442857Y-47280952D01*
X95347619Y-47233333D01*
X95157142Y-47233333D01*
X95061904Y-47280952D01*
X95014285Y-47328571D01*
X94966666Y-47423809D01*
G04 #@! TO.C,D107*
X92209523Y-42902380D02*
X92209523Y-41902380D01*
X92447619Y-41902380D01*
X92590476Y-41950000D01*
X92685714Y-42045238D01*
X92733333Y-42140476D01*
X92780952Y-42330952D01*
X92780952Y-42473809D01*
X92733333Y-42664285D01*
X92685714Y-42759523D01*
X92590476Y-42854761D01*
X92447619Y-42902380D01*
X92209523Y-42902380D01*
X93733333Y-42902380D02*
X93161904Y-42902380D01*
X93447619Y-42902380D02*
X93447619Y-41902380D01*
X93352380Y-42045238D01*
X93257142Y-42140476D01*
X93161904Y-42188095D01*
X94352380Y-41902380D02*
X94447619Y-41902380D01*
X94542857Y-41950000D01*
X94590476Y-41997619D01*
X94638095Y-42092857D01*
X94685714Y-42283333D01*
X94685714Y-42521428D01*
X94638095Y-42711904D01*
X94590476Y-42807142D01*
X94542857Y-42854761D01*
X94447619Y-42902380D01*
X94352380Y-42902380D01*
X94257142Y-42854761D01*
X94209523Y-42807142D01*
X94161904Y-42711904D01*
X94114285Y-42521428D01*
X94114285Y-42283333D01*
X94161904Y-42092857D01*
X94209523Y-41997619D01*
X94257142Y-41950000D01*
X94352380Y-41902380D01*
X95019047Y-41902380D02*
X95685714Y-41902380D01*
X95257142Y-42902380D01*
G04 #@! TO.C,D108*
X45809523Y-61852380D02*
X45809523Y-60852380D01*
X46047619Y-60852380D01*
X46190476Y-60900000D01*
X46285714Y-60995238D01*
X46333333Y-61090476D01*
X46380952Y-61280952D01*
X46380952Y-61423809D01*
X46333333Y-61614285D01*
X46285714Y-61709523D01*
X46190476Y-61804761D01*
X46047619Y-61852380D01*
X45809523Y-61852380D01*
X47333333Y-61852380D02*
X46761904Y-61852380D01*
X47047619Y-61852380D02*
X47047619Y-60852380D01*
X46952380Y-60995238D01*
X46857142Y-61090476D01*
X46761904Y-61138095D01*
X47952380Y-60852380D02*
X48047619Y-60852380D01*
X48142857Y-60900000D01*
X48190476Y-60947619D01*
X48238095Y-61042857D01*
X48285714Y-61233333D01*
X48285714Y-61471428D01*
X48238095Y-61661904D01*
X48190476Y-61757142D01*
X48142857Y-61804761D01*
X48047619Y-61852380D01*
X47952380Y-61852380D01*
X47857142Y-61804761D01*
X47809523Y-61757142D01*
X47761904Y-61661904D01*
X47714285Y-61471428D01*
X47714285Y-61233333D01*
X47761904Y-61042857D01*
X47809523Y-60947619D01*
X47857142Y-60900000D01*
X47952380Y-60852380D01*
X48857142Y-61280952D02*
X48761904Y-61233333D01*
X48714285Y-61185714D01*
X48666666Y-61090476D01*
X48666666Y-61042857D01*
X48714285Y-60947619D01*
X48761904Y-60900000D01*
X48857142Y-60852380D01*
X49047619Y-60852380D01*
X49142857Y-60900000D01*
X49190476Y-60947619D01*
X49238095Y-61042857D01*
X49238095Y-61090476D01*
X49190476Y-61185714D01*
X49142857Y-61233333D01*
X49047619Y-61280952D01*
X48857142Y-61280952D01*
X48761904Y-61328571D01*
X48714285Y-61376190D01*
X48666666Y-61471428D01*
X48666666Y-61661904D01*
X48714285Y-61757142D01*
X48761904Y-61804761D01*
X48857142Y-61852380D01*
X49047619Y-61852380D01*
X49142857Y-61804761D01*
X49190476Y-61757142D01*
X49238095Y-61661904D01*
X49238095Y-61471428D01*
X49190476Y-61376190D01*
X49142857Y-61328571D01*
X49047619Y-61280952D01*
G04 #@! TO.C,D109*
X45859523Y-66952380D02*
X45859523Y-65952380D01*
X46097619Y-65952380D01*
X46240476Y-66000000D01*
X46335714Y-66095238D01*
X46383333Y-66190476D01*
X46430952Y-66380952D01*
X46430952Y-66523809D01*
X46383333Y-66714285D01*
X46335714Y-66809523D01*
X46240476Y-66904761D01*
X46097619Y-66952380D01*
X45859523Y-66952380D01*
X47383333Y-66952380D02*
X46811904Y-66952380D01*
X47097619Y-66952380D02*
X47097619Y-65952380D01*
X47002380Y-66095238D01*
X46907142Y-66190476D01*
X46811904Y-66238095D01*
X48002380Y-65952380D02*
X48097619Y-65952380D01*
X48192857Y-66000000D01*
X48240476Y-66047619D01*
X48288095Y-66142857D01*
X48335714Y-66333333D01*
X48335714Y-66571428D01*
X48288095Y-66761904D01*
X48240476Y-66857142D01*
X48192857Y-66904761D01*
X48097619Y-66952380D01*
X48002380Y-66952380D01*
X47907142Y-66904761D01*
X47859523Y-66857142D01*
X47811904Y-66761904D01*
X47764285Y-66571428D01*
X47764285Y-66333333D01*
X47811904Y-66142857D01*
X47859523Y-66047619D01*
X47907142Y-66000000D01*
X48002380Y-65952380D01*
X48811904Y-66952380D02*
X49002380Y-66952380D01*
X49097619Y-66904761D01*
X49145238Y-66857142D01*
X49240476Y-66714285D01*
X49288095Y-66523809D01*
X49288095Y-66142857D01*
X49240476Y-66047619D01*
X49192857Y-66000000D01*
X49097619Y-65952380D01*
X48907142Y-65952380D01*
X48811904Y-66000000D01*
X48764285Y-66047619D01*
X48716666Y-66142857D01*
X48716666Y-66380952D01*
X48764285Y-66476190D01*
X48811904Y-66523809D01*
X48907142Y-66571428D01*
X49097619Y-66571428D01*
X49192857Y-66523809D01*
X49240476Y-66476190D01*
X49288095Y-66380952D01*
G04 #@! TO.C,D110*
X45709523Y-71752380D02*
X45709523Y-70752380D01*
X45947619Y-70752380D01*
X46090476Y-70800000D01*
X46185714Y-70895238D01*
X46233333Y-70990476D01*
X46280952Y-71180952D01*
X46280952Y-71323809D01*
X46233333Y-71514285D01*
X46185714Y-71609523D01*
X46090476Y-71704761D01*
X45947619Y-71752380D01*
X45709523Y-71752380D01*
X47233333Y-71752380D02*
X46661904Y-71752380D01*
X46947619Y-71752380D02*
X46947619Y-70752380D01*
X46852380Y-70895238D01*
X46757142Y-70990476D01*
X46661904Y-71038095D01*
X48185714Y-71752380D02*
X47614285Y-71752380D01*
X47900000Y-71752380D02*
X47900000Y-70752380D01*
X47804761Y-70895238D01*
X47709523Y-70990476D01*
X47614285Y-71038095D01*
X48804761Y-70752380D02*
X48900000Y-70752380D01*
X48995238Y-70800000D01*
X49042857Y-70847619D01*
X49090476Y-70942857D01*
X49138095Y-71133333D01*
X49138095Y-71371428D01*
X49090476Y-71561904D01*
X49042857Y-71657142D01*
X48995238Y-71704761D01*
X48900000Y-71752380D01*
X48804761Y-71752380D01*
X48709523Y-71704761D01*
X48661904Y-71657142D01*
X48614285Y-71561904D01*
X48566666Y-71371428D01*
X48566666Y-71133333D01*
X48614285Y-70942857D01*
X48661904Y-70847619D01*
X48709523Y-70800000D01*
X48804761Y-70752380D01*
G04 #@! TO.C,D111*
X112352380Y-94190476D02*
X111352380Y-94190476D01*
X111352380Y-93952380D01*
X111400000Y-93809523D01*
X111495238Y-93714285D01*
X111590476Y-93666666D01*
X111780952Y-93619047D01*
X111923809Y-93619047D01*
X112114285Y-93666666D01*
X112209523Y-93714285D01*
X112304761Y-93809523D01*
X112352380Y-93952380D01*
X112352380Y-94190476D01*
X112352380Y-92666666D02*
X112352380Y-93238095D01*
X112352380Y-92952380D02*
X111352380Y-92952380D01*
X111495238Y-93047619D01*
X111590476Y-93142857D01*
X111638095Y-93238095D01*
X112352380Y-91714285D02*
X112352380Y-92285714D01*
X112352380Y-92000000D02*
X111352380Y-92000000D01*
X111495238Y-92095238D01*
X111590476Y-92190476D01*
X111638095Y-92285714D01*
X112352380Y-90761904D02*
X112352380Y-91333333D01*
X112352380Y-91047619D02*
X111352380Y-91047619D01*
X111495238Y-91142857D01*
X111590476Y-91238095D01*
X111638095Y-91333333D01*
G04 #@! TO.C,D112*
X112352380Y-98190476D02*
X111352380Y-98190476D01*
X111352380Y-97952380D01*
X111400000Y-97809523D01*
X111495238Y-97714285D01*
X111590476Y-97666666D01*
X111780952Y-97619047D01*
X111923809Y-97619047D01*
X112114285Y-97666666D01*
X112209523Y-97714285D01*
X112304761Y-97809523D01*
X112352380Y-97952380D01*
X112352380Y-98190476D01*
X112352380Y-96666666D02*
X112352380Y-97238095D01*
X112352380Y-96952380D02*
X111352380Y-96952380D01*
X111495238Y-97047619D01*
X111590476Y-97142857D01*
X111638095Y-97238095D01*
X112352380Y-95714285D02*
X112352380Y-96285714D01*
X112352380Y-96000000D02*
X111352380Y-96000000D01*
X111495238Y-96095238D01*
X111590476Y-96190476D01*
X111638095Y-96285714D01*
X111447619Y-95333333D02*
X111400000Y-95285714D01*
X111352380Y-95190476D01*
X111352380Y-94952380D01*
X111400000Y-94857142D01*
X111447619Y-94809523D01*
X111542857Y-94761904D01*
X111638095Y-94761904D01*
X111780952Y-94809523D01*
X112352380Y-95380952D01*
X112352380Y-94761904D01*
G04 #@! TO.C,H101*
X40885714Y-99652380D02*
X40885714Y-98652380D01*
X40885714Y-99128571D02*
X41457142Y-99128571D01*
X41457142Y-99652380D02*
X41457142Y-98652380D01*
X42457142Y-99652380D02*
X41885714Y-99652380D01*
X42171428Y-99652380D02*
X42171428Y-98652380D01*
X42076190Y-98795238D01*
X41980952Y-98890476D01*
X41885714Y-98938095D01*
X43076190Y-98652380D02*
X43171428Y-98652380D01*
X43266666Y-98700000D01*
X43314285Y-98747619D01*
X43361904Y-98842857D01*
X43409523Y-99033333D01*
X43409523Y-99271428D01*
X43361904Y-99461904D01*
X43314285Y-99557142D01*
X43266666Y-99604761D01*
X43171428Y-99652380D01*
X43076190Y-99652380D01*
X42980952Y-99604761D01*
X42933333Y-99557142D01*
X42885714Y-99461904D01*
X42838095Y-99271428D01*
X42838095Y-99033333D01*
X42885714Y-98842857D01*
X42933333Y-98747619D01*
X42980952Y-98700000D01*
X43076190Y-98652380D01*
X44361904Y-99652380D02*
X43790476Y-99652380D01*
X44076190Y-99652380D02*
X44076190Y-98652380D01*
X43980952Y-98795238D01*
X43885714Y-98890476D01*
X43790476Y-98938095D01*
G04 #@! TO.C,J105*
X39214285Y-51952380D02*
X39214285Y-52666666D01*
X39166666Y-52809523D01*
X39071428Y-52904761D01*
X38928571Y-52952380D01*
X38833333Y-52952380D01*
X40214285Y-52952380D02*
X39642857Y-52952380D01*
X39928571Y-52952380D02*
X39928571Y-51952380D01*
X39833333Y-52095238D01*
X39738095Y-52190476D01*
X39642857Y-52238095D01*
X40833333Y-51952380D02*
X40928571Y-51952380D01*
X41023809Y-52000000D01*
X41071428Y-52047619D01*
X41119047Y-52142857D01*
X41166666Y-52333333D01*
X41166666Y-52571428D01*
X41119047Y-52761904D01*
X41071428Y-52857142D01*
X41023809Y-52904761D01*
X40928571Y-52952380D01*
X40833333Y-52952380D01*
X40738095Y-52904761D01*
X40690476Y-52857142D01*
X40642857Y-52761904D01*
X40595238Y-52571428D01*
X40595238Y-52333333D01*
X40642857Y-52142857D01*
X40690476Y-52047619D01*
X40738095Y-52000000D01*
X40833333Y-51952380D01*
X42071428Y-51952380D02*
X41595238Y-51952380D01*
X41547619Y-52428571D01*
X41595238Y-52380952D01*
X41690476Y-52333333D01*
X41928571Y-52333333D01*
X42023809Y-52380952D01*
X42071428Y-52428571D01*
X42119047Y-52523809D01*
X42119047Y-52761904D01*
X42071428Y-52857142D01*
X42023809Y-52904761D01*
X41928571Y-52952380D01*
X41690476Y-52952380D01*
X41595238Y-52904761D01*
X41547619Y-52857142D01*
G04 #@! TO.C,J108*
X102814285Y-76452380D02*
X102814285Y-77166666D01*
X102766666Y-77309523D01*
X102671428Y-77404761D01*
X102528571Y-77452380D01*
X102433333Y-77452380D01*
X103814285Y-77452380D02*
X103242857Y-77452380D01*
X103528571Y-77452380D02*
X103528571Y-76452380D01*
X103433333Y-76595238D01*
X103338095Y-76690476D01*
X103242857Y-76738095D01*
X104433333Y-76452380D02*
X104528571Y-76452380D01*
X104623809Y-76500000D01*
X104671428Y-76547619D01*
X104719047Y-76642857D01*
X104766666Y-76833333D01*
X104766666Y-77071428D01*
X104719047Y-77261904D01*
X104671428Y-77357142D01*
X104623809Y-77404761D01*
X104528571Y-77452380D01*
X104433333Y-77452380D01*
X104338095Y-77404761D01*
X104290476Y-77357142D01*
X104242857Y-77261904D01*
X104195238Y-77071428D01*
X104195238Y-76833333D01*
X104242857Y-76642857D01*
X104290476Y-76547619D01*
X104338095Y-76500000D01*
X104433333Y-76452380D01*
X105338095Y-76880952D02*
X105242857Y-76833333D01*
X105195238Y-76785714D01*
X105147619Y-76690476D01*
X105147619Y-76642857D01*
X105195238Y-76547619D01*
X105242857Y-76500000D01*
X105338095Y-76452380D01*
X105528571Y-76452380D01*
X105623809Y-76500000D01*
X105671428Y-76547619D01*
X105719047Y-76642857D01*
X105719047Y-76690476D01*
X105671428Y-76785714D01*
X105623809Y-76833333D01*
X105528571Y-76880952D01*
X105338095Y-76880952D01*
X105242857Y-76928571D01*
X105195238Y-76976190D01*
X105147619Y-77071428D01*
X105147619Y-77261904D01*
X105195238Y-77357142D01*
X105242857Y-77404761D01*
X105338095Y-77452380D01*
X105528571Y-77452380D01*
X105623809Y-77404761D01*
X105671428Y-77357142D01*
X105719047Y-77261904D01*
X105719047Y-77071428D01*
X105671428Y-76976190D01*
X105623809Y-76928571D01*
X105528571Y-76880952D01*
G04 #@! TO.C,L101*
X75680952Y-47252380D02*
X75204761Y-47252380D01*
X75204761Y-46252380D01*
X76538095Y-47252380D02*
X75966666Y-47252380D01*
X76252380Y-47252380D02*
X76252380Y-46252380D01*
X76157142Y-46395238D01*
X76061904Y-46490476D01*
X75966666Y-46538095D01*
X77157142Y-46252380D02*
X77252380Y-46252380D01*
X77347619Y-46300000D01*
X77395238Y-46347619D01*
X77442857Y-46442857D01*
X77490476Y-46633333D01*
X77490476Y-46871428D01*
X77442857Y-47061904D01*
X77395238Y-47157142D01*
X77347619Y-47204761D01*
X77252380Y-47252380D01*
X77157142Y-47252380D01*
X77061904Y-47204761D01*
X77014285Y-47157142D01*
X76966666Y-47061904D01*
X76919047Y-46871428D01*
X76919047Y-46633333D01*
X76966666Y-46442857D01*
X77014285Y-46347619D01*
X77061904Y-46300000D01*
X77157142Y-46252380D01*
X78442857Y-47252380D02*
X77871428Y-47252380D01*
X78157142Y-47252380D02*
X78157142Y-46252380D01*
X78061904Y-46395238D01*
X77966666Y-46490476D01*
X77871428Y-46538095D01*
G04 #@! TO.C,Q101*
X52552380Y-49447619D02*
X52457142Y-49400000D01*
X52361904Y-49304761D01*
X52219047Y-49161904D01*
X52123809Y-49114285D01*
X52028571Y-49114285D01*
X52076190Y-49352380D02*
X51980952Y-49304761D01*
X51885714Y-49209523D01*
X51838095Y-49019047D01*
X51838095Y-48685714D01*
X51885714Y-48495238D01*
X51980952Y-48400000D01*
X52076190Y-48352380D01*
X52266666Y-48352380D01*
X52361904Y-48400000D01*
X52457142Y-48495238D01*
X52504761Y-48685714D01*
X52504761Y-49019047D01*
X52457142Y-49209523D01*
X52361904Y-49304761D01*
X52266666Y-49352380D01*
X52076190Y-49352380D01*
X53457142Y-49352380D02*
X52885714Y-49352380D01*
X53171428Y-49352380D02*
X53171428Y-48352380D01*
X53076190Y-48495238D01*
X52980952Y-48590476D01*
X52885714Y-48638095D01*
X54076190Y-48352380D02*
X54171428Y-48352380D01*
X54266666Y-48400000D01*
X54314285Y-48447619D01*
X54361904Y-48542857D01*
X54409523Y-48733333D01*
X54409523Y-48971428D01*
X54361904Y-49161904D01*
X54314285Y-49257142D01*
X54266666Y-49304761D01*
X54171428Y-49352380D01*
X54076190Y-49352380D01*
X53980952Y-49304761D01*
X53933333Y-49257142D01*
X53885714Y-49161904D01*
X53838095Y-48971428D01*
X53838095Y-48733333D01*
X53885714Y-48542857D01*
X53933333Y-48447619D01*
X53980952Y-48400000D01*
X54076190Y-48352380D01*
X55361904Y-49352380D02*
X54790476Y-49352380D01*
X55076190Y-49352380D02*
X55076190Y-48352380D01*
X54980952Y-48495238D01*
X54885714Y-48590476D01*
X54790476Y-48638095D01*
G04 #@! TO.C,Q102*
X48152380Y-49447619D02*
X48057142Y-49400000D01*
X47961904Y-49304761D01*
X47819047Y-49161904D01*
X47723809Y-49114285D01*
X47628571Y-49114285D01*
X47676190Y-49352380D02*
X47580952Y-49304761D01*
X47485714Y-49209523D01*
X47438095Y-49019047D01*
X47438095Y-48685714D01*
X47485714Y-48495238D01*
X47580952Y-48400000D01*
X47676190Y-48352380D01*
X47866666Y-48352380D01*
X47961904Y-48400000D01*
X48057142Y-48495238D01*
X48104761Y-48685714D01*
X48104761Y-49019047D01*
X48057142Y-49209523D01*
X47961904Y-49304761D01*
X47866666Y-49352380D01*
X47676190Y-49352380D01*
X49057142Y-49352380D02*
X48485714Y-49352380D01*
X48771428Y-49352380D02*
X48771428Y-48352380D01*
X48676190Y-48495238D01*
X48580952Y-48590476D01*
X48485714Y-48638095D01*
X49676190Y-48352380D02*
X49771428Y-48352380D01*
X49866666Y-48400000D01*
X49914285Y-48447619D01*
X49961904Y-48542857D01*
X50009523Y-48733333D01*
X50009523Y-48971428D01*
X49961904Y-49161904D01*
X49914285Y-49257142D01*
X49866666Y-49304761D01*
X49771428Y-49352380D01*
X49676190Y-49352380D01*
X49580952Y-49304761D01*
X49533333Y-49257142D01*
X49485714Y-49161904D01*
X49438095Y-48971428D01*
X49438095Y-48733333D01*
X49485714Y-48542857D01*
X49533333Y-48447619D01*
X49580952Y-48400000D01*
X49676190Y-48352380D01*
X50390476Y-48447619D02*
X50438095Y-48400000D01*
X50533333Y-48352380D01*
X50771428Y-48352380D01*
X50866666Y-48400000D01*
X50914285Y-48447619D01*
X50961904Y-48542857D01*
X50961904Y-48638095D01*
X50914285Y-48780952D01*
X50342857Y-49352380D01*
X50961904Y-49352380D01*
G04 #@! TO.C,Q103*
X64752380Y-94047619D02*
X64657142Y-94000000D01*
X64561904Y-93904761D01*
X64419047Y-93761904D01*
X64323809Y-93714285D01*
X64228571Y-93714285D01*
X64276190Y-93952380D02*
X64180952Y-93904761D01*
X64085714Y-93809523D01*
X64038095Y-93619047D01*
X64038095Y-93285714D01*
X64085714Y-93095238D01*
X64180952Y-93000000D01*
X64276190Y-92952380D01*
X64466666Y-92952380D01*
X64561904Y-93000000D01*
X64657142Y-93095238D01*
X64704761Y-93285714D01*
X64704761Y-93619047D01*
X64657142Y-93809523D01*
X64561904Y-93904761D01*
X64466666Y-93952380D01*
X64276190Y-93952380D01*
X65657142Y-93952380D02*
X65085714Y-93952380D01*
X65371428Y-93952380D02*
X65371428Y-92952380D01*
X65276190Y-93095238D01*
X65180952Y-93190476D01*
X65085714Y-93238095D01*
X66276190Y-92952380D02*
X66371428Y-92952380D01*
X66466666Y-93000000D01*
X66514285Y-93047619D01*
X66561904Y-93142857D01*
X66609523Y-93333333D01*
X66609523Y-93571428D01*
X66561904Y-93761904D01*
X66514285Y-93857142D01*
X66466666Y-93904761D01*
X66371428Y-93952380D01*
X66276190Y-93952380D01*
X66180952Y-93904761D01*
X66133333Y-93857142D01*
X66085714Y-93761904D01*
X66038095Y-93571428D01*
X66038095Y-93333333D01*
X66085714Y-93142857D01*
X66133333Y-93047619D01*
X66180952Y-93000000D01*
X66276190Y-92952380D01*
X66942857Y-92952380D02*
X67561904Y-92952380D01*
X67228571Y-93333333D01*
X67371428Y-93333333D01*
X67466666Y-93380952D01*
X67514285Y-93428571D01*
X67561904Y-93523809D01*
X67561904Y-93761904D01*
X67514285Y-93857142D01*
X67466666Y-93904761D01*
X67371428Y-93952380D01*
X67085714Y-93952380D01*
X66990476Y-93904761D01*
X66942857Y-93857142D01*
G04 #@! TO.C,Q104*
X74352380Y-68547619D02*
X74257142Y-68500000D01*
X74161904Y-68404761D01*
X74019047Y-68261904D01*
X73923809Y-68214285D01*
X73828571Y-68214285D01*
X73876190Y-68452380D02*
X73780952Y-68404761D01*
X73685714Y-68309523D01*
X73638095Y-68119047D01*
X73638095Y-67785714D01*
X73685714Y-67595238D01*
X73780952Y-67500000D01*
X73876190Y-67452380D01*
X74066666Y-67452380D01*
X74161904Y-67500000D01*
X74257142Y-67595238D01*
X74304761Y-67785714D01*
X74304761Y-68119047D01*
X74257142Y-68309523D01*
X74161904Y-68404761D01*
X74066666Y-68452380D01*
X73876190Y-68452380D01*
X75257142Y-68452380D02*
X74685714Y-68452380D01*
X74971428Y-68452380D02*
X74971428Y-67452380D01*
X74876190Y-67595238D01*
X74780952Y-67690476D01*
X74685714Y-67738095D01*
X75876190Y-67452380D02*
X75971428Y-67452380D01*
X76066666Y-67500000D01*
X76114285Y-67547619D01*
X76161904Y-67642857D01*
X76209523Y-67833333D01*
X76209523Y-68071428D01*
X76161904Y-68261904D01*
X76114285Y-68357142D01*
X76066666Y-68404761D01*
X75971428Y-68452380D01*
X75876190Y-68452380D01*
X75780952Y-68404761D01*
X75733333Y-68357142D01*
X75685714Y-68261904D01*
X75638095Y-68071428D01*
X75638095Y-67833333D01*
X75685714Y-67642857D01*
X75733333Y-67547619D01*
X75780952Y-67500000D01*
X75876190Y-67452380D01*
X77066666Y-67785714D02*
X77066666Y-68452380D01*
X76828571Y-67404761D02*
X76590476Y-68119047D01*
X77209523Y-68119047D01*
G04 #@! TO.C,Q105*
X55652380Y-62047619D02*
X55557142Y-62000000D01*
X55461904Y-61904761D01*
X55319047Y-61761904D01*
X55223809Y-61714285D01*
X55128571Y-61714285D01*
X55176190Y-61952380D02*
X55080952Y-61904761D01*
X54985714Y-61809523D01*
X54938095Y-61619047D01*
X54938095Y-61285714D01*
X54985714Y-61095238D01*
X55080952Y-61000000D01*
X55176190Y-60952380D01*
X55366666Y-60952380D01*
X55461904Y-61000000D01*
X55557142Y-61095238D01*
X55604761Y-61285714D01*
X55604761Y-61619047D01*
X55557142Y-61809523D01*
X55461904Y-61904761D01*
X55366666Y-61952380D01*
X55176190Y-61952380D01*
X56557142Y-61952380D02*
X55985714Y-61952380D01*
X56271428Y-61952380D02*
X56271428Y-60952380D01*
X56176190Y-61095238D01*
X56080952Y-61190476D01*
X55985714Y-61238095D01*
X57176190Y-60952380D02*
X57271428Y-60952380D01*
X57366666Y-61000000D01*
X57414285Y-61047619D01*
X57461904Y-61142857D01*
X57509523Y-61333333D01*
X57509523Y-61571428D01*
X57461904Y-61761904D01*
X57414285Y-61857142D01*
X57366666Y-61904761D01*
X57271428Y-61952380D01*
X57176190Y-61952380D01*
X57080952Y-61904761D01*
X57033333Y-61857142D01*
X56985714Y-61761904D01*
X56938095Y-61571428D01*
X56938095Y-61333333D01*
X56985714Y-61142857D01*
X57033333Y-61047619D01*
X57080952Y-61000000D01*
X57176190Y-60952380D01*
X58414285Y-60952380D02*
X57938095Y-60952380D01*
X57890476Y-61428571D01*
X57938095Y-61380952D01*
X58033333Y-61333333D01*
X58271428Y-61333333D01*
X58366666Y-61380952D01*
X58414285Y-61428571D01*
X58461904Y-61523809D01*
X58461904Y-61761904D01*
X58414285Y-61857142D01*
X58366666Y-61904761D01*
X58271428Y-61952380D01*
X58033333Y-61952380D01*
X57938095Y-61904761D01*
X57890476Y-61857142D01*
G04 #@! TO.C,Q106*
X55852380Y-66247619D02*
X55757142Y-66200000D01*
X55661904Y-66104761D01*
X55519047Y-65961904D01*
X55423809Y-65914285D01*
X55328571Y-65914285D01*
X55376190Y-66152380D02*
X55280952Y-66104761D01*
X55185714Y-66009523D01*
X55138095Y-65819047D01*
X55138095Y-65485714D01*
X55185714Y-65295238D01*
X55280952Y-65200000D01*
X55376190Y-65152380D01*
X55566666Y-65152380D01*
X55661904Y-65200000D01*
X55757142Y-65295238D01*
X55804761Y-65485714D01*
X55804761Y-65819047D01*
X55757142Y-66009523D01*
X55661904Y-66104761D01*
X55566666Y-66152380D01*
X55376190Y-66152380D01*
X56757142Y-66152380D02*
X56185714Y-66152380D01*
X56471428Y-66152380D02*
X56471428Y-65152380D01*
X56376190Y-65295238D01*
X56280952Y-65390476D01*
X56185714Y-65438095D01*
X57376190Y-65152380D02*
X57471428Y-65152380D01*
X57566666Y-65200000D01*
X57614285Y-65247619D01*
X57661904Y-65342857D01*
X57709523Y-65533333D01*
X57709523Y-65771428D01*
X57661904Y-65961904D01*
X57614285Y-66057142D01*
X57566666Y-66104761D01*
X57471428Y-66152380D01*
X57376190Y-66152380D01*
X57280952Y-66104761D01*
X57233333Y-66057142D01*
X57185714Y-65961904D01*
X57138095Y-65771428D01*
X57138095Y-65533333D01*
X57185714Y-65342857D01*
X57233333Y-65247619D01*
X57280952Y-65200000D01*
X57376190Y-65152380D01*
X58566666Y-65152380D02*
X58376190Y-65152380D01*
X58280952Y-65200000D01*
X58233333Y-65247619D01*
X58138095Y-65390476D01*
X58090476Y-65580952D01*
X58090476Y-65961904D01*
X58138095Y-66057142D01*
X58185714Y-66104761D01*
X58280952Y-66152380D01*
X58471428Y-66152380D01*
X58566666Y-66104761D01*
X58614285Y-66057142D01*
X58661904Y-65961904D01*
X58661904Y-65723809D01*
X58614285Y-65628571D01*
X58566666Y-65580952D01*
X58471428Y-65533333D01*
X58280952Y-65533333D01*
X58185714Y-65580952D01*
X58138095Y-65628571D01*
X58090476Y-65723809D01*
G04 #@! TO.C,Q107*
X55952380Y-70347619D02*
X55857142Y-70300000D01*
X55761904Y-70204761D01*
X55619047Y-70061904D01*
X55523809Y-70014285D01*
X55428571Y-70014285D01*
X55476190Y-70252380D02*
X55380952Y-70204761D01*
X55285714Y-70109523D01*
X55238095Y-69919047D01*
X55238095Y-69585714D01*
X55285714Y-69395238D01*
X55380952Y-69300000D01*
X55476190Y-69252380D01*
X55666666Y-69252380D01*
X55761904Y-69300000D01*
X55857142Y-69395238D01*
X55904761Y-69585714D01*
X55904761Y-69919047D01*
X55857142Y-70109523D01*
X55761904Y-70204761D01*
X55666666Y-70252380D01*
X55476190Y-70252380D01*
X56857142Y-70252380D02*
X56285714Y-70252380D01*
X56571428Y-70252380D02*
X56571428Y-69252380D01*
X56476190Y-69395238D01*
X56380952Y-69490476D01*
X56285714Y-69538095D01*
X57476190Y-69252380D02*
X57571428Y-69252380D01*
X57666666Y-69300000D01*
X57714285Y-69347619D01*
X57761904Y-69442857D01*
X57809523Y-69633333D01*
X57809523Y-69871428D01*
X57761904Y-70061904D01*
X57714285Y-70157142D01*
X57666666Y-70204761D01*
X57571428Y-70252380D01*
X57476190Y-70252380D01*
X57380952Y-70204761D01*
X57333333Y-70157142D01*
X57285714Y-70061904D01*
X57238095Y-69871428D01*
X57238095Y-69633333D01*
X57285714Y-69442857D01*
X57333333Y-69347619D01*
X57380952Y-69300000D01*
X57476190Y-69252380D01*
X58142857Y-69252380D02*
X58809523Y-69252380D01*
X58380952Y-70252380D01*
G04 #@! TO.C,R101*
X63480952Y-47852380D02*
X63147619Y-47376190D01*
X62909523Y-47852380D02*
X62909523Y-46852380D01*
X63290476Y-46852380D01*
X63385714Y-46900000D01*
X63433333Y-46947619D01*
X63480952Y-47042857D01*
X63480952Y-47185714D01*
X63433333Y-47280952D01*
X63385714Y-47328571D01*
X63290476Y-47376190D01*
X62909523Y-47376190D01*
X64433333Y-47852380D02*
X63861904Y-47852380D01*
X64147619Y-47852380D02*
X64147619Y-46852380D01*
X64052380Y-46995238D01*
X63957142Y-47090476D01*
X63861904Y-47138095D01*
X65052380Y-46852380D02*
X65147619Y-46852380D01*
X65242857Y-46900000D01*
X65290476Y-46947619D01*
X65338095Y-47042857D01*
X65385714Y-47233333D01*
X65385714Y-47471428D01*
X65338095Y-47661904D01*
X65290476Y-47757142D01*
X65242857Y-47804761D01*
X65147619Y-47852380D01*
X65052380Y-47852380D01*
X64957142Y-47804761D01*
X64909523Y-47757142D01*
X64861904Y-47661904D01*
X64814285Y-47471428D01*
X64814285Y-47233333D01*
X64861904Y-47042857D01*
X64909523Y-46947619D01*
X64957142Y-46900000D01*
X65052380Y-46852380D01*
X66338095Y-47852380D02*
X65766666Y-47852380D01*
X66052380Y-47852380D02*
X66052380Y-46852380D01*
X65957142Y-46995238D01*
X65861904Y-47090476D01*
X65766666Y-47138095D01*
G04 #@! TO.C,R102*
X64880952Y-64052380D02*
X64547619Y-63576190D01*
X64309523Y-64052380D02*
X64309523Y-63052380D01*
X64690476Y-63052380D01*
X64785714Y-63100000D01*
X64833333Y-63147619D01*
X64880952Y-63242857D01*
X64880952Y-63385714D01*
X64833333Y-63480952D01*
X64785714Y-63528571D01*
X64690476Y-63576190D01*
X64309523Y-63576190D01*
X65833333Y-64052380D02*
X65261904Y-64052380D01*
X65547619Y-64052380D02*
X65547619Y-63052380D01*
X65452380Y-63195238D01*
X65357142Y-63290476D01*
X65261904Y-63338095D01*
X66452380Y-63052380D02*
X66547619Y-63052380D01*
X66642857Y-63100000D01*
X66690476Y-63147619D01*
X66738095Y-63242857D01*
X66785714Y-63433333D01*
X66785714Y-63671428D01*
X66738095Y-63861904D01*
X66690476Y-63957142D01*
X66642857Y-64004761D01*
X66547619Y-64052380D01*
X66452380Y-64052380D01*
X66357142Y-64004761D01*
X66309523Y-63957142D01*
X66261904Y-63861904D01*
X66214285Y-63671428D01*
X66214285Y-63433333D01*
X66261904Y-63242857D01*
X66309523Y-63147619D01*
X66357142Y-63100000D01*
X66452380Y-63052380D01*
X67166666Y-63147619D02*
X67214285Y-63100000D01*
X67309523Y-63052380D01*
X67547619Y-63052380D01*
X67642857Y-63100000D01*
X67690476Y-63147619D01*
X67738095Y-63242857D01*
X67738095Y-63338095D01*
X67690476Y-63480952D01*
X67119047Y-64052380D01*
X67738095Y-64052380D01*
G04 #@! TO.C,R103*
X60880952Y-64052380D02*
X60547619Y-63576190D01*
X60309523Y-64052380D02*
X60309523Y-63052380D01*
X60690476Y-63052380D01*
X60785714Y-63100000D01*
X60833333Y-63147619D01*
X60880952Y-63242857D01*
X60880952Y-63385714D01*
X60833333Y-63480952D01*
X60785714Y-63528571D01*
X60690476Y-63576190D01*
X60309523Y-63576190D01*
X61833333Y-64052380D02*
X61261904Y-64052380D01*
X61547619Y-64052380D02*
X61547619Y-63052380D01*
X61452380Y-63195238D01*
X61357142Y-63290476D01*
X61261904Y-63338095D01*
X62452380Y-63052380D02*
X62547619Y-63052380D01*
X62642857Y-63100000D01*
X62690476Y-63147619D01*
X62738095Y-63242857D01*
X62785714Y-63433333D01*
X62785714Y-63671428D01*
X62738095Y-63861904D01*
X62690476Y-63957142D01*
X62642857Y-64004761D01*
X62547619Y-64052380D01*
X62452380Y-64052380D01*
X62357142Y-64004761D01*
X62309523Y-63957142D01*
X62261904Y-63861904D01*
X62214285Y-63671428D01*
X62214285Y-63433333D01*
X62261904Y-63242857D01*
X62309523Y-63147619D01*
X62357142Y-63100000D01*
X62452380Y-63052380D01*
X63119047Y-63052380D02*
X63738095Y-63052380D01*
X63404761Y-63433333D01*
X63547619Y-63433333D01*
X63642857Y-63480952D01*
X63690476Y-63528571D01*
X63738095Y-63623809D01*
X63738095Y-63861904D01*
X63690476Y-63957142D01*
X63642857Y-64004761D01*
X63547619Y-64052380D01*
X63261904Y-64052380D01*
X63166666Y-64004761D01*
X63119047Y-63957142D01*
G04 #@! TO.C,R104*
X56880952Y-64052380D02*
X56547619Y-63576190D01*
X56309523Y-64052380D02*
X56309523Y-63052380D01*
X56690476Y-63052380D01*
X56785714Y-63100000D01*
X56833333Y-63147619D01*
X56880952Y-63242857D01*
X56880952Y-63385714D01*
X56833333Y-63480952D01*
X56785714Y-63528571D01*
X56690476Y-63576190D01*
X56309523Y-63576190D01*
X57833333Y-64052380D02*
X57261904Y-64052380D01*
X57547619Y-64052380D02*
X57547619Y-63052380D01*
X57452380Y-63195238D01*
X57357142Y-63290476D01*
X57261904Y-63338095D01*
X58452380Y-63052380D02*
X58547619Y-63052380D01*
X58642857Y-63100000D01*
X58690476Y-63147619D01*
X58738095Y-63242857D01*
X58785714Y-63433333D01*
X58785714Y-63671428D01*
X58738095Y-63861904D01*
X58690476Y-63957142D01*
X58642857Y-64004761D01*
X58547619Y-64052380D01*
X58452380Y-64052380D01*
X58357142Y-64004761D01*
X58309523Y-63957142D01*
X58261904Y-63861904D01*
X58214285Y-63671428D01*
X58214285Y-63433333D01*
X58261904Y-63242857D01*
X58309523Y-63147619D01*
X58357142Y-63100000D01*
X58452380Y-63052380D01*
X59642857Y-63385714D02*
X59642857Y-64052380D01*
X59404761Y-63004761D02*
X59166666Y-63719047D01*
X59785714Y-63719047D01*
G04 #@! TO.C,R105*
X59480952Y-47852380D02*
X59147619Y-47376190D01*
X58909523Y-47852380D02*
X58909523Y-46852380D01*
X59290476Y-46852380D01*
X59385714Y-46900000D01*
X59433333Y-46947619D01*
X59480952Y-47042857D01*
X59480952Y-47185714D01*
X59433333Y-47280952D01*
X59385714Y-47328571D01*
X59290476Y-47376190D01*
X58909523Y-47376190D01*
X60433333Y-47852380D02*
X59861904Y-47852380D01*
X60147619Y-47852380D02*
X60147619Y-46852380D01*
X60052380Y-46995238D01*
X59957142Y-47090476D01*
X59861904Y-47138095D01*
X61052380Y-46852380D02*
X61147619Y-46852380D01*
X61242857Y-46900000D01*
X61290476Y-46947619D01*
X61338095Y-47042857D01*
X61385714Y-47233333D01*
X61385714Y-47471428D01*
X61338095Y-47661904D01*
X61290476Y-47757142D01*
X61242857Y-47804761D01*
X61147619Y-47852380D01*
X61052380Y-47852380D01*
X60957142Y-47804761D01*
X60909523Y-47757142D01*
X60861904Y-47661904D01*
X60814285Y-47471428D01*
X60814285Y-47233333D01*
X60861904Y-47042857D01*
X60909523Y-46947619D01*
X60957142Y-46900000D01*
X61052380Y-46852380D01*
X62290476Y-46852380D02*
X61814285Y-46852380D01*
X61766666Y-47328571D01*
X61814285Y-47280952D01*
X61909523Y-47233333D01*
X62147619Y-47233333D01*
X62242857Y-47280952D01*
X62290476Y-47328571D01*
X62338095Y-47423809D01*
X62338095Y-47661904D01*
X62290476Y-47757142D01*
X62242857Y-47804761D01*
X62147619Y-47852380D01*
X61909523Y-47852380D01*
X61814285Y-47804761D01*
X61766666Y-47757142D01*
G04 #@! TO.C,R106*
X56852380Y-51119047D02*
X56376190Y-51452380D01*
X56852380Y-51690476D02*
X55852380Y-51690476D01*
X55852380Y-51309523D01*
X55900000Y-51214285D01*
X55947619Y-51166666D01*
X56042857Y-51119047D01*
X56185714Y-51119047D01*
X56280952Y-51166666D01*
X56328571Y-51214285D01*
X56376190Y-51309523D01*
X56376190Y-51690476D01*
X56852380Y-50166666D02*
X56852380Y-50738095D01*
X56852380Y-50452380D02*
X55852380Y-50452380D01*
X55995238Y-50547619D01*
X56090476Y-50642857D01*
X56138095Y-50738095D01*
X55852380Y-49547619D02*
X55852380Y-49452380D01*
X55900000Y-49357142D01*
X55947619Y-49309523D01*
X56042857Y-49261904D01*
X56233333Y-49214285D01*
X56471428Y-49214285D01*
X56661904Y-49261904D01*
X56757142Y-49309523D01*
X56804761Y-49357142D01*
X56852380Y-49452380D01*
X56852380Y-49547619D01*
X56804761Y-49642857D01*
X56757142Y-49690476D01*
X56661904Y-49738095D01*
X56471428Y-49785714D01*
X56233333Y-49785714D01*
X56042857Y-49738095D01*
X55947619Y-49690476D01*
X55900000Y-49642857D01*
X55852380Y-49547619D01*
X55852380Y-48357142D02*
X55852380Y-48547619D01*
X55900000Y-48642857D01*
X55947619Y-48690476D01*
X56090476Y-48785714D01*
X56280952Y-48833333D01*
X56661904Y-48833333D01*
X56757142Y-48785714D01*
X56804761Y-48738095D01*
X56852380Y-48642857D01*
X56852380Y-48452380D01*
X56804761Y-48357142D01*
X56757142Y-48309523D01*
X56661904Y-48261904D01*
X56423809Y-48261904D01*
X56328571Y-48309523D01*
X56280952Y-48357142D01*
X56233333Y-48452380D01*
X56233333Y-48642857D01*
X56280952Y-48738095D01*
X56328571Y-48785714D01*
X56423809Y-48833333D01*
G04 #@! TO.C,R107*
X89452380Y-57619047D02*
X88976190Y-57952380D01*
X89452380Y-58190476D02*
X88452380Y-58190476D01*
X88452380Y-57809523D01*
X88500000Y-57714285D01*
X88547619Y-57666666D01*
X88642857Y-57619047D01*
X88785714Y-57619047D01*
X88880952Y-57666666D01*
X88928571Y-57714285D01*
X88976190Y-57809523D01*
X88976190Y-58190476D01*
X89452380Y-56666666D02*
X89452380Y-57238095D01*
X89452380Y-56952380D02*
X88452380Y-56952380D01*
X88595238Y-57047619D01*
X88690476Y-57142857D01*
X88738095Y-57238095D01*
X88452380Y-56047619D02*
X88452380Y-55952380D01*
X88500000Y-55857142D01*
X88547619Y-55809523D01*
X88642857Y-55761904D01*
X88833333Y-55714285D01*
X89071428Y-55714285D01*
X89261904Y-55761904D01*
X89357142Y-55809523D01*
X89404761Y-55857142D01*
X89452380Y-55952380D01*
X89452380Y-56047619D01*
X89404761Y-56142857D01*
X89357142Y-56190476D01*
X89261904Y-56238095D01*
X89071428Y-56285714D01*
X88833333Y-56285714D01*
X88642857Y-56238095D01*
X88547619Y-56190476D01*
X88500000Y-56142857D01*
X88452380Y-56047619D01*
X88452380Y-55380952D02*
X88452380Y-54714285D01*
X89452380Y-55142857D01*
G04 #@! TO.C,R108*
X100680952Y-55252380D02*
X100347619Y-54776190D01*
X100109523Y-55252380D02*
X100109523Y-54252380D01*
X100490476Y-54252380D01*
X100585714Y-54300000D01*
X100633333Y-54347619D01*
X100680952Y-54442857D01*
X100680952Y-54585714D01*
X100633333Y-54680952D01*
X100585714Y-54728571D01*
X100490476Y-54776190D01*
X100109523Y-54776190D01*
X101633333Y-55252380D02*
X101061904Y-55252380D01*
X101347619Y-55252380D02*
X101347619Y-54252380D01*
X101252380Y-54395238D01*
X101157142Y-54490476D01*
X101061904Y-54538095D01*
X102252380Y-54252380D02*
X102347619Y-54252380D01*
X102442857Y-54300000D01*
X102490476Y-54347619D01*
X102538095Y-54442857D01*
X102585714Y-54633333D01*
X102585714Y-54871428D01*
X102538095Y-55061904D01*
X102490476Y-55157142D01*
X102442857Y-55204761D01*
X102347619Y-55252380D01*
X102252380Y-55252380D01*
X102157142Y-55204761D01*
X102109523Y-55157142D01*
X102061904Y-55061904D01*
X102014285Y-54871428D01*
X102014285Y-54633333D01*
X102061904Y-54442857D01*
X102109523Y-54347619D01*
X102157142Y-54300000D01*
X102252380Y-54252380D01*
X103157142Y-54680952D02*
X103061904Y-54633333D01*
X103014285Y-54585714D01*
X102966666Y-54490476D01*
X102966666Y-54442857D01*
X103014285Y-54347619D01*
X103061904Y-54300000D01*
X103157142Y-54252380D01*
X103347619Y-54252380D01*
X103442857Y-54300000D01*
X103490476Y-54347619D01*
X103538095Y-54442857D01*
X103538095Y-54490476D01*
X103490476Y-54585714D01*
X103442857Y-54633333D01*
X103347619Y-54680952D01*
X103157142Y-54680952D01*
X103061904Y-54728571D01*
X103014285Y-54776190D01*
X102966666Y-54871428D01*
X102966666Y-55061904D01*
X103014285Y-55157142D01*
X103061904Y-55204761D01*
X103157142Y-55252380D01*
X103347619Y-55252380D01*
X103442857Y-55204761D01*
X103490476Y-55157142D01*
X103538095Y-55061904D01*
X103538095Y-54871428D01*
X103490476Y-54776190D01*
X103442857Y-54728571D01*
X103347619Y-54680952D01*
G04 #@! TO.C,R109*
X95452380Y-57619047D02*
X94976190Y-57952380D01*
X95452380Y-58190476D02*
X94452380Y-58190476D01*
X94452380Y-57809523D01*
X94500000Y-57714285D01*
X94547619Y-57666666D01*
X94642857Y-57619047D01*
X94785714Y-57619047D01*
X94880952Y-57666666D01*
X94928571Y-57714285D01*
X94976190Y-57809523D01*
X94976190Y-58190476D01*
X95452380Y-56666666D02*
X95452380Y-57238095D01*
X95452380Y-56952380D02*
X94452380Y-56952380D01*
X94595238Y-57047619D01*
X94690476Y-57142857D01*
X94738095Y-57238095D01*
X94452380Y-56047619D02*
X94452380Y-55952380D01*
X94500000Y-55857142D01*
X94547619Y-55809523D01*
X94642857Y-55761904D01*
X94833333Y-55714285D01*
X95071428Y-55714285D01*
X95261904Y-55761904D01*
X95357142Y-55809523D01*
X95404761Y-55857142D01*
X95452380Y-55952380D01*
X95452380Y-56047619D01*
X95404761Y-56142857D01*
X95357142Y-56190476D01*
X95261904Y-56238095D01*
X95071428Y-56285714D01*
X94833333Y-56285714D01*
X94642857Y-56238095D01*
X94547619Y-56190476D01*
X94500000Y-56142857D01*
X94452380Y-56047619D01*
X95452380Y-55238095D02*
X95452380Y-55047619D01*
X95404761Y-54952380D01*
X95357142Y-54904761D01*
X95214285Y-54809523D01*
X95023809Y-54761904D01*
X94642857Y-54761904D01*
X94547619Y-54809523D01*
X94500000Y-54857142D01*
X94452380Y-54952380D01*
X94452380Y-55142857D01*
X94500000Y-55238095D01*
X94547619Y-55285714D01*
X94642857Y-55333333D01*
X94880952Y-55333333D01*
X94976190Y-55285714D01*
X95023809Y-55238095D01*
X95071428Y-55142857D01*
X95071428Y-54952380D01*
X95023809Y-54857142D01*
X94976190Y-54809523D01*
X94880952Y-54761904D01*
G04 #@! TO.C,R110*
X43480952Y-50302380D02*
X43147619Y-49826190D01*
X42909523Y-50302380D02*
X42909523Y-49302380D01*
X43290476Y-49302380D01*
X43385714Y-49350000D01*
X43433333Y-49397619D01*
X43480952Y-49492857D01*
X43480952Y-49635714D01*
X43433333Y-49730952D01*
X43385714Y-49778571D01*
X43290476Y-49826190D01*
X42909523Y-49826190D01*
X44433333Y-50302380D02*
X43861904Y-50302380D01*
X44147619Y-50302380D02*
X44147619Y-49302380D01*
X44052380Y-49445238D01*
X43957142Y-49540476D01*
X43861904Y-49588095D01*
X45385714Y-50302380D02*
X44814285Y-50302380D01*
X45100000Y-50302380D02*
X45100000Y-49302380D01*
X45004761Y-49445238D01*
X44909523Y-49540476D01*
X44814285Y-49588095D01*
X46004761Y-49302380D02*
X46100000Y-49302380D01*
X46195238Y-49350000D01*
X46242857Y-49397619D01*
X46290476Y-49492857D01*
X46338095Y-49683333D01*
X46338095Y-49921428D01*
X46290476Y-50111904D01*
X46242857Y-50207142D01*
X46195238Y-50254761D01*
X46100000Y-50302380D01*
X46004761Y-50302380D01*
X45909523Y-50254761D01*
X45861904Y-50207142D01*
X45814285Y-50111904D01*
X45766666Y-49921428D01*
X45766666Y-49683333D01*
X45814285Y-49492857D01*
X45861904Y-49397619D01*
X45909523Y-49350000D01*
X46004761Y-49302380D01*
G04 #@! TO.C,R111*
X82080952Y-68452380D02*
X81747619Y-67976190D01*
X81509523Y-68452380D02*
X81509523Y-67452380D01*
X81890476Y-67452380D01*
X81985714Y-67500000D01*
X82033333Y-67547619D01*
X82080952Y-67642857D01*
X82080952Y-67785714D01*
X82033333Y-67880952D01*
X81985714Y-67928571D01*
X81890476Y-67976190D01*
X81509523Y-67976190D01*
X83033333Y-68452380D02*
X82461904Y-68452380D01*
X82747619Y-68452380D02*
X82747619Y-67452380D01*
X82652380Y-67595238D01*
X82557142Y-67690476D01*
X82461904Y-67738095D01*
X83985714Y-68452380D02*
X83414285Y-68452380D01*
X83700000Y-68452380D02*
X83700000Y-67452380D01*
X83604761Y-67595238D01*
X83509523Y-67690476D01*
X83414285Y-67738095D01*
X84938095Y-68452380D02*
X84366666Y-68452380D01*
X84652380Y-68452380D02*
X84652380Y-67452380D01*
X84557142Y-67595238D01*
X84461904Y-67690476D01*
X84366666Y-67738095D01*
G04 #@! TO.C,R112*
X66480952Y-100152380D02*
X66147619Y-99676190D01*
X65909523Y-100152380D02*
X65909523Y-99152380D01*
X66290476Y-99152380D01*
X66385714Y-99200000D01*
X66433333Y-99247619D01*
X66480952Y-99342857D01*
X66480952Y-99485714D01*
X66433333Y-99580952D01*
X66385714Y-99628571D01*
X66290476Y-99676190D01*
X65909523Y-99676190D01*
X67433333Y-100152380D02*
X66861904Y-100152380D01*
X67147619Y-100152380D02*
X67147619Y-99152380D01*
X67052380Y-99295238D01*
X66957142Y-99390476D01*
X66861904Y-99438095D01*
X68385714Y-100152380D02*
X67814285Y-100152380D01*
X68100000Y-100152380D02*
X68100000Y-99152380D01*
X68004761Y-99295238D01*
X67909523Y-99390476D01*
X67814285Y-99438095D01*
X68766666Y-99247619D02*
X68814285Y-99200000D01*
X68909523Y-99152380D01*
X69147619Y-99152380D01*
X69242857Y-99200000D01*
X69290476Y-99247619D01*
X69338095Y-99342857D01*
X69338095Y-99438095D01*
X69290476Y-99580952D01*
X68719047Y-100152380D01*
X69338095Y-100152380D01*
G04 #@! TO.C,R113*
X68780952Y-93952380D02*
X68447619Y-93476190D01*
X68209523Y-93952380D02*
X68209523Y-92952380D01*
X68590476Y-92952380D01*
X68685714Y-93000000D01*
X68733333Y-93047619D01*
X68780952Y-93142857D01*
X68780952Y-93285714D01*
X68733333Y-93380952D01*
X68685714Y-93428571D01*
X68590476Y-93476190D01*
X68209523Y-93476190D01*
X69733333Y-93952380D02*
X69161904Y-93952380D01*
X69447619Y-93952380D02*
X69447619Y-92952380D01*
X69352380Y-93095238D01*
X69257142Y-93190476D01*
X69161904Y-93238095D01*
X70685714Y-93952380D02*
X70114285Y-93952380D01*
X70400000Y-93952380D02*
X70400000Y-92952380D01*
X70304761Y-93095238D01*
X70209523Y-93190476D01*
X70114285Y-93238095D01*
X71019047Y-92952380D02*
X71638095Y-92952380D01*
X71304761Y-93333333D01*
X71447619Y-93333333D01*
X71542857Y-93380952D01*
X71590476Y-93428571D01*
X71638095Y-93523809D01*
X71638095Y-93761904D01*
X71590476Y-93857142D01*
X71542857Y-93904761D01*
X71447619Y-93952380D01*
X71161904Y-93952380D01*
X71066666Y-93904761D01*
X71019047Y-93857142D01*
G04 #@! TO.C,R114*
X103780952Y-80252380D02*
X103447619Y-79776190D01*
X103209523Y-80252380D02*
X103209523Y-79252380D01*
X103590476Y-79252380D01*
X103685714Y-79300000D01*
X103733333Y-79347619D01*
X103780952Y-79442857D01*
X103780952Y-79585714D01*
X103733333Y-79680952D01*
X103685714Y-79728571D01*
X103590476Y-79776190D01*
X103209523Y-79776190D01*
X104733333Y-80252380D02*
X104161904Y-80252380D01*
X104447619Y-80252380D02*
X104447619Y-79252380D01*
X104352380Y-79395238D01*
X104257142Y-79490476D01*
X104161904Y-79538095D01*
X105685714Y-80252380D02*
X105114285Y-80252380D01*
X105400000Y-80252380D02*
X105400000Y-79252380D01*
X105304761Y-79395238D01*
X105209523Y-79490476D01*
X105114285Y-79538095D01*
X106542857Y-79585714D02*
X106542857Y-80252380D01*
X106304761Y-79204761D02*
X106066666Y-79919047D01*
X106685714Y-79919047D01*
G04 #@! TO.C,R115*
X106430952Y-89602380D02*
X106097619Y-89126190D01*
X105859523Y-89602380D02*
X105859523Y-88602380D01*
X106240476Y-88602380D01*
X106335714Y-88650000D01*
X106383333Y-88697619D01*
X106430952Y-88792857D01*
X106430952Y-88935714D01*
X106383333Y-89030952D01*
X106335714Y-89078571D01*
X106240476Y-89126190D01*
X105859523Y-89126190D01*
X107383333Y-89602380D02*
X106811904Y-89602380D01*
X107097619Y-89602380D02*
X107097619Y-88602380D01*
X107002380Y-88745238D01*
X106907142Y-88840476D01*
X106811904Y-88888095D01*
X108335714Y-89602380D02*
X107764285Y-89602380D01*
X108050000Y-89602380D02*
X108050000Y-88602380D01*
X107954761Y-88745238D01*
X107859523Y-88840476D01*
X107764285Y-88888095D01*
X109240476Y-88602380D02*
X108764285Y-88602380D01*
X108716666Y-89078571D01*
X108764285Y-89030952D01*
X108859523Y-88983333D01*
X109097619Y-88983333D01*
X109192857Y-89030952D01*
X109240476Y-89078571D01*
X109288095Y-89173809D01*
X109288095Y-89411904D01*
X109240476Y-89507142D01*
X109192857Y-89554761D01*
X109097619Y-89602380D01*
X108859523Y-89602380D01*
X108764285Y-89554761D01*
X108716666Y-89507142D01*
G04 #@! TO.C,R116*
X101730952Y-89602380D02*
X101397619Y-89126190D01*
X101159523Y-89602380D02*
X101159523Y-88602380D01*
X101540476Y-88602380D01*
X101635714Y-88650000D01*
X101683333Y-88697619D01*
X101730952Y-88792857D01*
X101730952Y-88935714D01*
X101683333Y-89030952D01*
X101635714Y-89078571D01*
X101540476Y-89126190D01*
X101159523Y-89126190D01*
X102683333Y-89602380D02*
X102111904Y-89602380D01*
X102397619Y-89602380D02*
X102397619Y-88602380D01*
X102302380Y-88745238D01*
X102207142Y-88840476D01*
X102111904Y-88888095D01*
X103635714Y-89602380D02*
X103064285Y-89602380D01*
X103350000Y-89602380D02*
X103350000Y-88602380D01*
X103254761Y-88745238D01*
X103159523Y-88840476D01*
X103064285Y-88888095D01*
X104492857Y-88602380D02*
X104302380Y-88602380D01*
X104207142Y-88650000D01*
X104159523Y-88697619D01*
X104064285Y-88840476D01*
X104016666Y-89030952D01*
X104016666Y-89411904D01*
X104064285Y-89507142D01*
X104111904Y-89554761D01*
X104207142Y-89602380D01*
X104397619Y-89602380D01*
X104492857Y-89554761D01*
X104540476Y-89507142D01*
X104588095Y-89411904D01*
X104588095Y-89173809D01*
X104540476Y-89078571D01*
X104492857Y-89030952D01*
X104397619Y-88983333D01*
X104207142Y-88983333D01*
X104111904Y-89030952D01*
X104064285Y-89078571D01*
X104016666Y-89173809D01*
G04 #@! TO.C,R117*
X100680952Y-50252380D02*
X100347619Y-49776190D01*
X100109523Y-50252380D02*
X100109523Y-49252380D01*
X100490476Y-49252380D01*
X100585714Y-49300000D01*
X100633333Y-49347619D01*
X100680952Y-49442857D01*
X100680952Y-49585714D01*
X100633333Y-49680952D01*
X100585714Y-49728571D01*
X100490476Y-49776190D01*
X100109523Y-49776190D01*
X101633333Y-50252380D02*
X101061904Y-50252380D01*
X101347619Y-50252380D02*
X101347619Y-49252380D01*
X101252380Y-49395238D01*
X101157142Y-49490476D01*
X101061904Y-49538095D01*
X102585714Y-50252380D02*
X102014285Y-50252380D01*
X102300000Y-50252380D02*
X102300000Y-49252380D01*
X102204761Y-49395238D01*
X102109523Y-49490476D01*
X102014285Y-49538095D01*
X102919047Y-49252380D02*
X103585714Y-49252380D01*
X103157142Y-50252380D01*
G04 #@! TO.C,R118*
X104980952Y-109652380D02*
X104647619Y-109176190D01*
X104409523Y-109652380D02*
X104409523Y-108652380D01*
X104790476Y-108652380D01*
X104885714Y-108700000D01*
X104933333Y-108747619D01*
X104980952Y-108842857D01*
X104980952Y-108985714D01*
X104933333Y-109080952D01*
X104885714Y-109128571D01*
X104790476Y-109176190D01*
X104409523Y-109176190D01*
X105933333Y-109652380D02*
X105361904Y-109652380D01*
X105647619Y-109652380D02*
X105647619Y-108652380D01*
X105552380Y-108795238D01*
X105457142Y-108890476D01*
X105361904Y-108938095D01*
X106885714Y-109652380D02*
X106314285Y-109652380D01*
X106600000Y-109652380D02*
X106600000Y-108652380D01*
X106504761Y-108795238D01*
X106409523Y-108890476D01*
X106314285Y-108938095D01*
X107457142Y-109080952D02*
X107361904Y-109033333D01*
X107314285Y-108985714D01*
X107266666Y-108890476D01*
X107266666Y-108842857D01*
X107314285Y-108747619D01*
X107361904Y-108700000D01*
X107457142Y-108652380D01*
X107647619Y-108652380D01*
X107742857Y-108700000D01*
X107790476Y-108747619D01*
X107838095Y-108842857D01*
X107838095Y-108890476D01*
X107790476Y-108985714D01*
X107742857Y-109033333D01*
X107647619Y-109080952D01*
X107457142Y-109080952D01*
X107361904Y-109128571D01*
X107314285Y-109176190D01*
X107266666Y-109271428D01*
X107266666Y-109461904D01*
X107314285Y-109557142D01*
X107361904Y-109604761D01*
X107457142Y-109652380D01*
X107647619Y-109652380D01*
X107742857Y-109604761D01*
X107790476Y-109557142D01*
X107838095Y-109461904D01*
X107838095Y-109271428D01*
X107790476Y-109176190D01*
X107742857Y-109128571D01*
X107647619Y-109080952D01*
G04 #@! TO.C,R119*
X113380952Y-91852380D02*
X113047619Y-91376190D01*
X112809523Y-91852380D02*
X112809523Y-90852380D01*
X113190476Y-90852380D01*
X113285714Y-90900000D01*
X113333333Y-90947619D01*
X113380952Y-91042857D01*
X113380952Y-91185714D01*
X113333333Y-91280952D01*
X113285714Y-91328571D01*
X113190476Y-91376190D01*
X112809523Y-91376190D01*
X114333333Y-91852380D02*
X113761904Y-91852380D01*
X114047619Y-91852380D02*
X114047619Y-90852380D01*
X113952380Y-90995238D01*
X113857142Y-91090476D01*
X113761904Y-91138095D01*
X115285714Y-91852380D02*
X114714285Y-91852380D01*
X115000000Y-91852380D02*
X115000000Y-90852380D01*
X114904761Y-90995238D01*
X114809523Y-91090476D01*
X114714285Y-91138095D01*
X115761904Y-91852380D02*
X115952380Y-91852380D01*
X116047619Y-91804761D01*
X116095238Y-91757142D01*
X116190476Y-91614285D01*
X116238095Y-91423809D01*
X116238095Y-91042857D01*
X116190476Y-90947619D01*
X116142857Y-90900000D01*
X116047619Y-90852380D01*
X115857142Y-90852380D01*
X115761904Y-90900000D01*
X115714285Y-90947619D01*
X115666666Y-91042857D01*
X115666666Y-91280952D01*
X115714285Y-91376190D01*
X115761904Y-91423809D01*
X115857142Y-91471428D01*
X116047619Y-91471428D01*
X116142857Y-91423809D01*
X116190476Y-91376190D01*
X116238095Y-91280952D01*
G04 #@! TO.C,R120*
X117652380Y-96819047D02*
X117176190Y-97152380D01*
X117652380Y-97390476D02*
X116652380Y-97390476D01*
X116652380Y-97009523D01*
X116700000Y-96914285D01*
X116747619Y-96866666D01*
X116842857Y-96819047D01*
X116985714Y-96819047D01*
X117080952Y-96866666D01*
X117128571Y-96914285D01*
X117176190Y-97009523D01*
X117176190Y-97390476D01*
X117652380Y-95866666D02*
X117652380Y-96438095D01*
X117652380Y-96152380D02*
X116652380Y-96152380D01*
X116795238Y-96247619D01*
X116890476Y-96342857D01*
X116938095Y-96438095D01*
X116747619Y-95485714D02*
X116700000Y-95438095D01*
X116652380Y-95342857D01*
X116652380Y-95104761D01*
X116700000Y-95009523D01*
X116747619Y-94961904D01*
X116842857Y-94914285D01*
X116938095Y-94914285D01*
X117080952Y-94961904D01*
X117652380Y-95533333D01*
X117652380Y-94914285D01*
X116652380Y-94295238D02*
X116652380Y-94200000D01*
X116700000Y-94104761D01*
X116747619Y-94057142D01*
X116842857Y-94009523D01*
X117033333Y-93961904D01*
X117271428Y-93961904D01*
X117461904Y-94009523D01*
X117557142Y-94057142D01*
X117604761Y-94104761D01*
X117652380Y-94200000D01*
X117652380Y-94295238D01*
X117604761Y-94390476D01*
X117557142Y-94438095D01*
X117461904Y-94485714D01*
X117271428Y-94533333D01*
X117033333Y-94533333D01*
X116842857Y-94485714D01*
X116747619Y-94438095D01*
X116700000Y-94390476D01*
X116652380Y-94295238D01*
G04 #@! TO.C,R121*
X100980952Y-109552380D02*
X100647619Y-109076190D01*
X100409523Y-109552380D02*
X100409523Y-108552380D01*
X100790476Y-108552380D01*
X100885714Y-108600000D01*
X100933333Y-108647619D01*
X100980952Y-108742857D01*
X100980952Y-108885714D01*
X100933333Y-108980952D01*
X100885714Y-109028571D01*
X100790476Y-109076190D01*
X100409523Y-109076190D01*
X101933333Y-109552380D02*
X101361904Y-109552380D01*
X101647619Y-109552380D02*
X101647619Y-108552380D01*
X101552380Y-108695238D01*
X101457142Y-108790476D01*
X101361904Y-108838095D01*
X102314285Y-108647619D02*
X102361904Y-108600000D01*
X102457142Y-108552380D01*
X102695238Y-108552380D01*
X102790476Y-108600000D01*
X102838095Y-108647619D01*
X102885714Y-108742857D01*
X102885714Y-108838095D01*
X102838095Y-108980952D01*
X102266666Y-109552380D01*
X102885714Y-109552380D01*
X103838095Y-109552380D02*
X103266666Y-109552380D01*
X103552380Y-109552380D02*
X103552380Y-108552380D01*
X103457142Y-108695238D01*
X103361904Y-108790476D01*
X103266666Y-108838095D01*
G04 #@! TO.C,R122*
X92680952Y-45402380D02*
X92347619Y-44926190D01*
X92109523Y-45402380D02*
X92109523Y-44402380D01*
X92490476Y-44402380D01*
X92585714Y-44450000D01*
X92633333Y-44497619D01*
X92680952Y-44592857D01*
X92680952Y-44735714D01*
X92633333Y-44830952D01*
X92585714Y-44878571D01*
X92490476Y-44926190D01*
X92109523Y-44926190D01*
X93633333Y-45402380D02*
X93061904Y-45402380D01*
X93347619Y-45402380D02*
X93347619Y-44402380D01*
X93252380Y-44545238D01*
X93157142Y-44640476D01*
X93061904Y-44688095D01*
X94014285Y-44497619D02*
X94061904Y-44450000D01*
X94157142Y-44402380D01*
X94395238Y-44402380D01*
X94490476Y-44450000D01*
X94538095Y-44497619D01*
X94585714Y-44592857D01*
X94585714Y-44688095D01*
X94538095Y-44830952D01*
X93966666Y-45402380D01*
X94585714Y-45402380D01*
X94966666Y-44497619D02*
X95014285Y-44450000D01*
X95109523Y-44402380D01*
X95347619Y-44402380D01*
X95442857Y-44450000D01*
X95490476Y-44497619D01*
X95538095Y-44592857D01*
X95538095Y-44688095D01*
X95490476Y-44830952D01*
X94919047Y-45402380D01*
X95538095Y-45402380D01*
G04 #@! TO.C,R123*
X50652380Y-60719047D02*
X50176190Y-61052380D01*
X50652380Y-61290476D02*
X49652380Y-61290476D01*
X49652380Y-60909523D01*
X49700000Y-60814285D01*
X49747619Y-60766666D01*
X49842857Y-60719047D01*
X49985714Y-60719047D01*
X50080952Y-60766666D01*
X50128571Y-60814285D01*
X50176190Y-60909523D01*
X50176190Y-61290476D01*
X50652380Y-59766666D02*
X50652380Y-60338095D01*
X50652380Y-60052380D02*
X49652380Y-60052380D01*
X49795238Y-60147619D01*
X49890476Y-60242857D01*
X49938095Y-60338095D01*
X49747619Y-59385714D02*
X49700000Y-59338095D01*
X49652380Y-59242857D01*
X49652380Y-59004761D01*
X49700000Y-58909523D01*
X49747619Y-58861904D01*
X49842857Y-58814285D01*
X49938095Y-58814285D01*
X50080952Y-58861904D01*
X50652380Y-59433333D01*
X50652380Y-58814285D01*
X49652380Y-58480952D02*
X49652380Y-57861904D01*
X50033333Y-58195238D01*
X50033333Y-58052380D01*
X50080952Y-57957142D01*
X50128571Y-57909523D01*
X50223809Y-57861904D01*
X50461904Y-57861904D01*
X50557142Y-57909523D01*
X50604761Y-57957142D01*
X50652380Y-58052380D01*
X50652380Y-58338095D01*
X50604761Y-58433333D01*
X50557142Y-58480952D01*
G04 #@! TO.C,R124*
X78280952Y-68452380D02*
X77947619Y-67976190D01*
X77709523Y-68452380D02*
X77709523Y-67452380D01*
X78090476Y-67452380D01*
X78185714Y-67500000D01*
X78233333Y-67547619D01*
X78280952Y-67642857D01*
X78280952Y-67785714D01*
X78233333Y-67880952D01*
X78185714Y-67928571D01*
X78090476Y-67976190D01*
X77709523Y-67976190D01*
X79233333Y-68452380D02*
X78661904Y-68452380D01*
X78947619Y-68452380D02*
X78947619Y-67452380D01*
X78852380Y-67595238D01*
X78757142Y-67690476D01*
X78661904Y-67738095D01*
X79614285Y-67547619D02*
X79661904Y-67500000D01*
X79757142Y-67452380D01*
X79995238Y-67452380D01*
X80090476Y-67500000D01*
X80138095Y-67547619D01*
X80185714Y-67642857D01*
X80185714Y-67738095D01*
X80138095Y-67880952D01*
X79566666Y-68452380D01*
X80185714Y-68452380D01*
X81042857Y-67785714D02*
X81042857Y-68452380D01*
X80804761Y-67404761D02*
X80566666Y-68119047D01*
X81185714Y-68119047D01*
G04 #@! TO.C,R125*
X50602380Y-65744047D02*
X50126190Y-66077380D01*
X50602380Y-66315476D02*
X49602380Y-66315476D01*
X49602380Y-65934523D01*
X49650000Y-65839285D01*
X49697619Y-65791666D01*
X49792857Y-65744047D01*
X49935714Y-65744047D01*
X50030952Y-65791666D01*
X50078571Y-65839285D01*
X50126190Y-65934523D01*
X50126190Y-66315476D01*
X50602380Y-64791666D02*
X50602380Y-65363095D01*
X50602380Y-65077380D02*
X49602380Y-65077380D01*
X49745238Y-65172619D01*
X49840476Y-65267857D01*
X49888095Y-65363095D01*
X49697619Y-64410714D02*
X49650000Y-64363095D01*
X49602380Y-64267857D01*
X49602380Y-64029761D01*
X49650000Y-63934523D01*
X49697619Y-63886904D01*
X49792857Y-63839285D01*
X49888095Y-63839285D01*
X50030952Y-63886904D01*
X50602380Y-64458333D01*
X50602380Y-63839285D01*
X49602380Y-62934523D02*
X49602380Y-63410714D01*
X50078571Y-63458333D01*
X50030952Y-63410714D01*
X49983333Y-63315476D01*
X49983333Y-63077380D01*
X50030952Y-62982142D01*
X50078571Y-62934523D01*
X50173809Y-62886904D01*
X50411904Y-62886904D01*
X50507142Y-62934523D01*
X50554761Y-62982142D01*
X50602380Y-63077380D01*
X50602380Y-63315476D01*
X50554761Y-63410714D01*
X50507142Y-63458333D01*
G04 #@! TO.C,R126*
X50652380Y-70519047D02*
X50176190Y-70852380D01*
X50652380Y-71090476D02*
X49652380Y-71090476D01*
X49652380Y-70709523D01*
X49700000Y-70614285D01*
X49747619Y-70566666D01*
X49842857Y-70519047D01*
X49985714Y-70519047D01*
X50080952Y-70566666D01*
X50128571Y-70614285D01*
X50176190Y-70709523D01*
X50176190Y-71090476D01*
X50652380Y-69566666D02*
X50652380Y-70138095D01*
X50652380Y-69852380D02*
X49652380Y-69852380D01*
X49795238Y-69947619D01*
X49890476Y-70042857D01*
X49938095Y-70138095D01*
X49747619Y-69185714D02*
X49700000Y-69138095D01*
X49652380Y-69042857D01*
X49652380Y-68804761D01*
X49700000Y-68709523D01*
X49747619Y-68661904D01*
X49842857Y-68614285D01*
X49938095Y-68614285D01*
X50080952Y-68661904D01*
X50652380Y-69233333D01*
X50652380Y-68614285D01*
X49652380Y-67757142D02*
X49652380Y-67947619D01*
X49700000Y-68042857D01*
X49747619Y-68090476D01*
X49890476Y-68185714D01*
X50080952Y-68233333D01*
X50461904Y-68233333D01*
X50557142Y-68185714D01*
X50604761Y-68138095D01*
X50652380Y-68042857D01*
X50652380Y-67852380D01*
X50604761Y-67757142D01*
X50557142Y-67709523D01*
X50461904Y-67661904D01*
X50223809Y-67661904D01*
X50128571Y-67709523D01*
X50080952Y-67757142D01*
X50033333Y-67852380D01*
X50033333Y-68042857D01*
X50080952Y-68138095D01*
X50128571Y-68185714D01*
X50223809Y-68233333D01*
G04 #@! TO.C,SW101*
X70414285Y-116004761D02*
X70557142Y-116052380D01*
X70795238Y-116052380D01*
X70890476Y-116004761D01*
X70938095Y-115957142D01*
X70985714Y-115861904D01*
X70985714Y-115766666D01*
X70938095Y-115671428D01*
X70890476Y-115623809D01*
X70795238Y-115576190D01*
X70604761Y-115528571D01*
X70509523Y-115480952D01*
X70461904Y-115433333D01*
X70414285Y-115338095D01*
X70414285Y-115242857D01*
X70461904Y-115147619D01*
X70509523Y-115100000D01*
X70604761Y-115052380D01*
X70842857Y-115052380D01*
X70985714Y-115100000D01*
X71319047Y-115052380D02*
X71557142Y-116052380D01*
X71747619Y-115338095D01*
X71938095Y-116052380D01*
X72176190Y-115052380D01*
X73080952Y-116052380D02*
X72509523Y-116052380D01*
X72795238Y-116052380D02*
X72795238Y-115052380D01*
X72700000Y-115195238D01*
X72604761Y-115290476D01*
X72509523Y-115338095D01*
X73700000Y-115052380D02*
X73795238Y-115052380D01*
X73890476Y-115100000D01*
X73938095Y-115147619D01*
X73985714Y-115242857D01*
X74033333Y-115433333D01*
X74033333Y-115671428D01*
X73985714Y-115861904D01*
X73938095Y-115957142D01*
X73890476Y-116004761D01*
X73795238Y-116052380D01*
X73700000Y-116052380D01*
X73604761Y-116004761D01*
X73557142Y-115957142D01*
X73509523Y-115861904D01*
X73461904Y-115671428D01*
X73461904Y-115433333D01*
X73509523Y-115242857D01*
X73557142Y-115147619D01*
X73604761Y-115100000D01*
X73700000Y-115052380D01*
X74985714Y-116052380D02*
X74414285Y-116052380D01*
X74700000Y-116052380D02*
X74700000Y-115052380D01*
X74604761Y-115195238D01*
X74509523Y-115290476D01*
X74414285Y-115338095D01*
G04 #@! TO.C,U101*
D15*
X88828571Y-46961904D02*
X88828571Y-47609523D01*
X88866666Y-47685714D01*
X88904761Y-47723809D01*
X88980952Y-47761904D01*
X89133333Y-47761904D01*
X89209523Y-47723809D01*
X89247619Y-47685714D01*
X89285714Y-47609523D01*
X89285714Y-46961904D01*
X90085714Y-47761904D02*
X89628571Y-47761904D01*
X89857142Y-47761904D02*
X89857142Y-46961904D01*
X89780952Y-47076190D01*
X89704761Y-47152380D01*
X89628571Y-47190476D01*
X90580952Y-46961904D02*
X90657142Y-46961904D01*
X90733333Y-47000000D01*
X90771428Y-47038095D01*
X90809523Y-47114285D01*
X90847619Y-47266666D01*
X90847619Y-47457142D01*
X90809523Y-47609523D01*
X90771428Y-47685714D01*
X90733333Y-47723809D01*
X90657142Y-47761904D01*
X90580952Y-47761904D01*
X90504761Y-47723809D01*
X90466666Y-47685714D01*
X90428571Y-47609523D01*
X90390476Y-47457142D01*
X90390476Y-47266666D01*
X90428571Y-47114285D01*
X90466666Y-47038095D01*
X90504761Y-47000000D01*
X90580952Y-46961904D01*
X91609523Y-47761904D02*
X91152380Y-47761904D01*
X91380952Y-47761904D02*
X91380952Y-46961904D01*
X91304761Y-47076190D01*
X91228571Y-47152380D01*
X91152380Y-47190476D01*
G04 #@! TO.C,U102*
D14*
X72685714Y-57852380D02*
X72685714Y-58661904D01*
X72733333Y-58757142D01*
X72780952Y-58804761D01*
X72876190Y-58852380D01*
X73066666Y-58852380D01*
X73161904Y-58804761D01*
X73209523Y-58757142D01*
X73257142Y-58661904D01*
X73257142Y-57852380D01*
X74257142Y-58852380D02*
X73685714Y-58852380D01*
X73971428Y-58852380D02*
X73971428Y-57852380D01*
X73876190Y-57995238D01*
X73780952Y-58090476D01*
X73685714Y-58138095D01*
X74876190Y-57852380D02*
X74971428Y-57852380D01*
X75066666Y-57900000D01*
X75114285Y-57947619D01*
X75161904Y-58042857D01*
X75209523Y-58233333D01*
X75209523Y-58471428D01*
X75161904Y-58661904D01*
X75114285Y-58757142D01*
X75066666Y-58804761D01*
X74971428Y-58852380D01*
X74876190Y-58852380D01*
X74780952Y-58804761D01*
X74733333Y-58757142D01*
X74685714Y-58661904D01*
X74638095Y-58471428D01*
X74638095Y-58233333D01*
X74685714Y-58042857D01*
X74733333Y-57947619D01*
X74780952Y-57900000D01*
X74876190Y-57852380D01*
X75590476Y-57947619D02*
X75638095Y-57900000D01*
X75733333Y-57852380D01*
X75971428Y-57852380D01*
X76066666Y-57900000D01*
X76114285Y-57947619D01*
X76161904Y-58042857D01*
X76161904Y-58138095D01*
X76114285Y-58280952D01*
X75542857Y-58852380D01*
X76161904Y-58852380D01*
G04 #@! TO.C,U103*
X78485714Y-104052380D02*
X78485714Y-104861904D01*
X78533333Y-104957142D01*
X78580952Y-105004761D01*
X78676190Y-105052380D01*
X78866666Y-105052380D01*
X78961904Y-105004761D01*
X79009523Y-104957142D01*
X79057142Y-104861904D01*
X79057142Y-104052380D01*
X80057142Y-105052380D02*
X79485714Y-105052380D01*
X79771428Y-105052380D02*
X79771428Y-104052380D01*
X79676190Y-104195238D01*
X79580952Y-104290476D01*
X79485714Y-104338095D01*
X80676190Y-104052380D02*
X80771428Y-104052380D01*
X80866666Y-104100000D01*
X80914285Y-104147619D01*
X80961904Y-104242857D01*
X81009523Y-104433333D01*
X81009523Y-104671428D01*
X80961904Y-104861904D01*
X80914285Y-104957142D01*
X80866666Y-105004761D01*
X80771428Y-105052380D01*
X80676190Y-105052380D01*
X80580952Y-105004761D01*
X80533333Y-104957142D01*
X80485714Y-104861904D01*
X80438095Y-104671428D01*
X80438095Y-104433333D01*
X80485714Y-104242857D01*
X80533333Y-104147619D01*
X80580952Y-104100000D01*
X80676190Y-104052380D01*
X81342857Y-104052380D02*
X81961904Y-104052380D01*
X81628571Y-104433333D01*
X81771428Y-104433333D01*
X81866666Y-104480952D01*
X81914285Y-104528571D01*
X81961904Y-104623809D01*
X81961904Y-104861904D01*
X81914285Y-104957142D01*
X81866666Y-105004761D01*
X81771428Y-105052380D01*
X81485714Y-105052380D01*
X81390476Y-105004761D01*
X81342857Y-104957142D01*
G04 #@! TO.C,U104*
X85885714Y-73352380D02*
X85885714Y-74161904D01*
X85933333Y-74257142D01*
X85980952Y-74304761D01*
X86076190Y-74352380D01*
X86266666Y-74352380D01*
X86361904Y-74304761D01*
X86409523Y-74257142D01*
X86457142Y-74161904D01*
X86457142Y-73352380D01*
X87457142Y-74352380D02*
X86885714Y-74352380D01*
X87171428Y-74352380D02*
X87171428Y-73352380D01*
X87076190Y-73495238D01*
X86980952Y-73590476D01*
X86885714Y-73638095D01*
X88076190Y-73352380D02*
X88171428Y-73352380D01*
X88266666Y-73400000D01*
X88314285Y-73447619D01*
X88361904Y-73542857D01*
X88409523Y-73733333D01*
X88409523Y-73971428D01*
X88361904Y-74161904D01*
X88314285Y-74257142D01*
X88266666Y-74304761D01*
X88171428Y-74352380D01*
X88076190Y-74352380D01*
X87980952Y-74304761D01*
X87933333Y-74257142D01*
X87885714Y-74161904D01*
X87838095Y-73971428D01*
X87838095Y-73733333D01*
X87885714Y-73542857D01*
X87933333Y-73447619D01*
X87980952Y-73400000D01*
X88076190Y-73352380D01*
X89266666Y-73685714D02*
X89266666Y-74352380D01*
X89028571Y-73304761D02*
X88790476Y-74019047D01*
X89409523Y-74019047D01*
G04 #@! TO.C,U106*
X99485714Y-90952380D02*
X99485714Y-91761904D01*
X99533333Y-91857142D01*
X99580952Y-91904761D01*
X99676190Y-91952380D01*
X99866666Y-91952380D01*
X99961904Y-91904761D01*
X100009523Y-91857142D01*
X100057142Y-91761904D01*
X100057142Y-90952380D01*
X101057142Y-91952380D02*
X100485714Y-91952380D01*
X100771428Y-91952380D02*
X100771428Y-90952380D01*
X100676190Y-91095238D01*
X100580952Y-91190476D01*
X100485714Y-91238095D01*
X101676190Y-90952380D02*
X101771428Y-90952380D01*
X101866666Y-91000000D01*
X101914285Y-91047619D01*
X101961904Y-91142857D01*
X102009523Y-91333333D01*
X102009523Y-91571428D01*
X101961904Y-91761904D01*
X101914285Y-91857142D01*
X101866666Y-91904761D01*
X101771428Y-91952380D01*
X101676190Y-91952380D01*
X101580952Y-91904761D01*
X101533333Y-91857142D01*
X101485714Y-91761904D01*
X101438095Y-91571428D01*
X101438095Y-91333333D01*
X101485714Y-91142857D01*
X101533333Y-91047619D01*
X101580952Y-91000000D01*
X101676190Y-90952380D01*
X102866666Y-90952380D02*
X102676190Y-90952380D01*
X102580952Y-91000000D01*
X102533333Y-91047619D01*
X102438095Y-91190476D01*
X102390476Y-91380952D01*
X102390476Y-91761904D01*
X102438095Y-91857142D01*
X102485714Y-91904761D01*
X102580952Y-91952380D01*
X102771428Y-91952380D01*
X102866666Y-91904761D01*
X102914285Y-91857142D01*
X102961904Y-91761904D01*
X102961904Y-91523809D01*
X102914285Y-91428571D01*
X102866666Y-91380952D01*
X102771428Y-91333333D01*
X102580952Y-91333333D01*
X102485714Y-91380952D01*
X102438095Y-91428571D01*
X102390476Y-91523809D01*
G04 #@! TO.C,Y101*
X67871428Y-75676190D02*
X67871428Y-76152380D01*
X67538095Y-75152380D02*
X67871428Y-75676190D01*
X68204761Y-75152380D01*
X69061904Y-76152380D02*
X68490476Y-76152380D01*
X68776190Y-76152380D02*
X68776190Y-75152380D01*
X68680952Y-75295238D01*
X68585714Y-75390476D01*
X68490476Y-75438095D01*
X69680952Y-75152380D02*
X69776190Y-75152380D01*
X69871428Y-75200000D01*
X69919047Y-75247619D01*
X69966666Y-75342857D01*
X70014285Y-75533333D01*
X70014285Y-75771428D01*
X69966666Y-75961904D01*
X69919047Y-76057142D01*
X69871428Y-76104761D01*
X69776190Y-76152380D01*
X69680952Y-76152380D01*
X69585714Y-76104761D01*
X69538095Y-76057142D01*
X69490476Y-75961904D01*
X69442857Y-75771428D01*
X69442857Y-75533333D01*
X69490476Y-75342857D01*
X69538095Y-75247619D01*
X69585714Y-75200000D01*
X69680952Y-75152380D01*
X70966666Y-76152380D02*
X70395238Y-76152380D01*
X70680952Y-76152380D02*
X70680952Y-75152380D01*
X70585714Y-75295238D01*
X70490476Y-75390476D01*
X70395238Y-75438095D01*
G04 #@! TD*
M02*
